<svg xmlns="http://www.w3.org/2000/svg" xmlns:xlink="http://www.w3.org/1999/xlink" width="940" zoomAndPan="magnify" viewBox="0 0 705 591.000005" height="788" preserveAspectRatio="xMidYMid meet" version="1.0"><defs><g/><clipPath id="dd671e71f1"><path d="M 1 186.777344 L 206 186.777344 L 206 403.164062 L 1 403.164062 Z M 1 186.777344 " clip-rule="nonzero"/></clipPath><clipPath id="0dba4adc79"><path d="M 118.875 287.589844 L 26.96875 287.589844 C 23.40625 287.589844 20.828125 284.183594 21.789062 280.746094 L 47.019531 190.714844 C 47.671875 188.390625 49.789062 186.785156 52.203125 186.785156 L 144.105469 186.785156 C 147.671875 186.785156 150.25 190.191406 149.285156 193.625 L 124.054688 283.660156 C 123.402344 285.984375 121.285156 287.589844 118.875 287.589844 Z M 59.179688 355.550781 L 72.171875 309.191406 C 73.136719 305.757812 70.554688 302.351562 66.992188 302.351562 L 19.75 302.351562 C 17.335938 302.351562 15.21875 303.957031 14.566406 306.28125 L 1.578125 352.636719 C 0.613281 356.074219 3.191406 359.480469 6.757812 359.480469 L 54 359.480469 C 56.414062 359.480469 58.53125 357.875 59.179688 355.550781 Z M 83.089844 306.28125 L 57.855469 396.3125 C 56.894531 399.75 59.472656 403.15625 63.039062 403.15625 L 154.941406 403.15625 C 157.355469 403.15625 159.472656 401.550781 160.121094 399.226562 L 185.355469 309.191406 C 186.316406 305.757812 183.738281 302.351562 180.171875 302.351562 L 88.269531 302.351562 C 85.855469 302.351562 83.738281 303.957031 83.089844 306.28125 Z M 147.960938 234.390625 L 134.972656 280.746094 C 134.007812 284.183594 136.585938 287.589844 140.152344 287.589844 L 187.394531 287.589844 C 189.808594 287.589844 191.925781 285.984375 192.574219 283.660156 L 205.566406 237.300781 C 206.53125 233.867188 203.949219 230.457031 200.386719 230.457031 L 153.144531 230.457031 C 150.730469 230.457031 148.613281 232.066406 147.960938 234.390625 Z M 147.960938 234.390625 " clip-rule="nonzero"/></clipPath><linearGradient x1="114.29645" gradientTransform="matrix(0.432203, 0, 0, 0.432747, 1.373402, 186.783495)" y1="-47.633951" x2="358.610871" gradientUnits="userSpaceOnUse" y2="547.607268" id="274ca7f209"><stop stop-opacity="1" stop-color="rgb(27.49939%, 54.098511%, 59.199524%)" offset="0"/><stop stop-opacity="1" stop-color="rgb(27.49939%, 54.098511%, 59.199524%)" offset="0.0625"/><stop stop-opacity="1" stop-color="rgb(27.461243%, 54.127502%, 59.205627%)" offset="0.09375"/><stop stop-opacity="1" stop-color="rgb(27.31781%, 54.23584%, 59.231567%)" offset="0.101562"/><stop stop-opacity="1" stop-color="rgb(27.110291%, 54.391479%, 59.268188%)" offset="0.109375"/><stop stop-opacity="1" stop-color="rgb(26.902771%, 54.548645%, 59.30481%)" offset="0.117188"/><stop stop-opacity="1" stop-color="rgb(26.695251%, 54.705811%, 59.341431%)" offset="0.125"/><stop stop-opacity="1" stop-color="rgb(26.487732%, 54.862976%, 59.378052%)" offset="0.132812"/><stop stop-opacity="1" stop-color="rgb(26.280212%, 55.020142%, 59.416199%)" offset="0.140625"/><stop stop-opacity="1" stop-color="rgb(26.072693%, 55.177307%, 59.45282%)" offset="0.148438"/><stop stop-opacity="1" stop-color="rgb(25.865173%, 55.334473%, 59.489441%)" offset="0.15625"/><stop stop-opacity="1" stop-color="rgb(25.657654%, 55.491638%, 59.526062%)" offset="0.164062"/><stop stop-opacity="1" stop-color="rgb(25.450134%, 55.648804%, 59.562683%)" offset="0.171875"/><stop stop-opacity="1" stop-color="rgb(25.242615%, 55.805969%, 59.60083%)" offset="0.179688"/><stop stop-opacity="1" stop-color="rgb(25.035095%, 55.963135%, 59.637451%)" offset="0.1875"/><stop stop-opacity="1" stop-color="rgb(24.827576%, 56.1203%, 59.674072%)" offset="0.195313"/><stop stop-opacity="1" stop-color="rgb(24.61853%, 56.277466%, 59.710693%)" offset="0.203125"/><stop stop-opacity="1" stop-color="rgb(24.411011%, 56.433105%, 59.747314%)" offset="0.210938"/><stop stop-opacity="1" stop-color="rgb(24.203491%, 56.590271%, 59.783936%)" offset="0.21875"/><stop stop-opacity="1" stop-color="rgb(23.995972%, 56.747437%, 59.822083%)" offset="0.226563"/><stop stop-opacity="1" stop-color="rgb(23.788452%, 56.904602%, 59.858704%)" offset="0.234375"/><stop stop-opacity="1" stop-color="rgb(23.580933%, 57.061768%, 59.895325%)" offset="0.242188"/><stop stop-opacity="1" stop-color="rgb(23.373413%, 57.218933%, 59.931946%)" offset="0.25"/><stop stop-opacity="1" stop-color="rgb(23.165894%, 57.376099%, 59.968567%)" offset="0.257812"/><stop stop-opacity="1" stop-color="rgb(22.958374%, 57.533264%, 60.005188%)" offset="0.265625"/><stop stop-opacity="1" stop-color="rgb(22.750854%, 57.69043%, 60.043335%)" offset="0.273438"/><stop stop-opacity="1" stop-color="rgb(22.543335%, 57.847595%, 60.079956%)" offset="0.281113"/><stop stop-opacity="1" stop-color="rgb(22.439575%, 57.926941%, 60.098267%)" offset="0.28125"/><stop stop-opacity="1" stop-color="rgb(22.335815%, 58.004761%, 60.116577%)" offset="0.289063"/><stop stop-opacity="1" stop-color="rgb(22.128296%, 58.161926%, 60.153198%)" offset="0.296875"/><stop stop-opacity="1" stop-color="rgb(21.91925%, 58.317566%, 60.189819%)" offset="0.304688"/><stop stop-opacity="1" stop-color="rgb(21.711731%, 58.474731%, 60.227966%)" offset="0.3125"/><stop stop-opacity="1" stop-color="rgb(21.504211%, 58.631897%, 60.264587%)" offset="0.320312"/><stop stop-opacity="1" stop-color="rgb(21.296692%, 58.789062%, 60.301208%)" offset="0.328125"/><stop stop-opacity="1" stop-color="rgb(21.089172%, 58.946228%, 60.33783%)" offset="0.335938"/><stop stop-opacity="1" stop-color="rgb(20.881653%, 59.103394%, 60.374451%)" offset="0.34375"/><stop stop-opacity="1" stop-color="rgb(20.674133%, 59.260559%, 60.411072%)" offset="0.351563"/><stop stop-opacity="1" stop-color="rgb(20.466614%, 59.417725%, 60.449219%)" offset="0.359375"/><stop stop-opacity="1" stop-color="rgb(20.259094%, 59.57489%, 60.48584%)" offset="0.367188"/><stop stop-opacity="1" stop-color="rgb(20.051575%, 59.732056%, 60.522461%)" offset="0.375"/><stop stop-opacity="1" stop-color="rgb(19.844055%, 59.889221%, 60.559082%)" offset="0.382813"/><stop stop-opacity="1" stop-color="rgb(19.636536%, 60.046387%, 60.595703%)" offset="0.390625"/><stop stop-opacity="1" stop-color="rgb(19.429016%, 60.203552%, 60.632324%)" offset="0.398438"/><stop stop-opacity="1" stop-color="rgb(19.219971%, 60.359192%, 60.670471%)" offset="0.40625"/><stop stop-opacity="1" stop-color="rgb(19.012451%, 60.516357%, 60.707092%)" offset="0.414063"/><stop stop-opacity="1" stop-color="rgb(18.804932%, 60.673523%, 60.743713%)" offset="0.421875"/><stop stop-opacity="1" stop-color="rgb(18.597412%, 60.830688%, 60.780334%)" offset="0.429688"/><stop stop-opacity="1" stop-color="rgb(18.389893%, 60.987854%, 60.816956%)" offset="0.4375"/><stop stop-opacity="1" stop-color="rgb(18.182373%, 61.14502%, 60.855103%)" offset="0.445313"/><stop stop-opacity="1" stop-color="rgb(17.974854%, 61.302185%, 60.891724%)" offset="0.453125"/><stop stop-opacity="1" stop-color="rgb(17.767334%, 61.459351%, 60.928345%)" offset="0.460938"/><stop stop-opacity="1" stop-color="rgb(17.559814%, 61.616516%, 60.964966%)" offset="0.46875"/><stop stop-opacity="1" stop-color="rgb(17.352295%, 61.773682%, 61.001587%)" offset="0.476563"/><stop stop-opacity="1" stop-color="rgb(17.144775%, 61.930847%, 61.038208%)" offset="0.484375"/><stop stop-opacity="1" stop-color="rgb(16.937256%, 62.088013%, 61.076355%)" offset="0.492188"/><stop stop-opacity="1" stop-color="rgb(16.729736%, 62.245178%, 61.112976%)" offset="0.5"/><stop stop-opacity="1" stop-color="rgb(16.520691%, 62.400818%, 61.149597%)" offset="0.507813"/><stop stop-opacity="1" stop-color="rgb(16.313171%, 62.557983%, 61.186218%)" offset="0.515625"/><stop stop-opacity="1" stop-color="rgb(16.105652%, 62.715149%, 61.222839%)" offset="0.523438"/><stop stop-opacity="1" stop-color="rgb(15.898132%, 62.872314%, 61.25946%)" offset="0.53125"/><stop stop-opacity="1" stop-color="rgb(15.690613%, 63.02948%, 61.297607%)" offset="0.539062"/><stop stop-opacity="1" stop-color="rgb(15.483093%, 63.186646%, 61.334229%)" offset="0.546875"/><stop stop-opacity="1" stop-color="rgb(15.275574%, 63.343811%, 61.37085%)" offset="0.554688"/><stop stop-opacity="1" stop-color="rgb(15.068054%, 63.500977%, 61.407471%)" offset="0.5625"/><stop stop-opacity="1" stop-color="rgb(14.860535%, 63.658142%, 61.444092%)" offset="0.570313"/><stop stop-opacity="1" stop-color="rgb(14.653015%, 63.815308%, 61.480713%)" offset="0.578125"/><stop stop-opacity="1" stop-color="rgb(14.445496%, 63.972473%, 61.51886%)" offset="0.585938"/><stop stop-opacity="1" stop-color="rgb(14.237976%, 64.129639%, 61.555481%)" offset="0.59375"/><stop stop-opacity="1" stop-color="rgb(14.030457%, 64.286804%, 61.592102%)" offset="0.601563"/><stop stop-opacity="1" stop-color="rgb(13.821411%, 64.442444%, 61.628723%)" offset="0.609375"/><stop stop-opacity="1" stop-color="rgb(13.613892%, 64.599609%, 61.665344%)" offset="0.617188"/><stop stop-opacity="1" stop-color="rgb(13.406372%, 64.756775%, 61.703491%)" offset="0.625"/><stop stop-opacity="1" stop-color="rgb(13.198853%, 64.91394%, 61.740112%)" offset="0.632813"/><stop stop-opacity="1" stop-color="rgb(12.991333%, 65.071106%, 61.776733%)" offset="0.640625"/><stop stop-opacity="1" stop-color="rgb(12.783813%, 65.228271%, 61.813354%)" offset="0.648438"/><stop stop-opacity="1" stop-color="rgb(12.576294%, 65.385437%, 61.849976%)" offset="0.65625"/><stop stop-opacity="1" stop-color="rgb(12.368774%, 65.542603%, 61.886597%)" offset="0.664063"/><stop stop-opacity="1" stop-color="rgb(12.161255%, 65.699768%, 61.924744%)" offset="0.671875"/><stop stop-opacity="1" stop-color="rgb(11.953735%, 65.856934%, 61.961365%)" offset="0.679688"/><stop stop-opacity="1" stop-color="rgb(11.746216%, 66.014099%, 61.997986%)" offset="0.6875"/><stop stop-opacity="1" stop-color="rgb(11.538696%, 66.171265%, 62.034607%)" offset="0.695313"/><stop stop-opacity="1" stop-color="rgb(11.331177%, 66.326904%, 62.071228%)" offset="0.703125"/><stop stop-opacity="1" stop-color="rgb(11.122131%, 66.48407%, 62.107849%)" offset="0.710938"/><stop stop-opacity="1" stop-color="rgb(10.914612%, 66.641235%, 62.145996%)" offset="0.71875"/><stop stop-opacity="1" stop-color="rgb(10.707092%, 66.798401%, 62.182617%)" offset="0.718887"/><stop stop-opacity="1" stop-color="rgb(10.603333%, 66.877747%, 62.200928%)" offset="0.726562"/><stop stop-opacity="1" stop-color="rgb(10.499573%, 66.955566%, 62.219238%)" offset="0.734375"/><stop stop-opacity="1" stop-color="rgb(10.292053%, 67.112732%, 62.255859%)" offset="0.742188"/><stop stop-opacity="1" stop-color="rgb(10.084534%, 67.269897%, 62.29248%)" offset="0.75"/><stop stop-opacity="1" stop-color="rgb(9.877014%, 67.427063%, 62.330627%)" offset="0.757813"/><stop stop-opacity="1" stop-color="rgb(9.669495%, 67.584229%, 62.367249%)" offset="0.765625"/><stop stop-opacity="1" stop-color="rgb(9.461975%, 67.741394%, 62.40387%)" offset="0.773438"/><stop stop-opacity="1" stop-color="rgb(9.254456%, 67.89856%, 62.440491%)" offset="0.78125"/><stop stop-opacity="1" stop-color="rgb(9.046936%, 68.055725%, 62.477112%)" offset="0.789062"/><stop stop-opacity="1" stop-color="rgb(8.839417%, 68.212891%, 62.513733%)" offset="0.796875"/><stop stop-opacity="1" stop-color="rgb(8.631897%, 68.36853%, 62.55188%)" offset="0.804688"/><stop stop-opacity="1" stop-color="rgb(8.422852%, 68.525696%, 62.588501%)" offset="0.8125"/><stop stop-opacity="1" stop-color="rgb(8.215332%, 68.682861%, 62.625122%)" offset="0.820312"/><stop stop-opacity="1" stop-color="rgb(8.007812%, 68.840027%, 62.661743%)" offset="0.828125"/><stop stop-opacity="1" stop-color="rgb(7.850647%, 68.959045%, 62.689209%)" offset="0.84375"/><stop stop-opacity="1" stop-color="rgb(7.798767%, 68.998718%, 62.69989%)" offset="0.875"/><stop stop-opacity="1" stop-color="rgb(7.798767%, 68.998718%, 62.69989%)" offset="1"/></linearGradient></defs><g clip-path="url(#dd671e71f1)"><g clip-path="url(#0dba4adc79)"><path fill="url(#274ca7f209)" d="M 0.613281 186.785156 L 0.613281 403.15625 L 206.496094 403.15625 L 206.496094 186.785156 Z M 0.613281 186.785156 " fill-rule="nonzero"/></g></g><g fill="#5b3030" fill-opacity="1"><g transform="translate(243.327544, 324.296731)"><g><path d="M 4.300781 0 L 16.023438 0 L 16.023438 -34 L 23.839844 -13.386719 L 29.113281 -13.386719 L 36.929688 -34 L 36.929688 0 L 48.65625 0 L 48.65625 -60.378906 L 35.855469 -60.378906 L 26.476562 -34.585938 L 17.097656 -60.378906 L 4.300781 -60.378906 Z M 4.300781 0 "/></g></g></g><g fill="#5b3030" fill-opacity="1"><g transform="translate(293.24351, 324.296731)"><g><path d="M 16.316406 0.78125 C 19.246094 0.78125 22.667969 0.488281 26.671875 -3.125 L 27.746094 0 L 37.515625 0 L 37.515625 -44.941406 L 27.746094 -44.941406 L 26.476562 -41.425781 C 22.277344 -45.429688 19.050781 -45.625 16.316406 -45.625 C 9.476562 -45.625 3.808594 -40.058594 3.808594 -33.414062 L 3.808594 -11.332031 C 3.808594 -4.691406 9.476562 0.78125 16.316406 0.78125 Z M 20.613281 -8.988281 C 17.976562 -8.988281 15.632812 -11.332031 15.632812 -14.070312 L 15.632812 -30.679688 C 15.632812 -33.609375 17.976562 -35.855469 20.613281 -35.855469 C 23.644531 -35.855469 25.792969 -33.609375 25.792969 -30.679688 L 25.792969 -14.070312 C 25.792969 -11.332031 23.644531 -8.988281 20.613281 -8.988281 Z M 20.613281 -8.988281 "/></g></g></g><g fill="#5b3030" fill-opacity="1"><g transform="translate(332.023342, 324.296731)"><g><path d="M 21.296875 0 L 26.574219 0 L 26.574219 -9.769531 L 24.71875 -9.769531 C 19.441406 -10.0625 18.757812 -12.40625 18.757812 -16.023438 L 18.757812 -35.464844 L 26.574219 -35.464844 L 26.574219 -44.941406 L 18.757812 -44.941406 L 18.757812 -57.449219 L 7.035156 -57.449219 L 7.035156 -44.941406 L 0.878906 -44.941406 L 0.878906 -35.5625 L 7.035156 -35.5625 L 7.035156 -16.21875 C 7.035156 -3.222656 12.503906 0 21.296875 0 Z M 21.296875 0 "/></g></g></g><g fill="#5b3030" fill-opacity="1"><g transform="translate(357.908693, 324.296731)"><g><path d="M 20.515625 0.683594 C 28.820312 0.683594 36.148438 -4.101562 36.929688 -13.386719 L 25.792969 -13.386719 C 25.109375 -10.453125 22.863281 -9.085938 20.515625 -9.085938 C 17.488281 -9.085938 15.535156 -11.332031 15.535156 -14.167969 L 15.535156 -18.855469 L 37.027344 -18.855469 L 37.027344 -29.699219 C 37.027344 -38.789062 30.191406 -45.625 20.515625 -45.625 C 10.746094 -45.625 3.808594 -38.789062 3.808594 -29.699219 L 3.808594 -14.460938 C 3.808594 -5.472656 11.527344 0.683594 20.515625 0.683594 Z M 15.535156 -27.648438 L 15.535156 -30.777344 C 15.535156 -33.609375 17.390625 -35.855469 20.417969 -35.855469 C 23.351562 -35.855469 25.304688 -33.609375 25.304688 -30.777344 L 25.304688 -27.648438 Z M 15.535156 -27.648438 "/></g></g></g><g fill="#5b3030" fill-opacity="1"><g transform="translate(395.711657, 324.296731)"><g><path d="M 4.300781 0 L 16.023438 0 L 16.023438 -24.523438 C 16.023438 -33.316406 23.058594 -35.855469 26.769531 -35.855469 L 29.015625 -35.855469 L 29.015625 -45.527344 L 27.160156 -45.527344 C 22.960938 -45.527344 18.660156 -44.648438 15.339844 -40.644531 L 14.070312 -44.941406 L 4.300781 -44.941406 Z M 4.300781 0 "/></g></g></g><g fill="#5b3030" fill-opacity="1"><g transform="translate(422.573836, 324.296731)"><g><path d="M 4.300781 -49.4375 L 16.023438 -49.4375 L 16.023438 -62.039062 L 4.300781 -62.039062 Z M 4.300781 0 L 16.023438 0 L 16.023438 -44.941406 L 4.300781 -44.941406 Z M 4.300781 0 "/></g></g></g><g fill="#5b3030" fill-opacity="1"><g transform="translate(439.862839, 324.296731)"><g><path d="M 16.316406 0.78125 C 19.246094 0.78125 22.667969 0.488281 26.671875 -3.125 L 27.746094 0 L 37.515625 0 L 37.515625 -44.941406 L 27.746094 -44.941406 L 26.476562 -41.425781 C 22.277344 -45.429688 19.050781 -45.625 16.316406 -45.625 C 9.476562 -45.625 3.808594 -40.058594 3.808594 -33.414062 L 3.808594 -11.332031 C 3.808594 -4.691406 9.476562 0.78125 16.316406 0.78125 Z M 20.613281 -8.988281 C 17.976562 -8.988281 15.632812 -11.332031 15.632812 -14.070312 L 15.632812 -30.679688 C 15.632812 -33.609375 17.976562 -35.855469 20.613281 -35.855469 C 23.644531 -35.855469 25.792969 -33.609375 25.792969 -30.679688 L 25.792969 -14.070312 C 25.792969 -11.332031 23.644531 -8.988281 20.613281 -8.988281 Z M 20.613281 -8.988281 "/></g></g></g><g fill="#5b3030" fill-opacity="1"><g transform="translate(478.659473, 324.296731)"><g><path d="M 6.546875 0 L 12.210938 0 C 12.898438 0 13.582031 -0.683594 13.582031 -1.367188 L 13.582031 -24.425781 L 25.695312 -24.425781 C 26.28125 -24.425781 26.867188 -25.011719 26.867188 -25.695312 L 26.867188 -30.777344 C 26.867188 -31.363281 26.28125 -31.949219 25.695312 -31.949219 L 13.582031 -31.949219 L 13.582031 -52.855469 L 30.679688 -52.855469 C 31.265625 -52.855469 31.851562 -53.441406 31.851562 -54.125 L 31.851562 -59.207031 C 31.851562 -59.792969 31.265625 -60.378906 30.679688 -60.378906 L 6.546875 -60.378906 C 5.765625 -60.378906 5.082031 -59.695312 5.082031 -59.011719 L 5.082031 -1.367188 C 5.082031 -0.683594 5.765625 0 6.546875 0 Z M 6.546875 0 "/></g></g></g><g fill="#5b3030" fill-opacity="1"><g transform="translate(508.159153, 324.296731)"><g><path d="M 18.074219 0.488281 C 20.515625 0.488281 23.351562 0.488281 28.332031 -3.125 L 28.332031 -1.367188 C 28.332031 -0.683594 29.015625 0 29.796875 0 L 35.464844 0 C 36.148438 0 36.832031 -0.683594 36.832031 -1.367188 L 36.832031 -43.574219 C 36.832031 -44.257812 36.148438 -44.941406 35.464844 -44.941406 L 29.796875 -44.941406 C 29.015625 -44.941406 28.332031 -44.257812 28.332031 -43.574219 L 28.332031 -41.816406 C 23.351562 -45.429688 20.515625 -45.429688 18.074219 -45.429688 C 10.257812 -45.429688 4.59375 -40.9375 4.59375 -31.363281 L 4.59375 -13.582031 C 4.59375 -4.003906 10.257812 0.488281 18.074219 0.488281 Z M 20.515625 -7.035156 C 16.707031 -7.035156 13.09375 -9.574219 13.09375 -14.65625 L 13.09375 -30.289062 C 13.09375 -35.367188 16.707031 -37.90625 20.515625 -37.90625 C 25.109375 -37.90625 28.332031 -35.171875 28.332031 -30.289062 L 28.332031 -14.65625 C 28.332031 -9.769531 25.109375 -7.035156 20.515625 -7.035156 Z M 20.515625 -7.035156 "/></g></g></g><g fill="#5b3030" fill-opacity="1"><g transform="translate(547.03666, 324.296731)"><g><path d="M 20.417969 0.488281 C 29.015625 0.488281 36.441406 -5.082031 36.636719 -13.484375 C 36.636719 -14.167969 35.953125 -14.851562 35.269531 -14.851562 L 29.601562 -14.851562 C 28.820312 -14.851562 28.136719 -14.167969 28.136719 -13.484375 C 27.550781 -9.671875 24.328125 -7.035156 20.417969 -7.035156 C 16.121094 -7.035156 13.09375 -10.355469 13.09375 -14.753906 L 13.09375 -30.386719 C 13.09375 -34.683594 16.121094 -37.90625 20.417969 -37.90625 C 24.328125 -37.90625 27.453125 -35.269531 28.039062 -31.65625 C 28.039062 -30.972656 28.722656 -30.289062 29.503906 -30.289062 L 35.171875 -30.289062 C 35.855469 -30.289062 36.539062 -30.972656 36.539062 -31.65625 C 35.757812 -39.570312 28.917969 -45.429688 20.417969 -45.429688 C 11.332031 -45.429688 4.59375 -38.789062 4.59375 -30.09375 L 4.59375 -13.875 C 4.59375 -5.277344 11.722656 0.488281 20.417969 0.488281 Z M 20.417969 0.488281 "/></g></g></g><g fill="#5b3030" fill-opacity="1"><g transform="translate(584.253493, 324.296731)"><g><path d="M 22.082031 0 L 25.011719 0 C 25.597656 0 26.183594 -0.585938 26.183594 -1.171875 L 26.183594 -6.253906 C 26.183594 -6.9375 25.597656 -7.523438 25.011719 -7.523438 L 24.621094 -7.523438 C 18.269531 -7.523438 17.292969 -11.527344 17.292969 -16.21875 L 17.292969 -37.417969 L 25.011719 -37.417969 C 25.597656 -37.417969 26.183594 -38.003906 26.183594 -38.691406 L 26.183594 -43.769531 C 26.183594 -44.355469 25.597656 -44.941406 25.011719 -44.941406 L 17.292969 -44.941406 L 17.292969 -56.472656 C 17.292969 -57.15625 16.609375 -57.839844 15.925781 -57.839844 L 10.257812 -57.839844 C 9.476562 -57.839844 8.792969 -57.15625 8.792969 -56.472656 L 8.792969 -44.941406 L 2.832031 -44.941406 C 2.246094 -44.941406 1.660156 -44.355469 1.660156 -43.769531 L 1.660156 -38.691406 C 1.660156 -38.003906 2.246094 -37.417969 2.832031 -37.417969 L 8.792969 -37.417969 L 8.792969 -15.535156 C 8.792969 -3.027344 13.875 0 22.082031 0 Z M 22.082031 0 "/></g></g></g><g fill="#5b3030" fill-opacity="1"><g transform="translate(610.529584, 324.296731)"><g><path d="M 6.546875 -48.753906 L 12.210938 -48.753906 C 12.898438 -48.753906 13.582031 -49.4375 13.582031 -50.121094 L 13.582031 -58.328125 C 13.582031 -59.011719 12.898438 -59.695312 12.210938 -59.695312 L 6.546875 -59.695312 C 5.765625 -59.695312 5.082031 -59.011719 5.082031 -58.328125 L 5.082031 -50.121094 C 5.082031 -49.4375 5.765625 -48.753906 6.546875 -48.753906 Z M 6.546875 0 L 12.210938 0 C 12.898438 0 13.582031 -0.683594 13.582031 -1.367188 L 13.582031 -43.574219 C 13.582031 -44.257812 12.898438 -44.941406 12.210938 -44.941406 L 6.546875 -44.941406 C 5.765625 -44.941406 5.082031 -44.257812 5.082031 -43.574219 L 5.082031 -1.367188 C 5.082031 -0.683594 5.765625 0 6.546875 0 Z M 6.546875 0 "/></g></g></g><g fill="#5b3030" fill-opacity="1"><g transform="translate(626.157956, 324.296731)"><g><path d="M 20.417969 0.488281 C 29.113281 0.488281 36.246094 -5.277344 36.246094 -13.875 L 36.246094 -30.09375 C 36.246094 -38.789062 29.503906 -45.429688 20.417969 -45.429688 C 11.332031 -45.429688 4.59375 -38.789062 4.59375 -30.09375 L 4.59375 -13.875 C 4.59375 -5.277344 11.722656 0.488281 20.417969 0.488281 Z M 20.417969 -7.035156 C 16.121094 -7.035156 13.09375 -10.355469 13.09375 -14.753906 L 13.09375 -30.386719 C 13.09375 -34.683594 16.121094 -37.90625 20.417969 -37.90625 C 24.71875 -37.90625 27.746094 -34.683594 27.746094 -30.386719 L 27.746094 -14.753906 C 27.746094 -10.355469 24.71875 -7.035156 20.417969 -7.035156 Z M 20.417969 -7.035156 "/></g></g></g><g fill="#5b3030" fill-opacity="1"><g transform="translate(663.960919, 324.296731)"><g><path d="M 6.449219 0 L 12.113281 0 C 12.898438 0 13.582031 -0.683594 13.582031 -1.367188 L 13.582031 -30.289062 C 13.582031 -35.171875 16.804688 -37.90625 21.398438 -37.90625 C 25.207031 -37.90625 28.820312 -35.367188 28.820312 -30.289062 L 28.820312 -1.367188 C 28.820312 -0.683594 29.503906 0 30.191406 0 L 35.855469 0 C 36.636719 0 37.320312 -0.683594 37.320312 -1.367188 L 37.320312 -31.363281 C 37.320312 -40.9375 31.65625 -45.429688 23.839844 -45.429688 C 21.398438 -45.429688 18.5625 -45.429688 13.582031 -41.816406 L 13.582031 -43.574219 C 13.582031 -44.257812 12.898438 -44.941406 12.113281 -44.941406 L 6.449219 -44.941406 C 5.765625 -44.941406 5.082031 -44.257812 5.082031 -43.574219 L 5.082031 -1.367188 C 5.082031 -0.683594 5.765625 0 6.449219 0 Z M 6.449219 0 "/></g></g></g></svg>