<svg xmlns="http://www.w3.org/2000/svg" xmlns:xlink="http://www.w3.org/1999/xlink" width="1400" zoomAndPan="magnify" viewBox="0 0 1050 1049.999947" height="1400" preserveAspectRatio="xMidYMid meet" version="1.0"><defs><g/><clipPath id="id1"><path d="M 27.179688 25.246094 L 82.679688 25.246094 L 82.679688 80.746094 L 27.179688 80.746094 Z M 27.179688 25.246094 " clip-rule="nonzero"/></clipPath><clipPath id="id2"><path d="M 38.125 57.273438 L 71.773438 57.273438 L 71.773438 80.726562 L 38.125 80.726562 Z M 38.125 57.273438 " clip-rule="nonzero"/></clipPath><clipPath id="id3"><path d="M 54.921875 25.246094 C 70.242188 25.246094 82.660156 37.667969 82.660156 52.988281 C 82.660156 68.308594 70.242188 80.726562 54.921875 80.726562 C 39.601562 80.726562 27.179688 68.308594 27.179688 52.988281 C 27.179688 37.667969 39.601562 25.246094 54.921875 25.246094 " clip-rule="nonzero"/></clipPath><clipPath id="id4"><path d="M 50.289062 57.273438 L 61.640625 57.273438 L 61.640625 64.167969 L 50.289062 64.167969 Z M 50.289062 57.273438 " clip-rule="nonzero"/></clipPath><clipPath id="id5"><path d="M 54.921875 25.246094 C 70.242188 25.246094 82.660156 37.667969 82.660156 52.988281 C 82.660156 68.308594 70.242188 80.726562 54.921875 80.726562 C 39.601562 80.726562 27.179688 68.308594 27.179688 52.988281 C 27.179688 37.667969 39.601562 25.246094 54.921875 25.246094 " clip-rule="nonzero"/></clipPath><clipPath id="id6"><path d="M 50.289062 57.273438 L 61.640625 57.273438 L 61.640625 64.574219 L 50.289062 64.574219 Z M 50.289062 57.273438 " clip-rule="nonzero"/></clipPath><clipPath id="id7"><path d="M 54.921875 25.246094 C 70.242188 25.246094 82.660156 37.667969 82.660156 52.988281 C 82.660156 68.308594 70.242188 80.726562 54.921875 80.726562 C 39.601562 80.726562 27.179688 68.308594 27.179688 52.988281 C 27.179688 37.667969 39.601562 25.246094 54.921875 25.246094 " clip-rule="nonzero"/></clipPath><clipPath id="id8"><path d="M 36.910156 64.167969 L 72.992188 64.167969 L 72.992188 80.726562 L 36.910156 80.726562 Z M 36.910156 64.167969 " clip-rule="nonzero"/></clipPath><clipPath id="id9"><path d="M 54.921875 25.246094 C 70.242188 25.246094 82.660156 37.667969 82.660156 52.988281 C 82.660156 68.308594 70.242188 80.726562 54.921875 80.726562 C 39.601562 80.726562 27.179688 68.308594 27.179688 52.988281 C 27.179688 37.667969 39.601562 25.246094 54.921875 25.246094 " clip-rule="nonzero"/></clipPath><clipPath id="id10"><path d="M 59.613281 52.410156 L 68.53125 52.410156 L 68.53125 80.726562 L 59.613281 80.726562 Z M 59.613281 52.410156 " clip-rule="nonzero"/></clipPath><clipPath id="id11"><path d="M 54.921875 25.246094 C 70.242188 25.246094 82.660156 37.667969 82.660156 52.988281 C 82.660156 68.308594 70.242188 80.726562 54.921875 80.726562 C 39.601562 80.726562 27.179688 68.308594 27.179688 52.988281 C 27.179688 37.667969 39.601562 25.246094 54.921875 25.246094 " clip-rule="nonzero"/></clipPath><clipPath id="id12"><path d="M 44.207031 36 L 65.695312 36 L 65.695312 58.492188 L 44.207031 58.492188 Z M 44.207031 36 " clip-rule="nonzero"/></clipPath><clipPath id="id13"><path d="M 54.921875 25.246094 C 70.242188 25.246094 82.660156 37.667969 82.660156 52.988281 C 82.660156 68.308594 70.242188 80.726562 54.921875 80.726562 C 39.601562 80.726562 27.179688 68.308594 27.179688 52.988281 C 27.179688 37.667969 39.601562 25.246094 54.921875 25.246094 " clip-rule="nonzero"/></clipPath><clipPath id="id14"><path d="M 44.207031 48 L 47 48 L 47 53.625 L 44.207031 53.625 Z M 44.207031 48 " clip-rule="nonzero"/></clipPath><clipPath id="id15"><path d="M 54.921875 25.246094 C 70.242188 25.246094 82.660156 37.667969 82.660156 52.988281 C 82.660156 68.308594 70.242188 80.726562 54.921875 80.726562 C 39.601562 80.726562 27.179688 68.308594 27.179688 52.988281 C 27.179688 37.667969 39.601562 25.246094 54.921875 25.246094 " clip-rule="nonzero"/></clipPath><clipPath id="id16"><path d="M 62.046875 48 L 65 48 L 65 53.625 L 62.046875 53.625 Z M 62.046875 48 " clip-rule="nonzero"/></clipPath><clipPath id="id17"><path d="M 54.921875 25.246094 C 70.242188 25.246094 82.660156 37.667969 82.660156 52.988281 C 82.660156 68.308594 70.242188 80.726562 54.921875 80.726562 C 39.601562 80.726562 27.179688 68.308594 27.179688 52.988281 C 27.179688 37.667969 39.601562 25.246094 54.921875 25.246094 " clip-rule="nonzero"/></clipPath><clipPath id="id18"><path d="M 46 42 L 63.261719 42 L 63.261719 62.546875 L 46 62.546875 Z M 46 42 " clip-rule="nonzero"/></clipPath><clipPath id="id19"><path d="M 54.921875 25.246094 C 70.242188 25.246094 82.660156 37.667969 82.660156 52.988281 C 82.660156 68.308594 70.242188 80.726562 54.921875 80.726562 C 39.601562 80.726562 27.179688 68.308594 27.179688 52.988281 C 27.179688 37.667969 39.601562 25.246094 54.921875 25.246094 " clip-rule="nonzero"/></clipPath><clipPath id="id20"><path d="M 46 48.355469 L 63.667969 48.355469 L 63.667969 53.625 L 46 53.625 Z M 46 48.355469 " clip-rule="nonzero"/></clipPath><clipPath id="id21"><path d="M 54.921875 25.246094 C 70.242188 25.246094 82.660156 37.667969 82.660156 52.988281 C 82.660156 68.308594 70.242188 80.726562 54.921875 80.726562 C 39.601562 80.726562 27.179688 68.308594 27.179688 52.988281 C 27.179688 37.667969 39.601562 25.246094 54.921875 25.246094 " clip-rule="nonzero"/></clipPath></defs><rect x="-105" width="1260" fill="rgb(97.648621%, 99.609375%, 99.21875%)" y="-104.999995" height="1259.999936" fill-opacity="1"/><rect x="-105" width="1260" fill="rgb(100%, 100%, 100%)" y="-104.999995" height="1259.999936" fill-opacity="1"/><rect x="-105" width="1260" fill="rgb(97.648621%, 99.609375%, 99.21875%)" y="-104.999995" height="1259.999936" fill-opacity="1"/><path fill="rgb(85.099792%, 85.099792%, 85.099792%)" d="M 262.035156 372.753906 L 609.941406 372.753906 L 609.941406 394.503906 L 262.035156 394.503906 L 262.035156 372.753906 " fill-opacity="1" fill-rule="nonzero"/><path fill="rgb(94.509888%, 87.838745%, 72.158813%)" d="M 264.28125 841.1875 L 808.023438 841.1875 L 808.023438 1069.9375 L 264.28125 1069.9375 L 264.28125 841.1875 " fill-opacity="1" fill-rule="nonzero"/><g fill="rgb(5.099487%, 10.198975%, 11.369324%)" fill-opacity="1"><g transform="translate(261.988274, 240.328787)"><g><path d="M 33.121094 0 L 33.121094 -34.296875 L 25.578125 -34.296875 L 25.578125 -20.726562 L 11.660156 -20.726562 L 11.660156 -34.296875 L 4.117188 -34.296875 L 4.117188 0 L 11.660156 0 L 11.660156 -13.769531 L 25.578125 -13.769531 L 25.578125 0 Z M 33.121094 0 "/></g></g></g><g fill="rgb(5.099487%, 10.198975%, 11.369324%)" fill-opacity="1"><g transform="translate(295.452166, 240.328787)"><g><path d="M 30.476562 -13.082031 L 30.476562 -13.179688 C 30.476562 -20.726562 24.449219 -26.753906 16.316406 -26.753906 C 8.132812 -26.753906 2.058594 -20.628906 2.058594 -13.082031 L 2.058594 -12.984375 C 2.058594 -5.4375 8.085938 0.589844 16.21875 0.589844 C 24.402344 0.589844 30.476562 -5.535156 30.476562 -13.082031 Z M 23.125 -12.984375 C 23.125 -9.113281 20.578125 -5.832031 16.316406 -5.832031 C 12.199219 -5.832031 9.40625 -9.210938 9.40625 -13.082031 L 9.40625 -13.179688 C 9.40625 -17.050781 11.957031 -20.332031 16.21875 -20.332031 C 20.332031 -20.332031 23.125 -16.953125 23.125 -13.082031 Z M 23.125 -12.984375 "/></g></g></g><g fill="rgb(5.099487%, 10.198975%, 11.369324%)" fill-opacity="1"><g transform="translate(324.212433, 240.328787)"><g><path d="M 43.410156 0 L 43.410156 -17.101562 C 43.410156 -23.421875 40.078125 -26.753906 34.542969 -26.753906 C 30.964844 -26.753906 28.222656 -25.28125 25.917969 -22.585938 C 24.546875 -25.234375 21.949219 -26.753906 18.519531 -26.753906 C 14.75 -26.753906 12.496094 -24.742188 10.78125 -22.539062 L 10.78125 -26.261719 L 3.332031 -26.261719 L 3.332031 0 L 10.78125 0 L 10.78125 -14.648438 C 10.78125 -18.179688 12.496094 -19.992188 15.289062 -19.992188 C 18.078125 -19.992188 19.648438 -18.179688 19.648438 -14.648438 L 19.648438 0 L 27.09375 0 L 27.09375 -14.648438 C 27.09375 -18.179688 28.808594 -19.992188 31.601562 -19.992188 C 34.394531 -19.992188 35.964844 -18.179688 35.964844 -14.648438 L 35.964844 0 Z M 43.410156 0 "/></g></g></g><g fill="rgb(5.099487%, 10.198975%, 11.369324%)" fill-opacity="1"><g transform="translate(366.985586, 240.328787)"><g><path d="M 27.832031 -12.394531 L 27.832031 -12.496094 C 27.832031 -19.941406 23.8125 -26.753906 15.042969 -26.753906 C 7.398438 -26.753906 2.058594 -20.578125 2.058594 -13.082031 L 2.058594 -12.984375 C 2.058594 -4.949219 7.886719 0.589844 15.777344 0.589844 C 20.53125 0.589844 24.058594 -1.273438 26.507812 -4.3125 L 22.246094 -8.085938 C 20.1875 -6.171875 18.375 -5.390625 15.875 -5.390625 C 12.542969 -5.390625 10.191406 -7.152344 9.457031 -10.535156 L 27.734375 -10.535156 C 27.78125 -11.21875 27.832031 -11.660156 27.832031 -12.394531 Z M 20.578125 -15.1875 L 9.359375 -15.1875 C 9.945312 -18.570312 11.957031 -20.773438 15.042969 -20.773438 C 18.179688 -20.773438 20.136719 -18.519531 20.578125 -15.1875 Z M 20.578125 -15.1875 "/></g></g></g><g fill="rgb(5.099487%, 10.198975%, 11.369324%)" fill-opacity="1"><g transform="translate(393.247063, 240.328787)"><g><path d="M 30.476562 -13.082031 L 30.476562 -13.179688 C 30.476562 -20.726562 24.449219 -26.753906 16.316406 -26.753906 C 8.132812 -26.753906 2.058594 -20.628906 2.058594 -13.082031 L 2.058594 -12.984375 C 2.058594 -5.4375 8.085938 0.589844 16.21875 0.589844 C 24.402344 0.589844 30.476562 -5.535156 30.476562 -13.082031 Z M 23.125 -12.984375 C 23.125 -9.113281 20.578125 -5.832031 16.316406 -5.832031 C 12.199219 -5.832031 9.40625 -9.210938 9.40625 -13.082031 L 9.40625 -13.179688 C 9.40625 -17.050781 11.957031 -20.332031 16.21875 -20.332031 C 20.332031 -20.332031 23.125 -16.953125 23.125 -13.082031 Z M 23.125 -12.984375 "/></g></g></g><g fill="rgb(5.099487%, 10.198975%, 11.369324%)" fill-opacity="1"><g transform="translate(422.007333, 240.328787)"><g><path d="M 30.917969 -13.082031 L 30.917969 -13.179688 C 30.917969 -21.949219 25.085938 -26.753906 18.960938 -26.753906 C 15.089844 -26.753906 12.59375 -24.941406 10.78125 -22.488281 L 10.78125 -26.261719 L 3.332031 -26.261719 L 3.332031 7.839844 L 10.78125 7.839844 L 10.78125 -3.429688 C 12.542969 -1.324219 14.992188 0.488281 18.960938 0.488281 C 25.183594 0.488281 30.917969 -4.3125 30.917969 -13.082031 Z M 23.46875 -13.082031 C 23.46875 -8.671875 20.53125 -5.832031 17.050781 -5.832031 C 13.574219 -5.832031 10.679688 -8.722656 10.679688 -13.082031 L 10.679688 -13.179688 C 10.679688 -17.542969 13.574219 -20.433594 17.050781 -20.433594 C 20.53125 -20.433594 23.46875 -17.542969 23.46875 -13.179688 Z M 23.46875 -13.082031 "/></g></g></g><g fill="rgb(5.099487%, 10.198975%, 11.369324%)" fill-opacity="1"><g transform="translate(451.306563, 240.328787)"><g><path d="M 19.15625 -18.960938 L 19.15625 -26.753906 C 14.75 -26.949219 12.296875 -24.597656 10.78125 -20.972656 L 10.78125 -26.261719 L 3.332031 -26.261719 L 3.332031 0 L 10.78125 0 L 10.78125 -9.703125 C 10.78125 -15.972656 13.816406 -18.960938 18.765625 -18.960938 Z M 19.15625 -18.960938 "/></g></g></g><g fill="rgb(5.099487%, 10.198975%, 11.369324%)" fill-opacity="1"><g transform="translate(468.013791, 240.328787)"><g><path d="M 30.476562 -13.082031 L 30.476562 -13.179688 C 30.476562 -20.726562 24.449219 -26.753906 16.316406 -26.753906 C 8.132812 -26.753906 2.058594 -20.628906 2.058594 -13.082031 L 2.058594 -12.984375 C 2.058594 -5.4375 8.085938 0.589844 16.21875 0.589844 C 24.402344 0.589844 30.476562 -5.535156 30.476562 -13.082031 Z M 23.125 -12.984375 C 23.125 -9.113281 20.578125 -5.832031 16.316406 -5.832031 C 12.199219 -5.832031 9.40625 -9.210938 9.40625 -13.082031 L 9.40625 -13.179688 C 9.40625 -17.050781 11.957031 -20.332031 16.21875 -20.332031 C 20.332031 -20.332031 23.125 -16.953125 23.125 -13.082031 Z M 23.125 -12.984375 "/></g></g></g><g fill="rgb(5.099487%, 10.198975%, 11.369324%)" fill-opacity="1"><g transform="translate(496.774049, 240.328787)"><g><path d="M 30.917969 -13.082031 L 30.917969 -13.179688 C 30.917969 -21.949219 25.085938 -26.753906 18.960938 -26.753906 C 15.089844 -26.753906 12.59375 -24.941406 10.78125 -22.488281 L 10.78125 -26.261719 L 3.332031 -26.261719 L 3.332031 7.839844 L 10.78125 7.839844 L 10.78125 -3.429688 C 12.542969 -1.324219 14.992188 0.488281 18.960938 0.488281 C 25.183594 0.488281 30.917969 -4.3125 30.917969 -13.082031 Z M 23.46875 -13.082031 C 23.46875 -8.671875 20.53125 -5.832031 17.050781 -5.832031 C 13.574219 -5.832031 10.679688 -8.722656 10.679688 -13.082031 L 10.679688 -13.179688 C 10.679688 -17.542969 13.574219 -20.433594 17.050781 -20.433594 C 20.53125 -20.433594 23.46875 -17.542969 23.46875 -13.179688 Z M 23.46875 -13.082031 "/></g></g></g><g fill="rgb(5.099487%, 10.198975%, 11.369324%)" fill-opacity="1"><g transform="translate(526.073279, 240.328787)"><g><path d="M 27.390625 0 L 27.390625 -17.003906 C 27.390625 -23.027344 24.105469 -26.753906 18.472656 -26.753906 C 14.699219 -26.753906 12.496094 -24.742188 10.78125 -22.539062 L 10.78125 -35.769531 L 3.332031 -35.769531 L 3.332031 0 L 10.78125 0 L 10.78125 -14.648438 C 10.78125 -18.179688 12.59375 -19.992188 15.433594 -19.992188 C 18.277344 -19.992188 19.941406 -18.179688 19.941406 -14.648438 L 19.941406 0 Z M 27.390625 0 "/></g></g></g><g fill="rgb(5.099487%, 10.198975%, 11.369324%)" fill-opacity="1"><g transform="translate(552.824711, 240.328787)"><g><path d="M 28.320312 -26.261719 L 20.578125 -26.261719 L 14.847656 -8.378906 L 8.867188 -26.261719 L 0.980469 -26.261719 L 11.269531 0.0976562 C 10.632812 1.421875 9.945312 1.8125 8.671875 1.8125 C 7.691406 1.8125 6.46875 1.371094 5.488281 0.785156 L 2.988281 6.171875 C 4.898438 7.300781 6.910156 7.988281 9.601562 7.988281 C 14.0625 7.988281 16.21875 5.976562 18.226562 0.636719 Z M 28.320312 -26.261719 "/></g></g></g><g fill="rgb(5.099487%, 10.198975%, 11.369324%)" fill-opacity="1"><g transform="translate(578.44922, 240.328787)"><g><path d="M 11.121094 0 L 11.121094 -35.769531 L 3.675781 -35.769531 L 3.675781 0 Z M 11.121094 0 "/></g></g></g><g fill="rgb(5.099487%, 10.198975%, 11.369324%)" fill-opacity="1"><g transform="translate(589.472901, 240.328787)"><g><path d="M 25.917969 0 L 25.917969 -15.238281 C 25.917969 -22.34375 22.34375 -26.558594 14.210938 -26.558594 C 9.75 -26.558594 6.910156 -25.722656 4.019531 -24.449219 L 5.878906 -18.765625 C 8.28125 -19.648438 10.289062 -20.1875 13.132812 -20.1875 C 16.855469 -20.1875 18.765625 -18.472656 18.765625 -15.386719 L 18.765625 -14.945312 C 16.902344 -15.582031 14.992188 -16.023438 12.347656 -16.023438 C 6.125 -16.023438 1.765625 -13.375 1.765625 -7.644531 L 1.765625 -7.546875 C 1.765625 -2.351562 5.832031 0.488281 10.78125 0.488281 C 14.40625 0.488281 16.902344 -0.832031 18.71875 -2.84375 L 18.71875 0 Z M 18.863281 -9.261719 C 18.863281 -6.566406 16.511719 -4.65625 13.035156 -4.65625 C 10.632812 -4.65625 8.964844 -5.832031 8.964844 -7.839844 L 8.964844 -7.9375 C 8.964844 -10.289062 10.925781 -11.5625 14.109375 -11.5625 C 15.925781 -11.5625 17.589844 -11.171875 18.863281 -10.582031 Z M 18.863281 -9.261719 "/></g></g></g><g fill="rgb(5.099487%, 10.198975%, 11.369324%)" fill-opacity="1"><g transform="translate(614.70545, 240.328787)"><g><path d="M 27.488281 0 L 18.226562 -13.472656 L 27.09375 -26.261719 L 19.304688 -26.261719 L 14.355469 -18.617188 L 9.457031 -26.261719 L 1.46875 -26.261719 L 10.339844 -13.328125 L 1.125 0 L 8.917969 0 L 14.210938 -8.183594 L 19.5 0 Z M 27.488281 0 "/></g></g></g><g fill="rgb(5.099487%, 10.198975%, 11.369324%)" fill-opacity="1"><g transform="translate(639.54604, 240.328787)"><g><path d="M 11.320312 -29.152344 L 11.320312 -35.769531 L 3.480469 -35.769531 L 3.480469 -29.152344 Z M 11.121094 0 L 11.121094 -26.261719 L 3.675781 -26.261719 L 3.675781 0 Z M 11.121094 0 "/></g></g></g><g fill="rgb(5.099487%, 10.198975%, 11.369324%)" fill-opacity="1"><g transform="translate(650.56972, 240.328787)"><g><path d="M 22.585938 -7.988281 L 22.585938 -8.085938 C 22.585938 -12.886719 18.324219 -14.648438 14.648438 -15.875 C 11.808594 -16.855469 9.308594 -17.542969 9.308594 -19.011719 L 9.308594 -19.109375 C 9.308594 -20.136719 10.242188 -20.921875 12.054688 -20.921875 C 13.964844 -20.921875 16.5625 -19.992188 19.15625 -18.472656 L 22 -23.617188 C 19.15625 -25.527344 15.53125 -26.65625 12.199219 -26.65625 C 6.910156 -26.65625 2.597656 -23.664062 2.597656 -18.324219 L 2.597656 -18.226562 C 2.597656 -13.132812 6.761719 -11.417969 10.4375 -10.339844 C 13.328125 -9.457031 15.875 -8.917969 15.875 -7.300781 L 15.875 -7.203125 C 15.875 -6.027344 14.894531 -5.242188 12.738281 -5.242188 C 10.289062 -5.242188 7.300781 -6.320312 4.457031 -8.378906 L 1.273438 -3.480469 C 4.753906 -0.734375 8.867188 0.488281 12.542969 0.488281 C 18.226562 0.488281 22.585938 -2.15625 22.585938 -7.988281 Z M 22.585938 -7.988281 "/></g></g></g><path fill="rgb(90.979004%, 89.019775%, 89.019775%)" d="M 262.050781 409.976562 L 679.675781 409.976562 L 679.675781 431.726562 L 262.050781 431.726562 L 262.050781 409.976562 " fill-opacity="1" fill-rule="nonzero"/><path fill="rgb(90.979004%, 89.019775%, 89.019775%)" d="M 262.035156 446.085938 L 571.691406 446.085938 L 571.691406 467.835938 L 262.035156 467.835938 L 262.035156 446.085938 " fill-opacity="1" fill-rule="nonzero"/><path fill="rgb(90.979004%, 89.019775%, 89.019775%)" d="M 262.023438 483.308594 L 525.953125 483.308594 L 525.953125 505.058594 L 262.023438 505.058594 L 262.023438 483.308594 " fill-opacity="1" fill-rule="nonzero"/><path stroke-linecap="butt" transform="matrix(0.000000000000000046, -0.746759, 0.75, 0.000000000000000046, 688.490891, 246.218864)" fill="none" stroke-linejoin="miter" d="M 0.000152181 0.00172865 L 72.32835 0.00172865 " stroke="rgb(0%, 0%, 0%)" stroke-width="1" stroke-opacity="1" stroke-miterlimit="4"/><path fill="rgb(85.099792%, 85.099792%, 85.099792%)" d="M 262.058594 626.054688 L 727.667969 626.054688 L 727.667969 647.804688 L 262.058594 647.804688 L 262.058594 626.054688 " fill-opacity="1" fill-rule="nonzero"/><path fill="rgb(90.979004%, 89.019775%, 89.019775%)" d="M 262.066406 663.277344 L 781.660156 663.277344 L 781.660156 685.027344 L 262.066406 685.027344 L 262.066406 663.277344 " fill-opacity="1" fill-rule="nonzero"/><path fill="rgb(90.979004%, 89.019775%, 89.019775%)" d="M 262.054688 699.386719 L 739.671875 699.386719 L 739.671875 721.136719 L 262.054688 721.136719 L 262.054688 699.386719 " fill-opacity="1" fill-rule="nonzero"/><path fill="rgb(90.979004%, 89.019775%, 89.019775%)" d="M 262.023438 736.609375 L 525.953125 736.609375 L 525.953125 758.359375 L 262.023438 758.359375 L 262.023438 736.609375 " fill-opacity="1" fill-rule="nonzero"/><path fill="rgb(100%, 34.118652%, 34.118652%)" d="M 228.664062 190.917969 C 222.867188 190.917969 218.164062 195.621094 218.164062 201.417969 C 218.164062 207.21875 222.867188 211.917969 228.664062 211.917969 C 234.464844 211.917969 239.164062 207.21875 239.164062 201.417969 C 239.164062 195.621094 234.464844 190.917969 228.664062 190.917969 " fill-opacity="1" fill-rule="nonzero"/><path fill="rgb(85.099792%, 85.099792%, 85.099792%)" d="M 886.433594 44.601562 L 975.628906 44.601562 L 975.628906 62.601562 L 886.433594 62.601562 L 886.433594 44.601562 " fill-opacity="1" fill-rule="nonzero"/><path fill="rgb(100%, 84.309387%, 45.098877%)" d="M 739.984375 974.28125 L 557.488281 995.726562 L 536.042969 813.234375 L 739.984375 974.28125 " fill-opacity="1" fill-rule="nonzero"/><path fill="rgb(100%, 84.309387%, 45.098877%)" d="M 417.035156 910.753906 L 347.566406 1058.761719 L 199.5625 989.292969 L 417.035156 910.753906 " fill-opacity="1" fill-rule="nonzero"/><path fill="rgb(85.099792%, 93.328857%, 94.898987%)" d="M 724.128906 34.449219 L 862.117188 34.449219 L 862.117188 73.449219 L 724.128906 73.449219 L 724.128906 34.449219 " fill-opacity="1" fill-rule="nonzero"/><path stroke-linecap="butt" transform="matrix(0.750893, 0, 0, 0.75, 724.496672, 73.10388)" fill="none" stroke-linejoin="miter" d="M -0.000769665 0.00211881 L 183.79089 0.00211881 " stroke="rgb(36.079407%, 88.238525%, 90.19928%)" stroke-width="1" stroke-opacity="1" stroke-miterlimit="4"/><path stroke-linecap="butt" transform="matrix(0.000000000000000887, 0.756822, -0.75, 0.000000000000000879, 862.337827, 34.452633)" fill="none" stroke-linejoin="miter" d="M 0.000650119 0.00251926 L 51.537068 0.00251926 " stroke="rgb(43.919373%, 93.328857%, 88.238525%)" stroke-width="1" stroke-opacity="1" stroke-miterlimit="4"/><path stroke-linecap="butt" transform="matrix(0.750897, 0, 0, 0.75, 724.496672, 34.449586)" fill="none" stroke-linejoin="miter" d="M -0.00076966 -0.000489901 L 182.790911 -0.000489901 " stroke="rgb(36.079407%, 88.238525%, 90.19928%)" stroke-width="1" stroke-opacity="1" stroke-miterlimit="4"/><path stroke-linecap="butt" transform="matrix(0.000000000000000887, 0.756822, -0.75, 0.000000000000000879, 724.493744, 34.452633)" fill="none" stroke-linejoin="miter" d="M 0.000650119 0.00207491 L 51.537068 0.00207491 " stroke="rgb(43.919373%, 93.328857%, 88.238525%)" stroke-width="1" stroke-opacity="1" stroke-miterlimit="4"/><path stroke-linecap="butt" transform="matrix(0.750893, 0, 0, 0.75, 861.590635, 73.10388)" fill="none" stroke-linejoin="miter" d="M -0.00105376 0.00211881 L 183.790606 0.00211881 " stroke="rgb(85.099792%, 85.099792%, 85.099792%)" stroke-width="1" stroke-opacity="1" stroke-miterlimit="4"/><path stroke-linecap="butt" transform="matrix(0.000000000000000887, 0.756822, -0.75, 0.000000000000000879, 999.431766, 34.452633)" fill="none" stroke-linejoin="miter" d="M 0.000650119 -0.00243663 L 51.537068 -0.00243663 " stroke="rgb(85.099792%, 85.099792%, 85.099792%)" stroke-width="1" stroke-opacity="1" stroke-miterlimit="4"/><path stroke-linecap="butt" transform="matrix(0.750897, 0, 0, 0.75, 862.340635, 34.449586)" fill="none" stroke-linejoin="miter" d="M -0.00105367 -0.000489901 L 182.790627 -0.000489901 " stroke="rgb(85.099792%, 85.099792%, 85.099792%)" stroke-width="1" stroke-opacity="1" stroke-miterlimit="4"/><g fill="rgb(5.099487%, 10.198975%, 11.369324%)" fill-opacity="1"><g transform="translate(277.611814, 337.890417)"><g><path d="M 7.839844 0 L 7.839844 -22.398438 L 2.910156 -22.398438 L 2.910156 0 Z M 7.839844 0 "/></g></g></g><g fill="rgb(5.099487%, 10.198975%, 11.369324%)" fill-opacity="1"><g transform="translate(286.185024, 337.890417)"><g><path d="M 17.886719 0 L 17.886719 -11.101562 C 17.886719 -15.039062 15.742188 -17.46875 12.0625 -17.46875 C 9.597656 -17.46875 8.160156 -16.15625 7.039062 -14.71875 L 7.039062 -17.148438 L 2.175781 -17.148438 L 2.175781 0 L 7.039062 0 L 7.039062 -9.566406 C 7.039062 -11.871094 8.222656 -13.054688 10.078125 -13.054688 C 11.933594 -13.054688 13.023438 -11.871094 13.023438 -9.566406 L 13.023438 0 Z M 17.886719 0 "/></g></g></g><g fill="rgb(5.099487%, 10.198975%, 11.369324%)" fill-opacity="1"><g transform="translate(303.939977, 337.890417)"><g><path d="M 11.804688 -0.703125 L 11.804688 -4.605469 C 11.101562 -4.222656 10.300781 -4 9.40625 -4 C 8.320312 -4 7.839844 -4.542969 7.839844 -5.664062 L 7.839844 -12.988281 L 11.871094 -12.988281 L 11.871094 -17.148438 L 7.839844 -17.148438 L 7.839844 -21.53125 L 2.976562 -21.53125 L 2.976562 -17.148438 L 0.929688 -17.148438 L 0.929688 -12.988281 L 2.976562 -12.988281 L 2.976562 -4.863281 C 2.976562 -0.894531 4.992188 0.289062 7.964844 0.289062 C 9.597656 0.289062 10.78125 -0.0976562 11.804688 -0.703125 Z M 11.804688 -0.703125 "/></g></g></g><g fill="rgb(5.099487%, 10.198975%, 11.369324%)" fill-opacity="1"><g transform="translate(315.040571, 337.890417)"><g><path d="M 12.511719 -12.382812 L 12.511719 -17.46875 C 9.628906 -17.597656 8.03125 -16.0625 7.039062 -13.695312 L 7.039062 -17.148438 L 2.175781 -17.148438 L 2.175781 0 L 7.039062 0 L 7.039062 -6.335938 C 7.039062 -10.429688 9.023438 -12.382812 12.253906 -12.382812 Z M 12.511719 -12.382812 "/></g></g></g><g fill="rgb(5.099487%, 10.198975%, 11.369324%)" fill-opacity="1"><g transform="translate(326.237143, 337.890417)"><g><path d="M 19.902344 -8.542969 L 19.902344 -8.605469 C 19.902344 -13.535156 15.964844 -17.46875 10.65625 -17.46875 C 5.3125 -17.46875 1.34375 -13.46875 1.34375 -8.542969 L 1.34375 -8.480469 C 1.34375 -3.550781 5.277344 0.382812 10.589844 0.382812 C 15.933594 0.382812 19.902344 -3.617188 19.902344 -8.542969 Z M 15.101562 -8.480469 C 15.101562 -5.949219 13.4375 -3.808594 10.65625 -3.808594 C 7.964844 -3.808594 6.144531 -6.015625 6.144531 -8.542969 L 6.144531 -8.605469 C 6.144531 -11.132812 7.808594 -13.277344 10.589844 -13.277344 C 13.277344 -13.277344 15.101562 -11.070312 15.101562 -8.542969 Z M 15.101562 -8.480469 "/></g></g></g><g fill="rgb(5.099487%, 10.198975%, 11.369324%)" fill-opacity="1"><g transform="translate(345.303771, 337.890417)"><g><path d="M 19.421875 0 L 19.421875 -23.355469 L 14.558594 -23.355469 L 14.558594 -14.910156 C 13.40625 -16.285156 11.804688 -17.46875 9.214844 -17.46875 C 5.152344 -17.46875 1.40625 -14.332031 1.40625 -8.605469 L 1.40625 -8.542969 C 1.40625 -2.816406 5.214844 0.320312 9.214844 0.320312 C 11.742188 0.320312 13.375 -0.863281 14.558594 -2.464844 L 14.558594 0 Z M 14.621094 -8.542969 C 14.621094 -5.695312 12.734375 -3.808594 10.460938 -3.808594 C 8.191406 -3.808594 6.269531 -5.695312 6.269531 -8.542969 L 6.269531 -8.605469 C 6.269531 -11.484375 8.191406 -13.34375 10.460938 -13.34375 C 12.734375 -13.34375 14.621094 -11.453125 14.621094 -8.605469 Z M 14.621094 -8.542969 "/></g></g></g><g fill="rgb(5.099487%, 10.198975%, 11.369324%)" fill-opacity="1"><g transform="translate(364.722316, 337.890417)"><g><path d="M 17.757812 0 L 17.757812 -17.148438 L 12.894531 -17.148438 L 12.894531 -7.582031 C 12.894531 -5.277344 11.710938 -4.09375 9.855469 -4.09375 C 8 -4.09375 6.910156 -5.277344 6.910156 -7.582031 L 6.910156 -17.148438 L 2.046875 -17.148438 L 2.046875 -6.046875 C 2.046875 -2.113281 4.191406 0.320312 7.871094 0.320312 C 10.335938 0.320312 11.773438 -0.992188 12.894531 -2.429688 L 12.894531 0 Z M 17.757812 0 "/></g></g></g><g fill="rgb(5.099487%, 10.198975%, 11.369324%)" fill-opacity="1"><g transform="translate(382.477268, 337.890417)"><g><path d="M 17.277344 -2.75 L 14.429688 -5.632812 C 13.246094 -4.511719 12.125 -3.808594 10.496094 -3.808594 C 7.839844 -3.808594 6.144531 -5.917969 6.144531 -8.542969 L 6.144531 -8.605469 C 6.144531 -11.132812 7.871094 -13.277344 10.300781 -13.277344 C 12.03125 -13.277344 13.117188 -12.542969 14.207031 -11.390625 L 17.179688 -14.589844 C 15.582031 -16.382812 13.566406 -17.46875 10.335938 -17.46875 C 5.085938 -17.46875 1.34375 -13.4375 1.34375 -8.542969 L 1.34375 -8.480469 C 1.34375 -3.582031 5.121094 0.382812 10.269531 0.382812 C 13.695312 0.382812 15.613281 -0.929688 17.277344 -2.75 Z M 17.277344 -2.75 "/></g></g></g><g fill="rgb(5.099487%, 10.198975%, 11.369324%)" fill-opacity="1"><g transform="translate(398.568632, 337.890417)"><g><path d="M 11.804688 -0.703125 L 11.804688 -4.605469 C 11.101562 -4.222656 10.300781 -4 9.40625 -4 C 8.320312 -4 7.839844 -4.542969 7.839844 -5.664062 L 7.839844 -12.988281 L 11.871094 -12.988281 L 11.871094 -17.148438 L 7.839844 -17.148438 L 7.839844 -21.53125 L 2.976562 -21.53125 L 2.976562 -17.148438 L 0.929688 -17.148438 L 0.929688 -12.988281 L 2.976562 -12.988281 L 2.976562 -4.863281 C 2.976562 -0.894531 4.992188 0.289062 7.964844 0.289062 C 9.597656 0.289062 10.78125 -0.0976562 11.804688 -0.703125 Z M 11.804688 -0.703125 "/></g></g></g><g fill="rgb(5.099487%, 10.198975%, 11.369324%)" fill-opacity="1"><g transform="translate(409.669228, 337.890417)"><g><path d="M 7.390625 -19.035156 L 7.390625 -23.355469 L 2.273438 -23.355469 L 2.273438 -19.035156 Z M 7.261719 0 L 7.261719 -17.148438 L 2.398438 -17.148438 L 2.398438 0 Z M 7.261719 0 "/></g></g></g><g fill="rgb(5.099487%, 10.198975%, 11.369324%)" fill-opacity="1"><g transform="translate(417.154716, 337.890417)"><g><path d="M 19.902344 -8.542969 L 19.902344 -8.605469 C 19.902344 -13.535156 15.964844 -17.46875 10.65625 -17.46875 C 5.3125 -17.46875 1.34375 -13.46875 1.34375 -8.542969 L 1.34375 -8.480469 C 1.34375 -3.550781 5.277344 0.382812 10.589844 0.382812 C 15.933594 0.382812 19.902344 -3.617188 19.902344 -8.542969 Z M 15.101562 -8.480469 C 15.101562 -5.949219 13.4375 -3.808594 10.65625 -3.808594 C 7.964844 -3.808594 6.144531 -6.015625 6.144531 -8.542969 L 6.144531 -8.605469 C 6.144531 -11.132812 7.808594 -13.277344 10.589844 -13.277344 C 13.277344 -13.277344 15.101562 -11.070312 15.101562 -8.542969 Z M 15.101562 -8.480469 "/></g></g></g><g fill="rgb(5.099487%, 10.198975%, 11.369324%)" fill-opacity="1"><g transform="translate(436.22135, 337.890417)"><g><path d="M 17.886719 0 L 17.886719 -11.101562 C 17.886719 -15.039062 15.742188 -17.46875 12.0625 -17.46875 C 9.597656 -17.46875 8.160156 -16.15625 7.039062 -14.71875 L 7.039062 -17.148438 L 2.175781 -17.148438 L 2.175781 0 L 7.039062 0 L 7.039062 -9.566406 C 7.039062 -11.871094 8.222656 -13.054688 10.078125 -13.054688 C 11.933594 -13.054688 13.023438 -11.871094 13.023438 -9.566406 L 13.023438 0 Z M 17.886719 0 "/></g></g></g><g fill="rgb(5.099487%, 10.198975%, 11.369324%)" fill-opacity="1"><g transform="translate(256.119628, 337.890417)"><g><path d="M 0.769531 -20.636719 L 1.792969 -16.605469 L 5.695312 -17.566406 L 5.695312 0 L 10.558594 0 L 10.558594 -22.554688 L 7.199219 -22.554688 Z M 0.769531 -20.636719 "/></g></g></g><g fill="rgb(5.099487%, 10.198975%, 11.369324%)" fill-opacity="1"><g transform="translate(267.43994, 337.890417)"><g><path d="M 7.167969 0 L 7.167969 -5.121094 L 1.984375 -5.121094 L 1.984375 0 Z M 7.167969 0 "/></g></g></g><g fill="rgb(5.099487%, 10.198975%, 11.369324%)" fill-opacity="1"><g transform="translate(261.238275, 591.940941)"><g><path d="M 9.886719 -18.300781 C 11.644531 -18.300781 12.894531 -17.277344 12.894531 -15.390625 C 12.894531 -13.535156 11.804688 -12.316406 9.023438 -10.015625 L 1.566406 -3.902344 L 1.566406 0 L 18.140625 0 L 18.140625 -4.253906 L 8.382812 -4.253906 L 12.03125 -7.070312 C 15.996094 -10.140625 17.917969 -12.03125 17.917969 -15.773438 C 17.917969 -19.964844 14.972656 -22.714844 10.207031 -22.714844 C 6.207031 -22.714844 4.0625 -21.085938 1.855469 -18.078125 L 5.3125 -15.292969 C 6.976562 -17.339844 8.160156 -18.300781 9.886719 -18.300781 Z M 9.886719 -18.300781 "/></g></g></g><g fill="rgb(5.099487%, 10.198975%, 11.369324%)" fill-opacity="1"><g transform="translate(278.993228, 591.940941)"><g><path d="M 7.167969 0 L 7.167969 -5.121094 L 1.984375 -5.121094 L 1.984375 0 Z M 7.167969 0 "/></g></g></g><g fill="rgb(5.099487%, 10.198975%, 11.369324%)" fill-opacity="1"><g transform="translate(285.966829, 591.940941)"><g/></g></g><g fill="rgb(5.099487%, 10.198975%, 11.369324%)" fill-opacity="1"><g transform="translate(293.38833, 591.940941)"><g><path d="M 34.9375 -22.398438 L 29.789062 -22.398438 L 25.148438 -7.230469 L 20.125 -22.460938 L 15.902344 -22.460938 L 10.878906 -7.230469 L 6.238281 -22.398438 L 0.960938 -22.398438 L 8.605469 0.160156 L 12.894531 0.160156 L 17.949219 -14.492188 L 23.003906 0.160156 L 27.292969 0.160156 Z M 34.9375 -22.398438 "/></g></g></g><g fill="rgb(5.099487%, 10.198975%, 11.369324%)" fill-opacity="1"><g transform="translate(327.107365, 591.940941)"><g><path d="M 7.390625 -19.035156 L 7.390625 -23.355469 L 2.273438 -23.355469 L 2.273438 -19.035156 Z M 7.261719 0 L 7.261719 -17.148438 L 2.398438 -17.148438 L 2.398438 0 Z M 7.261719 0 "/></g></g></g><g fill="rgb(5.099487%, 10.198975%, 11.369324%)" fill-opacity="1"><g transform="translate(334.592847, 591.940941)"><g><path d="M 7.261719 0 L 7.261719 -23.355469 L 2.398438 -23.355469 L 2.398438 0 Z M 7.261719 0 "/></g></g></g><g fill="rgb(5.099487%, 10.198975%, 11.369324%)" fill-opacity="1"><g transform="translate(342.07833, 591.940941)"><g><path d="M 19.421875 0 L 19.421875 -23.355469 L 14.558594 -23.355469 L 14.558594 -14.910156 C 13.40625 -16.285156 11.804688 -17.46875 9.214844 -17.46875 C 5.152344 -17.46875 1.40625 -14.332031 1.40625 -8.605469 L 1.40625 -8.542969 C 1.40625 -2.816406 5.214844 0.320312 9.214844 0.320312 C 11.742188 0.320312 13.375 -0.863281 14.558594 -2.464844 L 14.558594 0 Z M 14.621094 -8.542969 C 14.621094 -5.695312 12.734375 -3.808594 10.460938 -3.808594 C 8.191406 -3.808594 6.269531 -5.695312 6.269531 -8.542969 L 6.269531 -8.605469 C 6.269531 -11.484375 8.191406 -13.34375 10.460938 -13.34375 C 12.734375 -13.34375 14.621094 -11.453125 14.621094 -8.605469 Z M 14.621094 -8.542969 "/></g></g></g><g fill="rgb(5.099487%, 10.198975%, 11.369324%)" fill-opacity="1"><g transform="translate(361.496875, 591.940941)"><g/></g></g><g fill="rgb(5.099487%, 10.198975%, 11.369324%)" fill-opacity="1"><g transform="translate(368.918379, 591.940941)"><g><path d="M 18.558594 -17.148438 L 13.5 -17.148438 L 9.628906 -5.664062 L 5.792969 -17.148438 L 0.640625 -17.148438 L 7.390625 0.128906 L 11.804688 0.128906 Z M 18.558594 -17.148438 "/></g></g></g><g fill="rgb(5.099487%, 10.198975%, 11.369324%)" fill-opacity="1"><g transform="translate(385.937516, 591.940941)"><g><path d="M 14.75 -5.214844 L 14.75 -5.277344 C 14.75 -8.414062 11.964844 -9.566406 9.566406 -10.367188 C 7.710938 -11.007812 6.078125 -11.453125 6.078125 -12.414062 L 6.078125 -12.476562 C 6.078125 -13.148438 6.6875 -13.660156 7.871094 -13.660156 C 9.117188 -13.660156 10.8125 -13.054688 12.511719 -12.0625 L 14.367188 -15.421875 C 12.511719 -16.667969 10.140625 -17.40625 7.964844 -17.40625 C 4.511719 -17.40625 1.695312 -15.453125 1.695312 -11.964844 L 1.695312 -11.902344 C 1.695312 -8.574219 4.414062 -7.453125 6.816406 -6.75 C 8.703125 -6.175781 10.367188 -5.824219 10.367188 -4.765625 L 10.367188 -4.703125 C 10.367188 -3.933594 9.726562 -3.421875 8.320312 -3.421875 C 6.71875 -3.421875 4.765625 -4.128906 2.910156 -5.472656 L 0.832031 -2.273438 C 3.101562 -0.480469 5.792969 0.320312 8.191406 0.320312 C 11.902344 0.320312 14.75 -1.40625 14.75 -5.214844 Z M 14.75 -5.214844 "/></g></g></g><g fill="rgb(5.099487%, 10.198975%, 11.369324%)" fill-opacity="1"><g transform="translate(399.82143, 591.940941)"><g/></g></g><g fill="rgb(5.099487%, 10.198975%, 11.369324%)" fill-opacity="1"><g transform="translate(407.242934, 591.940941)"><g><path d="M 24.507812 0 L 14.910156 -22.554688 L 10.367188 -22.554688 L 0.769531 0 L 5.792969 0 L 7.839844 -5.023438 L 17.308594 -5.023438 L 19.355469 0 Z M 15.550781 -9.375 L 9.597656 -9.375 L 12.574219 -16.636719 Z M 15.550781 -9.375 "/></g></g></g><g fill="rgb(5.099487%, 10.198975%, 11.369324%)" fill-opacity="1"><g transform="translate(430.340577, 591.940941)"><g><path d="M 12.511719 -12.382812 L 12.511719 -17.46875 C 9.628906 -17.597656 8.03125 -16.0625 7.039062 -13.695312 L 7.039062 -17.148438 L 2.175781 -17.148438 L 2.175781 0 L 7.039062 0 L 7.039062 -6.335938 C 7.039062 -10.429688 9.023438 -12.382812 12.253906 -12.382812 Z M 12.511719 -12.382812 "/></g></g></g><g fill="rgb(5.099487%, 10.198975%, 11.369324%)" fill-opacity="1"><g transform="translate(441.537155, 591.940941)"><g><path d="M 11.804688 -0.703125 L 11.804688 -4.605469 C 11.101562 -4.222656 10.300781 -4 9.40625 -4 C 8.320312 -4 7.839844 -4.542969 7.839844 -5.664062 L 7.839844 -12.988281 L 11.871094 -12.988281 L 11.871094 -17.148438 L 7.839844 -17.148438 L 7.839844 -21.53125 L 2.976562 -21.53125 L 2.976562 -17.148438 L 0.929688 -17.148438 L 0.929688 -12.988281 L 2.976562 -12.988281 L 2.976562 -4.863281 C 2.976562 -0.894531 4.992188 0.289062 7.964844 0.289062 C 9.597656 0.289062 10.78125 -0.0976562 11.804688 -0.703125 Z M 11.804688 -0.703125 "/></g></g></g><g fill="rgb(5.099487%, 10.198975%, 11.369324%)" fill-opacity="1"><g transform="translate(452.637751, 591.940941)"><g><path d="M 7.390625 -19.035156 L 7.390625 -23.355469 L 2.273438 -23.355469 L 2.273438 -19.035156 Z M 7.261719 0 L 7.261719 -17.148438 L 2.398438 -17.148438 L 2.398438 0 Z M 7.261719 0 "/></g></g></g><g fill="rgb(5.099487%, 10.198975%, 11.369324%)" fill-opacity="1"><g transform="translate(460.123228, 591.940941)"><g><path d="M 11.773438 -19.070312 L 11.773438 -23.101562 C 10.878906 -23.386719 9.855469 -23.582031 8.320312 -23.582031 C 4.894531 -23.582031 3.007812 -21.851562 3.007812 -18.078125 L 3.007812 -16.988281 L 0.992188 -16.988281 L 0.992188 -12.988281 L 3.007812 -12.988281 L 3.007812 0 L 7.871094 0 L 7.871094 -12.988281 L 11.742188 -12.988281 L 11.742188 -16.957031 L 7.808594 -16.957031 L 7.808594 -17.628906 C 7.808594 -18.910156 8.445312 -19.484375 9.566406 -19.484375 C 10.398438 -19.484375 11.070312 -19.324219 11.773438 -19.070312 Z M 11.773438 -19.070312 "/></g></g></g><g fill="rgb(5.099487%, 10.198975%, 11.369324%)" fill-opacity="1"><g transform="translate(470.168073, 591.940941)"><g><path d="M 7.390625 -19.035156 L 7.390625 -23.355469 L 2.273438 -23.355469 L 2.273438 -19.035156 Z M 7.261719 0 L 7.261719 -17.148438 L 2.398438 -17.148438 L 2.398438 0 Z M 7.261719 0 "/></g></g></g><g fill="rgb(5.099487%, 10.198975%, 11.369324%)" fill-opacity="1"><g transform="translate(477.653561, 591.940941)"><g><path d="M 17.277344 -2.75 L 14.429688 -5.632812 C 13.246094 -4.511719 12.125 -3.808594 10.496094 -3.808594 C 7.839844 -3.808594 6.144531 -5.917969 6.144531 -8.542969 L 6.144531 -8.605469 C 6.144531 -11.132812 7.871094 -13.277344 10.300781 -13.277344 C 12.03125 -13.277344 13.117188 -12.542969 14.207031 -11.390625 L 17.179688 -14.589844 C 15.582031 -16.382812 13.566406 -17.46875 10.335938 -17.46875 C 5.085938 -17.46875 1.34375 -13.4375 1.34375 -8.542969 L 1.34375 -8.480469 C 1.34375 -3.582031 5.121094 0.382812 10.269531 0.382812 C 13.695312 0.382812 15.613281 -0.929688 17.277344 -2.75 Z M 17.277344 -2.75 "/></g></g></g><g fill="rgb(5.099487%, 10.198975%, 11.369324%)" fill-opacity="1"><g transform="translate(493.744914, 591.940941)"><g><path d="M 16.925781 0 L 16.925781 -9.949219 C 16.925781 -14.589844 14.589844 -17.339844 9.277344 -17.339844 C 6.367188 -17.339844 4.511719 -16.796875 2.625 -15.964844 L 3.839844 -12.253906 C 5.40625 -12.828125 6.71875 -13.183594 8.574219 -13.183594 C 11.007812 -13.183594 12.253906 -12.0625 12.253906 -10.046875 L 12.253906 -9.757812 C 11.039062 -10.175781 9.789062 -10.460938 8.0625 -10.460938 C 4 -10.460938 1.152344 -8.734375 1.152344 -4.992188 L 1.152344 -4.925781 C 1.152344 -1.535156 3.808594 0.320312 7.039062 0.320312 C 9.40625 0.320312 11.039062 -0.542969 12.222656 -1.855469 L 12.222656 0 Z M 12.316406 -6.046875 C 12.316406 -4.289062 10.78125 -3.039062 8.511719 -3.039062 C 6.941406 -3.039062 5.855469 -3.808594 5.855469 -5.121094 L 5.855469 -5.183594 C 5.855469 -6.71875 7.136719 -7.550781 9.214844 -7.550781 C 10.398438 -7.550781 11.484375 -7.292969 12.316406 -6.910156 Z M 12.316406 -6.046875 "/></g></g></g><g fill="rgb(5.099487%, 10.198975%, 11.369324%)" fill-opacity="1"><g transform="translate(510.508104, 591.940941)"><g><path d="M 7.261719 0 L 7.261719 -23.355469 L 2.398438 -23.355469 L 2.398438 0 Z M 7.261719 0 "/></g></g></g><g fill="rgb(5.099487%, 10.198975%, 11.369324%)" fill-opacity="1"><g transform="translate(517.993592, 591.940941)"><g/></g></g><g fill="rgb(5.099487%, 10.198975%, 11.369324%)" fill-opacity="1"><g transform="translate(525.415085, 591.940941)"><g><path d="M 19.742188 0 L 19.742188 -4.382812 L 7.582031 -4.382812 L 7.582031 -9.085938 L 18.140625 -9.085938 L 18.140625 -13.46875 L 7.582031 -13.46875 L 7.582031 -18.011719 L 19.582031 -18.011719 L 19.582031 -22.398438 L 2.6875 -22.398438 L 2.6875 0 Z M 19.742188 0 "/></g></g></g><g fill="rgb(5.099487%, 10.198975%, 11.369324%)" fill-opacity="1"><g transform="translate(544.673659, 591.940941)"><g><path d="M 17.949219 0 L 11.902344 -8.796875 L 17.691406 -17.148438 L 12.605469 -17.148438 L 9.375 -12.15625 L 6.175781 -17.148438 L 0.960938 -17.148438 L 6.75 -8.703125 L 0.734375 0 L 5.824219 0 L 9.277344 -5.34375 L 12.734375 0 Z M 17.949219 0 "/></g></g></g><g fill="rgb(5.099487%, 10.198975%, 11.369324%)" fill-opacity="1"><g transform="translate(561.180913, 591.940941)"><g><path d="M 20.1875 -8.542969 L 20.1875 -8.605469 C 20.1875 -14.332031 16.382812 -17.46875 12.382812 -17.46875 C 9.855469 -17.46875 8.222656 -16.285156 7.039062 -14.6875 L 7.039062 -17.148438 L 2.175781 -17.148438 L 2.175781 5.121094 L 7.039062 5.121094 L 7.039062 -2.238281 C 8.191406 -0.863281 9.789062 0.320312 12.382812 0.320312 C 16.445312 0.320312 20.1875 -2.816406 20.1875 -8.542969 Z M 15.324219 -8.542969 C 15.324219 -5.664062 13.40625 -3.808594 11.132812 -3.808594 C 8.863281 -3.808594 6.976562 -5.695312 6.976562 -8.542969 L 6.976562 -8.605469 C 6.976562 -11.453125 8.863281 -13.34375 11.132812 -13.34375 C 13.40625 -13.34375 15.324219 -11.453125 15.324219 -8.605469 Z M 15.324219 -8.542969 "/></g></g></g><g fill="rgb(5.099487%, 10.198975%, 11.369324%)" fill-opacity="1"><g transform="translate(580.599452, 591.940941)"><g><path d="M 19.902344 -8.542969 L 19.902344 -8.605469 C 19.902344 -13.535156 15.964844 -17.46875 10.65625 -17.46875 C 5.3125 -17.46875 1.34375 -13.46875 1.34375 -8.542969 L 1.34375 -8.480469 C 1.34375 -3.550781 5.277344 0.382812 10.589844 0.382812 C 15.933594 0.382812 19.902344 -3.617188 19.902344 -8.542969 Z M 15.101562 -8.480469 C 15.101562 -5.949219 13.4375 -3.808594 10.65625 -3.808594 C 7.964844 -3.808594 6.144531 -6.015625 6.144531 -8.542969 L 6.144531 -8.605469 C 6.144531 -11.132812 7.808594 -13.277344 10.589844 -13.277344 C 13.277344 -13.277344 15.101562 -11.070312 15.101562 -8.542969 Z M 15.101562 -8.480469 "/></g></g></g><g fill="rgb(5.099487%, 10.198975%, 11.369324%)" fill-opacity="1"><g transform="translate(599.666085, 591.940941)"><g><path d="M 14.75 -5.214844 L 14.75 -5.277344 C 14.75 -8.414062 11.964844 -9.566406 9.566406 -10.367188 C 7.710938 -11.007812 6.078125 -11.453125 6.078125 -12.414062 L 6.078125 -12.476562 C 6.078125 -13.148438 6.6875 -13.660156 7.871094 -13.660156 C 9.117188 -13.660156 10.8125 -13.054688 12.511719 -12.0625 L 14.367188 -15.421875 C 12.511719 -16.667969 10.140625 -17.40625 7.964844 -17.40625 C 4.511719 -17.40625 1.695312 -15.453125 1.695312 -11.964844 L 1.695312 -11.902344 C 1.695312 -8.574219 4.414062 -7.453125 6.816406 -6.75 C 8.703125 -6.175781 10.367188 -5.824219 10.367188 -4.765625 L 10.367188 -4.703125 C 10.367188 -3.933594 9.726562 -3.421875 8.320312 -3.421875 C 6.71875 -3.421875 4.765625 -4.128906 2.910156 -5.472656 L 0.832031 -2.273438 C 3.101562 -0.480469 5.792969 0.320312 8.191406 0.320312 C 11.902344 0.320312 14.75 -1.40625 14.75 -5.214844 Z M 14.75 -5.214844 "/></g></g></g><g fill="rgb(5.099487%, 10.198975%, 11.369324%)" fill-opacity="1"><g transform="translate(613.549987, 591.940941)"><g><path d="M 17.757812 0 L 17.757812 -17.148438 L 12.894531 -17.148438 L 12.894531 -7.582031 C 12.894531 -5.277344 11.710938 -4.09375 9.855469 -4.09375 C 8 -4.09375 6.910156 -5.277344 6.910156 -7.582031 L 6.910156 -17.148438 L 2.046875 -17.148438 L 2.046875 -6.046875 C 2.046875 -2.113281 4.191406 0.320312 7.871094 0.320312 C 10.335938 0.320312 11.773438 -0.992188 12.894531 -2.429688 L 12.894531 0 Z M 17.757812 0 "/></g></g></g><g fill="rgb(5.099487%, 10.198975%, 11.369324%)" fill-opacity="1"><g transform="translate(631.304945, 591.940941)"><g><path d="M 12.511719 -12.382812 L 12.511719 -17.46875 C 9.628906 -17.597656 8.03125 -16.0625 7.039062 -13.695312 L 7.039062 -17.148438 L 2.175781 -17.148438 L 2.175781 0 L 7.039062 0 L 7.039062 -6.335938 C 7.039062 -10.429688 9.023438 -12.382812 12.253906 -12.382812 Z M 12.511719 -12.382812 "/></g></g></g><g fill="rgb(5.099487%, 10.198975%, 11.369324%)" fill-opacity="1"><g transform="translate(642.501523, 591.940941)"><g><path d="M 18.171875 -8.09375 L 18.171875 -8.160156 C 18.171875 -13.023438 15.550781 -17.46875 9.824219 -17.46875 C 4.832031 -17.46875 1.34375 -13.4375 1.34375 -8.542969 L 1.34375 -8.480469 C 1.34375 -3.230469 5.152344 0.382812 10.300781 0.382812 C 13.40625 0.382812 15.710938 -0.832031 17.308594 -2.816406 L 14.527344 -5.277344 C 13.183594 -4.03125 12 -3.519531 10.367188 -3.519531 C 8.191406 -3.519531 6.65625 -4.671875 6.175781 -6.878906 L 18.109375 -6.878906 C 18.140625 -7.328125 18.171875 -7.613281 18.171875 -8.09375 Z M 13.4375 -9.917969 L 6.109375 -9.917969 C 6.496094 -12.125 7.808594 -13.566406 9.824219 -13.566406 C 11.871094 -13.566406 13.148438 -12.09375 13.4375 -9.917969 Z M 13.4375 -9.917969 "/></g></g></g><g fill="rgb(5.099487%, 10.198975%, 11.369324%)" fill-opacity="1"><g transform="translate(659.936572, 591.940941)"><g><path d="M 7.167969 0 L 7.167969 -5.121094 L 1.984375 -5.121094 L 1.984375 0 Z M 7.167969 0 "/></g></g></g><g fill="rgb(5.099487%, 10.198975%, 11.369324%)" fill-opacity="1"><g transform="translate(666.910189, 591.940941)"><g><path d="M 7.167969 0 L 7.167969 -5.121094 L 1.984375 -5.121094 L 1.984375 0 Z M 7.167969 0 "/></g></g></g><g fill="rgb(5.099487%, 10.198975%, 11.369324%)" fill-opacity="1"><g transform="translate(673.883806, 591.940941)"><g><path d="M 7.167969 0 L 7.167969 -5.121094 L 1.984375 -5.121094 L 1.984375 0 Z M 7.167969 0 "/></g></g></g><g fill="rgb(36.079407%, 88.238525%, 90.19928%)" fill-opacity="1"><g transform="translate(737.133358, 59.991068)"><g><path d="M 10.96875 -12.59375 L 1.625 -12.59375 L 1.625 0 L 11.046875 0 L 11.046875 -1.984375 L 3.828125 -1.984375 L 3.828125 -5.359375 L 10.15625 -5.359375 L 10.15625 -7.34375 L 3.828125 -7.34375 L 3.828125 -10.625 L 10.96875 -10.625 Z M 10.96875 -12.59375 "/></g></g></g><g fill="rgb(36.079407%, 88.238525%, 90.19928%)" fill-opacity="1"><g transform="translate(747.969278, 59.991068)"><g><path d="M 10.703125 0 L 10.703125 -13.140625 L 8.53125 -13.140625 L 8.53125 -8.03125 C 8.1875 -8.46875 7.753906 -8.851562 7.234375 -9.1875 C 6.722656 -9.53125 6.078125 -9.703125 5.296875 -9.703125 C 4.734375 -9.703125 4.179688 -9.59375 3.640625 -9.375 C 3.109375 -9.15625 2.640625 -8.832031 2.234375 -8.40625 C 1.828125 -7.988281 1.5 -7.472656 1.25 -6.859375 C 1 -6.242188 0.875 -5.539062 0.875 -4.75 C 0.875 -3.957031 1 -3.253906 1.25 -2.640625 C 1.507812 -2.035156 1.84375 -1.519531 2.25 -1.09375 C 2.65625 -0.664062 3.125 -0.34375 3.65625 -0.125 C 4.1875 0.09375 4.734375 0.203125 5.296875 0.203125 C 6.054688 0.203125 6.695312 0.03125 7.21875 -0.3125 C 7.75 -0.664062 8.1875 -1.085938 8.53125 -1.578125 L 8.53125 0 Z M 8.5625 -4.75 C 8.5625 -4.28125 8.488281 -3.859375 8.34375 -3.484375 C 8.195312 -3.117188 7.992188 -2.800781 7.734375 -2.53125 C 7.484375 -2.257812 7.191406 -2.050781 6.859375 -1.90625 C 6.523438 -1.757812 6.175781 -1.6875 5.8125 -1.6875 C 5.4375 -1.6875 5.082031 -1.757812 4.75 -1.90625 C 4.425781 -2.050781 4.140625 -2.253906 3.890625 -2.515625 C 3.640625 -2.785156 3.441406 -3.109375 3.296875 -3.484375 C 3.148438 -3.859375 3.078125 -4.28125 3.078125 -4.75 C 3.078125 -5.226562 3.148438 -5.65625 3.296875 -6.03125 C 3.441406 -6.414062 3.640625 -6.738281 3.890625 -7 C 4.140625 -7.257812 4.425781 -7.457031 4.75 -7.59375 C 5.082031 -7.738281 5.4375 -7.8125 5.8125 -7.8125 C 6.175781 -7.8125 6.523438 -7.738281 6.859375 -7.59375 C 7.191406 -7.445312 7.484375 -7.238281 7.734375 -6.96875 C 7.992188 -6.695312 8.195312 -6.375 8.34375 -6 C 8.488281 -5.632812 8.5625 -5.21875 8.5625 -4.75 Z M 8.5625 -4.75 "/></g></g></g><g fill="rgb(36.079407%, 88.238525%, 90.19928%)" fill-opacity="1"><g transform="translate(758.805198, 59.991068)"><g><path d="M 3.75 -10.96875 L 3.75 -13.03125 L 1.40625 -13.03125 L 1.40625 -10.96875 Z M 3.671875 0 L 3.671875 -9.5 L 1.5 -9.5 L 1.5 0 Z M 3.671875 0 "/></g></g></g><g fill="rgb(36.079407%, 88.238525%, 90.19928%)" fill-opacity="1"><g transform="translate(762.729139, 59.991068)"><g><path d="M 4 -7.625 L 6.546875 -7.625 L 6.546875 -9.5 L 4 -9.5 L 4 -12.109375 L 1.8125 -12.109375 L 1.8125 -9.5 L 0.609375 -9.5 L 0.609375 -7.625 L 1.8125 -7.625 L 1.8125 -2.625 C 1.8125 -2.101562 1.878906 -1.664062 2.015625 -1.3125 C 2.148438 -0.957031 2.335938 -0.671875 2.578125 -0.453125 C 2.828125 -0.234375 3.117188 -0.078125 3.453125 0.015625 C 3.785156 0.109375 4.148438 0.15625 4.546875 0.15625 C 4.960938 0.15625 5.328125 0.113281 5.640625 0.03125 C 5.953125 -0.0507812 6.242188 -0.171875 6.515625 -0.328125 L 6.515625 -2.109375 C 6.085938 -1.890625 5.640625 -1.78125 5.171875 -1.78125 C 4.796875 -1.78125 4.503906 -1.875 4.296875 -2.0625 C 4.097656 -2.25 4 -2.550781 4 -2.96875 Z M 4 -7.625 "/></g></g></g><g fill="rgb(36.079407%, 88.238525%, 90.19928%)" fill-opacity="1"><g transform="translate(768.885067, 59.991068)"><g/></g></g><g fill="rgb(36.079407%, 88.238525%, 90.19928%)" fill-opacity="1"><g transform="translate(773.061008, 59.991068)"><g><path d="M 12.3125 0 L 8.90625 -4.765625 C 9.351562 -4.890625 9.757812 -5.0625 10.125 -5.28125 C 10.488281 -5.5 10.800781 -5.765625 11.0625 -6.078125 C 11.332031 -6.398438 11.539062 -6.769531 11.6875 -7.1875 C 11.84375 -7.601562 11.921875 -8.078125 11.921875 -8.609375 C 11.921875 -9.210938 11.8125 -9.765625 11.59375 -10.265625 C 11.375 -10.765625 11.0625 -11.1875 10.65625 -11.53125 C 10.257812 -11.875 9.769531 -12.132812 9.1875 -12.3125 C 8.601562 -12.5 7.953125 -12.59375 7.234375 -12.59375 L 1.625 -12.59375 L 1.625 0 L 3.828125 0 L 3.828125 -4.390625 L 6.609375 -4.390625 L 9.703125 0 Z M 9.671875 -8.484375 C 9.671875 -7.828125 9.4375 -7.304688 8.96875 -6.921875 C 8.5 -6.546875 7.867188 -6.359375 7.078125 -6.359375 L 3.828125 -6.359375 L 3.828125 -10.578125 L 7.0625 -10.578125 C 7.882812 -10.578125 8.523438 -10.398438 8.984375 -10.046875 C 9.441406 -9.691406 9.671875 -9.171875 9.671875 -8.484375 Z M 9.671875 -8.484375 "/></g></g></g><g fill="rgb(36.079407%, 88.238525%, 90.19928%)" fill-opacity="1"><g transform="translate(784.850919, 59.991068)"><g><path d="M 3.03125 -3.984375 L 10.015625 -3.984375 C 10.023438 -4.085938 10.03125 -4.1875 10.03125 -4.28125 C 10.039062 -4.375 10.046875 -4.472656 10.046875 -4.578125 C 10.046875 -5.253906 9.945312 -5.90625 9.75 -6.53125 C 9.5625 -7.15625 9.273438 -7.703125 8.890625 -8.171875 C 8.515625 -8.640625 8.039062 -9.007812 7.46875 -9.28125 C 6.90625 -9.5625 6.242188 -9.703125 5.484375 -9.703125 C 4.804688 -9.703125 4.179688 -9.566406 3.609375 -9.296875 C 3.046875 -9.035156 2.554688 -8.679688 2.140625 -8.234375 C 1.734375 -7.785156 1.414062 -7.257812 1.1875 -6.65625 C 0.957031 -6.0625 0.84375 -5.421875 0.84375 -4.734375 C 0.84375 -3.992188 0.96875 -3.316406 1.21875 -2.703125 C 1.476562 -2.097656 1.828125 -1.578125 2.265625 -1.140625 C 2.703125 -0.710938 3.21875 -0.378906 3.8125 -0.140625 C 4.40625 0.0976562 5.039062 0.21875 5.71875 0.21875 C 6.59375 0.21875 7.34375 0.0546875 7.96875 -0.265625 C 8.601562 -0.585938 9.148438 -1.019531 9.609375 -1.5625 L 8.328125 -2.703125 C 7.953125 -2.328125 7.5625 -2.039062 7.15625 -1.84375 C 6.757812 -1.65625 6.296875 -1.5625 5.765625 -1.5625 C 5.054688 -1.5625 4.453125 -1.769531 3.953125 -2.1875 C 3.460938 -2.601562 3.15625 -3.203125 3.03125 -3.984375 Z M 3 -5.421875 C 3.101562 -6.160156 3.375 -6.757812 3.8125 -7.21875 C 4.25 -7.6875 4.800781 -7.921875 5.46875 -7.921875 C 5.832031 -7.921875 6.15625 -7.851562 6.4375 -7.71875 C 6.71875 -7.59375 6.957031 -7.414062 7.15625 -7.1875 C 7.363281 -6.96875 7.523438 -6.703125 7.640625 -6.390625 C 7.765625 -6.085938 7.847656 -5.765625 7.890625 -5.421875 Z M 3 -5.421875 "/></g></g></g><g fill="rgb(36.079407%, 88.238525%, 90.19928%)" fill-opacity="1"><g transform="translate(794.498842, 59.991068)"><g><path d="M 8.15625 -2.8125 L 8.15625 -2.84375 C 8.15625 -3.269531 8.0625 -3.632812 7.875 -3.9375 C 7.695312 -4.238281 7.46875 -4.492188 7.1875 -4.703125 C 6.90625 -4.910156 6.585938 -5.085938 6.234375 -5.234375 C 5.890625 -5.378906 5.546875 -5.503906 5.203125 -5.609375 C 4.921875 -5.691406 4.648438 -5.78125 4.390625 -5.875 C 4.140625 -5.96875 3.914062 -6.0625 3.71875 -6.15625 C 3.519531 -6.257812 3.359375 -6.375 3.234375 -6.5 C 3.117188 -6.632812 3.0625 -6.785156 3.0625 -6.953125 L 3.0625 -6.984375 C 3.0625 -7.253906 3.175781 -7.476562 3.40625 -7.65625 C 3.644531 -7.84375 3.972656 -7.9375 4.390625 -7.9375 C 4.785156 -7.9375 5.21875 -7.851562 5.6875 -7.6875 C 6.15625 -7.53125 6.617188 -7.3125 7.078125 -7.03125 L 7.9375 -8.59375 C 7.4375 -8.925781 6.878906 -9.1875 6.265625 -9.375 C 5.648438 -9.570312 5.046875 -9.671875 4.453125 -9.671875 C 3.984375 -9.671875 3.539062 -9.601562 3.125 -9.46875 C 2.707031 -9.332031 2.34375 -9.140625 2.03125 -8.890625 C 1.726562 -8.640625 1.488281 -8.332031 1.3125 -7.96875 C 1.144531 -7.613281 1.0625 -7.210938 1.0625 -6.765625 L 1.0625 -6.734375 C 1.0625 -6.273438 1.148438 -5.890625 1.328125 -5.578125 C 1.515625 -5.273438 1.75 -5.019531 2.03125 -4.8125 C 2.3125 -4.601562 2.628906 -4.429688 2.984375 -4.296875 C 3.335938 -4.171875 3.6875 -4.050781 4.03125 -3.9375 C 4.3125 -3.851562 4.578125 -3.769531 4.828125 -3.6875 C 5.085938 -3.613281 5.316406 -3.523438 5.515625 -3.421875 C 5.710938 -3.328125 5.867188 -3.210938 5.984375 -3.078125 C 6.097656 -2.941406 6.15625 -2.785156 6.15625 -2.609375 L 6.15625 -2.578125 C 6.15625 -2.265625 6.023438 -2.015625 5.765625 -1.828125 C 5.503906 -1.640625 5.144531 -1.546875 4.6875 -1.546875 C 4.1875 -1.546875 3.671875 -1.644531 3.140625 -1.84375 C 2.609375 -2.039062 2.082031 -2.332031 1.5625 -2.71875 L 0.59375 -1.234375 C 1.195312 -0.773438 1.847656 -0.421875 2.546875 -0.171875 C 3.242188 0.0664062 3.9375 0.1875 4.625 0.1875 C 5.113281 0.1875 5.570312 0.125 6 0 C 6.4375 -0.132812 6.8125 -0.320312 7.125 -0.5625 C 7.445312 -0.8125 7.695312 -1.117188 7.875 -1.484375 C 8.0625 -1.859375 8.15625 -2.300781 8.15625 -2.8125 Z M 8.15625 -2.8125 "/></g></g></g><g fill="rgb(36.079407%, 88.238525%, 90.19928%)" fill-opacity="1"><g transform="translate(802.27477, 59.991068)"><g><path d="M 10.984375 -4.75 C 10.984375 -5.4375 10.851562 -6.078125 10.59375 -6.671875 C 10.34375 -7.273438 9.992188 -7.800781 9.546875 -8.25 C 9.097656 -8.695312 8.5625 -9.050781 7.9375 -9.3125 C 7.320312 -9.570312 6.648438 -9.703125 5.921875 -9.703125 C 5.191406 -9.703125 4.515625 -9.566406 3.890625 -9.296875 C 3.273438 -9.035156 2.742188 -8.679688 2.296875 -8.234375 C 1.847656 -7.785156 1.492188 -7.253906 1.234375 -6.640625 C 0.972656 -6.035156 0.84375 -5.394531 0.84375 -4.71875 C 0.84375 -4.03125 0.96875 -3.390625 1.21875 -2.796875 C 1.476562 -2.203125 1.832031 -1.679688 2.28125 -1.234375 C 2.726562 -0.785156 3.257812 -0.429688 3.875 -0.171875 C 4.5 0.0859375 5.171875 0.21875 5.890625 0.21875 C 6.617188 0.21875 7.296875 0.0859375 7.921875 -0.171875 C 8.546875 -0.441406 9.082031 -0.800781 9.53125 -1.25 C 9.976562 -1.695312 10.332031 -2.21875 10.59375 -2.8125 C 10.851562 -3.414062 10.984375 -4.0625 10.984375 -4.75 Z M 8.796875 -4.71875 C 8.796875 -4.300781 8.726562 -3.90625 8.59375 -3.53125 C 8.46875 -3.164062 8.28125 -2.84375 8.03125 -2.5625 C 7.78125 -2.289062 7.476562 -2.070312 7.125 -1.90625 C 6.769531 -1.75 6.367188 -1.671875 5.921875 -1.671875 C 5.503906 -1.671875 5.117188 -1.75 4.765625 -1.90625 C 4.410156 -2.070312 4.101562 -2.289062 3.84375 -2.5625 C 3.582031 -2.84375 3.378906 -3.171875 3.234375 -3.546875 C 3.097656 -3.929688 3.03125 -4.332031 3.03125 -4.75 C 3.03125 -5.164062 3.09375 -5.554688 3.21875 -5.921875 C 3.351562 -6.296875 3.546875 -6.617188 3.796875 -6.890625 C 4.046875 -7.171875 4.347656 -7.390625 4.703125 -7.546875 C 5.054688 -7.710938 5.453125 -7.796875 5.890625 -7.796875 C 6.316406 -7.796875 6.707031 -7.710938 7.0625 -7.546875 C 7.414062 -7.390625 7.722656 -7.171875 7.984375 -6.890625 C 8.242188 -6.609375 8.441406 -6.28125 8.578125 -5.90625 C 8.722656 -5.53125 8.796875 -5.132812 8.796875 -4.71875 Z M 8.796875 -4.71875 "/></g></g></g><g fill="rgb(36.079407%, 88.238525%, 90.19928%)" fill-opacity="1"><g transform="translate(812.87669, 59.991068)"><g><path d="M 7.609375 -4.140625 C 7.609375 -3.398438 7.410156 -2.820312 7.015625 -2.40625 C 6.617188 -1.988281 6.101562 -1.78125 5.46875 -1.78125 C 4.820312 -1.78125 4.320312 -1.976562 3.96875 -2.375 C 3.613281 -2.78125 3.4375 -3.359375 3.4375 -4.109375 L 3.4375 -9.5 L 1.265625 -9.5 L 1.265625 -3.453125 C 1.265625 -2.335938 1.554688 -1.445312 2.140625 -0.78125 C 2.734375 -0.125 3.566406 0.203125 4.640625 0.203125 C 5.367188 0.203125 5.96875 0.0351562 6.4375 -0.296875 C 6.90625 -0.628906 7.296875 -1.019531 7.609375 -1.46875 L 7.609375 0 L 9.796875 0 L 9.796875 -9.5 L 7.609375 -9.5 Z M 7.609375 -4.140625 "/></g></g></g><g fill="rgb(36.079407%, 88.238525%, 90.19928%)" fill-opacity="1"><g transform="translate(822.81261, 59.991068)"><g><path d="M 3.546875 -3.625 C 3.546875 -4.238281 3.625 -4.78125 3.78125 -5.25 C 3.9375 -5.726562 4.15625 -6.125 4.4375 -6.4375 C 4.726562 -6.75 5.070312 -6.984375 5.46875 -7.140625 C 5.863281 -7.296875 6.300781 -7.375 6.78125 -7.375 L 6.90625 -7.375 L 6.90625 -9.6875 C 6.070312 -9.71875 5.378906 -9.515625 4.828125 -9.078125 C 4.273438 -8.648438 3.847656 -8.078125 3.546875 -7.359375 L 3.546875 -9.5 L 1.375 -9.5 L 1.375 0 L 3.546875 0 Z M 3.546875 -3.625 "/></g></g></g><g fill="rgb(36.079407%, 88.238525%, 90.19928%)" fill-opacity="1"><g transform="translate(829.02254, 59.991068)"><g><path d="M 9.640625 -1.5625 L 8.328125 -2.859375 C 7.984375 -2.515625 7.613281 -2.226562 7.21875 -2 C 6.832031 -1.78125 6.382812 -1.671875 5.875 -1.671875 C 5.445312 -1.671875 5.054688 -1.75 4.703125 -1.90625 C 4.359375 -2.070312 4.0625 -2.289062 3.8125 -2.5625 C 3.5625 -2.84375 3.367188 -3.171875 3.234375 -3.546875 C 3.097656 -3.921875 3.03125 -4.320312 3.03125 -4.75 C 3.03125 -5.164062 3.097656 -5.554688 3.234375 -5.921875 C 3.367188 -6.296875 3.554688 -6.617188 3.796875 -6.890625 C 4.035156 -7.171875 4.320312 -7.390625 4.65625 -7.546875 C 5 -7.710938 5.367188 -7.796875 5.765625 -7.796875 C 6.316406 -7.796875 6.78125 -7.679688 7.15625 -7.453125 C 7.53125 -7.234375 7.882812 -6.953125 8.21875 -6.609375 L 9.578125 -8.0625 C 9.128906 -8.550781 8.609375 -8.945312 8.015625 -9.25 C 7.421875 -9.550781 6.675781 -9.703125 5.78125 -9.703125 C 5.070312 -9.703125 4.410156 -9.566406 3.796875 -9.296875 C 3.191406 -9.035156 2.671875 -8.675781 2.234375 -8.21875 C 1.796875 -7.769531 1.453125 -7.242188 1.203125 -6.640625 C 0.960938 -6.035156 0.84375 -5.394531 0.84375 -4.71875 C 0.84375 -4.03125 0.960938 -3.390625 1.203125 -2.796875 C 1.453125 -2.203125 1.796875 -1.679688 2.234375 -1.234375 C 2.671875 -0.785156 3.191406 -0.429688 3.796875 -0.171875 C 4.398438 0.0859375 5.054688 0.21875 5.765625 0.21875 C 6.679688 0.21875 7.441406 0.0507812 8.046875 -0.28125 C 8.648438 -0.613281 9.179688 -1.039062 9.640625 -1.5625 Z M 9.640625 -1.5625 "/></g></g></g><g fill="rgb(36.079407%, 88.238525%, 90.19928%)" fill-opacity="1"><g transform="translate(838.076463, 59.991068)"><g><path d="M 3.03125 -3.984375 L 10.015625 -3.984375 C 10.023438 -4.085938 10.03125 -4.1875 10.03125 -4.28125 C 10.039062 -4.375 10.046875 -4.472656 10.046875 -4.578125 C 10.046875 -5.253906 9.945312 -5.90625 9.75 -6.53125 C 9.5625 -7.15625 9.273438 -7.703125 8.890625 -8.171875 C 8.515625 -8.640625 8.039062 -9.007812 7.46875 -9.28125 C 6.90625 -9.5625 6.242188 -9.703125 5.484375 -9.703125 C 4.804688 -9.703125 4.179688 -9.566406 3.609375 -9.296875 C 3.046875 -9.035156 2.554688 -8.679688 2.140625 -8.234375 C 1.734375 -7.785156 1.414062 -7.257812 1.1875 -6.65625 C 0.957031 -6.0625 0.84375 -5.421875 0.84375 -4.734375 C 0.84375 -3.992188 0.96875 -3.316406 1.21875 -2.703125 C 1.476562 -2.097656 1.828125 -1.578125 2.265625 -1.140625 C 2.703125 -0.710938 3.21875 -0.378906 3.8125 -0.140625 C 4.40625 0.0976562 5.039062 0.21875 5.71875 0.21875 C 6.59375 0.21875 7.34375 0.0546875 7.96875 -0.265625 C 8.601562 -0.585938 9.148438 -1.019531 9.609375 -1.5625 L 8.328125 -2.703125 C 7.953125 -2.328125 7.5625 -2.039062 7.15625 -1.84375 C 6.757812 -1.65625 6.296875 -1.5625 5.765625 -1.5625 C 5.054688 -1.5625 4.453125 -1.769531 3.953125 -2.1875 C 3.460938 -2.601562 3.15625 -3.203125 3.03125 -3.984375 Z M 3 -5.421875 C 3.101562 -6.160156 3.375 -6.757812 3.8125 -7.21875 C 4.25 -7.6875 4.800781 -7.921875 5.46875 -7.921875 C 5.832031 -7.921875 6.15625 -7.851562 6.4375 -7.71875 C 6.71875 -7.59375 6.957031 -7.414062 7.15625 -7.1875 C 7.363281 -6.96875 7.523438 -6.703125 7.640625 -6.390625 C 7.765625 -6.085938 7.847656 -5.765625 7.890625 -5.421875 Z M 3 -5.421875 "/></g></g></g><g fill="rgb(56.858826%, 56.858826%, 56.858826%)" fill-opacity="1"><g transform="translate(264.277121, 194.888868)"><g><path d="M 12.3125 0 L 8.90625 -4.765625 C 9.351562 -4.890625 9.757812 -5.0625 10.125 -5.28125 C 10.488281 -5.5 10.800781 -5.765625 11.0625 -6.078125 C 11.332031 -6.398438 11.539062 -6.769531 11.6875 -7.1875 C 11.84375 -7.601562 11.921875 -8.078125 11.921875 -8.609375 C 11.921875 -9.210938 11.8125 -9.765625 11.59375 -10.265625 C 11.375 -10.765625 11.0625 -11.1875 10.65625 -11.53125 C 10.257812 -11.875 9.769531 -12.132812 9.1875 -12.3125 C 8.601562 -12.5 7.953125 -12.59375 7.234375 -12.59375 L 1.625 -12.59375 L 1.625 0 L 3.828125 0 L 3.828125 -4.390625 L 6.609375 -4.390625 L 9.703125 0 Z M 9.671875 -8.484375 C 9.671875 -7.828125 9.4375 -7.304688 8.96875 -6.921875 C 8.5 -6.546875 7.867188 -6.359375 7.078125 -6.359375 L 3.828125 -6.359375 L 3.828125 -10.578125 L 7.0625 -10.578125 C 7.882812 -10.578125 8.523438 -10.398438 8.984375 -10.046875 C 9.441406 -9.691406 9.671875 -9.171875 9.671875 -8.484375 Z M 9.671875 -8.484375 "/></g></g></g><g fill="rgb(56.858826%, 56.858826%, 56.858826%)" fill-opacity="1"><g transform="translate(276.625053, 194.888868)"><g><path d="M 3.03125 -3.984375 L 10.015625 -3.984375 C 10.023438 -4.085938 10.03125 -4.1875 10.03125 -4.28125 C 10.039062 -4.375 10.046875 -4.472656 10.046875 -4.578125 C 10.046875 -5.253906 9.945312 -5.90625 9.75 -6.53125 C 9.5625 -7.15625 9.273438 -7.703125 8.890625 -8.171875 C 8.515625 -8.640625 8.039062 -9.007812 7.46875 -9.28125 C 6.90625 -9.5625 6.242188 -9.703125 5.484375 -9.703125 C 4.804688 -9.703125 4.179688 -9.566406 3.609375 -9.296875 C 3.046875 -9.035156 2.554688 -8.679688 2.140625 -8.234375 C 1.734375 -7.785156 1.414062 -7.257812 1.1875 -6.65625 C 0.957031 -6.0625 0.84375 -5.421875 0.84375 -4.734375 C 0.84375 -3.992188 0.96875 -3.316406 1.21875 -2.703125 C 1.476562 -2.097656 1.828125 -1.578125 2.265625 -1.140625 C 2.703125 -0.710938 3.21875 -0.378906 3.8125 -0.140625 C 4.40625 0.0976562 5.039062 0.21875 5.71875 0.21875 C 6.59375 0.21875 7.34375 0.0546875 7.96875 -0.265625 C 8.601562 -0.585938 9.148438 -1.019531 9.609375 -1.5625 L 8.328125 -2.703125 C 7.953125 -2.328125 7.5625 -2.039062 7.15625 -1.84375 C 6.757812 -1.65625 6.296875 -1.5625 5.765625 -1.5625 C 5.054688 -1.5625 4.453125 -1.769531 3.953125 -2.1875 C 3.460938 -2.601562 3.15625 -3.203125 3.03125 -3.984375 Z M 3 -5.421875 C 3.101562 -6.160156 3.375 -6.757812 3.8125 -7.21875 C 4.25 -7.6875 4.800781 -7.921875 5.46875 -7.921875 C 5.832031 -7.921875 6.15625 -7.851562 6.4375 -7.71875 C 6.71875 -7.59375 6.957031 -7.414062 7.15625 -7.1875 C 7.363281 -6.96875 7.523438 -6.703125 7.640625 -6.390625 C 7.765625 -6.085938 7.847656 -5.765625 7.890625 -5.421875 Z M 3 -5.421875 "/></g></g></g><g fill="rgb(56.858826%, 56.858826%, 56.858826%)" fill-opacity="1"><g transform="translate(286.830994, 194.888868)"><g><path d="M 8.15625 -2.8125 L 8.15625 -2.84375 C 8.15625 -3.269531 8.0625 -3.632812 7.875 -3.9375 C 7.695312 -4.238281 7.46875 -4.492188 7.1875 -4.703125 C 6.90625 -4.910156 6.585938 -5.085938 6.234375 -5.234375 C 5.890625 -5.378906 5.546875 -5.503906 5.203125 -5.609375 C 4.921875 -5.691406 4.648438 -5.78125 4.390625 -5.875 C 4.140625 -5.96875 3.914062 -6.0625 3.71875 -6.15625 C 3.519531 -6.257812 3.359375 -6.375 3.234375 -6.5 C 3.117188 -6.632812 3.0625 -6.785156 3.0625 -6.953125 L 3.0625 -6.984375 C 3.0625 -7.253906 3.175781 -7.476562 3.40625 -7.65625 C 3.644531 -7.84375 3.972656 -7.9375 4.390625 -7.9375 C 4.785156 -7.9375 5.21875 -7.851562 5.6875 -7.6875 C 6.15625 -7.53125 6.617188 -7.3125 7.078125 -7.03125 L 7.9375 -8.59375 C 7.4375 -8.925781 6.878906 -9.1875 6.265625 -9.375 C 5.648438 -9.570312 5.046875 -9.671875 4.453125 -9.671875 C 3.984375 -9.671875 3.539062 -9.601562 3.125 -9.46875 C 2.707031 -9.332031 2.34375 -9.140625 2.03125 -8.890625 C 1.726562 -8.640625 1.488281 -8.332031 1.3125 -7.96875 C 1.144531 -7.613281 1.0625 -7.210938 1.0625 -6.765625 L 1.0625 -6.734375 C 1.0625 -6.273438 1.148438 -5.890625 1.328125 -5.578125 C 1.515625 -5.273438 1.75 -5.019531 2.03125 -4.8125 C 2.3125 -4.601562 2.628906 -4.429688 2.984375 -4.296875 C 3.335938 -4.171875 3.6875 -4.050781 4.03125 -3.9375 C 4.3125 -3.851562 4.578125 -3.769531 4.828125 -3.6875 C 5.085938 -3.613281 5.316406 -3.523438 5.515625 -3.421875 C 5.710938 -3.328125 5.867188 -3.210938 5.984375 -3.078125 C 6.097656 -2.941406 6.15625 -2.785156 6.15625 -2.609375 L 6.15625 -2.578125 C 6.15625 -2.265625 6.023438 -2.015625 5.765625 -1.828125 C 5.503906 -1.640625 5.144531 -1.546875 4.6875 -1.546875 C 4.1875 -1.546875 3.671875 -1.644531 3.140625 -1.84375 C 2.609375 -2.039062 2.082031 -2.332031 1.5625 -2.71875 L 0.59375 -1.234375 C 1.195312 -0.773438 1.847656 -0.421875 2.546875 -0.171875 C 3.242188 0.0664062 3.9375 0.1875 4.625 0.1875 C 5.113281 0.1875 5.570312 0.125 6 0 C 6.4375 -0.132812 6.8125 -0.320312 7.125 -0.5625 C 7.445312 -0.8125 7.695312 -1.117188 7.875 -1.484375 C 8.0625 -1.859375 8.15625 -2.300781 8.15625 -2.8125 Z M 8.15625 -2.8125 "/></g></g></g><g fill="rgb(56.858826%, 56.858826%, 56.858826%)" fill-opacity="1"><g transform="translate(295.164945, 194.888868)"><g><path d="M 10.984375 -4.75 C 10.984375 -5.4375 10.851562 -6.078125 10.59375 -6.671875 C 10.34375 -7.273438 9.992188 -7.800781 9.546875 -8.25 C 9.097656 -8.695312 8.5625 -9.050781 7.9375 -9.3125 C 7.320312 -9.570312 6.648438 -9.703125 5.921875 -9.703125 C 5.191406 -9.703125 4.515625 -9.566406 3.890625 -9.296875 C 3.273438 -9.035156 2.742188 -8.679688 2.296875 -8.234375 C 1.847656 -7.785156 1.492188 -7.253906 1.234375 -6.640625 C 0.972656 -6.035156 0.84375 -5.394531 0.84375 -4.71875 C 0.84375 -4.03125 0.96875 -3.390625 1.21875 -2.796875 C 1.476562 -2.203125 1.832031 -1.679688 2.28125 -1.234375 C 2.726562 -0.785156 3.257812 -0.429688 3.875 -0.171875 C 4.5 0.0859375 5.171875 0.21875 5.890625 0.21875 C 6.617188 0.21875 7.296875 0.0859375 7.921875 -0.171875 C 8.546875 -0.441406 9.082031 -0.800781 9.53125 -1.25 C 9.976562 -1.695312 10.332031 -2.21875 10.59375 -2.8125 C 10.851562 -3.414062 10.984375 -4.0625 10.984375 -4.75 Z M 8.796875 -4.71875 C 8.796875 -4.300781 8.726562 -3.90625 8.59375 -3.53125 C 8.46875 -3.164062 8.28125 -2.84375 8.03125 -2.5625 C 7.78125 -2.289062 7.476562 -2.070312 7.125 -1.90625 C 6.769531 -1.75 6.367188 -1.671875 5.921875 -1.671875 C 5.503906 -1.671875 5.117188 -1.75 4.765625 -1.90625 C 4.410156 -2.070312 4.101562 -2.289062 3.84375 -2.5625 C 3.582031 -2.84375 3.378906 -3.171875 3.234375 -3.546875 C 3.097656 -3.929688 3.03125 -4.332031 3.03125 -4.75 C 3.03125 -5.164062 3.09375 -5.554688 3.21875 -5.921875 C 3.351562 -6.296875 3.546875 -6.617188 3.796875 -6.890625 C 4.046875 -7.171875 4.347656 -7.390625 4.703125 -7.546875 C 5.054688 -7.710938 5.453125 -7.796875 5.890625 -7.796875 C 6.316406 -7.796875 6.707031 -7.710938 7.0625 -7.546875 C 7.414062 -7.390625 7.722656 -7.171875 7.984375 -6.890625 C 8.242188 -6.609375 8.441406 -6.28125 8.578125 -5.90625 C 8.722656 -5.53125 8.796875 -5.132812 8.796875 -4.71875 Z M 8.796875 -4.71875 "/></g></g></g><g fill="rgb(56.858826%, 56.858826%, 56.858826%)" fill-opacity="1"><g transform="translate(306.32489, 194.888868)"><g><path d="M 7.609375 -4.140625 C 7.609375 -3.398438 7.410156 -2.820312 7.015625 -2.40625 C 6.617188 -1.988281 6.101562 -1.78125 5.46875 -1.78125 C 4.820312 -1.78125 4.320312 -1.976562 3.96875 -2.375 C 3.613281 -2.78125 3.4375 -3.359375 3.4375 -4.109375 L 3.4375 -9.5 L 1.265625 -9.5 L 1.265625 -3.453125 C 1.265625 -2.335938 1.554688 -1.445312 2.140625 -0.78125 C 2.734375 -0.125 3.566406 0.203125 4.640625 0.203125 C 5.367188 0.203125 5.96875 0.0351562 6.4375 -0.296875 C 6.90625 -0.628906 7.296875 -1.019531 7.609375 -1.46875 L 7.609375 0 L 9.796875 0 L 9.796875 -9.5 L 7.609375 -9.5 Z M 7.609375 -4.140625 "/></g></g></g><g fill="rgb(56.858826%, 56.858826%, 56.858826%)" fill-opacity="1"><g transform="translate(316.818835, 194.888868)"><g><path d="M 3.546875 -3.625 C 3.546875 -4.238281 3.625 -4.78125 3.78125 -5.25 C 3.9375 -5.726562 4.15625 -6.125 4.4375 -6.4375 C 4.726562 -6.75 5.070312 -6.984375 5.46875 -7.140625 C 5.863281 -7.296875 6.300781 -7.375 6.78125 -7.375 L 6.90625 -7.375 L 6.90625 -9.6875 C 6.070312 -9.71875 5.378906 -9.515625 4.828125 -9.078125 C 4.273438 -8.648438 3.847656 -8.078125 3.546875 -7.359375 L 3.546875 -9.5 L 1.375 -9.5 L 1.375 0 L 3.546875 0 Z M 3.546875 -3.625 "/></g></g></g><g fill="rgb(56.858826%, 56.858826%, 56.858826%)" fill-opacity="1"><g transform="translate(323.58679, 194.888868)"><g><path d="M 9.640625 -1.5625 L 8.328125 -2.859375 C 7.984375 -2.515625 7.613281 -2.226562 7.21875 -2 C 6.832031 -1.78125 6.382812 -1.671875 5.875 -1.671875 C 5.445312 -1.671875 5.054688 -1.75 4.703125 -1.90625 C 4.359375 -2.070312 4.0625 -2.289062 3.8125 -2.5625 C 3.5625 -2.84375 3.367188 -3.171875 3.234375 -3.546875 C 3.097656 -3.921875 3.03125 -4.320312 3.03125 -4.75 C 3.03125 -5.164062 3.097656 -5.554688 3.234375 -5.921875 C 3.367188 -6.296875 3.554688 -6.617188 3.796875 -6.890625 C 4.035156 -7.171875 4.320312 -7.390625 4.65625 -7.546875 C 5 -7.710938 5.367188 -7.796875 5.765625 -7.796875 C 6.316406 -7.796875 6.78125 -7.679688 7.15625 -7.453125 C 7.53125 -7.234375 7.882812 -6.953125 8.21875 -6.609375 L 9.578125 -8.0625 C 9.128906 -8.550781 8.609375 -8.945312 8.015625 -9.25 C 7.421875 -9.550781 6.675781 -9.703125 5.78125 -9.703125 C 5.070312 -9.703125 4.410156 -9.566406 3.796875 -9.296875 C 3.191406 -9.035156 2.671875 -8.675781 2.234375 -8.21875 C 1.796875 -7.769531 1.453125 -7.242188 1.203125 -6.640625 C 0.960938 -6.035156 0.84375 -5.394531 0.84375 -4.71875 C 0.84375 -4.03125 0.960938 -3.390625 1.203125 -2.796875 C 1.453125 -2.203125 1.796875 -1.679688 2.234375 -1.234375 C 2.671875 -0.785156 3.191406 -0.429688 3.796875 -0.171875 C 4.398438 0.0859375 5.054688 0.21875 5.765625 0.21875 C 6.679688 0.21875 7.441406 0.0507812 8.046875 -0.28125 C 8.648438 -0.613281 9.179688 -1.039062 9.640625 -1.5625 Z M 9.640625 -1.5625 "/></g></g></g><g fill="rgb(56.858826%, 56.858826%, 56.858826%)" fill-opacity="1"><g transform="translate(333.198739, 194.888868)"><g><path d="M 3.03125 -3.984375 L 10.015625 -3.984375 C 10.023438 -4.085938 10.03125 -4.1875 10.03125 -4.28125 C 10.039062 -4.375 10.046875 -4.472656 10.046875 -4.578125 C 10.046875 -5.253906 9.945312 -5.90625 9.75 -6.53125 C 9.5625 -7.15625 9.273438 -7.703125 8.890625 -8.171875 C 8.515625 -8.640625 8.039062 -9.007812 7.46875 -9.28125 C 6.90625 -9.5625 6.242188 -9.703125 5.484375 -9.703125 C 4.804688 -9.703125 4.179688 -9.566406 3.609375 -9.296875 C 3.046875 -9.035156 2.554688 -8.679688 2.140625 -8.234375 C 1.734375 -7.785156 1.414062 -7.257812 1.1875 -6.65625 C 0.957031 -6.0625 0.84375 -5.421875 0.84375 -4.734375 C 0.84375 -3.992188 0.96875 -3.316406 1.21875 -2.703125 C 1.476562 -2.097656 1.828125 -1.578125 2.265625 -1.140625 C 2.703125 -0.710938 3.21875 -0.378906 3.8125 -0.140625 C 4.40625 0.0976562 5.039062 0.21875 5.71875 0.21875 C 6.59375 0.21875 7.34375 0.0546875 7.96875 -0.265625 C 8.601562 -0.585938 9.148438 -1.019531 9.609375 -1.5625 L 8.328125 -2.703125 C 7.953125 -2.328125 7.5625 -2.039062 7.15625 -1.84375 C 6.757812 -1.65625 6.296875 -1.5625 5.765625 -1.5625 C 5.054688 -1.5625 4.453125 -1.769531 3.953125 -2.1875 C 3.460938 -2.601562 3.15625 -3.203125 3.03125 -3.984375 Z M 3 -5.421875 C 3.101562 -6.160156 3.375 -6.757812 3.8125 -7.21875 C 4.25 -7.6875 4.800781 -7.921875 5.46875 -7.921875 C 5.832031 -7.921875 6.15625 -7.851562 6.4375 -7.71875 C 6.71875 -7.59375 6.957031 -7.414062 7.15625 -7.1875 C 7.363281 -6.96875 7.523438 -6.703125 7.640625 -6.390625 C 7.765625 -6.085938 7.847656 -5.765625 7.890625 -5.421875 Z M 3 -5.421875 "/></g></g></g><g fill="rgb(56.858826%, 56.858826%, 56.858826%)" fill-opacity="1"><g transform="translate(343.404683, 194.888868)"><g/></g></g><g fill="rgb(56.858826%, 56.858826%, 56.858826%)" fill-opacity="1"><g transform="translate(348.138645, 194.888868)"><g><path d="M 4 -7.625 L 6.546875 -7.625 L 6.546875 -9.5 L 4 -9.5 L 4 -12.109375 L 1.8125 -12.109375 L 1.8125 -9.5 L 0.609375 -9.5 L 0.609375 -7.625 L 1.8125 -7.625 L 1.8125 -2.625 C 1.8125 -2.101562 1.878906 -1.664062 2.015625 -1.3125 C 2.148438 -0.957031 2.335938 -0.671875 2.578125 -0.453125 C 2.828125 -0.234375 3.117188 -0.078125 3.453125 0.015625 C 3.785156 0.109375 4.148438 0.15625 4.546875 0.15625 C 4.960938 0.15625 5.328125 0.113281 5.640625 0.03125 C 5.953125 -0.0507812 6.242188 -0.171875 6.515625 -0.328125 L 6.515625 -2.109375 C 6.085938 -1.890625 5.640625 -1.78125 5.171875 -1.78125 C 4.796875 -1.78125 4.503906 -1.875 4.296875 -2.0625 C 4.097656 -2.25 4 -2.550781 4 -2.96875 Z M 4 -7.625 "/></g></g></g><g fill="rgb(56.858826%, 56.858826%, 56.858826%)" fill-opacity="1"><g transform="translate(354.852596, 194.888868)"><g><path d="M 3.75 -10.96875 L 3.75 -13.03125 L 1.40625 -13.03125 L 1.40625 -10.96875 Z M 3.671875 0 L 3.671875 -9.5 L 1.5 -9.5 L 1.5 0 Z M 3.671875 0 "/></g></g></g><g fill="rgb(56.858826%, 56.858826%, 56.858826%)" fill-opacity="1"><g transform="translate(359.334559, 194.888868)"><g><path d="M 4 -7.625 L 6.546875 -7.625 L 6.546875 -9.5 L 4 -9.5 L 4 -12.109375 L 1.8125 -12.109375 L 1.8125 -9.5 L 0.609375 -9.5 L 0.609375 -7.625 L 1.8125 -7.625 L 1.8125 -2.625 C 1.8125 -2.101562 1.878906 -1.664062 2.015625 -1.3125 C 2.148438 -0.957031 2.335938 -0.671875 2.578125 -0.453125 C 2.828125 -0.234375 3.117188 -0.078125 3.453125 0.015625 C 3.785156 0.109375 4.148438 0.15625 4.546875 0.15625 C 4.960938 0.15625 5.328125 0.113281 5.640625 0.03125 C 5.953125 -0.0507812 6.242188 -0.171875 6.515625 -0.328125 L 6.515625 -2.109375 C 6.085938 -1.890625 5.640625 -1.78125 5.171875 -1.78125 C 4.796875 -1.78125 4.503906 -1.875 4.296875 -2.0625 C 4.097656 -2.25 4 -2.550781 4 -2.96875 Z M 4 -7.625 "/></g></g></g><g fill="rgb(56.858826%, 56.858826%, 56.858826%)" fill-opacity="1"><g transform="translate(366.048504, 194.888868)"><g><path d="M 3.671875 0 L 3.671875 -13.140625 L 1.5 -13.140625 L 1.5 0 Z M 3.671875 0 "/></g></g></g><g fill="rgb(56.858826%, 56.858826%, 56.858826%)" fill-opacity="1"><g transform="translate(370.530468, 194.888868)"><g><path d="M 3.03125 -3.984375 L 10.015625 -3.984375 C 10.023438 -4.085938 10.03125 -4.1875 10.03125 -4.28125 C 10.039062 -4.375 10.046875 -4.472656 10.046875 -4.578125 C 10.046875 -5.253906 9.945312 -5.90625 9.75 -6.53125 C 9.5625 -7.15625 9.273438 -7.703125 8.890625 -8.171875 C 8.515625 -8.640625 8.039062 -9.007812 7.46875 -9.28125 C 6.90625 -9.5625 6.242188 -9.703125 5.484375 -9.703125 C 4.804688 -9.703125 4.179688 -9.566406 3.609375 -9.296875 C 3.046875 -9.035156 2.554688 -8.679688 2.140625 -8.234375 C 1.734375 -7.785156 1.414062 -7.257812 1.1875 -6.65625 C 0.957031 -6.0625 0.84375 -5.421875 0.84375 -4.734375 C 0.84375 -3.992188 0.96875 -3.316406 1.21875 -2.703125 C 1.476562 -2.097656 1.828125 -1.578125 2.265625 -1.140625 C 2.703125 -0.710938 3.21875 -0.378906 3.8125 -0.140625 C 4.40625 0.0976562 5.039062 0.21875 5.71875 0.21875 C 6.59375 0.21875 7.34375 0.0546875 7.96875 -0.265625 C 8.601562 -0.585938 9.148438 -1.019531 9.609375 -1.5625 L 8.328125 -2.703125 C 7.953125 -2.328125 7.5625 -2.039062 7.15625 -1.84375 C 6.757812 -1.65625 6.296875 -1.5625 5.765625 -1.5625 C 5.054688 -1.5625 4.453125 -1.769531 3.953125 -2.1875 C 3.460938 -2.601562 3.15625 -3.203125 3.03125 -3.984375 Z M 3 -5.421875 C 3.101562 -6.160156 3.375 -6.757812 3.8125 -7.21875 C 4.25 -7.6875 4.800781 -7.921875 5.46875 -7.921875 C 5.832031 -7.921875 6.15625 -7.851562 6.4375 -7.71875 C 6.71875 -7.59375 6.957031 -7.414062 7.15625 -7.1875 C 7.363281 -6.96875 7.523438 -6.703125 7.640625 -6.390625 C 7.765625 -6.085938 7.847656 -5.765625 7.890625 -5.421875 Z M 3 -5.421875 "/></g></g></g><path fill="rgb(70.199585%, 90.19928%, 73.329163%)" d="M 228.441406 317.558594 C 224.09375 317.558594 220.566406 321.082031 220.566406 325.433594 C 220.566406 329.78125 224.09375 333.308594 228.441406 333.308594 C 232.792969 333.308594 236.316406 329.78125 236.316406 325.433594 C 236.316406 321.082031 232.792969 317.558594 228.441406 317.558594 " fill-opacity="1" fill-rule="nonzero"/><path fill="rgb(70.199585%, 90.19928%, 73.329163%)" d="M 236.402344 571.609375 C 232.050781 571.609375 228.527344 575.132812 228.527344 579.484375 C 228.527344 583.832031 232.050781 587.359375 236.402344 587.359375 C 240.75 587.359375 244.277344 583.832031 244.277344 579.484375 C 244.277344 575.132812 240.75 571.609375 236.402344 571.609375 " fill-opacity="1" fill-rule="nonzero"/><path stroke-linecap="butt" transform="matrix(0.75, 0, 0, 0.75, -0.749973, 102.374971)" fill="none" stroke-linejoin="miter" d="M -0.0000356258 0.0000392832 L 1400.000094 0.0000392832 " stroke="rgb(79.998779%, 79.60968%, 78.819275%)" stroke-width="1" stroke-opacity="1" stroke-miterlimit="4"/><path stroke-linecap="butt" transform="matrix(0.000000000000000046, -0.75, 0.75, 0.000000000000000046, 115.035748, 1049.999883)" fill="none" stroke-linejoin="miter" d="M -0.000156067 -0.000789023 L 1399.999973 -0.000789023 " stroke="rgb(79.998779%, 79.60968%, 78.819275%)" stroke-width="1" stroke-opacity="1" stroke-miterlimit="4"/><g clip-path="url(#id1)"><path fill="rgb(27.839661%, 69.018555%, 29.40979%)" d="M 54.921875 25.246094 C 70.242188 25.246094 82.660156 37.667969 82.660156 52.988281 C 82.660156 68.308594 70.242188 80.726562 54.921875 80.726562 C 39.601562 80.726562 27.179688 68.308594 27.179688 52.988281 C 27.179688 37.667969 39.601562 25.246094 54.921875 25.246094 " fill-opacity="1" fill-rule="nonzero"/></g><g clip-path="url(#id2)"><g clip-path="url(#id3)"><path fill="rgb(95.689392%, 68.629456%, 46.269226%)" d="M 58.941406 60.519531 L 58.941406 57.316406 L 50.609375 57.316406 L 50.609375 60.519531 C 50.609375 62.28125 48.9375 64.003906 46.875 64.371094 L 41.972656 66.597656 C 39.84375 67.035156 38.296875 68.882812 38.242188 71.058594 L 54.902344 81.09375 L 71.566406 71.058594 C 71.507812 68.886719 69.964844 67.039062 67.835938 66.597656 L 62.675781 64.363281 C 60.609375 64 58.941406 62.277344 58.941406 60.519531 " fill-opacity="1" fill-rule="nonzero"/></g></g><g clip-path="url(#id4)"><g clip-path="url(#id5)"><path fill="rgb(25.099182%, 61.959839%, 26.269531%)" d="M 61.554688 64.019531 C 61.476562 63.988281 61.402344 63.953125 61.328125 63.914062 C 61.402344 63.953125 61.480469 63.988281 61.554688 64.019531 M 60.867188 63.648438 C 59.71875 62.902344 58.941406 61.71875 58.941406 60.519531 L 58.941406 57.316406 L 58.941406 60.511719 C 58.941406 61.710938 59.714844 62.890625 60.851562 63.640625 C 60.859375 63.644531 60.863281 63.644531 60.867188 63.648438 M 50.582031 60.925781 C 50.578125 60.925781 50.578125 60.925781 50.578125 60.921875 C 50.597656 60.789062 50.609375 60.65625 50.609375 60.519531 C 50.609375 60.65625 50.597656 60.789062 50.582031 60.925781 " fill-opacity="1" fill-rule="nonzero"/></g></g><g clip-path="url(#id6)"><g clip-path="url(#id7)"><path fill="rgb(85.879517%, 61.569214%, 41.569519%)" d="M 59.140625 64.359375 C 57.863281 64.359375 56.410156 64.125 54.941406 63.617188 C 53.308594 63.046875 51.820312 62.128906 50.582031 60.925781 C 50.597656 60.789062 50.609375 60.65625 50.609375 60.519531 L 50.609375 57.316406 L 58.941406 57.316406 L 58.941406 60.519531 C 58.941406 61.71875 59.71875 62.902344 60.867188 63.648438 C 61.015625 63.746094 61.171875 63.835938 61.328125 63.914062 C 61.402344 63.953125 61.476562 63.988281 61.554688 64.019531 C 60.867188 64.242188 60.046875 64.359375 59.140625 64.359375 " fill-opacity="1" fill-rule="nonzero"/></g></g><g clip-path="url(#id8)"><g clip-path="url(#id9)"><path fill="rgb(6.669617%, 6.669617%, 6.269836%)" d="M 69.34375 100.914062 L 72.019531 100.011719 C 72.574219 99.804688 72.921875 99.253906 72.875 98.664062 L 72.144531 92.140625 C 72.210938 91.433594 71.738281 71.007812 71.738281 71.007812 C 71.679688 68.832031 70.136719 66.988281 68.007812 66.546875 L 62.675781 64.363281 C 61.984375 64.246094 61.703125 71.410156 54.902344 71.410156 C 48.101562 71.410156 47.566406 64.246094 46.875 64.363281 L 41.84375 66.570312 C 39.714844 67.011719 38.171875 68.859375 38.113281 71.03125 C 38.113281 71.03125 37.632812 91.445312 37.722656 92.140625 L 36.953125 98.742188 C 36.902344 99.335938 37.253906 99.886719 37.808594 100.09375 L 40.472656 100.992188 C 40.957031 101.167969 41.488281 100.914062 41.660156 100.429688 L 41.691406 100.324219 L 42.941406 95.292969 C 43.324219 93.632812 43.539062 91.9375 43.585938 90.230469 L 43.679688 79.691406 L 46.582031 91.734375 C 46.878906 93.332031 46.605469 94.984375 45.804688 96.398438 L 42.667969 101.3125 L 48.964844 100.800781 L 54.902344 102.574219 L 60.761719 100.777344 L 67.179688 101.3125 L 64.039062 96.390625 C 63.242188 94.980469 62.96875 93.332031 63.261719 91.734375 L 66.160156 79.6875 L 66.253906 90.226562 C 66.308594 91.933594 66.527344 93.628906 66.910156 95.292969 L 68.125 100.246094 C 68.242188 100.746094 68.742188 101.058594 69.238281 100.941406 L 69.34375 100.914062 " fill-opacity="1" fill-rule="nonzero"/></g></g><g clip-path="url(#id10)"><g clip-path="url(#id11)"><path fill="rgb(93.728638%, 85.488892%, 45.878601%)" d="M 60.789062 62.566406 C 63.980469 69.09375 56.414062 72.363281 68.523438 81.085938 C 60.128906 74.339844 67.980469 65.351562 65.917969 58.910156 C 64.902344 55.738281 63.238281 55.410156 61.101562 52.769531 C 61.785156 56.871094 58.359375 57.59375 60.789062 62.566406 " fill-opacity="1" fill-rule="nonzero"/></g></g><g clip-path="url(#id12)"><g clip-path="url(#id13)"><path fill="rgb(93.728638%, 85.488892%, 45.878601%)" d="M 51.875 58.296875 C 55.523438 58.296875 61.132812 56.472656 63.976562 49.945312 C 67.179688 44.640625 65.082031 37.917969 61.226562 38.121094 C 52.023438 31.734375 34.367188 40.59375 51.875 58.296875 " fill-opacity="1" fill-rule="nonzero"/></g></g><g clip-path="url(#id14)"><g clip-path="url(#id15)"><path fill="rgb(95.689392%, 68.629456%, 46.269226%)" d="M 44.367188 50.382812 C 44.671875 51.792969 45.871094 53.457031 46.394531 53.34375 C 46.914062 53.230469 47.097656 51.992188 46.796875 50.582031 C 46.496094 49.171875 45.828125 48.121094 45.28125 48.238281 C 44.734375 48.355469 44.058594 48.976562 44.367188 50.382812 " fill-opacity="1" fill-rule="nonzero"/></g></g><g clip-path="url(#id16)"><g clip-path="url(#id17)"><path fill="rgb(95.689392%, 68.629456%, 46.269226%)" d="M 64.828125 50.382812 C 64.523438 51.792969 63.324219 53.457031 62.800781 53.34375 C 62.277344 53.230469 62.097656 51.992188 62.394531 50.582031 C 62.691406 49.171875 63.375 48.121094 63.902344 48.238281 C 64.429688 48.355469 65.136719 48.976562 64.828125 50.382812 " fill-opacity="1" fill-rule="nonzero"/></g></g><g clip-path="url(#id18)"><g clip-path="url(#id19)"><path fill="rgb(95.689392%, 68.629456%, 46.269226%)" d="M 46.054688 48.796875 C 46.054688 55.835938 50.839844 62.289062 54.617188 62.289062 C 58.144531 62.289062 63.179688 55.835938 63.179688 48.796875 C 63.617188 43.527344 61.410156 41.453125 59.09375 42.441406 C 52.574219 47.640625 49.65625 47.804688 46.054688 48.796875 " fill-opacity="1" fill-rule="nonzero"/></g></g><g clip-path="url(#id20)"><g clip-path="url(#id21)"><path fill="rgb(10.198975%, 10.198975%, 10.198975%)" d="M 61.640625 52.128906 C 60.953125 53.410156 57.90625 53.132812 57.011719 52.535156 C 56.394531 52.128906 55.390625 50.050781 55.554688 50.03125 C 59.003906 48.761719 60.980469 48.890625 62.492188 49.167969 C 62.703125 49.3125 62.378906 50.746094 61.640625 52.117188 Z M 52.28125 52.535156 C 51.386719 53.121094 48.34375 53.398438 47.652344 52.128906 C 46.914062 50.761719 46.589844 49.324219 46.796875 49.191406 C 48.3125 48.890625 50.289062 48.761719 53.734375 50.03125 C 53.9375 50.050781 52.894531 52.132812 52.28125 52.535156 Z M 62.675781 48.421875 C 58.84375 48.246094 56.535156 49.167969 55.476562 49.40625 C 55.210938 49.472656 54.941406 49.523438 54.667969 49.554688 C 54.394531 49.523438 54.121094 49.472656 53.855469 49.40625 C 52.792969 49.152344 50.488281 48.246094 46.65625 48.421875 C 45.84375 48.667969 46.027344 48.761719 46.066406 49.480469 C 46.613281 50.152344 46.71875 51.28125 47.28125 52.234375 C 48.148438 53.6875 51.425781 53.828125 52.738281 52.699219 C 53.257812 52.1875 53.671875 51.574219 53.953125 50.902344 C 54.085938 50.5625 54.355469 50.289062 54.691406 50.152344 C 55.027344 50.292969 55.292969 50.5625 55.429688 50.902344 C 55.710938 51.578125 56.121094 52.1875 56.644531 52.699219 C 57.910156 53.828125 61.1875 53.6875 62.046875 52.234375 C 62.613281 51.28125 62.71875 50.152344 63.261719 49.480469 C 63.304688 48.761719 63.507812 48.667969 62.675781 48.421875 " fill-opacity="1" fill-rule="nonzero"/></g></g><path fill="rgb(92.158508%, 92.158508%, 92.158508%)" d="M 21.601562 139.144531 L 88.351562 139.144531 L 88.351562 189.394531 L 21.601562 189.394531 L 21.601562 139.144531 " fill-opacity="1" fill-rule="nonzero"/><path fill="rgb(92.158508%, 92.158508%, 92.158508%)" d="M 23.851562 207.25 L 90.601562 207.25 L 90.601562 257.5 L 23.851562 257.5 L 23.851562 207.25 " fill-opacity="1" fill-rule="nonzero"/><path fill="rgb(92.158508%, 92.158508%, 92.158508%)" d="M 23.851562 275.410156 L 90.601562 275.410156 L 90.601562 325.660156 L 23.851562 325.660156 L 23.851562 275.410156 " fill-opacity="1" fill-rule="nonzero"/><path fill="rgb(92.158508%, 92.158508%, 92.158508%)" d="M 23.851562 343.515625 L 90.601562 343.515625 L 90.601562 393.765625 L 23.851562 393.765625 L 23.851562 343.515625 " fill-opacity="1" fill-rule="nonzero"/><path fill="rgb(92.158508%, 92.158508%, 92.158508%)" d="M 26.101562 411.621094 L 92.851562 411.621094 L 92.851562 461.871094 L 26.101562 461.871094 L 26.101562 411.621094 " fill-opacity="1" fill-rule="nonzero"/><path fill="rgb(92.158508%, 92.158508%, 92.158508%)" d="M 26.101562 479.78125 L 92.851562 479.78125 L 92.851562 530.03125 L 26.101562 530.03125 L 26.101562 479.78125 " fill-opacity="1" fill-rule="nonzero"/><path fill="rgb(85.099792%, 85.099792%, 85.099792%)" d="M 610.746094 44.601562 L 699.941406 44.601562 L 699.941406 62.601562 L 610.746094 62.601562 L 610.746094 44.601562 " fill-opacity="1" fill-rule="nonzero"/><path stroke-linecap="butt" transform="matrix(0.750893, 0, 0, 0.75, 586.277612, 73.10388)" fill="none" stroke-linejoin="miter" d="M -0.000357856 0.00211881 L 183.791302 0.00211881 " stroke="rgb(85.099792%, 85.099792%, 85.099792%)" stroke-width="1" stroke-opacity="1" stroke-miterlimit="4"/><path stroke-linecap="butt" transform="matrix(0.750897, 0, 0, 0.75, 587.027612, 34.449586)" fill="none" stroke-linejoin="miter" d="M -0.000357761 -0.000489901 L 182.791322 -0.000489901 " stroke="rgb(85.099792%, 85.099792%, 85.099792%)" stroke-width="1" stroke-opacity="1" stroke-miterlimit="4"/><path stroke-linecap="butt" transform="matrix(0.000000000000000887, 0.756822, -0.75, 0.000000000000000879, 587.399684, 34.452633)" fill="none" stroke-linejoin="miter" d="M 0.000650119 0.00166248 L 51.537068 0.00166248 " stroke="rgb(85.099792%, 85.099792%, 85.099792%)" stroke-width="1" stroke-opacity="1" stroke-miterlimit="4"/></svg>