<svg xmlns="http://www.w3.org/2000/svg" xmlns:xlink="http://www.w3.org/1999/xlink" width="1400" zoomAndPan="magnify" viewBox="0 0 1050 1049.999947" height="1400" preserveAspectRatio="xMidYMid meet" version="1.0"><defs><clipPath id="id1"><path d="M 272 524 L 401 524 L 401 676 L 272 676 Z M 272 524 " clip-rule="nonzero"/></clipPath><clipPath id="id2"><path d="M 303.148438 483.453125 L 431.410156 552.152344 L 335.441406 731.320312 L 207.179688 662.621094 Z M 303.148438 483.453125 " clip-rule="nonzero"/></clipPath><clipPath id="id3"><path d="M 303.148438 483.453125 L 431.410156 552.152344 L 335.441406 731.320312 L 207.179688 662.621094 Z M 303.148438 483.453125 " clip-rule="nonzero"/></clipPath><clipPath id="id4"><path d="M 303.148438 483.453125 L 431.410156 552.152344 L 335.441406 731.320312 L 207.179688 662.621094 Z M 303.148438 483.453125 " clip-rule="nonzero"/></clipPath><clipPath id="id5"><path d="M 272 524 L 322 524 L 322 671 L 272 671 Z M 272 524 " clip-rule="nonzero"/></clipPath><clipPath id="id6"><path d="M 303.148438 483.453125 L 431.410156 552.152344 L 335.441406 731.320312 L 207.179688 662.621094 Z M 303.148438 483.453125 " clip-rule="nonzero"/></clipPath><clipPath id="id7"><path d="M 303.148438 483.453125 L 431.410156 552.152344 L 335.441406 731.320312 L 207.179688 662.621094 Z M 303.148438 483.453125 " clip-rule="nonzero"/></clipPath><clipPath id="id8"><path d="M 303.148438 483.453125 L 431.410156 552.152344 L 335.441406 731.320312 L 207.179688 662.621094 Z M 303.148438 483.453125 " clip-rule="nonzero"/></clipPath><clipPath id="id9"><path d="M 330 535 L 401 535 L 401 676 L 330 676 Z M 330 535 " clip-rule="nonzero"/></clipPath><clipPath id="id10"><path d="M 303.148438 483.453125 L 431.410156 552.152344 L 335.441406 731.320312 L 207.179688 662.621094 Z M 303.148438 483.453125 " clip-rule="nonzero"/></clipPath><clipPath id="id11"><path d="M 303.148438 483.453125 L 431.410156 552.152344 L 335.441406 731.320312 L 207.179688 662.621094 Z M 303.148438 483.453125 " clip-rule="nonzero"/></clipPath><clipPath id="id12"><path d="M 303.148438 483.453125 L 431.410156 552.152344 L 335.441406 731.320312 L 207.179688 662.621094 Z M 303.148438 483.453125 " clip-rule="nonzero"/></clipPath><clipPath id="id13"><path d="M 300 524 L 345 524 L 345 671 L 300 671 Z M 300 524 " clip-rule="nonzero"/></clipPath><clipPath id="id14"><path d="M 303.148438 483.453125 L 431.410156 552.152344 L 335.441406 731.320312 L 207.179688 662.621094 Z M 303.148438 483.453125 " clip-rule="nonzero"/></clipPath><clipPath id="id15"><path d="M 303.148438 483.453125 L 431.410156 552.152344 L 335.441406 731.320312 L 207.179688 662.621094 Z M 303.148438 483.453125 " clip-rule="nonzero"/></clipPath><clipPath id="id16"><path d="M 303.148438 483.453125 L 431.410156 552.152344 L 335.441406 731.320312 L 207.179688 662.621094 Z M 303.148438 483.453125 " clip-rule="nonzero"/></clipPath><clipPath id="id17"><path d="M 318 527 L 376 527 L 376 671 L 318 671 Z M 318 527 " clip-rule="nonzero"/></clipPath><clipPath id="id18"><path d="M 303.148438 483.453125 L 431.410156 552.152344 L 335.441406 731.320312 L 207.179688 662.621094 Z M 303.148438 483.453125 " clip-rule="nonzero"/></clipPath><clipPath id="id19"><path d="M 303.148438 483.453125 L 431.410156 552.152344 L 335.441406 731.320312 L 207.179688 662.621094 Z M 303.148438 483.453125 " clip-rule="nonzero"/></clipPath><clipPath id="id20"><path d="M 303.148438 483.453125 L 431.410156 552.152344 L 335.441406 731.320312 L 207.179688 662.621094 Z M 303.148438 483.453125 " clip-rule="nonzero"/></clipPath><clipPath id="id21"><path d="M 297 673 L 338 673 L 338 703 L 297 703 Z M 297 673 " clip-rule="nonzero"/></clipPath><clipPath id="id22"><path d="M 303.148438 483.453125 L 431.410156 552.152344 L 335.441406 731.320312 L 207.179688 662.621094 Z M 303.148438 483.453125 " clip-rule="nonzero"/></clipPath><clipPath id="id23"><path d="M 303.148438 483.453125 L 431.410156 552.152344 L 335.441406 731.320312 L 207.179688 662.621094 Z M 303.148438 483.453125 " clip-rule="nonzero"/></clipPath><clipPath id="id24"><path d="M 303.148438 483.453125 L 431.410156 552.152344 L 335.441406 731.320312 L 207.179688 662.621094 Z M 303.148438 483.453125 " clip-rule="nonzero"/></clipPath><clipPath id="id25"><path d="M 294 658 L 346 658 L 346 683 L 294 683 Z M 294 658 " clip-rule="nonzero"/></clipPath><clipPath id="id26"><path d="M 303.148438 483.453125 L 431.410156 552.152344 L 335.441406 731.320312 L 207.179688 662.621094 Z M 303.148438 483.453125 " clip-rule="nonzero"/></clipPath><clipPath id="id27"><path d="M 303.148438 483.453125 L 431.410156 552.152344 L 335.441406 731.320312 L 207.179688 662.621094 Z M 303.148438 483.453125 " clip-rule="nonzero"/></clipPath><clipPath id="id28"><path d="M 303.148438 483.453125 L 431.410156 552.152344 L 335.441406 731.320312 L 207.179688 662.621094 Z M 303.148438 483.453125 " clip-rule="nonzero"/></clipPath><clipPath id="id29"><path d="M 298 695 L 328 695 L 328 715 L 298 715 Z M 298 695 " clip-rule="nonzero"/></clipPath><clipPath id="id30"><path d="M 303.148438 483.453125 L 431.410156 552.152344 L 335.441406 731.320312 L 207.179688 662.621094 Z M 303.148438 483.453125 " clip-rule="nonzero"/></clipPath><clipPath id="id31"><path d="M 303.148438 483.453125 L 431.410156 552.152344 L 335.441406 731.320312 L 207.179688 662.621094 Z M 303.148438 483.453125 " clip-rule="nonzero"/></clipPath><clipPath id="id32"><path d="M 303.148438 483.453125 L 431.410156 552.152344 L 335.441406 731.320312 L 207.179688 662.621094 Z M 303.148438 483.453125 " clip-rule="nonzero"/></clipPath></defs><rect x="-105" width="1260" fill="#ffffff" y="-104.999995" height="1259.999936" fill-opacity="1"/><rect x="-105" width="1260" fill="#87f0e6" y="-104.999995" height="1259.999936" fill-opacity="1"/><rect x="-105" width="1260" fill="#ffffff" y="-104.999995" height="1259.999936" fill-opacity="1"/><rect x="-105" width="1260" fill="#87f0e6" y="-104.999995" height="1259.999936" fill-opacity="1"/><path fill="#2898c6" d="M 1296.492188 1677 L -380.503906 1677 L -380.503906 0.00390625 L 1296.492188 0.00390625 L 1296.492188 1677 " fill-opacity="1" fill-rule="nonzero"/><path fill="#54bbe6" d="M 1236.019531 221.871094 C 1201.488281 175.890625 1145.066406 145.945312 1081.335938 145.945312 C 1044.914062 145.945312 1010.90625 155.71875 981.988281 172.660156 C 977.125 171.160156 972.121094 169.933594 967 169.039062 C 960.066406 167.816406 952.902344 167.179688 945.589844 167.179688 C 906.082031 167.179688 871.152344 185.808594 849.824219 214.347656 C 819.609375 196.179688 784.074219 185.335938 745.964844 184.410156 C 727.710938 154.183594 696.230469 132.1875 659.058594 125.65625 C 651.566406 124.335938 643.847656 123.648438 635.960938 123.648438 C 588.242188 123.648438 546.691406 148.824219 525.011719 186.015625 C 514.25 180.75 502.617188 176.890625 490.347656 174.730469 C 482.863281 173.410156 475.132812 172.722656 467.242188 172.722656 C 431.351562 172.722656 398.9375 186.960938 375.855469 209.855469 C 361.871094 190.128906 339.5625 175.914062 312.925781 172.339844 C 289.683594 169.226562 267.265625 174.757812 249.21875 186.375 C 238.691406 166.953125 218.824219 152.503906 194.417969 149.234375 C 176.609375 146.847656 159.40625 150.820312 145.300781 159.316406 C 128.460938 142.589844 105.867188 130.890625 79.9375 127.421875 C 35.671875 121.488281 -6.179688 141.042969 -29.378906 174.371094 C -32.890625 173.472656 -36.488281 172.742188 -40.183594 172.25 C -67.105469 168.648438 -92.894531 176.859375 -111.851562 192.734375 C -117.558594 192.300781 -123.324219 192.078125 -129.144531 192.078125 C -167.960938 192.078125 -204.363281 201.882812 -235.859375 218.992188 C -258.554688 188.863281 -295.535156 169.226562 -337.347656 169.226562 C -348.550781 169.226562 -359.410156 170.632812 -369.738281 173.277344 C -373.394531 174.214844 -376.996094 175.304688 -380.503906 176.539062 L -380.503906 477.699219 L -6.855469 477.699219 C 11.324219 491.773438 33.609375 501.476562 58.476562 504.808594 C 87.214844 508.65625 115.082031 503.429688 138.957031 491.445312 C 147.777344 499.066406 158.996094 504.335938 171.65625 506.035156 C 197.03125 509.429688 220.957031 497.535156 233.230469 477.699219 L 250.480469 477.699219 C 250.480469 465.910156 248.792969 454.5 245.664062 443.667969 C 253.117188 441.1875 260.265625 438.019531 267.023438 434.230469 C 267.90625 441.414062 269.265625 448.460938 271.105469 455.320312 L 930.433594 455.320312 C 938.296875 437.140625 943.367188 417.585938 945.175781 397.140625 L 1103.402344 397.140625 C 1100.4375 409.457031 1098.851562 422.289062 1098.851562 435.476562 C 1098.851562 450.054688 1100.777344 464.203125 1104.398438 477.699219 L 1296.492188 477.699219 L 1296.492188 176.539062 C 1271.6875 185.253906 1250.585938 201.273438 1236.019531 221.871094 " fill-opacity="1" fill-rule="nonzero"/><path fill="#77c7ea" d="M 1210.851562 403.769531 C 1186.953125 385.671875 1156.746094 374.859375 1123.875 374.859375 C 1111.425781 374.859375 1099.347656 376.433594 1087.855469 379.34375 C 1056.210938 324.558594 995.167969 287.449219 925.042969 287.449219 C 853.703125 287.449219 791.789062 325.851562 760.636719 382.203125 C 749.144531 377.449219 736.488281 374.804688 723.175781 374.804688 C 682.402344 374.804688 647.710938 399.507812 634.5 434.085938 C 607.171875 412.8125 570.421875 403.046875 533.21875 410.425781 C 519.613281 347.796875 455.4375 307.582031 389.890625 320.585938 C 368.144531 324.898438 348.996094 334.558594 333.589844 347.796875 C 296.9375 313.847656 243.902344 297.28125 190.160156 307.941406 C 128.988281 320.082031 83.359375 364.230469 68.433594 418.273438 C 54.878906 414.035156 40.597656 411.523438 25.910156 411.011719 C -0.699219 351.265625 -67.097656 313.921875 -137.371094 324.1875 C -179.164062 330.289062 -214.371094 352.070312 -237.46875 382.316406 C -271.78125 355.136719 -317.605469 341.542969 -365.121094 348.488281 C -370.351562 349.25 -375.484375 350.25 -380.503906 351.453125 L -380.503906 758.027344 C -363.777344 751.871094 -349.089844 742.277344 -337.179688 730.261719 C -317.316406 764.128906 -285.84375 790.289062 -248.648438 804.621094 C -220.171875 815.589844 -188.332031 819.625 -155.765625 814.871094 C -148.1875 813.761719 -140.792969 812.214844 -133.617188 810.242188 C -119.753906 806.46875 -106.675781 801.144531 -94.554688 794.523438 C -57.78125 774.417969 -29.84375 742.3125 -15.667969 704.585938 C -7.425781 706.449219 1.035156 707.675781 9.648438 708.234375 C 44.363281 759.4375 109.5625 787.695312 175.839844 774.542969 C 215.753906 766.621094 249.027344 745.066406 271.496094 716.039062 C 307.828125 746.539062 358.179688 760.9375 409.175781 750.820312 C 471.691406 738.414062 517.949219 692.574219 531.816406 636.910156 C 548.019531 640.328125 565.21875 640.636719 582.511719 637.199219 C 585.445312 636.625 588.328125 635.945312 591.164062 635.171875 C 602.683594 639.949219 615.382812 642.609375 628.742188 642.609375 C 641.214844 642.609375 653.113281 640.285156 664.007812 636.089844 C 680.878906 691.925781 734.738281 732.789062 798.621094 732.789062 C 845.050781 732.789062 886.183594 711.195312 911.6875 677.964844 C 929.015625 697.496094 954.859375 709.910156 983.757812 709.910156 C 1030.5 709.910156 1069.273438 677.460938 1076.835938 634.851562 C 1091.539062 639.863281 1107.371094 642.609375 1123.875 642.609375 C 1127.910156 642.609375 1131.890625 642.449219 1135.832031 642.128906 C 1134.988281 651.058594 1135.234375 660.222656 1136.726562 669.484375 C 1146.613281 731.289062 1207.078125 773.742188 1271.757812 764.296875 C 1280.390625 763.035156 1288.664062 760.910156 1296.492188 758.027344 L 1296.492188 351.453125 C 1261.789062 359.835938 1232.203125 378.652344 1210.851562 403.769531 " fill-opacity="1" fill-rule="nonzero"/><path fill="#9fd1e8" d="M 1188.3125 603.957031 C 1182.332031 602.097656 1176.199219 600.613281 1169.914062 599.503906 C 1163.507812 598.371094 1156.953125 597.652344 1150.296875 597.363281 C 1148.082031 597.269531 1145.839844 597.210938 1143.609375 597.210938 C 1134.277344 597.210938 1125.171875 598.0625 1116.332031 599.679688 C 1104.984375 593.875 1092.875 589.265625 1080.171875 586.015625 C 1066.074219 582.414062 1051.25 580.488281 1035.960938 580.488281 C 1005.066406 580.488281 976.113281 588.351562 951.121094 602.054688 C 914.292969 546.804688 849.671875 510.121094 776.027344 510.121094 C 709.75 510.121094 650.734375 539.800781 612.75 586.015625 C 606.769531 593.289062 601.316406 600.984375 596.425781 609.03125 C 580.707031 592.960938 560.40625 581.035156 537.492188 575.183594 C 527.167969 572.539062 516.308594 571.136719 505.101562 571.136719 C 463.289062 571.136719 426.316406 590.777344 403.613281 620.894531 C 372.117188 603.792969 335.722656 593.976562 296.90625 593.976562 C 251.871094 593.976562 210.0625 607.148438 175.4375 629.640625 C 158.832031 613.226562 135.5625 603.023438 109.785156 603.023438 C 86.3125 603.023438 64.917969 611.476562 48.734375 625.378906 C 35.488281 607.527344 13.710938 595.871094 -10.929688 595.871094 C -28.917969 595.871094 -45.375 602.085938 -58.109375 612.382812 C -77.21875 598.042969 -101.292969 589.460938 -127.476562 589.460938 C -161.457031 589.460938 -191.90625 603.875 -212.523438 626.644531 C -253.667969 592.09375 -307.617188 571.128906 -366.699219 571.128906 C -371.335938 571.128906 -375.933594 571.261719 -380.503906 571.519531 L -380.503906 879.617188 L -341.789062 879.617188 C -331.726562 886.460938 -319.429688 890.496094 -306.132812 890.496094 C -298.507812 890.496094 -291.207031 889.167969 -284.46875 886.738281 C -274.03125 905.058594 -253.710938 917.484375 -230.351562 917.484375 C -220.628906 917.484375 -211.433594 915.324219 -203.257812 911.484375 C -179.136719 944.457031 -139.140625 966.039062 -93.84375 966.039062 C -64.820312 966.039062 -37.984375 957.160156 -16.085938 942.128906 C -6.246094 948.5 5.632812 952.230469 18.417969 952.230469 C 52.421875 952.230469 79.988281 925.890625 79.988281 893.398438 C 79.988281 889.640625 79.605469 885.972656 78.898438 882.410156 C 80.855469 881.53125 82.769531 880.589844 84.667969 879.605469 L 740.359375 879.605469 C 743.980469 866.109375 745.902344 851.957031 745.902344 837.382812 C 745.902344 818.746094 742.753906 800.816406 736.953125 784.039062 L 777.179688 784.039062 C 772.476562 799.929688 769.945312 816.679688 769.945312 834.003906 C 769.945312 849.75 772.015625 865.03125 775.925781 879.617188 L 1296.492188 879.617188 L 1296.492188 571.519531 C 1256.996094 573.710938 1220.132812 585.304688 1188.3125 603.957031 " fill-opacity="1" fill-rule="nonzero"/><path fill="#b2dded" d="M -376.042969 802.929688 C -332.957031 802.929688 -294.085938 820.039062 -266.40625 847.519531 C -243.972656 823.066406 -213.285156 805.691406 -178.496094 799.367188 C -161.636719 736.457031 -101.914062 689.957031 -30.816406 689.957031 C 11.457031 689.957031 49.703125 706.410156 77.316406 732.960938 C 106.9375 701.152344 150.085938 681.085938 198.160156 681.085938 C 286.980469 681.085938 359.066406 749.511719 359.855469 834.191406 C 377.421875 811.648438 405.523438 797.039062 437.203125 797.039062 C 452.710938 797.039062 467.339844 800.558594 480.320312 806.769531 C 503.15625 774.886719 541.519531 753.949219 585.003906 753.949219 C 625.675781 753.949219 661.847656 772.273438 685.046875 800.722656 C 707.691406 780.476562 738.125 768.058594 771.589844 768.058594 C 832.765625 768.058594 883.777344 809.46875 895.699219 864.535156 C 905.132812 853.3125 919.597656 846.125 935.835938 846.125 C 942.007812 846.125 947.914062 847.214844 953.386719 849.117188 C 966.574219 826.105469 986.464844 807.113281 1010.546875 794.523438 C 1022.566406 788.230469 1035.640625 783.535156 1049.449219 780.734375 C 1059.089844 778.777344 1069.089844 777.753906 1079.359375 777.753906 C 1111.300781 777.753906 1140.800781 787.742188 1164.636719 804.621094 C 1178.332031 814.316406 1190.171875 826.292969 1199.515625 839.953125 C 1225.421875 817.820312 1259.289062 804.019531 1296.492188 802.988281 L 1296.492188 1224.441406 C 1293.109375 1223.480469 1289.804688 1222.324219 1286.605469 1220.972656 C 1262.457031 1237.683594 1232.796875 1247.550781 1200.707031 1247.550781 C 1168.402344 1247.550781 1138.558594 1237.550781 1114.316406 1220.632812 C 1098.390625 1227.597656 1080.707031 1231.503906 1062.0625 1231.503906 C 1020.300781 1231.503906 983.324219 1212.042969 960.476562 1182.101562 C 956.691406 1177.160156 953.304688 1171.925781 950.332031 1166.445312 C 922.996094 1161.289062 898.386719 1148.867188 878.796875 1131.382812 C 866.171875 1137.179688 852.015625 1140.429688 837.078125 1140.429688 C 811.796875 1140.429688 788.804688 1131.121094 771.601562 1115.921875 C 746.734375 1146.199219 708.125 1165.667969 664.707031 1165.667969 C 627.195312 1165.667969 593.230469 1151.140625 568.648438 1127.652344 C 546.941406 1144.292969 519.394531 1154.273438 489.394531 1154.273438 C 432.109375 1154.273438 383.730469 1117.96875 368.023438 1068.132812 C 349.472656 1079.640625 327.339844 1086.335938 303.574219 1086.335938 C 276.183594 1086.335938 250.984375 1077.433594 230.917969 1062.523438 C 205.707031 1126.679688 140.933594 1172.347656 64.976562 1172.347656 C -2.390625 1172.347656 -60.976562 1136.433594 -90.953125 1083.554688 C -101.332031 1087.554688 -112.257812 1090.519531 -123.597656 1092.328125 C -135.578125 1129.5625 -164.992188 1159.503906 -202.753906 1173.414062 C -217.589844 1178.898438 -233.710938 1181.898438 -250.570312 1181.898438 C -260.679688 1181.898438 -270.503906 1180.785156 -279.964844 1178.742188 C -286.570312 1193.925781 -297.972656 1206.730469 -312.363281 1215.4375 C -325.230469 1223.226562 -340.46875 1227.71875 -356.816406 1227.71875 C -365.042969 1227.71875 -372.992188 1226.582031 -380.503906 1224.441406 L -380.503906 802.988281 C -379.027344 802.949219 -377.53125 802.929688 -376.042969 802.929688 " fill-opacity="1" fill-rule="nonzero"/><path fill="#cbe9f5" d="M 1228.261719 1050.539062 C 1193.148438 1020.441406 1147.105469 1001.730469 1096.527344 1000.496094 C 1078.277344 970.273438 1046.796875 948.277344 1009.632812 941.738281 C 1002.144531 940.421875 994.417969 939.734375 986.527344 939.734375 C 938.808594 939.734375 897.253906 964.910156 875.574219 1002.105469 C 864.816406 996.839844 853.1875 992.976562 840.914062 990.820312 C 833.425781 989.496094 825.699219 988.8125 817.804688 988.8125 C 794.679688 988.8125 772.980469 994.734375 754.308594 1005.074219 C 729.957031 980.242188 695.355469 964.710938 656.9375 964.710938 C 627.917969 964.710938 601.085938 973.585938 579.1875 988.628906 C 569.34375 982.246094 557.46875 978.523438 544.679688 978.523438 C 517.28125 978.523438 494.078125 995.621094 486.085938 1019.265625 C 454.894531 997.890625 416.660156 985.316406 375.355469 985.316406 C 338.945312 985.316406 304.929688 995.089844 276.011719 1012.035156 C 271.148438 1010.53125 266.152344 1009.308594 261.03125 1008.410156 C 254.089844 1007.191406 246.929688 1006.546875 239.621094 1006.546875 C 198.410156 1006.546875 162.171875 1026.808594 141.160156 1057.457031 C 138.265625 1056.546875 135.347656 1055.671875 132.382812 1054.914062 C 119.453125 1051.609375 105.855469 1049.84375 91.835938 1049.84375 C 66.324219 1049.84375 42.234375 1055.683594 20.953125 1066.027344 C -17.953125 1030.203125 -70.847656 1008.15625 -129.144531 1008.15625 C -167.960938 1008.15625 -204.363281 1017.96875 -235.859375 1035.070312 C -258.554688 1004.945312 -295.535156 985.304688 -337.347656 985.304688 C -348.550781 985.304688 -359.410156 986.71875 -369.738281 989.363281 C -373.394531 990.300781 -376.996094 991.394531 -380.503906 992.636719 L -380.503906 1293.792969 L 250.480469 1293.792969 C 250.480469 1273.191406 245.371094 1253.734375 236.304688 1236.507812 L 287.527344 1236.507812 C 297.652344 1255.738281 318.476562 1268.9375 342.546875 1268.9375 C 350.679688 1268.9375 358.4375 1267.417969 365.542969 1264.675781 C 376.542969 1301.09375 411.65625 1327.734375 453.3125 1327.734375 C 476.78125 1327.734375 498.179688 1319.269531 514.363281 1305.375 C 527.609375 1323.214844 549.382812 1334.878906 574.027344 1334.878906 C 592.011719 1334.878906 608.472656 1328.660156 621.207031 1318.367188 C 640.316406 1332.710938 664.386719 1341.285156 690.570312 1341.285156 C 735.273438 1341.285156 773.875 1316.363281 791.996094 1280.273438 C 795.605469 1280.695312 799.277344 1280.9375 803.015625 1280.9375 C 817.828125 1280.9375 831.8125 1277.484375 844.132812 1271.40625 L 1100.066406 1271.40625 C 1101.003906 1279.03125 1102.445312 1286.503906 1104.398438 1293.792969 L 1296.492188 1293.792969 L 1296.492188 992.636719 C 1266.839844 1003.050781 1242.476562 1023.910156 1228.261719 1050.539062 " fill-opacity="1" fill-rule="nonzero"/><path fill="#ffc511" d="M 725.03125 720.167969 C 725.03125 720.167969 639.609375 648.398438 576.847656 579.402344 C 508.0625 503.785156 500.15625 373.382812 651.171875 325.703125 C 802.1875 278.023438 856.25 365.976562 871.71875 439.9375 C 887.1875 513.898438 822.183594 685.457031 822.183594 685.457031 Z M 725.03125 720.167969 " fill-opacity="1" fill-rule="evenodd"/><path fill="#ff7d01" d="M 596.023438 350.722656 C 503.648438 409.429688 517.859375 514.558594 576.847656 579.402344 C 639.609375 648.398438 725.03125 720.167969 725.03125 720.167969 C 725.03125 720.167969 756.972656 715.015625 742.125 701.472656 C 688.042969 652.132812 598.183594 575.195312 573.925781 516.6875 C 552.066406 463.96875 554.476562 401.140625 596.023438 350.722656 Z M 596.023438 350.722656 " fill-opacity="1" fill-rule="evenodd"/><path fill="#ffa300" d="M 728.257812 312.179688 C 788.65625 331.242188 824.808594 380.777344 836.289062 435.460938 C 849.300781 497.449219 818.585938 611.714844 801.8125 682.992188 C 800.679688 687.816406 801.605469 690.609375 803.636719 692.085938 L 822.179688 685.460938 C 822.179688 685.460938 887.1875 513.898438 871.71875 439.9375 C 859.238281 380.265625 821.632812 311.488281 728.257812 312.179688 Z M 728.257812 312.179688 " fill-opacity="1" fill-rule="evenodd"/><path fill="#ffa300" d="M 651.171875 325.703125 C 640.265625 329.113281 629.632812 333.222656 619.265625 338.035156 C 595.617188 375.503906 588.71875 433.769531 613.464844 497.351562 C 653.035156 599.039062 765.4375 697.550781 765.4375 697.550781 L 778.210938 692.28125 C 778.210938 692.28125 696.597656 583.191406 657.890625 487.527344 C 617.851562 388.578125 637.679688 343.164062 652.011719 325.441406 Z M 651.171875 325.703125 " fill-opacity="1" fill-rule="evenodd"/><path fill="#ff7d01" d="M 667.359375 321.011719 C 689.332031 327.792969 730.855469 354.453125 753.503906 457.925781 C 775.570312 558.742188 769.8125 694.882812 769.8125 694.882812 L 783.328125 692.011719 C 783.328125 692.011719 821.3125 546.941406 796.558594 440.667969 C 781.398438 375.597656 743.03125 332.210938 703.503906 313.871094 C 691.300781 315.449219 679.25 317.832031 667.359375 321.011719 Z M 667.359375 321.011719 " fill-opacity="1" fill-rule="evenodd"/><path fill="#5cbbc5" d="M 729.972656 728.191406 L 726.628906 730.621094 L 765.351562 783.953125 L 768.695312 781.519531 Z M 824.804688 698.832031 L 822.957031 764.722656 L 827.09375 764.835938 L 828.9375 698.949219 Z M 758.46875 719.574219 L 754.90625 721.667969 L 787.351562 776.9375 L 790.917969 774.84375 Z M 798.8125 707.082031 L 803.242188 771.027344 L 807.367188 770.742188 L 802.9375 706.796875 Z M 798.8125 707.082031 " fill-opacity="1" fill-rule="evenodd"/><path fill="#98e2c5" d="M 701.445312 699.675781 C 699.71875 701.523438 726.222656 733.925781 730.800781 733.207031 C 733.953125 732.710938 822.964844 711.097656 827.601562 703.640625 C 832.242188 696.183594 833.449219 659.675781 831.207031 659.90625 C 828.964844 660.140625 701.445312 699.675781 701.445312 699.675781 Z M 701.445312 699.675781 " fill-opacity="1" fill-rule="evenodd"/><path fill="#8a4620" d="M 759.617188 780.335938 C 759.617188 780.335938 827.695312 757.175781 829.960938 759.253906 C 832.222656 761.332031 836.988281 793.207031 835.398438 795.554688 C 833.808594 797.898438 779.777344 818.5625 776.195312 815.96875 C 772.613281 813.371094 757.261719 782.453125 759.617188 780.335938 Z M 759.617188 780.335938 " fill-opacity="1" fill-rule="evenodd"/><g clip-path="url(#id1)"><g clip-path="url(#id2)"><g clip-path="url(#id3)"><g clip-path="url(#id4)"><path fill="#ffc511" d="M 299.234375 669.828125 C 299.234375 669.828125 283.640625 630.914062 275.070312 596.945312 C 265.671875 559.714844 286.164062 515.164062 344.664062 526.199219 C 403.164062 537.230469 405.492188 575.929688 397.511719 603.144531 C 389.53125 630.363281 337.582031 675.589844 337.582031 675.589844 Z M 299.234375 669.828125 " fill-opacity="1" fill-rule="evenodd"/></g></g></g></g><g clip-path="url(#id5)"><g clip-path="url(#id6)"><g clip-path="url(#id7)"><g clip-path="url(#id8)"><path fill="#ff7d01" d="M 321.953125 524.6875 C 280.933594 527.710938 267.011719 565.019531 275.066406 596.945312 C 283.640625 630.914062 299.234375 669.828125 299.234375 669.828125 C 299.234375 669.828125 310.730469 673.792969 308.210938 666.675781 C 299.03125 640.75 282.886719 599.339844 285.214844 575.675781 C 287.3125 554.351562 299.246094 533.992188 321.953125 524.6875 Z M 321.953125 524.6875 " fill-opacity="1" fill-rule="evenodd"/></g></g></g></g><g clip-path="url(#id9)"><g clip-path="url(#id10)"><g clip-path="url(#id11)"><g clip-path="url(#id12)"><path fill="#ffa300" d="M 372.609375 535.410156 C 389.246094 552.4375 392.449219 575.246094 386.5625 595.375 C 379.890625 618.195312 349.460938 650.550781 331.269531 671.15625 C 330.035156 672.550781 329.847656 673.640625 330.261719 674.488281 L 337.582031 675.589844 C 337.582031 675.589844 389.53125 630.363281 397.511719 603.144531 C 403.953125 581.1875 403.675781 551.753906 372.609375 535.410156 Z M 372.609375 535.410156 " fill-opacity="1" fill-rule="evenodd"/></g></g></g></g><g clip-path="url(#id13)"><g clip-path="url(#id14)"><g clip-path="url(#id15)"><g clip-path="url(#id16)"><path fill="#ffa300" d="M 344.664062 526.195312 C 340.445312 525.390625 336.191406 524.863281 331.90625 524.613281 C 317.425781 532.8125 304.8125 550.867188 301.746094 576.296875 C 296.839844 616.96875 316.632812 669.515625 316.632812 669.515625 L 321.800781 670.042969 C 321.800781 670.042969 314.085938 619.457031 318.210938 580.933594 C 322.476562 541.085938 337.097656 529.582031 344.988281 526.261719 Z M 344.664062 526.195312 " fill-opacity="1" fill-rule="evenodd"/></g></g></g></g><g clip-path="url(#id17)"><g clip-path="url(#id18)"><g clip-path="url(#id19)"><g clip-path="url(#id20)"><path fill="#ff7d01" d="M 350.859375 527.519531 C 356.941406 533.664062 365.976562 549.855469 355.144531 588.113281 C 344.589844 625.386719 318.554688 669.410156 318.554688 669.410156 L 323.542969 670.859375 C 323.542969 670.859375 361.84375 629.601562 372.472656 590.046875 C 378.980469 565.824219 373.957031 544.65625 364.105469 531.574219 C 359.78125 529.929688 355.367188 528.578125 350.859375 527.519531 Z M 350.859375 527.519531 " fill-opacity="1" fill-rule="evenodd"/></g></g></g></g><g clip-path="url(#id21)"><g clip-path="url(#id22)"><g clip-path="url(#id23)"><g clip-path="url(#id24)"><path fill="#5cbbc5" d="M 299.449219 673.359375 L 297.910156 673.570312 L 301.289062 698.089844 L 302.832031 697.878906 Z M 336.082031 680.480469 L 323.792969 701.953125 L 325.140625 702.726562 L 337.429688 681.25 Z M 310.421875 675.566406 L 308.867188 675.625 L 309.824219 699.671875 L 311.378906 699.613281 Z M 326.003906 678.59375 L 316.140625 700.539062 L 317.558594 701.175781 L 327.421875 679.234375 Z M 326.003906 678.59375 " fill-opacity="1" fill-rule="evenodd"/></g></g></g></g><g clip-path="url(#id25)"><g clip-path="url(#id26)"><g clip-path="url(#id27)"><g clip-path="url(#id28)"><path fill="#98e2c5" d="M 295.046875 658.859375 C 294.148438 659.164062 297.191406 674.589844 298.835938 675.164062 C 299.964844 675.558594 333.296875 684.210938 336.15625 682.566406 C 339.015625 680.921875 345.886719 669.058594 345.101562 668.738281 C 344.316406 668.414062 295.046875 658.859375 295.046875 658.859375 Z M 295.046875 658.859375 " fill-opacity="1" fill-rule="evenodd"/></g></g></g></g><g clip-path="url(#id29)"><g clip-path="url(#id30)"><g clip-path="url(#id31)"><g clip-path="url(#id32)"><path fill="#8a4620" d="M 300.03125 695.875 C 300.03125 695.875 326.699219 700.296875 327.082031 701.386719 C 327.460938 702.476562 323.394531 713.867188 322.449219 714.363281 C 321.507812 714.855469 299.9375 712.101562 299.210938 710.605469 C 298.484375 709.113281 298.875 696.15625 300.03125 695.875 Z M 300.03125 695.875 " fill-opacity="1" fill-rule="evenodd"/></g></g></g></g></svg>