<svg xmlns="http://www.w3.org/2000/svg" xmlns:xlink="http://www.w3.org/1999/xlink" width="1400" zoomAndPan="magnify" viewBox="0 0 1050 1049.999947" height="1400" preserveAspectRatio="xMidYMid meet" version="1.0"><defs><clipPath id="id1"><path d="M 272 524 L 401 524 L 401 676 L 272 676 Z M 272 524 " clip-rule="nonzero"/></clipPath><clipPath id="id2"><path d="M 303.148438 483.453125 L 431.410156 552.152344 L 335.441406 731.320312 L 207.179688 662.621094 Z M 303.148438 483.453125 " clip-rule="nonzero"/></clipPath><clipPath id="id3"><path d="M 303.148438 483.453125 L 431.410156 552.152344 L 335.441406 731.320312 L 207.179688 662.621094 Z M 303.148438 483.453125 " clip-rule="nonzero"/></clipPath><clipPath id="id4"><path d="M 303.148438 483.453125 L 431.410156 552.152344 L 335.441406 731.320312 L 207.179688 662.621094 Z M 303.148438 483.453125 " clip-rule="nonzero"/></clipPath><clipPath id="id5"><path d="M 272 524 L 322 524 L 322 671 L 272 671 Z M 272 524 " clip-rule="nonzero"/></clipPath><clipPath id="id6"><path d="M 303.148438 483.453125 L 431.410156 552.152344 L 335.441406 731.320312 L 207.179688 662.621094 Z M 303.148438 483.453125 " clip-rule="nonzero"/></clipPath><clipPath id="id7"><path d="M 303.148438 483.453125 L 431.410156 552.152344 L 335.441406 731.320312 L 207.179688 662.621094 Z M 303.148438 483.453125 " clip-rule="nonzero"/></clipPath><clipPath id="id8"><path d="M 303.148438 483.453125 L 431.410156 552.152344 L 335.441406 731.320312 L 207.179688 662.621094 Z M 303.148438 483.453125 " clip-rule="nonzero"/></clipPath><clipPath id="id9"><path d="M 330 535 L 401 535 L 401 676 L 330 676 Z M 330 535 " clip-rule="nonzero"/></clipPath><clipPath id="id10"><path d="M 303.148438 483.453125 L 431.410156 552.152344 L 335.441406 731.320312 L 207.179688 662.621094 Z M 303.148438 483.453125 " clip-rule="nonzero"/></clipPath><clipPath id="id11"><path d="M 303.148438 483.453125 L 431.410156 552.152344 L 335.441406 731.320312 L 207.179688 662.621094 Z M 303.148438 483.453125 " clip-rule="nonzero"/></clipPath><clipPath id="id12"><path d="M 303.148438 483.453125 L 431.410156 552.152344 L 335.441406 731.320312 L 207.179688 662.621094 Z M 303.148438 483.453125 " clip-rule="nonzero"/></clipPath><clipPath id="id13"><path d="M 300 524 L 345 524 L 345 671 L 300 671 Z M 300 524 " clip-rule="nonzero"/></clipPath><clipPath id="id14"><path d="M 303.148438 483.453125 L 431.410156 552.152344 L 335.441406 731.320312 L 207.179688 662.621094 Z M 303.148438 483.453125 " clip-rule="nonzero"/></clipPath><clipPath id="id15"><path d="M 303.148438 483.453125 L 431.410156 552.152344 L 335.441406 731.320312 L 207.179688 662.621094 Z M 303.148438 483.453125 " clip-rule="nonzero"/></clipPath><clipPath id="id16"><path d="M 303.148438 483.453125 L 431.410156 552.152344 L 335.441406 731.320312 L 207.179688 662.621094 Z M 303.148438 483.453125 " clip-rule="nonzero"/></clipPath><clipPath id="id17"><path d="M 318 527 L 376 527 L 376 671 L 318 671 Z M 318 527 " clip-rule="nonzero"/></clipPath><clipPath id="id18"><path d="M 303.148438 483.453125 L 431.410156 552.152344 L 335.441406 731.320312 L 207.179688 662.621094 Z M 303.148438 483.453125 " clip-rule="nonzero"/></clipPath><clipPath id="id19"><path d="M 303.148438 483.453125 L 431.410156 552.152344 L 335.441406 731.320312 L 207.179688 662.621094 Z M 303.148438 483.453125 " clip-rule="nonzero"/></clipPath><clipPath id="id20"><path d="M 303.148438 483.453125 L 431.410156 552.152344 L 335.441406 731.320312 L 207.179688 662.621094 Z M 303.148438 483.453125 " clip-rule="nonzero"/></clipPath><clipPath id="id21"><path d="M 297 673 L 338 673 L 338 703 L 297 703 Z M 297 673 " clip-rule="nonzero"/></clipPath><clipPath id="id22"><path d="M 303.148438 483.453125 L 431.410156 552.152344 L 335.441406 731.320312 L 207.179688 662.621094 Z M 303.148438 483.453125 " clip-rule="nonzero"/></clipPath><clipPath id="id23"><path d="M 303.148438 483.453125 L 431.410156 552.152344 L 335.441406 731.320312 L 207.179688 662.621094 Z M 303.148438 483.453125 " clip-rule="nonzero"/></clipPath><clipPath id="id24"><path d="M 303.148438 483.453125 L 431.410156 552.152344 L 335.441406 731.320312 L 207.179688 662.621094 Z M 303.148438 483.453125 " clip-rule="nonzero"/></clipPath><clipPath id="id25"><path d="M 294 658 L 346 658 L 346 683 L 294 683 Z M 294 658 " clip-rule="nonzero"/></clipPath><clipPath id="id26"><path d="M 303.148438 483.453125 L 431.410156 552.152344 L 335.441406 731.320312 L 207.179688 662.621094 Z M 303.148438 483.453125 " clip-rule="nonzero"/></clipPath><clipPath id="id27"><path d="M 303.148438 483.453125 L 431.410156 552.152344 L 335.441406 731.320312 L 207.179688 662.621094 Z M 303.148438 483.453125 " clip-rule="nonzero"/></clipPath><clipPath id="id28"><path d="M 303.148438 483.453125 L 431.410156 552.152344 L 335.441406 731.320312 L 207.179688 662.621094 Z M 303.148438 483.453125 " clip-rule="nonzero"/></clipPath><clipPath id="id29"><path d="M 298 695 L 328 695 L 328 715 L 298 715 Z M 298 695 " clip-rule="nonzero"/></clipPath><clipPath id="id30"><path d="M 303.148438 483.453125 L 431.410156 552.152344 L 335.441406 731.320312 L 207.179688 662.621094 Z M 303.148438 483.453125 " clip-rule="nonzero"/></clipPath><clipPath id="id31"><path d="M 303.148438 483.453125 L 431.410156 552.152344 L 335.441406 731.320312 L 207.179688 662.621094 Z M 303.148438 483.453125 " clip-rule="nonzero"/></clipPath><clipPath id="id32"><path d="M 303.148438 483.453125 L 431.410156 552.152344 L 335.441406 731.320312 L 207.179688 662.621094 Z M 303.148438 483.453125 " clip-rule="nonzero"/></clipPath></defs><rect x="-105" width="1260" fill="#ffffff" y="-104.999995" height="1259.999936" fill-opacity="1"/><rect x="-105" width="1260" fill="#87f0e6" y="-104.999995" height="1259.999936" fill-opacity="1"/><rect x="-105" width="1260" fill="#ffffff" y="-104.999995" height="1259.999936" fill-opacity="1"/><rect x="-105" width="1260" fill="#87f0e6" y="-104.999995" height="1259.999936" fill-opacity="1"/><rect x="-105" width="1260" fill="#2898c6" y="-104.999995" height="1259.999936" fill-opacity="1"/><path fill="#54bbe6" d="M 1012.132812 138.917969 C 990.515625 110.128906 955.1875 91.378906 915.285156 91.378906 C 892.480469 91.378906 871.1875 97.496094 853.082031 108.105469 C 850.035156 107.164062 846.902344 106.398438 843.695312 105.839844 C 839.355469 105.070312 834.871094 104.671875 830.292969 104.671875 C 805.554688 104.671875 783.683594 116.339844 770.332031 134.207031 C 751.414062 122.832031 729.164062 116.042969 705.300781 115.460938 C 693.875 96.535156 674.164062 82.765625 650.890625 78.675781 C 646.199219 77.851562 641.367188 77.417969 636.425781 77.417969 C 606.550781 77.417969 580.535156 93.179688 566.960938 116.46875 C 560.222656 113.167969 552.9375 110.753906 545.257812 109.402344 C 540.570312 108.578125 535.730469 108.144531 530.789062 108.144531 C 508.320312 108.144531 488.023438 117.058594 473.570312 131.394531 C 464.816406 119.042969 450.847656 110.140625 434.171875 107.90625 C 419.617188 105.957031 405.578125 109.421875 394.28125 116.691406 C 387.691406 104.53125 375.25 95.488281 359.96875 93.4375 C 348.820312 91.945312 338.046875 94.429688 329.214844 99.75 C 318.671875 89.277344 304.527344 81.953125 288.292969 79.78125 C 260.574219 76.066406 234.371094 88.308594 219.847656 109.175781 C 217.648438 108.613281 215.394531 108.15625 213.082031 107.847656 C 196.226562 105.59375 180.078125 110.734375 168.210938 120.675781 C 164.636719 120.402344 161.027344 120.261719 157.378906 120.261719 C 133.078125 120.261719 110.285156 126.402344 90.566406 137.113281 C 76.355469 118.25 53.199219 105.957031 27.019531 105.957031 C 20.007812 105.957031 13.207031 106.835938 6.742188 108.492188 C 4.453125 109.078125 2.199219 109.761719 0 110.535156 L 0 299.097656 L 233.949219 299.097656 C 245.332031 307.910156 259.285156 313.984375 274.851562 316.070312 C 292.847656 318.480469 310.296875 315.207031 325.242188 307.703125 C 330.765625 312.476562 337.789062 315.773438 345.714844 316.835938 C 361.605469 318.964844 376.585938 311.515625 384.269531 299.097656 L 395.070312 299.097656 C 395.070312 291.714844 394.011719 284.570312 392.054688 277.789062 C 396.722656 276.234375 401.199219 274.25 405.429688 271.878906 C 405.980469 276.375 406.832031 280.789062 407.984375 285.085938 L 820.800781 285.085938 C 825.722656 273.703125 828.898438 261.457031 830.03125 248.65625 L 929.101562 248.65625 C 927.246094 256.371094 926.253906 264.402344 926.253906 272.660156 C 926.253906 281.789062 927.457031 290.644531 929.726562 299.097656 L 1050 299.097656 L 1050 110.535156 C 1034.46875 115.992188 1021.253906 126.019531 1012.132812 138.917969 " fill-opacity="1" fill-rule="nonzero"/><path fill="#77c7ea" d="M 996.378906 252.804688 C 981.414062 241.476562 962.5 234.707031 941.917969 234.707031 C 934.125 234.707031 926.5625 235.691406 919.367188 237.515625 C 899.550781 203.210938 861.332031 179.976562 817.425781 179.976562 C 772.757812 179.976562 733.996094 204.023438 714.488281 239.304688 C 707.292969 236.328125 699.371094 234.671875 691.035156 234.671875 C 665.503906 234.671875 643.785156 250.140625 635.515625 271.789062 C 618.402344 258.46875 595.390625 252.355469 572.097656 256.972656 C 563.578125 217.761719 523.398438 192.582031 482.359375 200.726562 C 468.742188 203.425781 456.753906 209.472656 447.105469 217.761719 C 424.160156 196.507812 390.953125 186.132812 357.304688 192.808594 C 319 200.410156 290.433594 228.050781 281.089844 261.890625 C 272.601562 259.234375 263.660156 257.664062 254.464844 257.339844 C 237.804688 219.933594 196.230469 196.550781 152.230469 202.980469 C 126.0625 206.800781 104.019531 220.4375 89.558594 239.375 C 68.074219 222.355469 39.382812 213.847656 9.632812 218.195312 C 6.355469 218.671875 3.144531 219.296875 0 220.050781 L 0 474.613281 C 10.472656 470.757812 19.667969 464.753906 27.125 457.230469 C 39.5625 478.433594 59.269531 494.816406 82.558594 503.785156 C 100.386719 510.65625 120.324219 513.183594 140.714844 510.207031 C 145.457031 509.511719 150.085938 508.542969 154.582031 507.308594 C 163.261719 504.945312 171.449219 501.609375 179.039062 497.464844 C 202.0625 484.878906 219.554688 464.773438 228.429688 441.15625 C 233.59375 442.320312 238.890625 443.089844 244.28125 443.4375 C 266.019531 475.496094 306.839844 493.191406 348.335938 484.957031 C 373.328125 479.996094 394.160156 466.5 408.230469 448.324219 C 430.976562 467.421875 462.503906 476.4375 494.433594 470.101562 C 533.574219 462.335938 562.539062 433.632812 571.222656 398.78125 C 581.367188 400.921875 592.136719 401.113281 602.964844 398.960938 C 604.796875 398.601562 606.605469 398.175781 608.378906 397.691406 C 615.59375 400.683594 623.542969 402.351562 631.90625 402.351562 C 639.71875 402.351562 647.167969 400.894531 653.988281 398.265625 C 664.550781 433.226562 698.273438 458.8125 738.269531 458.8125 C 767.34375 458.8125 793.097656 445.292969 809.066406 424.484375 C 819.914062 436.714844 836.09375 444.488281 854.191406 444.488281 C 883.453125 444.488281 907.730469 424.167969 912.46875 397.492188 C 921.671875 400.632812 931.585938 402.351562 941.917969 402.351562 C 944.445312 402.351562 946.9375 402.25 949.40625 402.046875 C 948.875 407.636719 949.03125 413.378906 949.964844 419.175781 C 956.15625 457.875 994.011719 484.453125 1034.511719 478.539062 C 1039.917969 477.75 1045.097656 476.417969 1050 474.613281 L 1050 220.050781 C 1028.269531 225.300781 1009.746094 237.082031 996.378906 252.804688 " fill-opacity="1" fill-rule="nonzero"/><path fill="#9fd1e8" d="M 982.265625 378.148438 C 978.519531 376.984375 974.679688 376.054688 970.746094 375.359375 C 966.734375 374.652344 962.628906 374.199219 958.460938 374.019531 C 957.078125 373.960938 955.671875 373.925781 954.273438 373.925781 C 948.429688 373.925781 942.730469 374.457031 937.195312 375.46875 C 930.09375 371.835938 922.507812 368.949219 914.554688 366.914062 C 905.730469 364.660156 896.445312 363.453125 886.875 363.453125 C 867.53125 363.453125 849.402344 368.375 833.757812 376.957031 C 810.695312 342.367188 770.234375 319.394531 724.125 319.394531 C 682.628906 319.394531 645.675781 337.980469 621.894531 366.914062 C 618.152344 371.46875 614.734375 376.289062 611.675781 381.324219 C 601.832031 371.261719 589.121094 363.796875 574.777344 360.132812 C 568.308594 358.476562 561.511719 357.597656 554.492188 357.597656 C 528.316406 357.597656 505.164062 369.898438 490.949219 388.753906 C 471.230469 378.046875 448.441406 371.898438 424.136719 371.898438 C 395.941406 371.898438 369.765625 380.144531 348.085938 394.226562 C 337.6875 383.953125 323.121094 377.5625 306.980469 377.5625 C 292.28125 377.5625 278.886719 382.859375 268.753906 391.5625 C 260.460938 380.386719 246.824219 373.085938 231.398438 373.085938 C 220.136719 373.085938 209.832031 376.976562 201.855469 383.425781 C 189.890625 374.445312 174.816406 369.070312 158.425781 369.070312 C 137.148438 369.070312 118.085938 378.097656 105.175781 392.351562 C 79.414062 370.722656 45.636719 357.59375 8.644531 357.59375 C 5.742188 357.59375 2.863281 357.679688 0 357.839844 L 0 550.742188 L 24.238281 550.742188 C 30.539062 555.027344 38.242188 557.554688 46.566406 557.554688 C 51.339844 557.554688 55.910156 556.722656 60.128906 555.203125 C 66.664062 566.671875 79.386719 574.453125 94.011719 574.453125 C 100.101562 574.453125 105.859375 573.101562 110.976562 570.699219 C 126.078125 591.34375 151.121094 604.855469 179.484375 604.855469 C 197.65625 604.855469 214.457031 599.292969 228.167969 589.882812 C 234.328125 593.871094 241.765625 596.207031 249.773438 596.207031 C 271.0625 596.207031 288.324219 579.714844 288.324219 559.371094 C 288.324219 557.019531 288.082031 554.722656 287.640625 552.492188 C 288.867188 551.941406 290.066406 551.351562 291.253906 550.738281 L 701.792969 550.738281 C 704.058594 542.285156 705.261719 533.425781 705.261719 524.300781 C 705.261719 512.632812 703.292969 501.40625 699.660156 490.902344 L 724.847656 490.902344 C 721.902344 500.851562 720.316406 511.339844 720.316406 522.183594 C 720.316406 532.042969 721.613281 541.613281 724.0625 550.742188 L 1050 550.742188 L 1050 357.839844 C 1025.269531 359.210938 1002.1875 366.46875 982.265625 378.148438 " fill-opacity="1" fill-rule="nonzero"/><path fill="#b2dded" d="M 2.792969 502.726562 C 29.769531 502.726562 54.105469 513.441406 71.4375 530.648438 C 85.484375 515.339844 104.699219 504.457031 126.480469 500.496094 C 137.039062 461.109375 174.429688 431.996094 218.945312 431.996094 C 245.414062 431.996094 269.359375 442.296875 286.652344 458.917969 C 305.195312 439.003906 332.210938 426.441406 362.3125 426.441406 C 417.925781 426.441406 463.058594 469.28125 463.554688 522.300781 C 474.550781 508.1875 492.144531 499.042969 511.980469 499.042969 C 521.691406 499.042969 530.851562 501.246094 538.976562 505.132812 C 553.277344 485.167969 577.292969 472.0625 604.523438 472.0625 C 629.988281 472.0625 652.636719 483.535156 667.160156 501.347656 C 681.339844 488.667969 700.394531 480.894531 721.347656 480.894531 C 759.652344 480.894531 791.589844 506.824219 799.054688 541.300781 C 804.960938 534.273438 814.019531 529.773438 824.183594 529.773438 C 828.046875 529.773438 831.746094 530.457031 835.171875 531.648438 C 843.429688 517.242188 855.882812 505.347656 870.964844 497.464844 C 878.488281 493.527344 886.675781 490.585938 895.320312 488.832031 C 901.355469 487.605469 907.617188 486.964844 914.046875 486.964844 C 934.046875 486.964844 952.515625 493.21875 967.441406 503.785156 C 976.015625 509.859375 983.429688 517.355469 989.277344 525.910156 C 1005.5 512.050781 1026.703125 503.410156 1050 502.765625 L 1050 766.644531 C 1047.878906 766.042969 1045.8125 765.316406 1043.808594 764.472656 C 1028.6875 774.933594 1010.117188 781.113281 990.027344 781.113281 C 969.800781 781.113281 951.113281 774.851562 935.933594 764.257812 C 925.960938 768.621094 914.890625 771.066406 903.21875 771.066406 C 877.070312 771.066406 853.917969 758.882812 839.613281 740.136719 C 837.242188 737.039062 835.121094 733.761719 833.261719 730.332031 C 816.144531 727.105469 800.738281 719.328125 788.472656 708.378906 C 780.566406 712.007812 771.703125 714.042969 762.351562 714.042969 C 746.523438 714.042969 732.125 708.214844 721.355469 698.699219 C 705.785156 717.65625 681.609375 729.84375 654.425781 729.84375 C 630.9375 729.84375 609.675781 720.75 594.28125 706.042969 C 580.691406 716.460938 563.441406 722.710938 544.660156 722.710938 C 508.792969 722.710938 478.5 699.980469 468.667969 668.777344 C 457.050781 675.984375 443.195312 680.175781 428.316406 680.175781 C 411.164062 680.175781 395.386719 674.601562 382.824219 665.265625 C 367.039062 705.433594 326.484375 734.027344 278.921875 734.027344 C 236.742188 734.027344 200.0625 711.539062 181.292969 678.433594 C 174.796875 680.9375 167.953125 682.796875 160.855469 683.925781 C 153.351562 707.238281 134.9375 725.988281 111.292969 734.695312 C 102.003906 738.128906 91.910156 740.007812 81.355469 740.007812 C 75.023438 740.007812 68.871094 739.3125 62.949219 738.03125 C 58.8125 747.539062 51.675781 755.554688 42.664062 761.007812 C 34.609375 765.886719 25.066406 768.699219 14.832031 768.699219 C 9.679688 768.699219 4.703125 767.984375 0 766.644531 L 0 502.765625 C 0.921875 502.742188 1.863281 502.726562 2.792969 502.726562 " fill-opacity="1" fill-rule="nonzero"/><path fill="#cbe9f5" d="M 1007.277344 657.761719 C 985.292969 638.917969 956.464844 627.199219 924.796875 626.429688 C 913.371094 607.507812 893.660156 593.734375 870.390625 589.640625 C 865.703125 588.816406 860.863281 588.382812 855.921875 588.382812 C 826.046875 588.382812 800.027344 604.148438 786.453125 627.4375 C 779.71875 624.140625 772.4375 621.71875 764.753906 620.371094 C 760.0625 619.542969 755.226562 619.113281 750.285156 619.113281 C 735.804688 619.113281 722.21875 622.820312 710.527344 629.296875 C 695.28125 613.746094 673.613281 604.023438 649.5625 604.023438 C 631.390625 604.023438 614.589844 609.582031 600.878906 618.996094 C 594.714844 615.003906 587.28125 612.671875 579.277344 612.671875 C 562.121094 612.671875 547.59375 623.375 542.589844 638.179688 C 523.058594 624.796875 499.121094 616.921875 473.257812 616.921875 C 450.460938 616.921875 429.164062 623.042969 411.054688 633.65625 C 408.011719 632.710938 404.882812 631.949219 401.679688 631.382812 C 397.332031 630.621094 392.847656 630.21875 388.269531 630.21875 C 362.46875 630.21875 339.78125 642.902344 326.625 662.09375 C 324.8125 661.523438 322.984375 660.976562 321.128906 660.5 C 313.03125 658.433594 304.519531 657.328125 295.742188 657.328125 C 279.765625 657.328125 264.683594 660.984375 251.359375 667.460938 C 227 645.027344 193.882812 631.226562 157.378906 631.226562 C 133.078125 631.226562 110.285156 637.367188 90.566406 648.078125 C 76.355469 629.214844 53.199219 616.917969 27.019531 616.917969 C 20.007812 616.917969 13.207031 617.800781 6.742188 619.457031 C 4.453125 620.046875 2.199219 620.730469 0 621.507812 L 0 810.066406 L 395.070312 810.066406 C 395.070312 797.167969 391.871094 784.984375 386.195312 774.199219 L 418.265625 774.199219 C 424.605469 786.242188 437.644531 794.503906 452.714844 794.503906 C 457.808594 794.503906 462.664062 793.550781 467.113281 791.835938 C 474.003906 814.636719 495.988281 831.316406 522.066406 831.316406 C 536.761719 831.316406 550.160156 826.019531 560.292969 817.316406 C 568.585938 828.488281 582.21875 835.792969 597.648438 835.792969 C 608.910156 835.792969 619.21875 831.898438 627.191406 825.453125 C 639.15625 834.433594 654.226562 839.804688 670.621094 839.804688 C 698.609375 839.804688 722.777344 824.199219 734.121094 801.601562 C 736.382812 801.867188 738.683594 802.015625 741.023438 802.015625 C 750.296875 802.015625 759.050781 799.855469 766.769531 796.050781 L 927.011719 796.050781 C 927.601562 800.824219 928.503906 805.503906 929.726562 810.066406 L 1050 810.066406 L 1050 621.507812 C 1031.433594 628.027344 1016.179688 641.089844 1007.277344 657.761719 " fill-opacity="1" fill-rule="nonzero"/><path fill="#dff0f7" d="M 1007.335938 761.007812 C 998.640625 770.328125 991.8125 781.265625 987.398438 793.289062 C 974.039062 782.097656 956.535156 775.308594 937.371094 775.308594 C 937.371094 735.261719 903.398438 702.796875 861.480469 702.796875 C 847.566406 702.796875 834.542969 706.390625 823.332031 712.628906 C 805.394531 687.355469 775.085938 670.753906 740.71875 670.753906 C 685.617188 670.753906 640.949219 713.429688 640.949219 766.070312 C 640.949219 766.871094 640.996094 767.65625 641.015625 768.449219 C 624.382812 773.226562 609.578125 782.03125 597.851562 793.6875 C 585.316406 787.085938 570.910156 783.328125 555.585938 783.328125 C 547.785156 783.328125 540.230469 784.316406 533.03125 786.140625 C 513.210938 751.839844 474.996094 728.597656 431.085938 728.597656 C 386.425781 728.597656 347.65625 752.652344 328.148438 787.925781 C 320.957031 784.957031 313.027344 783.300781 304.695312 783.300781 C 290.289062 783.300781 277.097656 788.234375 266.84375 796.417969 C 257.792969 770.546875 236.945312 749.828125 210.386719 740.136719 C 199.808594 736.273438 188.320312 734.152344 176.316406 734.152344 C 149.847656 734.152344 125.902344 744.449219 108.613281 761.074219 C 90.070312 741.160156 63.050781 728.597656 32.957031 728.597656 C 21.417969 728.597656 10.332031 730.445312 0 733.84375 L 0 974.90625 C 4.417969 972.808594 8.582031 970.292969 12.4375 967.425781 C 28.222656 1007.589844 68.78125 1036.1875 116.339844 1036.1875 C 152.136719 1036.1875 183.964844 1019.988281 204.246094 994.855469 C 207.871094 990.371094 211.128906 985.605469 213.96875 980.59375 C 225.238281 984.9375 237.542969 987.355469 250.4375 987.355469 C 263.539062 987.355469 276.035156 984.878906 287.449219 980.40625 C 303.472656 997.019531 326.421875 1007.4375 351.9375 1007.4375 C 381.007812 1007.4375 406.761719 993.917969 422.726562 973.109375 C 433.570312 985.34375 449.757812 993.117188 467.851562 993.117188 C 497.113281 993.117188 521.398438 972.796875 526.125 946.121094 C 535.335938 949.253906 545.246094 950.980469 555.585938 950.980469 C 575.171875 950.980469 593.257812 944.847656 607.855469 934.484375 C 624.867188 947.359375 646.375 955.050781 669.761719 955.050781 C 695.285156 955.050781 718.558594 945.882812 736.203125 930.820312 C 754.40625 953.9375 783.355469 968.890625 815.972656 968.890625 C 855.941406 968.890625 890.410156 946.417969 906.328125 913.976562 C 915.808594 918.046875 926.304688 920.324219 937.371094 920.324219 C 939.375 920.324219 941.359375 920.253906 943.316406 920.105469 C 943.753906 923.535156 944.445312 926.894531 945.378906 930.152344 C 953.957031 960.230469 982.753906 982.332031 1016.953125 982.332031 C 1028.832031 982.332031 1040.046875 979.65625 1050 974.90625 L 1050 733.84375 C 1033.402344 739.292969 1018.757812 748.757812 1007.335938 761.007812 " fill-opacity="1" fill-rule="nonzero"/><path fill="#f0fbff" d="M 1048.917969 894.8125 C 1021.640625 894.8125 997.59375 908.039062 983.417969 928.132812 C 961.78125 906.535156 931.308594 893.085938 897.546875 893.085938 C 874.804688 893.085938 853.550781 899.191406 835.488281 909.777344 C 832.457031 908.835938 829.324219 908.074219 826.128906 907.511719 C 821.792969 906.746094 817.324219 906.351562 812.757812 906.351562 C 791.738281 906.351562 772.792969 914.792969 759.398438 928.308594 C 755.746094 926.566406 751.980469 925.003906 748.109375 923.640625 C 744.648438 892.621094 721.355469 867.257812 690.566406 859.390625 C 684.09375 857.738281 677.300781 856.855469 670.285156 856.855469 C 644.105469 856.855469 620.953125 869.15625 606.742188 888.015625 C 587.023438 877.304688 564.234375 871.160156 539.929688 871.160156 C 502.910156 871.160156 469.371094 885.355469 444.921875 908.347656 C 440.742188 907.734375 436.472656 907.398438 432.113281 907.398438 C 402.367188 907.398438 376.253906 922.21875 361.402344 944.554688 C 340.175781 913.574219 303.570312 893.085938 261.925781 893.085938 C 227.066406 893.085938 195.71875 907.425781 173.976562 930.265625 C 152.238281 907.425781 120.886719 893.082031 86.03125 893.082031 C 68.136719 893.082031 51.175781 896.859375 35.964844 903.625 C 28.964844 900.0625 21.335938 897.476562 13.285156 896.054688 C 8.964844 895.300781 4.527344 894.882812 0 894.824219 L 0 1050 L 1050 1050 L 1050 894.824219 C 1049.636719 894.8125 1049.277344 894.8125 1048.917969 894.8125 " fill-opacity="1" fill-rule="nonzero"/><path fill="#ffc511" d="M 725.03125 720.167969 C 725.03125 720.167969 639.609375 648.398438 576.847656 579.402344 C 508.0625 503.785156 500.15625 373.382812 651.171875 325.703125 C 802.1875 278.023438 856.25 365.976562 871.71875 439.9375 C 887.1875 513.898438 822.183594 685.457031 822.183594 685.457031 Z M 725.03125 720.167969 " fill-opacity="1" fill-rule="evenodd"/><path fill="#ff7d01" d="M 596.023438 350.722656 C 503.648438 409.429688 517.859375 514.558594 576.847656 579.402344 C 639.609375 648.398438 725.03125 720.167969 725.03125 720.167969 C 725.03125 720.167969 756.972656 715.015625 742.125 701.472656 C 688.042969 652.132812 598.183594 575.195312 573.925781 516.6875 C 552.066406 463.96875 554.476562 401.140625 596.023438 350.722656 Z M 596.023438 350.722656 " fill-opacity="1" fill-rule="evenodd"/><path fill="#ffa300" d="M 728.257812 312.179688 C 788.65625 331.242188 824.808594 380.777344 836.289062 435.460938 C 849.300781 497.449219 818.585938 611.714844 801.8125 682.992188 C 800.679688 687.816406 801.605469 690.609375 803.636719 692.085938 L 822.179688 685.460938 C 822.179688 685.460938 887.1875 513.898438 871.71875 439.9375 C 859.238281 380.265625 821.632812 311.488281 728.257812 312.179688 Z M 728.257812 312.179688 " fill-opacity="1" fill-rule="evenodd"/><path fill="#ffa300" d="M 651.171875 325.703125 C 640.265625 329.113281 629.632812 333.222656 619.265625 338.035156 C 595.617188 375.503906 588.71875 433.769531 613.464844 497.351562 C 653.035156 599.039062 765.4375 697.550781 765.4375 697.550781 L 778.210938 692.28125 C 778.210938 692.28125 696.597656 583.191406 657.890625 487.527344 C 617.851562 388.578125 637.679688 343.164062 652.011719 325.441406 Z M 651.171875 325.703125 " fill-opacity="1" fill-rule="evenodd"/><path fill="#ff7d01" d="M 667.359375 321.011719 C 689.332031 327.792969 730.855469 354.453125 753.503906 457.925781 C 775.570312 558.742188 769.8125 694.882812 769.8125 694.882812 L 783.328125 692.011719 C 783.328125 692.011719 821.3125 546.941406 796.558594 440.667969 C 781.398438 375.597656 743.03125 332.210938 703.503906 313.871094 C 691.300781 315.449219 679.25 317.832031 667.359375 321.011719 Z M 667.359375 321.011719 " fill-opacity="1" fill-rule="evenodd"/><path fill="#5cbbc5" d="M 729.972656 728.191406 L 726.628906 730.621094 L 765.351562 783.953125 L 768.695312 781.519531 Z M 824.804688 698.832031 L 822.957031 764.722656 L 827.09375 764.835938 L 828.9375 698.949219 Z M 758.46875 719.574219 L 754.90625 721.667969 L 787.351562 776.9375 L 790.917969 774.84375 Z M 798.8125 707.082031 L 803.242188 771.027344 L 807.367188 770.742188 L 802.9375 706.796875 Z M 798.8125 707.082031 " fill-opacity="1" fill-rule="evenodd"/><path fill="#98e2c5" d="M 701.445312 699.675781 C 699.71875 701.523438 726.222656 733.925781 730.800781 733.207031 C 733.953125 732.710938 822.964844 711.097656 827.601562 703.640625 C 832.242188 696.183594 833.449219 659.675781 831.207031 659.90625 C 828.964844 660.140625 701.445312 699.675781 701.445312 699.675781 Z M 701.445312 699.675781 " fill-opacity="1" fill-rule="evenodd"/><path fill="#8a4620" d="M 759.617188 780.335938 C 759.617188 780.335938 827.695312 757.175781 829.960938 759.253906 C 832.222656 761.332031 836.988281 793.207031 835.398438 795.554688 C 833.808594 797.898438 779.777344 818.5625 776.195312 815.96875 C 772.613281 813.371094 757.261719 782.453125 759.617188 780.335938 Z M 759.617188 780.335938 " fill-opacity="1" fill-rule="evenodd"/><g clip-path="url(#id1)"><g clip-path="url(#id2)"><g clip-path="url(#id3)"><g clip-path="url(#id4)"><path fill="#ffc511" d="M 299.234375 669.828125 C 299.234375 669.828125 283.640625 630.914062 275.070312 596.945312 C 265.671875 559.714844 286.164062 515.164062 344.664062 526.199219 C 403.164062 537.230469 405.492188 575.929688 397.511719 603.144531 C 389.53125 630.363281 337.582031 675.589844 337.582031 675.589844 Z M 299.234375 669.828125 " fill-opacity="1" fill-rule="evenodd"/></g></g></g></g><g clip-path="url(#id5)"><g clip-path="url(#id6)"><g clip-path="url(#id7)"><g clip-path="url(#id8)"><path fill="#ff7d01" d="M 321.953125 524.6875 C 280.933594 527.710938 267.011719 565.019531 275.066406 596.945312 C 283.640625 630.914062 299.234375 669.828125 299.234375 669.828125 C 299.234375 669.828125 310.730469 673.792969 308.210938 666.675781 C 299.03125 640.75 282.886719 599.339844 285.214844 575.675781 C 287.3125 554.351562 299.246094 533.992188 321.953125 524.6875 Z M 321.953125 524.6875 " fill-opacity="1" fill-rule="evenodd"/></g></g></g></g><g clip-path="url(#id9)"><g clip-path="url(#id10)"><g clip-path="url(#id11)"><g clip-path="url(#id12)"><path fill="#ffa300" d="M 372.609375 535.410156 C 389.246094 552.4375 392.449219 575.246094 386.5625 595.375 C 379.890625 618.195312 349.460938 650.550781 331.269531 671.15625 C 330.035156 672.550781 329.847656 673.640625 330.261719 674.488281 L 337.582031 675.589844 C 337.582031 675.589844 389.53125 630.363281 397.511719 603.144531 C 403.953125 581.1875 403.675781 551.753906 372.609375 535.410156 Z M 372.609375 535.410156 " fill-opacity="1" fill-rule="evenodd"/></g></g></g></g><g clip-path="url(#id13)"><g clip-path="url(#id14)"><g clip-path="url(#id15)"><g clip-path="url(#id16)"><path fill="#ffa300" d="M 344.664062 526.195312 C 340.445312 525.390625 336.191406 524.863281 331.90625 524.613281 C 317.425781 532.8125 304.8125 550.867188 301.746094 576.296875 C 296.839844 616.96875 316.632812 669.515625 316.632812 669.515625 L 321.800781 670.042969 C 321.800781 670.042969 314.085938 619.457031 318.210938 580.933594 C 322.476562 541.085938 337.097656 529.582031 344.988281 526.261719 Z M 344.664062 526.195312 " fill-opacity="1" fill-rule="evenodd"/></g></g></g></g><g clip-path="url(#id17)"><g clip-path="url(#id18)"><g clip-path="url(#id19)"><g clip-path="url(#id20)"><path fill="#ff7d01" d="M 350.859375 527.519531 C 356.941406 533.664062 365.976562 549.855469 355.144531 588.113281 C 344.589844 625.386719 318.554688 669.410156 318.554688 669.410156 L 323.542969 670.859375 C 323.542969 670.859375 361.84375 629.601562 372.472656 590.046875 C 378.980469 565.824219 373.957031 544.65625 364.105469 531.574219 C 359.78125 529.929688 355.367188 528.578125 350.859375 527.519531 Z M 350.859375 527.519531 " fill-opacity="1" fill-rule="evenodd"/></g></g></g></g><g clip-path="url(#id21)"><g clip-path="url(#id22)"><g clip-path="url(#id23)"><g clip-path="url(#id24)"><path fill="#5cbbc5" d="M 299.449219 673.359375 L 297.910156 673.570312 L 301.289062 698.089844 L 302.832031 697.878906 Z M 336.082031 680.480469 L 323.792969 701.953125 L 325.140625 702.726562 L 337.429688 681.25 Z M 310.421875 675.566406 L 308.867188 675.625 L 309.824219 699.671875 L 311.378906 699.613281 Z M 326.003906 678.59375 L 316.140625 700.539062 L 317.558594 701.175781 L 327.421875 679.234375 Z M 326.003906 678.59375 " fill-opacity="1" fill-rule="evenodd"/></g></g></g></g><g clip-path="url(#id25)"><g clip-path="url(#id26)"><g clip-path="url(#id27)"><g clip-path="url(#id28)"><path fill="#98e2c5" d="M 295.046875 658.859375 C 294.148438 659.164062 297.191406 674.589844 298.835938 675.164062 C 299.964844 675.558594 333.296875 684.210938 336.15625 682.566406 C 339.015625 680.921875 345.886719 669.058594 345.101562 668.738281 C 344.316406 668.414062 295.046875 658.859375 295.046875 658.859375 Z M 295.046875 658.859375 " fill-opacity="1" fill-rule="evenodd"/></g></g></g></g><g clip-path="url(#id29)"><g clip-path="url(#id30)"><g clip-path="url(#id31)"><g clip-path="url(#id32)"><path fill="#8a4620" d="M 300.03125 695.875 C 300.03125 695.875 326.699219 700.296875 327.082031 701.386719 C 327.460938 702.476562 323.394531 713.867188 322.449219 714.363281 C 321.507812 714.855469 299.9375 712.101562 299.210938 710.605469 C 298.484375 709.113281 298.875 696.15625 300.03125 695.875 Z M 300.03125 695.875 " fill-opacity="1" fill-rule="evenodd"/></g></g></g></g></svg>