<svg xmlns="http://www.w3.org/2000/svg" xmlns:xlink="http://www.w3.org/1999/xlink" width="940" zoomAndPan="magnify" viewBox="0 0 705 591.000005" height="788" preserveAspectRatio="xMidYMid meet" version="1.0"><defs><g/></defs><path fill="#14b0a0" d="M 493.113281 427.800781 L 41.175781 427.800781 C 20.882812 427.800781 4.347656 411.265625 4.347656 390.972656 L 4.347656 269.210938 C 4.347656 248.917969 20.882812 232.382812 41.175781 232.382812 L 493.113281 232.382812 C 513.40625 232.382812 529.941406 248.917969 529.941406 269.210938 L 529.941406 390.972656 C 529.941406 411.265625 513.40625 427.800781 493.113281 427.800781 " fill-opacity="1" fill-rule="nonzero"/><path fill="#c1ded3" d="M 496.621094 232.585938 L 341.648438 232.585938 L 341.648438 160.707031 L 496.621094 232.585938 " fill-opacity="1" fill-rule="nonzero"/><g fill="#f9fefd" fill-opacity="1"><g transform="translate(33.691007, 363.053512)"><g><path d="M 26.1875 0 L 26.1875 -34.953125 C 26.1875 -43.957031 31.398438 -50.238281 38.625 -50.238281 C 46.089844 -50.238281 51.1875 -43.957031 51.1875 -34.953125 L 51.1875 0 L 70.855469 0 L 70.855469 -34.953125 C 70.855469 -43.957031 76.070312 -50.238281 83.414062 -50.238281 C 90.644531 -50.238281 95.855469 -43.957031 95.855469 -34.953125 L 95.855469 0 L 115.523438 0 L 115.523438 -31.753906 C 115.523438 -52.84375 102.253906 -66.945312 83.414062 -66.945312 C 73.9375 -66.945312 65.640625 -62.917969 61.019531 -56.519531 C 56.398438 -62.917969 48.105469 -66.945312 38.625 -66.945312 C 19.789062 -66.945312 6.515625 -52.84375 6.515625 -31.753906 L 6.515625 0 Z M 26.1875 0 "/></g></g></g><g fill="#f9fefd" fill-opacity="1"><g transform="translate(147.673982, 363.053512)"><g><path d="M 38.507812 1.421875 C 46.683594 1.421875 54.265625 -1.304688 59.480469 -6.753906 L 59.835938 0 L 77.726562 0 L 77.726562 -31.519531 C 77.726562 -52.488281 62.441406 -66.945312 41.113281 -66.945312 C 19.789062 -66.945312 4.382812 -52.488281 4.382812 -32.230469 C 4.382812 -12.203125 19.3125 1.421875 38.507812 1.421875 Z M 41.113281 -15.285156 C 31.28125 -15.285156 24.171875 -22.15625 24.171875 -32.703125 C 24.171875 -43.128906 31.164062 -50.121094 40.996094 -50.121094 C 50.832031 -50.121094 57.941406 -43.128906 57.941406 -32.585938 C 57.941406 -22.15625 50.949219 -15.285156 41.113281 -15.285156 Z M 41.113281 -15.285156 "/></g></g></g><g fill="#f9fefd" fill-opacity="1"><g transform="translate(223.860004, 363.053512)"><g><path d="M 13.980469 -49.410156 L 13.980469 -21.445312 C 13.980469 -6.515625 22.632812 1.421875 37.324219 1.421875 C 43.128906 1.421875 51.542969 0 57.230469 -3.199219 L 53.554688 -17.890625 C 49.882812 -16.234375 44.667969 -15.402344 41.234375 -15.402344 C 36.375 -15.402344 33.414062 -18.601562 33.414062 -24.054688 L 33.414062 -49.410156 L 54.03125 -49.410156 L 54.03125 -65.523438 L 3.554688 -65.523438 L 3.554688 -49.410156 Z M 13.980469 -49.410156 "/></g></g></g><g fill="#f9fefd" fill-opacity="1"><g transform="translate(276.822801, 363.053512)"><g><path d="M 41.824219 -15.167969 C 33.414062 -15.167969 26.898438 -19.550781 24.882812 -27.371094 L 50 -27.371094 L 50 -39.929688 L 25.476562 -39.929688 C 27.84375 -46.683594 34.003906 -50.355469 41.707031 -50.355469 C 47.511719 -50.355469 52.132812 -48.578125 57.703125 -44.550781 L 65.640625 -58.652344 C 57.703125 -64.695312 49.527344 -66.945312 39.929688 -66.945312 C 20.972656 -66.945312 4.382812 -53.675781 4.382812 -32.820312 C 4.382812 -11.96875 20.144531 1.304688 39.929688 1.304688 C 49.644531 1.304688 56.875 -0.59375 65.640625 -6.871094 L 57.941406 -20.617188 C 52.726562 -17.0625 47.394531 -15.167969 41.824219 -15.167969 Z M 41.824219 -15.167969 "/></g></g></g><g fill="#f9fefd" fill-opacity="1"><g transform="translate(336.30231, 363.053512)"><g><path d="M 26.066406 0 L 26.066406 -33.769531 C 26.066406 -43.722656 31.042969 -50.238281 40.523438 -50.238281 C 45.855469 -50.238281 49.882812 -47.75 52.015625 -45.617188 L 61.496094 -59.007812 C 55.570312 -63.984375 48.34375 -66.945312 38.625 -66.945312 C 20.972656 -66.945312 6.515625 -53.4375 6.515625 -33.292969 L 6.515625 0 Z M 26.066406 0 "/></g></g></g><g fill="#f9fefd" fill-opacity="1"><g transform="translate(390.094501, 363.053512)"><g><path d="M 17.179688 -71.566406 C 23.933594 -71.566406 28.320312 -75.238281 28.320312 -81.046875 C 28.320312 -86.851562 23.933594 -90.644531 17.179688 -90.644531 C 10.425781 -90.644531 6.042969 -86.851562 6.042969 -81.046875 C 6.042969 -75.238281 10.425781 -71.566406 17.179688 -71.566406 Z M 27.015625 0 L 27.015625 -65.523438 L 7.464844 -65.523438 L 7.464844 0 Z M 27.015625 0 "/></g></g></g><g fill="#f9fefd" fill-opacity="1"><g transform="translate(416.516478, 363.053512)"><g><path d="M 38.507812 1.421875 C 46.683594 1.421875 54.265625 -1.304688 59.480469 -6.753906 L 59.835938 0 L 77.726562 0 L 77.726562 -31.519531 C 77.726562 -52.488281 62.441406 -66.945312 41.113281 -66.945312 C 19.789062 -66.945312 4.382812 -52.488281 4.382812 -32.230469 C 4.382812 -12.203125 19.3125 1.421875 38.507812 1.421875 Z M 41.113281 -15.285156 C 31.28125 -15.285156 24.171875 -22.15625 24.171875 -32.703125 C 24.171875 -43.128906 31.164062 -50.121094 40.996094 -50.121094 C 50.832031 -50.121094 57.941406 -43.128906 57.941406 -32.585938 C 57.941406 -22.15625 50.949219 -15.285156 41.113281 -15.285156 Z M 41.113281 -15.285156 "/></g></g></g><g fill="#9ab2be" fill-opacity="1"><g transform="translate(547.516807, 343.830745)"><g><path d="M 2.273438 0 L 9.394531 0 L 9.394531 -9.175781 L 21.542969 -9.175781 L 21.542969 -15.082031 L 9.394531 -15.082031 L 9.394531 -19.449219 L 22.828125 -19.449219 L 22.828125 -25.6875 L 2.273438 -25.6875 Z M 2.273438 0 "/></g></g></g><g fill="#9ab2be" fill-opacity="1"><g transform="translate(568.466726, 343.830745)"><g><path d="M 0.21875 0 L 7.707031 0 L 9.542969 -4.585938 L 19.449219 -4.585938 L 21.320312 0 L 28.957031 0 L 18.019531 -25.871094 L 11.15625 -25.871094 Z M 11.632812 -10.128906 L 14.53125 -17.433594 L 17.394531 -10.128906 Z M 11.632812 -10.128906 "/></g></g></g><g fill="#9ab2be" fill-opacity="1"><g transform="translate(594.810301, 343.830745)"><g><path d="M 14.644531 0.515625 C 20.332031 0.515625 23.597656 -1.945312 26.019531 -5.285156 L 20.660156 -9.101562 C 19.121094 -7.230469 17.542969 -5.980469 14.863281 -5.980469 C 11.265625 -5.980469 8.734375 -8.992188 8.734375 -12.84375 L 8.734375 -12.917969 C 8.734375 -16.660156 11.265625 -19.707031 14.863281 -19.707031 C 17.320312 -19.707031 19.011719 -18.53125 20.476562 -16.699219 L 25.835938 -20.84375 C 23.5625 -24 20.183594 -26.203125 14.9375 -26.203125 C 7.15625 -26.203125 1.394531 -20.332031 1.394531 -12.84375 L 1.394531 -12.769531 C 1.394531 -5.101562 7.304688 0.515625 14.644531 0.515625 Z M 14.644531 0.515625 "/></g></g></g><g fill="#9ab2be" fill-opacity="1"><g transform="translate(618.768918, 343.830745)"><g><path d="M 8.550781 0 L 15.671875 0 L 15.671875 -19.449219 L 23.378906 -19.449219 L 23.378906 -25.6875 L 0.84375 -25.6875 L 0.84375 -19.449219 L 8.550781 -19.449219 Z M 8.550781 0 "/></g></g></g><g fill="#9ab2be" fill-opacity="1"><g transform="translate(640.159136, 343.830745)"><g><path d="M 2.421875 0 L 9.578125 0 L 9.578125 -25.6875 L 2.421875 -25.6875 Z M 2.421875 0 "/></g></g></g><g fill="#9ab2be" fill-opacity="1"><g transform="translate(649.331082, 343.830745)"><g><path d="M 15.191406 0.515625 C 23.121094 0.515625 29.066406 -5.46875 29.066406 -12.84375 L 29.066406 -12.917969 C 29.066406 -20.292969 23.195312 -26.203125 15.265625 -26.203125 C 7.339844 -26.203125 1.394531 -20.222656 1.394531 -12.84375 L 1.394531 -12.769531 C 1.394531 -5.394531 7.265625 0.515625 15.191406 0.515625 Z M 15.265625 -5.910156 C 11.375 -5.910156 8.699219 -9.136719 8.699219 -12.84375 L 8.699219 -12.917969 C 8.699219 -16.625 11.304688 -19.78125 15.191406 -19.78125 C 19.121094 -19.78125 21.800781 -16.550781 21.800781 -12.84375 L 21.800781 -12.769531 C 21.800781 -9.066406 19.195312 -5.910156 15.265625 -5.910156 Z M 15.265625 -5.910156 "/></g></g></g><g fill="#9ab2be" fill-opacity="1"><g transform="translate(676.995555, 343.830745)"><g><path d="M 2.273438 0 L 9.320312 0 L 9.320312 -14.09375 L 20.292969 0 L 26.535156 0 L 26.535156 -25.6875 L 19.488281 -25.6875 L 19.488281 -12.109375 L 8.917969 -25.6875 L 2.273438 -25.6875 Z M 2.273438 0 "/></g></g></g></svg>