<svg xmlns="http://www.w3.org/2000/svg" xmlns:xlink="http://www.w3.org/1999/xlink" width="940" zoomAndPan="magnify" viewBox="0 0 705 591.000005" height="788" preserveAspectRatio="xMidYMid meet" version="1.0"><defs><g/><clipPath id="22149777f4"><path d="M 7.222656 225.054688 L 120.28125 225.054688 L 120.28125 329 L 7.222656 329 Z M 7.222656 225.054688 " clip-rule="nonzero"/></clipPath></defs><g clip-path="url(#22149777f4)"><path fill="#03989e" d="M 98.460938 308.625 L 98.460938 265.046875 C 98.460938 262.316406 101.015625 260.3125 103.660156 260.964844 L 107.375 261.878906 C 109.253906 262.34375 110.570312 264.027344 110.570312 265.960938 L 110.570312 300.527344 C 110.570312 303.492188 113.550781 305.523438 116.304688 304.4375 L 117.570312 303.9375 C 119.1875 303.300781 120.246094 301.730469 120.230469 299.992188 L 119.851562 253.449219 C 119.835938 251.714844 118.765625 250.171875 117.148438 249.554688 L 54.144531 225.515625 C 52.953125 225.058594 51.621094 225.171875 50.523438 225.816406 L 46.433594 228.226562 C 45.152344 228.984375 44.363281 230.363281 44.363281 231.851562 L 44.363281 321.984375 C 44.363281 323.496094 45.175781 324.894531 46.492188 325.640625 L 51.367188 328.40625 C 52.46875 329.035156 53.792969 329.128906 54.972656 328.660156 L 69.570312 322.898438 C 71.171875 322.261719 72.226562 320.710938 72.226562 318.984375 L 72.226562 259.757812 C 72.226562 257.03125 74.78125 255.023438 77.425781 255.675781 L 81.144531 256.59375 C 83.019531 257.054688 84.335938 258.738281 84.335938 260.675781 L 84.335938 310.886719 C 84.335938 313.851562 87.316406 315.886719 90.070312 314.796875 L 95.804688 312.535156 C 97.40625 311.902344 98.460938 310.351562 98.460938 308.625 Z M 9.738281 249.855469 L 9.351562 250.082031 C 8.0625 250.84375 7.273438 252.238281 7.285156 253.742188 L 7.671875 301.1875 C 7.683594 302.691406 8.492188 304.070312 9.796875 304.8125 C 12.59375 306.398438 16.0625 304.375 16.0625 301.152344 L 16.0625 253.480469 C 16.0625 250.230469 12.535156 248.207031 9.738281 249.855469 Z M 25.332031 311.179688 L 25.332031 243.070312 C 25.332031 241.582031 26.117188 240.203125 27.398438 239.449219 L 28.773438 238.636719 C 31.570312 236.988281 35.097656 239.007812 35.097656 242.261719 L 35.097656 311.957031 C 35.097656 315.179688 31.628906 317.203125 28.832031 315.617188 L 27.457031 314.835938 C 26.144531 314.089844 25.332031 312.695312 25.332031 311.179688 " fill-opacity="1" fill-rule="nonzero"/></g><g fill="#545454" fill-opacity="1"><g transform="translate(132.084006, 314.311498)"><g><path d="M 5.285156 0 L 19.699219 0 L 19.699219 -41.800781 L 29.308594 -16.457031 L 35.796875 -16.457031 L 45.40625 -41.800781 L 45.40625 0 L 59.820312 0 L 59.820312 -74.234375 L 44.085938 -74.234375 L 32.550781 -42.523438 L 21.019531 -74.234375 L 5.285156 -74.234375 Z M 5.285156 0 "/></g></g></g><g fill="#545454" fill-opacity="1"><g transform="translate(193.461309, 314.311498)"><g><path d="M 20.058594 0.960938 C 23.664062 0.960938 27.867188 0.601562 32.792969 -3.84375 L 34.113281 0 L 46.125 0 L 46.125 -55.253906 L 34.113281 -55.253906 L 32.550781 -50.929688 C 27.386719 -55.855469 23.421875 -56.097656 20.058594 -56.097656 C 11.652344 -56.097656 4.683594 -49.25 4.683594 -41.082031 L 4.683594 -13.933594 C 4.683594 -5.765625 11.652344 0.960938 20.058594 0.960938 Z M 25.34375 -11.050781 C 22.101562 -11.050781 19.21875 -13.933594 19.21875 -17.296875 L 19.21875 -37.71875 C 19.21875 -41.320312 22.101562 -44.085938 25.34375 -44.085938 C 29.070312 -44.085938 31.710938 -41.320312 31.710938 -37.71875 L 31.710938 -17.296875 C 31.710938 -13.933594 29.070312 -11.050781 25.34375 -11.050781 Z M 25.34375 -11.050781 "/></g></g></g><g fill="#545454" fill-opacity="1"><g transform="translate(241.145724, 314.311498)"><g><path d="M 26.1875 0 L 32.671875 0 L 32.671875 -12.011719 L 30.390625 -12.011719 C 23.902344 -12.371094 23.0625 -15.253906 23.0625 -19.699219 L 23.0625 -43.605469 L 32.671875 -43.605469 L 32.671875 -55.253906 L 23.0625 -55.253906 L 23.0625 -70.628906 L 8.648438 -70.628906 L 8.648438 -55.253906 L 1.082031 -55.253906 L 1.082031 -43.722656 L 8.648438 -43.722656 L 8.648438 -19.941406 C 8.648438 -3.964844 15.375 0 26.1875 0 Z M 26.1875 0 "/></g></g></g><g fill="#545454" fill-opacity="1"><g transform="translate(272.975228, 314.311498)"><g><path d="M 25.226562 0.839844 C 35.433594 0.839844 44.445312 -5.046875 45.40625 -16.457031 L 31.710938 -16.457031 C 30.871094 -12.851562 28.109375 -11.171875 25.226562 -11.171875 C 21.5 -11.171875 19.097656 -13.933594 19.097656 -17.417969 L 19.097656 -23.183594 L 45.527344 -23.183594 L 45.527344 -36.515625 C 45.527344 -47.6875 37.117188 -56.097656 25.226562 -56.097656 C 13.214844 -56.097656 4.683594 -47.6875 4.683594 -36.515625 L 4.683594 -17.777344 C 4.683594 -6.726562 14.175781 0.839844 25.226562 0.839844 Z M 19.097656 -33.992188 L 19.097656 -37.835938 C 19.097656 -41.320312 21.382812 -44.085938 25.105469 -44.085938 C 28.707031 -44.085938 31.109375 -41.320312 31.109375 -37.835938 L 31.109375 -33.992188 Z M 19.097656 -33.992188 "/></g></g></g><g fill="#545454" fill-opacity="1"><g transform="translate(319.458518, 314.311498)"><g><path d="M 5.285156 0 L 19.699219 0 L 19.699219 -30.148438 C 19.699219 -40.960938 28.347656 -44.085938 32.914062 -44.085938 L 35.675781 -44.085938 L 35.675781 -55.976562 L 33.394531 -55.976562 C 28.226562 -55.976562 22.941406 -54.894531 18.859375 -49.96875 L 17.296875 -55.253906 L 5.285156 -55.253906 Z M 5.285156 0 "/></g></g></g><g fill="#545454" fill-opacity="1"><g transform="translate(352.489141, 314.311498)"><g><path d="M 5.285156 -60.78125 L 19.699219 -60.78125 L 19.699219 -76.277344 L 5.285156 -76.277344 Z M 5.285156 0 L 19.699219 0 L 19.699219 -55.253906 L 5.285156 -55.253906 Z M 5.285156 0 "/></g></g></g><g fill="#545454" fill-opacity="1"><g transform="translate(373.748708, 314.311498)"><g><path d="M 20.058594 0.960938 C 23.664062 0.960938 27.867188 0.601562 32.792969 -3.84375 L 34.113281 0 L 46.125 0 L 46.125 -55.253906 L 34.113281 -55.253906 L 32.550781 -50.929688 C 27.386719 -55.855469 23.421875 -56.097656 20.058594 -56.097656 C 11.652344 -56.097656 4.683594 -49.25 4.683594 -41.082031 L 4.683594 -13.933594 C 4.683594 -5.765625 11.652344 0.960938 20.058594 0.960938 Z M 25.34375 -11.050781 C 22.101562 -11.050781 19.21875 -13.933594 19.21875 -17.296875 L 19.21875 -37.71875 C 19.21875 -41.320312 22.101562 -44.085938 25.34375 -44.085938 C 29.070312 -44.085938 31.710938 -41.320312 31.710938 -37.71875 L 31.710938 -17.296875 C 31.710938 -13.933594 29.070312 -11.050781 25.34375 -11.050781 Z M 25.34375 -11.050781 "/></g></g></g><g fill="#545454" fill-opacity="1"><g transform="translate(425.377808, 315.084478)"><g><path d="M 8.046875 0 L 15.015625 0 C 15.855469 0 16.695312 -0.839844 16.695312 -1.683594 L 16.695312 -30.03125 L 31.589844 -30.03125 C 32.3125 -30.03125 33.03125 -30.75 33.03125 -31.589844 L 33.03125 -37.835938 C 33.03125 -38.558594 32.3125 -39.277344 31.589844 -39.277344 L 16.695312 -39.277344 L 16.695312 -64.984375 L 37.71875 -64.984375 C 38.4375 -64.984375 39.160156 -65.707031 39.160156 -66.546875 L 39.160156 -72.792969 C 39.160156 -73.511719 38.4375 -74.234375 37.71875 -74.234375 L 8.046875 -74.234375 C 7.085938 -74.234375 6.246094 -73.394531 6.246094 -72.550781 L 6.246094 -1.683594 C 6.246094 -0.839844 7.085938 0 8.046875 0 Z M 8.046875 0 "/></g></g></g><g fill="#545454" fill-opacity="1"><g transform="translate(461.651493, 315.084478)"><g><path d="M 22.222656 0.601562 C 25.226562 0.601562 28.707031 0.601562 34.835938 -3.84375 L 34.835938 -1.683594 C 34.835938 -0.839844 35.675781 0 36.636719 0 L 43.605469 0 C 44.445312 0 45.285156 -0.839844 45.285156 -1.683594 L 45.285156 -53.574219 C 45.285156 -54.414062 44.445312 -55.253906 43.605469 -55.253906 L 36.636719 -55.253906 C 35.675781 -55.253906 34.835938 -54.414062 34.835938 -53.574219 L 34.835938 -51.410156 C 28.707031 -55.855469 25.226562 -55.855469 22.222656 -55.855469 C 12.613281 -55.855469 5.644531 -50.332031 5.644531 -38.558594 L 5.644531 -16.695312 C 5.644531 -4.925781 12.613281 0.601562 22.222656 0.601562 Z M 25.226562 -8.648438 C 20.539062 -8.648438 16.097656 -11.773438 16.097656 -18.019531 L 16.097656 -37.238281 C 16.097656 -43.484375 20.539062 -46.605469 25.226562 -46.605469 C 30.871094 -46.605469 34.835938 -43.242188 34.835938 -37.238281 L 34.835938 -18.019531 C 34.835938 -12.011719 30.871094 -8.648438 25.226562 -8.648438 Z M 25.226562 -8.648438 "/></g></g></g><g fill="#545454" fill-opacity="1"><g transform="translate(509.456025, 315.084478)"><g><path d="M 25.105469 0.601562 C 35.675781 0.601562 44.804688 -6.246094 45.046875 -16.578125 C 45.046875 -17.417969 44.203125 -18.257812 43.363281 -18.257812 L 36.394531 -18.257812 C 35.433594 -18.257812 34.59375 -17.417969 34.59375 -16.578125 C 33.875 -11.890625 29.910156 -8.648438 25.105469 -8.648438 C 19.820312 -8.648438 16.097656 -12.734375 16.097656 -18.136719 L 16.097656 -37.355469 C 16.097656 -42.644531 19.820312 -46.605469 25.105469 -46.605469 C 29.910156 -46.605469 33.753906 -43.363281 34.472656 -38.917969 C 34.472656 -38.078125 35.316406 -37.238281 36.277344 -37.238281 L 43.242188 -37.238281 C 44.085938 -37.238281 44.925781 -38.078125 44.925781 -38.917969 C 43.964844 -48.648438 35.554688 -55.855469 25.105469 -55.855469 C 13.933594 -55.855469 5.644531 -47.6875 5.644531 -36.996094 L 5.644531 -17.058594 C 5.644531 -6.488281 14.414062 0.601562 25.105469 0.601562 Z M 25.105469 0.601562 "/></g></g></g><g fill="#545454" fill-opacity="1"><g transform="translate(555.218627, 315.084478)"><g><path d="M 27.148438 0 L 30.75 0 C 31.472656 0 32.191406 -0.722656 32.191406 -1.441406 L 32.191406 -7.6875 C 32.191406 -8.527344 31.472656 -9.25 30.75 -9.25 L 30.269531 -9.25 C 22.460938 -9.25 21.261719 -14.175781 21.261719 -19.941406 L 21.261719 -46.007812 L 30.75 -46.007812 C 31.472656 -46.007812 32.191406 -46.726562 32.191406 -47.566406 L 32.191406 -53.8125 C 32.191406 -54.535156 31.472656 -55.253906 30.75 -55.253906 L 21.261719 -55.253906 L 21.261719 -69.429688 C 21.261719 -70.269531 20.421875 -71.109375 19.578125 -71.109375 L 12.613281 -71.109375 C 11.652344 -71.109375 10.8125 -70.269531 10.8125 -69.429688 L 10.8125 -55.253906 L 3.484375 -55.253906 C 2.761719 -55.253906 2.042969 -54.535156 2.042969 -53.8125 L 2.042969 -47.566406 C 2.042969 -46.726562 2.761719 -46.007812 3.484375 -46.007812 L 10.8125 -46.007812 L 10.8125 -19.097656 C 10.8125 -3.722656 17.058594 0 27.148438 0 Z M 27.148438 0 "/></g></g></g><g fill="#545454" fill-opacity="1"><g transform="translate(587.528574, 315.084478)"><g><path d="M 8.046875 -59.941406 L 15.015625 -59.941406 C 15.855469 -59.941406 16.695312 -60.78125 16.695312 -61.621094 L 16.695312 -71.710938 C 16.695312 -72.550781 15.855469 -73.394531 15.015625 -73.394531 L 8.046875 -73.394531 C 7.085938 -73.394531 6.246094 -72.550781 6.246094 -71.710938 L 6.246094 -61.621094 C 6.246094 -60.78125 7.085938 -59.941406 8.046875 -59.941406 Z M 8.046875 0 L 15.015625 0 C 15.855469 0 16.695312 -0.839844 16.695312 -1.683594 L 16.695312 -53.574219 C 16.695312 -54.414062 15.855469 -55.253906 15.015625 -55.253906 L 8.046875 -55.253906 C 7.085938 -55.253906 6.246094 -54.414062 6.246094 -53.574219 L 6.246094 -1.683594 C 6.246094 -0.839844 7.085938 0 8.046875 0 Z M 8.046875 0 "/></g></g></g><g fill="#545454" fill-opacity="1"><g transform="translate(606.746216, 315.084478)"><g><path d="M 25.105469 0.601562 C 35.796875 0.601562 44.566406 -6.488281 44.566406 -17.058594 L 44.566406 -36.996094 C 44.566406 -47.6875 36.277344 -55.855469 25.105469 -55.855469 C 13.933594 -55.855469 5.644531 -47.6875 5.644531 -36.996094 L 5.644531 -17.058594 C 5.644531 -6.488281 14.414062 0.601562 25.105469 0.601562 Z M 25.105469 -8.648438 C 19.820312 -8.648438 16.097656 -12.734375 16.097656 -18.136719 L 16.097656 -37.355469 C 16.097656 -42.644531 19.820312 -46.605469 25.105469 -46.605469 C 30.390625 -46.605469 34.113281 -42.644531 34.113281 -37.355469 L 34.113281 -18.136719 C 34.113281 -12.734375 30.390625 -8.648438 25.105469 -8.648438 Z M 25.105469 -8.648438 "/></g></g></g><g fill="#545454" fill-opacity="1"><g transform="translate(653.229493, 315.084478)"><g><path d="M 7.929688 0 L 14.894531 0 C 15.855469 0 16.695312 -0.839844 16.695312 -1.683594 L 16.695312 -37.238281 C 16.695312 -43.242188 20.660156 -46.605469 26.304688 -46.605469 C 30.992188 -46.605469 35.433594 -43.484375 35.433594 -37.238281 L 35.433594 -1.683594 C 35.433594 -0.839844 36.277344 0 37.117188 0 L 44.085938 0 C 45.046875 0 45.886719 -0.839844 45.886719 -1.683594 L 45.886719 -38.558594 C 45.886719 -50.332031 38.917969 -55.855469 29.308594 -55.855469 C 26.304688 -55.855469 22.824219 -55.855469 16.695312 -51.410156 L 16.695312 -53.574219 C 16.695312 -54.414062 15.855469 -55.253906 14.894531 -55.253906 L 7.929688 -55.253906 C 7.085938 -55.253906 6.246094 -54.414062 6.246094 -53.574219 L 6.246094 -1.683594 C 6.246094 -0.839844 7.085938 0 7.929688 0 Z M 7.929688 0 "/></g></g></g></svg>