<svg xmlns="http://www.w3.org/2000/svg" xmlns:xlink="http://www.w3.org/1999/xlink" width="940" zoomAndPan="magnify" viewBox="0 0 705 591.000005" height="788" preserveAspectRatio="xMidYMid meet" version="1.0"><defs><clipPath id="48d1f52590"><path d="M 86.042969 28.546875 L 618.957031 28.546875 L 618.957031 561.457031 L 86.042969 561.457031 Z M 86.042969 28.546875 " clip-rule="nonzero"/></clipPath><clipPath id="006e420e45"><path d="M 352.5 28.546875 C 205.339844 28.546875 86.042969 147.839844 86.042969 295 C 86.042969 442.160156 205.339844 561.457031 352.5 561.457031 C 499.660156 561.457031 618.957031 442.160156 618.957031 295 C 618.957031 147.839844 499.660156 28.546875 352.5 28.546875 " clip-rule="nonzero"/></clipPath><clipPath id="98c696b5d1"><path d="M 86.042969 28.546875 L 619.140625 28.546875 L 619.140625 561.644531 L 86.042969 561.644531 Z M 86.042969 28.546875 " clip-rule="nonzero"/></clipPath><clipPath id="3b20d6ac4c"><path d="M 352.59375 28.546875 C 205.382812 28.546875 86.042969 147.882812 86.042969 295.09375 C 86.042969 442.304688 205.382812 561.644531 352.59375 561.644531 C 499.804688 561.644531 619.140625 442.304688 619.140625 295.09375 C 619.140625 147.882812 499.804688 28.546875 352.59375 28.546875 " clip-rule="nonzero"/></clipPath><clipPath id="ae909fd4a9"><path d="M 215.6875 233 L 488.972656 233 L 488.972656 441.847656 L 215.6875 441.847656 Z M 215.6875 233 " clip-rule="nonzero"/></clipPath><clipPath id="d204ce719e"><path d="M 311 122.886719 L 393 122.886719 L 393 204 L 311 204 Z M 311 122.886719 " clip-rule="nonzero"/></clipPath></defs><g clip-path="url(#48d1f52590)"><g clip-path="url(#006e420e45)"><path fill="#569fff" d="M 86.042969 28.546875 L 618.957031 28.546875 L 618.957031 561.457031 L 86.042969 561.457031 Z M 86.042969 28.546875 " fill-opacity="1" fill-rule="nonzero"/></g></g><g clip-path="url(#98c696b5d1)"><g clip-path="url(#3b20d6ac4c)"><path stroke-linecap="butt" transform="matrix(0.748996, 0, 0, 0.748996, 86.044066, 28.544937)" fill="none" stroke-linejoin="miter" d="M 355.875971 0.00258764 C 159.331617 0.00258764 -0.00146528 159.330455 -0.00146528 355.874808 C -0.00146528 552.419162 159.331617 711.752245 355.875971 711.752245 C 552.420324 711.752245 711.748192 552.419162 711.748192 355.874808 C 711.748192 159.330455 552.420324 0.00258764 355.875971 0.00258764 " stroke="#3b5998" stroke-width="24" stroke-opacity="1" stroke-miterlimit="4"/></g></g><g clip-path="url(#ae909fd4a9)"><path fill="#ffffff" d="M 352.292969 441.882812 C 276.835938 441.882812 215.664062 380.746094 215.664062 305.339844 C 215.664062 279.050781 223.097656 254.5 235.988281 233.667969 L 352.292969 349.90625 L 468.609375 233.667969 C 481.492188 254.5 488.921875 279.050781 488.921875 305.339844 C 488.921875 380.746094 427.761719 441.882812 352.292969 441.882812 " fill-opacity="1" fill-rule="nonzero"/></g><path fill="#ffffff" d="M 352.292969 310.582031 L 273.285156 231.613281 L 309.34375 195.582031 L 352.292969 238.503906 L 395.246094 195.582031 L 431.304688 231.613281 L 352.292969 310.582031 " fill-opacity="1" fill-rule="nonzero"/><g clip-path="url(#d204ce719e)"><path fill="#ffffff" d="M 311.804688 163.386719 L 352.292969 122.929688 L 392.78125 163.386719 L 352.292969 203.847656 L 311.804688 163.386719 " fill-opacity="1" fill-rule="nonzero"/></g></svg>