<svg xmlns="http://www.w3.org/2000/svg" xmlns:xlink="http://www.w3.org/1999/xlink" width="1400" zoomAndPan="magnify" viewBox="0 0 1050 1049.999947" height="1400" preserveAspectRatio="xMidYMid meet" version="1.0"><defs><clipPath id="id1"><path d="M 243.957031 243.957031 L 805.707031 243.957031 L 805.707031 805.707031 L 243.957031 805.707031 Z M 243.957031 243.957031 " clip-rule="nonzero"/></clipPath></defs><rect x="-105" width="1260" fill="#ffffff" y="-104.999995" height="1259.999936" fill-opacity="1"/><rect x="-105" width="1260" fill="#d9d9d9" y="-104.999995" height="1259.999936" fill-opacity="1"/><rect x="-105" width="1260" fill="#ffffff" y="-104.999995" height="1259.999936" fill-opacity="1"/><rect x="-105" width="1260" fill="#d9d9d9" y="-104.999995" height="1259.999936" fill-opacity="1"/><g clip-path="url(#id1)"><path fill="#6db298" d="M 805.707031 524.832031 C 805.707031 369.734375 679.929688 243.957031 524.832031 243.957031 C 369.734375 243.957031 243.957031 369.734375 243.957031 524.832031 C 243.957031 679.929688 369.734375 805.707031 524.832031 805.707031 C 679.929688 805.707031 805.707031 679.929688 805.707031 524.832031 Z M 805.707031 524.832031 " fill-opacity="1" fill-rule="nonzero"/></g><path fill="#f9fefd" d="M 400.414062 440.488281 C 400.414062 424.753906 405.507812 408.789062 415.582031 392.601562 C 425.660156 376.414062 440.488281 363.054688 459.847656 352.410156 C 479.207031 341.769531 501.851562 336.449219 527.773438 336.449219 C 551.777344 336.449219 573.058594 340.863281 591.398438 349.808594 C 609.851562 358.636719 624.003906 370.753906 634.078125 386.035156 C 644.15625 401.320312 649.136719 417.847656 649.136719 435.734375 C 649.136719 449.886719 646.304688 462.226562 640.53125 472.753906 C 634.757812 483.394531 627.964844 492.566406 620.15625 500.265625 C 612.230469 507.964844 598.191406 520.980469 577.699219 539.210938 C 572.039062 544.304688 567.511719 548.832031 564.117188 552.792969 C 560.71875 556.644531 558.226562 560.265625 556.53125 563.4375 C 554.832031 566.71875 553.585938 569.890625 552.679688 573.171875 C 551.777344 576.457031 550.417969 582.117188 548.605469 590.265625 C 545.4375 607.476562 535.585938 616.191406 519.058594 616.191406 C 510.453125 616.191406 503.207031 613.363281 497.320312 607.703125 C 491.433594 602.039062 488.492188 593.664062 488.492188 582.570312 C 488.492188 568.644531 490.640625 556.53125 494.945312 546.339844 C 499.246094 536.152344 505.019531 527.207031 512.152344 519.511719 C 519.285156 511.8125 528.90625 502.640625 541.019531 492 C 551.664062 482.71875 559.246094 475.699219 564.003906 470.941406 C 568.757812 466.1875 572.71875 460.980469 575.890625 455.09375 C 579.171875 449.320312 580.757812 442.980469 580.757812 436.1875 C 580.757812 422.941406 575.777344 411.734375 565.925781 402.5625 C 556.078125 393.394531 543.285156 388.867188 527.773438 388.867188 C 509.546875 388.867188 496.074219 393.507812 487.472656 402.675781 C 478.867188 411.847656 471.507812 425.433594 465.621094 443.320312 C 459.960938 462.113281 449.320312 471.394531 433.582031 471.394531 C 424.300781 471.394531 416.488281 468.113281 410.035156 461.546875 C 403.695312 455.207031 400.414062 448.1875 400.414062 440.488281 M 521.886719 713.101562 C 511.8125 713.101562 502.980469 709.816406 495.398438 703.25 C 487.8125 696.683594 484.074219 687.515625 484.074219 675.742188 C 484.074219 665.324219 487.699219 656.496094 495.058594 649.363281 C 502.300781 642.230469 511.359375 638.722656 521.886719 638.722656 C 532.304688 638.722656 541.132812 642.34375 548.265625 649.363281 C 555.398438 656.496094 558.90625 665.324219 558.90625 675.742188 C 558.90625 687.402344 555.171875 696.457031 547.699219 703.136719 C 540.226562 709.816406 531.625 713.101562 521.886719 713.101562 " fill-opacity="1" fill-rule="nonzero"/></svg>