<svg xmlns="http://www.w3.org/2000/svg" xmlns:xlink="http://www.w3.org/1999/xlink" width="940" zoomAndPan="magnify" viewBox="0 0 705 591.000005" height="788" preserveAspectRatio="xMidYMid meet" version="1.0"><defs><g/><clipPath id="bfbba48606"><path d="M 0.59375 282 L 147 282 L 147 394.304688 L 0.59375 394.304688 Z M 0.59375 282 " clip-rule="nonzero"/></clipPath><clipPath id="327817772e"><path d="M 51 223.59375 L 96 223.59375 L 96 267 L 51 267 Z M 51 223.59375 " clip-rule="nonzero"/></clipPath><clipPath id="3819e04ac7"><path d="M 679.09375 326.4375 L 704.402344 326.4375 L 704.402344 351.894531 L 679.09375 351.894531 Z M 679.09375 326.4375 " clip-rule="nonzero"/></clipPath></defs><g clip-path="url(#bfbba48606)"><path fill="#2681ff" d="M 73.617188 394.324219 C 33.09375 394.324219 0.242188 361.601562 0.242188 321.246094 C 0.242188 307.175781 4.234375 294.035156 11.15625 282.882812 L 73.617188 345.097656 L 136.082031 282.882812 C 143 294.035156 146.988281 307.175781 146.988281 321.246094 C 146.988281 361.601562 114.144531 394.324219 73.617188 394.324219 " fill-opacity="1" fill-rule="nonzero"/></g><path fill="#2681ff" d="M 73.617188 324.050781 L 31.1875 281.785156 L 50.550781 262.5 L 73.617188 285.472656 L 96.683594 262.5 L 116.046875 281.785156 L 73.617188 324.050781 " fill-opacity="1" fill-rule="nonzero"/><g clip-path="url(#327817772e)"><path fill="#2681ff" d="M 51.875 245.269531 L 73.617188 223.617188 L 95.359375 245.269531 L 73.617188 266.925781 L 51.875 245.269531 " fill-opacity="1" fill-rule="nonzero"/></g><g clip-path="url(#3819e04ac7)"><path fill="#000000" d="M 691.824219 327.933594 C 685.628906 327.933594 680.59375 332.972656 680.59375 339.164062 C 680.59375 345.359375 685.628906 350.398438 691.824219 350.398438 C 698.015625 350.398438 703.054688 345.359375 703.054688 339.164062 C 703.054688 332.972656 698.015625 327.933594 691.824219 327.933594 Z M 691.824219 351.894531 C 690.105469 351.894531 688.4375 351.558594 686.867188 350.894531 C 685.351562 350.253906 683.992188 349.335938 682.824219 348.167969 C 681.65625 346.996094 680.738281 345.636719 680.09375 344.121094 C 679.429688 342.550781 679.09375 340.882812 679.09375 339.164062 C 679.09375 337.449219 679.429688 335.78125 680.09375 334.210938 C 680.738281 332.695312 681.65625 331.332031 682.824219 330.164062 C 683.992188 328.996094 685.351562 328.078125 686.867188 327.4375 C 688.4375 326.773438 690.105469 326.4375 691.824219 326.4375 C 693.542969 326.4375 695.210938 326.773438 696.777344 327.4375 C 698.296875 328.078125 699.65625 328.996094 700.824219 330.164062 C 701.992188 331.332031 702.910156 332.695312 703.550781 334.210938 C 704.214844 335.78125 704.554688 337.449219 704.554688 339.164062 C 704.554688 340.882812 704.214844 342.550781 703.550781 344.121094 C 702.910156 345.636719 701.992188 346.996094 700.824219 348.167969 C 699.65625 349.335938 698.296875 350.253906 696.777344 350.894531 C 695.210938 351.558594 693.542969 351.894531 691.824219 351.894531 " fill-opacity="1" fill-rule="nonzero"/></g><path fill="#000000" d="M 683.296875 336.460938 L 685.957031 336.460938 L 685.957031 343.4375 L 687.769531 343.4375 L 687.769531 336.460938 L 690.425781 336.460938 L 690.425781 334.894531 L 683.296875 334.894531 L 683.296875 336.460938 " fill-opacity="1" fill-rule="nonzero"/><path fill="#000000" d="M 697.667969 334.894531 L 696.210938 338.9375 C 696.003906 339.511719 695.820312 340.066406 695.664062 340.589844 C 695.488281 340.003906 695.304688 339.441406 695.113281 338.917969 L 693.65625 334.894531 L 691.292969 334.894531 L 691.292969 343.4375 L 693.105469 343.4375 L 693.105469 339.105469 C 693.105469 338.738281 693.097656 338.351562 693.082031 337.949219 C 693.160156 338.195312 693.246094 338.441406 693.332031 338.683594 L 695.074219 343.4375 L 696.261719 343.4375 L 698.003906 338.679688 C 698.089844 338.441406 698.175781 338.195312 698.257812 337.945312 C 698.242188 338.367188 698.234375 338.757812 698.234375 339.109375 L 698.234375 343.4375 L 700.046875 343.4375 L 700.046875 334.894531 L 697.667969 334.894531 " fill-opacity="1" fill-rule="nonzero"/><g fill="#201f1f" fill-opacity="1"><g transform="translate(176.51526, 350.271681)"><g><path d="M 26.234375 -29.109375 L 26.234375 0 L 8 0 L 8 -74.875 L 37.546875 -74.875 C 46.222656 -74.875 52.976562 -72.632812 57.8125 -68.15625 C 62.644531 -63.675781 65.0625 -58.269531 65.0625 -51.9375 C 65.0625 -47.601562 63.742188 -43.375 61.109375 -39.25 C 58.484375 -35.125 54.179688 -32.207031 48.203125 -30.5 L 66.546875 0 L 45.21875 0 L 28.375 -29.109375 Z M 26.234375 -61 L 26.234375 -42.984375 L 37.546875 -42.984375 C 40.316406 -42.984375 42.5 -43.800781 44.09375 -45.4375 C 45.695312 -47.070312 46.5 -49.222656 46.5 -51.890625 C 46.5 -54.554688 45.679688 -56.738281 44.046875 -58.4375 C 42.410156 -60.144531 40.242188 -61 37.546875 -61 Z M 26.234375 -61 "/></g></g></g><g fill="#201f1f" fill-opacity="1"><g transform="translate(244.556715, 350.271681)"><g><path d="M 53.328125 -75.09375 L 53.328125 -61.21875 L 26.234375 -61.21875 L 26.234375 -45.109375 L 50.125 -45.109375 L 50.125 -31.25 L 26.234375 -31.25 L 26.234375 -13.859375 L 53.328125 -13.859375 L 53.328125 0 L 8 0 L 8 -75.09375 Z M 53.328125 -75.09375 "/></g></g></g><g fill="#201f1f" fill-opacity="1"><g transform="translate(302.359887, 350.271681)"><g><path d="M 92.796875 -74.875 L 92.796875 0 L 74.546875 0 L 74.546875 -42.234375 L 57.171875 0 L 43.625 0 L 26.234375 -42.234375 L 26.234375 0 L 8 0 L 8 -74.875 L 28.90625 -74.875 L 50.453125 -23.25 L 71.890625 -74.875 Z M 92.796875 -74.875 "/></g></g></g><g fill="#201f1f" fill-opacity="1"><g transform="translate(399.943041, 350.271681)"><g><path d="M 65.0625 -51.9375 C 65.0625 -46.894531 63.25 -42.023438 59.625 -37.328125 C 57.695312 -34.910156 54.832031 -32.9375 51.03125 -31.40625 C 47.226562 -29.875 42.734375 -29.109375 37.546875 -29.109375 L 26.234375 -29.109375 L 26.234375 0 L 8 0 L 8 -74.875 L 37.546875 -74.875 C 46.222656 -74.875 52.976562 -72.632812 57.8125 -68.15625 C 62.644531 -63.675781 65.0625 -58.269531 65.0625 -51.9375 Z M 26.234375 -42.984375 L 37.546875 -42.984375 C 40.316406 -42.984375 42.5 -43.800781 44.09375 -45.4375 C 45.695312 -47.070312 46.5 -49.222656 46.5 -51.890625 C 46.5 -54.554688 45.679688 -56.738281 44.046875 -58.4375 C 42.410156 -60.144531 40.242188 -61 37.546875 -61 L 26.234375 -61 Z M 26.234375 -42.984375 "/></g></g></g><g fill="#201f1f" fill-opacity="1"><g transform="translate(464.785014, 350.271681)"><g><path d="M 56.359375 -21.96875 C 59.953125 -25.882812 61.75 -31.113281 61.75 -37.65625 C 61.75 -44.195312 59.953125 -49.421875 56.359375 -53.328125 C 52.773438 -57.234375 47.976562 -59.1875 41.96875 -59.1875 C 35.957031 -59.1875 31.15625 -57.234375 27.5625 -53.328125 C 23.976562 -49.421875 22.1875 -44.195312 22.1875 -37.65625 C 22.1875 -31.113281 23.976562 -25.882812 27.5625 -21.96875 C 31.15625 -18.0625 35.957031 -16.109375 41.96875 -16.109375 C 47.976562 -16.109375 52.773438 -18.0625 56.359375 -21.96875 Z M 14.765625 -10.125 C 7.335938 -17.382812 3.625 -26.554688 3.625 -37.640625 C 3.625 -48.734375 7.335938 -57.890625 14.765625 -65.109375 C 22.203125 -72.328125 31.304688 -75.9375 42.078125 -75.9375 C 52.847656 -75.9375 61.910156 -72.328125 69.265625 -65.109375 C 76.628906 -57.890625 80.3125 -48.734375 80.3125 -37.640625 C 80.3125 -26.554688 76.613281 -17.382812 69.21875 -10.125 C 61.820312 -2.875 52.753906 0.75 42.015625 0.75 C 31.285156 0.75 22.203125 -2.875 14.765625 -10.125 Z M 14.765625 -10.125 "/></g></g></g><g fill="#201f1f" fill-opacity="1"><g transform="translate(545.624305, 350.271681)"><g><path d="M 26.234375 -29.109375 L 26.234375 0 L 8 0 L 8 -74.875 L 37.546875 -74.875 C 46.222656 -74.875 52.976562 -72.632812 57.8125 -68.15625 C 62.644531 -63.675781 65.0625 -58.269531 65.0625 -51.9375 C 65.0625 -47.601562 63.742188 -43.375 61.109375 -39.25 C 58.484375 -35.125 54.179688 -32.207031 48.203125 -30.5 L 66.546875 0 L 45.21875 0 L 28.375 -29.109375 Z M 26.234375 -61 L 26.234375 -42.984375 L 37.546875 -42.984375 C 40.316406 -42.984375 42.5 -43.800781 44.09375 -45.4375 C 45.695312 -47.070312 46.5 -49.222656 46.5 -51.890625 C 46.5 -54.554688 45.679688 -56.738281 44.046875 -58.4375 C 42.410156 -60.144531 40.242188 -61 37.546875 -61 Z M 26.234375 -61 "/></g></g></g><g fill="#201f1f" fill-opacity="1"><g transform="translate(613.665749, 350.271681)"><g><path d="M 2.875 -61 L 2.875 -74.875 L 61.96875 -74.875 L 61.96875 -61 L 41.484375 -61 L 41.484375 0 L 23.25 0 L 23.25 -61 Z M 2.875 -61 "/></g></g></g></svg>