<svg xmlns="http://www.w3.org/2000/svg" xmlns:xlink="http://www.w3.org/1999/xlink" width="940" zoomAndPan="magnify" viewBox="0 0 705 591.000005" height="788" preserveAspectRatio="xMidYMid meet" version="1.0"><defs><clipPath id="e943bc6c8b"><path d="M 65.324219 32 L 639.601562 32 L 639.601562 559 L 65.324219 559 Z M 65.324219 32 " clip-rule="nonzero"/></clipPath></defs><g clip-path="url(#e943bc6c8b)"><path fill="#03989e" d="M 528.769531 455.027344 L 528.769531 234 C 528.769531 220.160156 541.746094 209.988281 555.175781 213.292969 L 574.0625 217.945312 C 583.589844 220.289062 590.28125 228.835938 590.28125 238.648438 L 590.28125 413.953125 C 590.28125 428.992188 605.429688 439.308594 619.410156 433.789062 L 625.847656 431.253906 C 634.054688 428.015625 639.421875 420.058594 639.347656 411.238281 L 637.421875 175.175781 C 637.355469 166.394531 631.902344 158.550781 623.699219 155.425781 L 303.65625 33.496094 C 297.609375 31.1875 290.84375 31.757812 285.265625 35.039062 L 264.496094 47.261719 C 257.988281 51.09375 253.988281 58.085938 253.988281 65.640625 L 253.988281 522.785156 C 253.988281 530.464844 258.117188 537.546875 264.796875 541.335938 L 289.550781 555.367188 C 295.148438 558.542969 301.886719 559.015625 307.875 556.65625 L 382.015625 527.414062 C 390.164062 524.203125 395.515625 516.332031 395.515625 507.578125 L 395.515625 207.183594 C 395.515625 193.339844 408.484375 183.171875 421.917969 186.476562 L 440.804688 191.128906 C 450.328125 193.46875 457.027344 202.015625 457.027344 211.828125 L 457.027344 466.507812 C 457.027344 481.546875 472.171875 491.859375 486.15625 486.34375 L 515.277344 474.855469 C 523.421875 471.652344 528.769531 463.78125 528.769531 455.027344 Z M 78.105469 156.960938 L 76.148438 158.113281 C 69.582031 161.972656 65.578125 169.039062 65.640625 176.664062 L 67.597656 417.3125 C 67.660156 424.929688 71.78125 431.933594 78.40625 435.691406 C 92.613281 443.738281 110.222656 433.472656 110.222656 417.136719 L 110.222656 175.339844 C 110.222656 158.847656 92.3125 148.597656 78.105469 156.960938 Z M 157.304688 467.984375 L 157.304688 122.546875 C 157.304688 114.984375 161.300781 108 167.8125 104.167969 L 174.789062 100.0625 C 188.996094 91.699219 206.90625 101.941406 206.90625 118.4375 L 206.90625 471.9375 C 206.90625 488.277344 189.296875 498.542969 175.09375 490.488281 L 168.109375 486.535156 C 161.433594 482.75 157.304688 475.667969 157.304688 467.984375 " fill-opacity="1" fill-rule="nonzero"/></g></svg>