<svg xmlns="http://www.w3.org/2000/svg" xmlns:xlink="http://www.w3.org/1999/xlink" width="940" zoomAndPan="magnify" viewBox="0 0 705 591.000005" height="788" preserveAspectRatio="xMidYMid meet" version="1.0"><defs><g/><clipPath id="d5f152b7d9"><path d="M 11.820312 269 L 151.835938 269 L 151.835938 376.351562 L 11.820312 376.351562 Z M 11.820312 269 " clip-rule="nonzero"/></clipPath><clipPath id="fb4ffe9b55"><path d="M 61 213.128906 L 103 213.128906 L 103 255 L 61 255 Z M 61 213.128906 " clip-rule="nonzero"/></clipPath></defs><g clip-path="url(#d5f152b7d9)"><path fill="#3b5998" d="M 81.808594 376.371094 C 43.148438 376.371094 11.808594 345.085938 11.808594 306.496094 C 11.808594 293.042969 15.617188 280.480469 22.21875 269.820312 L 81.808594 329.304688 L 141.402344 269.820312 C 148.003906 280.480469 151.8125 293.042969 151.8125 306.496094 C 151.8125 345.085938 120.472656 376.371094 81.808594 376.371094 " fill-opacity="1" fill-rule="nonzero"/></g><path fill="#17c7b5" d="M 81.808594 309.179688 L 41.332031 268.769531 L 59.804688 250.328125 L 81.808594 272.292969 L 103.816406 250.328125 L 122.289062 268.769531 L 81.808594 309.179688 " fill-opacity="1" fill-rule="nonzero"/><g clip-path="url(#fb4ffe9b55)"><path fill="#17c7b5" d="M 61.066406 233.855469 L 81.808594 213.148438 L 102.554688 233.855469 L 81.808594 254.558594 L 61.066406 233.855469 " fill-opacity="1" fill-rule="nonzero"/></g><g fill="#1b2f60" fill-opacity="1"><g transform="translate(199.217959, 345.100924)"><g><path d="M 53.8125 -53.261719 L 53.8125 -75.144531 C 41.425781 -75.695312 34.542969 -69.089844 30.277344 -58.902344 L 30.277344 -73.769531 L 9.359375 -73.769531 L 9.359375 0 L 30.277344 0 L 30.277344 -27.25 C 30.277344 -44.867188 38.8125 -53.261719 52.710938 -53.261719 Z M 53.8125 -53.261719 "/></g></g></g><g fill="#1b2f60" fill-opacity="1"><g transform="translate(244.769165, 345.100924)"><g><path d="M 78.171875 -34.820312 L 78.171875 -35.09375 C 78.171875 -56.015625 66.886719 -75.144531 42.25 -75.144531 C 20.78125 -75.144531 5.78125 -57.804688 5.78125 -36.746094 L 5.78125 -36.472656 C 5.78125 -13.898438 22.15625 1.652344 44.316406 1.652344 C 57.664062 1.652344 67.574219 -3.578125 74.457031 -12.109375 L 62.484375 -22.707031 C 56.703125 -17.339844 51.609375 -15.140625 44.589844 -15.140625 C 35.234375 -15.140625 28.625 -20.09375 26.5625 -29.589844 L 77.898438 -29.589844 C 78.035156 -31.515625 78.171875 -32.753906 78.171875 -34.820312 Z M 57.804688 -42.664062 L 26.285156 -42.664062 C 27.9375 -52.160156 33.582031 -58.355469 42.25 -58.355469 C 51.058594 -58.355469 56.566406 -52.023438 57.804688 -42.664062 Z M 57.804688 -42.664062 "/></g></g></g><g fill="#1b2f60" fill-opacity="1"><g transform="translate(317.156493, 345.100924)"><g><path d="M 121.9375 0 L 121.9375 -48.03125 C 121.9375 -65.785156 112.578125 -75.144531 97.027344 -75.144531 C 86.980469 -75.144531 79.273438 -71.015625 72.804688 -63.445312 C 68.949219 -70.878906 61.65625 -75.144531 52.023438 -75.144531 C 41.425781 -75.144531 35.09375 -69.5 30.277344 -63.308594 L 30.277344 -73.769531 L 9.359375 -73.769531 L 9.359375 0 L 30.277344 0 L 30.277344 -41.152344 C 30.277344 -51.058594 35.09375 -56.152344 42.941406 -56.152344 C 50.785156 -56.152344 55.1875 -51.058594 55.1875 -41.152344 L 55.1875 0 L 76.109375 0 L 76.109375 -41.152344 C 76.109375 -51.058594 80.925781 -56.152344 88.769531 -56.152344 C 96.613281 -56.152344 101.019531 -51.058594 101.019531 -41.152344 L 101.019531 0 Z M 121.9375 0 "/></g></g></g><g fill="#1b2f60" fill-opacity="1"><g transform="translate(435.922156, 345.100924)"><g><path d="M 86.84375 -36.746094 L 86.84375 -37.023438 C 86.84375 -61.65625 70.464844 -75.144531 53.261719 -75.144531 C 42.390625 -75.144531 35.371094 -70.050781 30.277344 -63.171875 L 30.277344 -73.769531 L 9.359375 -73.769531 L 9.359375 22.019531 L 30.277344 22.019531 L 30.277344 -9.632812 C 35.234375 -3.714844 42.113281 1.375 53.261719 1.375 C 70.738281 1.375 86.84375 -12.109375 86.84375 -36.746094 Z M 65.921875 -36.746094 C 65.921875 -24.359375 57.664062 -16.378906 47.894531 -16.378906 C 38.121094 -16.378906 30.003906 -24.496094 30.003906 -36.746094 L 30.003906 -37.023438 C 30.003906 -49.269531 38.121094 -57.390625 47.894531 -57.390625 C 57.664062 -57.390625 65.921875 -49.269531 65.921875 -37.023438 Z M 65.921875 -36.746094 "/></g></g></g><g fill="#1b2f60" fill-opacity="1"><g transform="translate(516.84199, 345.100924)"><g><path d="M 85.605469 -36.746094 L 85.605469 -37.023438 C 85.605469 -58.214844 68.675781 -75.144531 45.828125 -75.144531 C 22.847656 -75.144531 5.78125 -57.941406 5.78125 -36.746094 L 5.78125 -36.472656 C 5.78125 -15.277344 22.707031 1.652344 45.554688 1.652344 C 68.539062 1.652344 85.605469 -15.550781 85.605469 -36.746094 Z M 64.960938 -36.472656 C 64.960938 -25.597656 57.804688 -16.378906 45.828125 -16.378906 C 34.269531 -16.378906 26.425781 -25.875 26.425781 -36.746094 L 26.425781 -37.023438 C 26.425781 -47.894531 33.582031 -57.113281 45.554688 -57.113281 C 57.113281 -57.113281 64.960938 -47.617188 64.960938 -36.746094 Z M 64.960938 -36.472656 "/></g></g></g><g fill="#1b2f60" fill-opacity="1"><g transform="translate(596.247988, 345.100924)"><g><path d="M 53.8125 -53.261719 L 53.8125 -75.144531 C 41.425781 -75.695312 34.542969 -69.089844 30.277344 -58.902344 L 30.277344 -73.769531 L 9.359375 -73.769531 L 9.359375 0 L 30.277344 0 L 30.277344 -27.25 C 30.277344 -44.867188 38.8125 -53.261719 52.710938 -53.261719 Z M 53.8125 -53.261719 "/></g></g></g><g fill="#1b2f60" fill-opacity="1"><g transform="translate(641.799185, 345.100924)"><g><path d="M 50.785156 -3.027344 L 50.785156 -19.816406 C 47.757812 -18.167969 44.316406 -17.203125 40.460938 -17.203125 C 35.78125 -17.203125 33.71875 -19.542969 33.71875 -24.359375 L 33.71875 -55.875 L 51.058594 -55.875 L 51.058594 -73.769531 L 33.71875 -73.769531 L 33.71875 -92.621094 L 12.800781 -92.621094 L 12.800781 -73.769531 L 3.992188 -73.769531 L 3.992188 -55.875 L 12.800781 -55.875 L 12.800781 -20.917969 C 12.800781 -3.855469 21.46875 1.238281 34.269531 1.238281 C 41.289062 1.238281 46.378906 -0.414062 50.785156 -3.027344 Z M 50.785156 -3.027344 "/></g></g></g></svg>