<svg xmlns="http://www.w3.org/2000/svg" xmlns:xlink="http://www.w3.org/1999/xlink" width="940" zoomAndPan="magnify" viewBox="0 0 705 591.000005" height="788" preserveAspectRatio="xMidYMid meet" version="1.0"><defs><g/><clipPath id="052fee03be"><path d="M 0.59375 180.796875 L 229.003906 180.796875 L 229.003906 409.207031 L 0.59375 409.207031 Z M 0.59375 180.796875 " clip-rule="nonzero"/></clipPath><clipPath id="7e16d65e05"><path d="M 114.800781 180.796875 C 51.726562 180.796875 0.59375 231.925781 0.59375 295 C 0.59375 358.074219 51.726562 409.207031 114.800781 409.207031 C 177.875 409.207031 229.003906 358.074219 229.003906 295 C 229.003906 231.925781 177.875 180.796875 114.800781 180.796875 " clip-rule="nonzero"/></clipPath><clipPath id="ec7dadad3e"><path d="M 56.488281 268 L 173.292969 268 L 173.292969 357.5 L 56.488281 357.5 Z M 56.488281 268 " clip-rule="nonzero"/></clipPath><clipPath id="d477b0ad0a"><path d="M 97 221.230469 L 133 221.230469 L 133 256 L 97 256 Z M 97 221.230469 " clip-rule="nonzero"/></clipPath><clipPath id="3cba3775df"><path d="M 661 252 L 704.402344 252 L 704.402344 339 L 661 339 Z M 661 252 " clip-rule="nonzero"/></clipPath></defs><g clip-path="url(#052fee03be)"><g clip-path="url(#7e16d65e05)"><path fill="#569fff" d="M 0.59375 180.796875 L 229.003906 180.796875 L 229.003906 409.207031 L 0.59375 409.207031 Z M 0.59375 180.796875 " fill-opacity="1" fill-rule="nonzero"/></g></g><g clip-path="url(#ec7dadad3e)"><path fill="#ffffff" d="M 114.875 357.515625 C 82.625 357.515625 56.480469 331.394531 56.480469 299.179688 C 56.480469 287.949219 59.65625 277.460938 65.164062 268.558594 L 114.875 318.222656 L 164.589844 268.558594 C 170.09375 277.460938 173.269531 287.949219 173.269531 299.179688 C 173.269531 331.394531 147.128906 357.515625 114.875 357.515625 " fill-opacity="1" fill-rule="nonzero"/></g><path fill="#ffffff" d="M 114.875 301.417969 L 81.105469 267.683594 L 96.519531 252.289062 L 114.875 270.625 L 133.234375 252.289062 L 148.644531 267.683594 L 114.875 301.417969 " fill-opacity="1" fill-rule="nonzero"/><g clip-path="url(#d477b0ad0a)"><path fill="#ffffff" d="M 97.570312 238.535156 L 114.875 221.25 L 132.179688 238.535156 L 114.875 255.820312 L 97.570312 238.535156 " fill-opacity="1" fill-rule="nonzero"/></g><g fill="#1b2f60" fill-opacity="1"><g transform="translate(256.737901, 336.910506)"><g><path d="M 48.792969 -48.292969 L 48.792969 -68.136719 C 37.5625 -68.636719 31.324219 -62.644531 27.453125 -53.410156 L 27.453125 -66.890625 L 8.484375 -66.890625 L 8.484375 0 L 27.453125 0 L 27.453125 -24.710938 C 27.453125 -40.683594 35.191406 -48.292969 47.796875 -48.292969 Z M 48.792969 -48.292969 "/></g></g></g><g fill="#1b2f60" fill-opacity="1"><g transform="translate(298.041419, 336.910506)"><g><path d="M 70.882812 -31.574219 L 70.882812 -31.820312 C 70.882812 -50.789062 60.648438 -68.136719 38.3125 -68.136719 C 18.84375 -68.136719 5.242188 -52.414062 5.242188 -33.320312 L 5.242188 -33.070312 C 5.242188 -12.605469 20.089844 1.496094 40.183594 1.496094 C 52.289062 1.496094 61.273438 -3.246094 67.511719 -10.980469 L 56.65625 -20.589844 C 51.414062 -15.722656 46.796875 -13.726562 40.433594 -13.726562 C 31.945312 -13.726562 25.957031 -18.21875 24.085938 -26.832031 L 70.632812 -26.832031 C 70.757812 -28.578125 70.882812 -29.699219 70.882812 -31.574219 Z M 52.414062 -38.6875 L 23.835938 -38.6875 C 25.332031 -47.296875 30.449219 -52.914062 38.3125 -52.914062 C 46.296875 -52.914062 51.289062 -47.171875 52.414062 -38.6875 Z M 52.414062 -38.6875 "/></g></g></g><g fill="#1b2f60" fill-opacity="1"><g transform="translate(363.67857, 336.910506)"><g><path d="M 110.566406 0 L 110.566406 -43.554688 C 110.566406 -59.652344 102.082031 -68.136719 87.980469 -68.136719 C 78.867188 -68.136719 71.878906 -64.394531 66.015625 -57.53125 C 62.519531 -64.269531 55.90625 -68.136719 47.171875 -68.136719 C 37.5625 -68.136719 31.820312 -63.019531 27.453125 -57.40625 L 27.453125 -66.890625 L 8.484375 -66.890625 L 8.484375 0 L 27.453125 0 L 27.453125 -37.3125 C 27.453125 -46.296875 31.820312 -50.914062 38.933594 -50.914062 C 46.046875 -50.914062 50.042969 -46.296875 50.042969 -37.3125 L 50.042969 0 L 69.011719 0 L 69.011719 -37.3125 C 69.011719 -46.296875 73.378906 -50.914062 80.492188 -50.914062 C 87.605469 -50.914062 91.597656 -46.296875 91.597656 -37.3125 L 91.597656 0 Z M 110.566406 0 "/></g></g></g><g fill="#1b2f60" fill-opacity="1"><g transform="translate(471.369238, 336.910506)"><g><path d="M 78.746094 -33.320312 L 78.746094 -33.570312 C 78.746094 -55.90625 63.894531 -68.136719 48.292969 -68.136719 C 38.4375 -68.136719 32.070312 -63.519531 27.453125 -57.28125 L 27.453125 -66.890625 L 8.484375 -66.890625 L 8.484375 19.96875 L 27.453125 19.96875 L 27.453125 -8.734375 C 31.945312 -3.371094 38.1875 1.246094 48.292969 1.246094 C 64.144531 1.246094 78.746094 -10.980469 78.746094 -33.320312 Z M 59.777344 -33.320312 C 59.777344 -22.089844 52.289062 -14.851562 43.429688 -14.851562 C 34.566406 -14.851562 27.203125 -22.214844 27.203125 -33.320312 L 27.203125 -33.570312 C 27.203125 -44.675781 34.566406 -52.039062 43.429688 -52.039062 C 52.289062 -52.039062 59.777344 -44.675781 59.777344 -33.570312 Z M 59.777344 -33.320312 "/></g></g></g><g fill="#1b2f60" fill-opacity="1"><g transform="translate(544.743231, 336.910506)"><g><path d="M 77.621094 -33.320312 L 77.621094 -33.570312 C 77.621094 -52.789062 62.273438 -68.136719 41.554688 -68.136719 C 20.714844 -68.136719 5.242188 -52.539062 5.242188 -33.320312 L 5.242188 -33.070312 C 5.242188 -13.851562 20.589844 1.496094 41.304688 1.496094 C 62.148438 1.496094 77.621094 -14.101562 77.621094 -33.320312 Z M 58.902344 -33.070312 C 58.902344 -23.210938 52.414062 -14.851562 41.554688 -14.851562 C 31.074219 -14.851562 23.960938 -23.460938 23.960938 -33.320312 L 23.960938 -33.570312 C 23.960938 -43.429688 30.449219 -51.789062 41.304688 -51.789062 C 51.789062 -51.789062 58.902344 -43.179688 58.902344 -33.320312 Z M 58.902344 -33.070312 "/></g></g></g><g fill="#1b2f60" fill-opacity="1"><g transform="translate(616.744554, 336.910506)"><g><path d="M 48.792969 -48.292969 L 48.792969 -68.136719 C 37.5625 -68.636719 31.324219 -62.644531 27.453125 -53.410156 L 27.453125 -66.890625 L 8.484375 -66.890625 L 8.484375 0 L 27.453125 0 L 27.453125 -24.710938 C 27.453125 -40.683594 35.191406 -48.292969 47.796875 -48.292969 Z M 48.792969 -48.292969 "/></g></g></g><g clip-path="url(#3cba3775df)"><g fill="#1b2f60" fill-opacity="1"><g transform="translate(658.048065, 336.910506)"><g><path d="M 46.046875 -2.746094 L 46.046875 -17.96875 C 43.304688 -16.472656 40.183594 -15.597656 36.6875 -15.597656 C 32.445312 -15.597656 30.574219 -17.71875 30.574219 -22.089844 L 30.574219 -50.664062 L 46.296875 -50.664062 L 46.296875 -66.890625 L 30.574219 -66.890625 L 30.574219 -83.984375 L 11.605469 -83.984375 L 11.605469 -66.890625 L 3.617188 -66.890625 L 3.617188 -50.664062 L 11.605469 -50.664062 L 11.605469 -18.96875 C 11.605469 -3.496094 19.46875 1.125 31.074219 1.125 C 37.4375 1.125 42.054688 -0.375 46.046875 -2.746094 Z M 46.046875 -2.746094 "/></g></g></g></g></svg>