<svg xmlns="http://www.w3.org/2000/svg" xmlns:xlink="http://www.w3.org/1999/xlink" width="940" zoomAndPan="magnify" viewBox="0 0 705 591.000005" height="788" preserveAspectRatio="xMidYMid meet" version="1.0"><defs><g/><clipPath id="8486d8e1f9"><path d="M 1.34375 202.066406 L 131.734375 202.066406 L 131.734375 332.457031 L 1.34375 332.457031 Z M 1.34375 202.066406 " clip-rule="nonzero"/></clipPath><clipPath id="d1be8800a7"><path d="M 66.539062 202.066406 C 30.53125 202.066406 1.34375 231.257812 1.34375 267.261719 C 1.34375 303.265625 30.53125 332.457031 66.539062 332.457031 C 102.542969 332.457031 131.734375 303.265625 131.734375 267.261719 C 131.734375 231.257812 102.542969 202.066406 66.539062 202.066406 " clip-rule="nonzero"/></clipPath><clipPath id="a4f20820aa"><path d="M 1.34375 202.066406 L 131.625 202.066406 L 131.625 332.347656 L 1.34375 332.347656 Z M 1.34375 202.066406 " clip-rule="nonzero"/></clipPath><clipPath id="8208e7a3cd"><path d="M 66.484375 202.066406 C 30.507812 202.066406 1.34375 231.230469 1.34375 267.207031 C 1.34375 303.183594 30.507812 332.347656 66.484375 332.347656 C 102.460938 332.347656 131.625 303.183594 131.625 267.207031 C 131.625 231.230469 102.460938 202.066406 66.484375 202.066406 " clip-rule="nonzero"/></clipPath><clipPath id="a6eb28441e"><path d="M 33.289062 252 L 99.925781 252 L 99.925781 303.015625 L 33.289062 303.015625 Z M 33.289062 252 " clip-rule="nonzero"/></clipPath><clipPath id="7695d37d56"><path d="M 56 225.148438 L 77 225.148438 L 77 245 L 56 245 Z M 56 225.148438 " clip-rule="nonzero"/></clipPath></defs><g clip-path="url(#8486d8e1f9)"><g clip-path="url(#d1be8800a7)"><path fill="#569fff" d="M 1.34375 202.066406 L 131.734375 202.066406 L 131.734375 332.457031 L 1.34375 332.457031 Z M 1.34375 202.066406 " fill-opacity="1" fill-rule="nonzero"/></g></g><g clip-path="url(#a4f20820aa)"><g clip-path="url(#8208e7a3cd)"><path stroke-linecap="butt" transform="matrix(0.748128, 0, 0, 0.748128, 1.344169, 202.067652)" fill="none" stroke-linejoin="miter" d="M 87.07088 -0.00166467 C 38.982132 -0.00166467 -0.000560459 38.981027 -0.000560459 87.069775 C -0.000560459 135.158523 38.982132 174.141215 87.07088 174.141215 C 135.159628 174.141215 174.14232 135.158523 174.14232 87.069775 C 174.14232 38.981027 135.159628 -0.00166467 87.07088 -0.00166467 " stroke="#3b5998" stroke-width="24" stroke-opacity="1" stroke-miterlimit="4"/></g></g><g clip-path="url(#a6eb28441e)"><path fill="#ffffff" d="M 66.597656 303.023438 C 48.195312 303.023438 33.277344 288.097656 33.277344 269.6875 C 33.277344 263.273438 35.09375 257.277344 38.234375 252.191406 L 66.597656 280.570312 L 94.964844 252.191406 C 98.105469 257.277344 99.917969 263.273438 99.917969 269.6875 C 99.917969 288.097656 85 303.023438 66.597656 303.023438 " fill-opacity="1" fill-rule="nonzero"/></g><path fill="#ffffff" d="M 66.597656 270.96875 L 47.332031 251.691406 L 56.125 242.894531 L 66.597656 253.371094 L 77.074219 242.894531 L 85.867188 251.691406 L 66.597656 270.96875 " fill-opacity="1" fill-rule="nonzero"/><g clip-path="url(#7695d37d56)"><path fill="#ffffff" d="M 56.726562 235.035156 L 66.597656 225.15625 L 76.472656 235.035156 L 66.597656 244.910156 L 56.726562 235.035156 " fill-opacity="1" fill-rule="nonzero"/></g><g fill="#2a383b" fill-opacity="1"><g transform="translate(150.932458, 313.982516)"><g><path d="M 94.53125 0 L 71.070312 -34.300781 C 83.28125 -38.828125 91.648438 -48.570312 91.648438 -64.074219 L 91.648438 -64.347656 C 91.648438 -84.105469 78.066406 -96.039062 55.429688 -96.039062 L 11.523438 -96.039062 L 11.523438 0 L 32.652344 0 L 32.652344 -30.734375 L 49.253906 -30.734375 L 69.835938 0 Z M 70.246094 -62.976562 C 70.246094 -54.878906 64.347656 -49.390625 54.058594 -49.390625 L 32.652344 -49.390625 L 32.652344 -76.96875 L 53.644531 -76.96875 C 63.933594 -76.96875 70.246094 -72.304688 70.246094 -63.25 Z M 70.246094 -62.976562 "/></g></g></g><g fill="#2a383b" fill-opacity="1"><g transform="translate(240.793041, 313.982516)"><g><path d="M 77.929688 -34.710938 L 77.929688 -34.984375 C 77.929688 -55.839844 66.679688 -74.910156 42.121094 -74.910156 C 20.71875 -74.910156 5.761719 -57.625 5.761719 -36.632812 L 5.761719 -36.359375 C 5.761719 -13.855469 22.089844 1.644531 44.179688 1.644531 C 57.488281 1.644531 67.367188 -3.566406 74.226562 -12.074219 L 62.289062 -22.636719 C 56.527344 -17.289062 51.449219 -15.09375 44.453125 -15.09375 C 35.125 -15.09375 28.539062 -20.03125 26.480469 -29.5 L 77.65625 -29.5 C 77.792969 -31.417969 77.929688 -32.652344 77.929688 -34.710938 Z M 57.625 -42.53125 L 26.207031 -42.53125 C 27.851562 -52 33.476562 -58.171875 42.121094 -58.171875 C 50.902344 -58.171875 56.390625 -51.863281 57.625 -42.53125 Z M 57.625 -42.53125 "/></g></g></g><g fill="#2a383b" fill-opacity="1"><g transform="translate(315.562393, 313.982516)"><g><path d="M 121.558594 0 L 121.558594 -47.882812 C 121.558594 -65.582031 112.230469 -74.910156 96.726562 -74.910156 C 86.710938 -74.910156 79.027344 -70.796875 72.578125 -63.25 C 68.738281 -70.660156 61.464844 -74.910156 51.863281 -74.910156 C 41.296875 -74.910156 34.984375 -69.285156 30.183594 -63.113281 L 30.183594 -73.539062 L 9.328125 -73.539062 L 9.328125 0 L 30.183594 0 L 30.183594 -41.023438 C 30.183594 -50.902344 34.984375 -55.976562 42.804688 -55.976562 C 50.628906 -55.976562 55.015625 -50.902344 55.015625 -41.023438 L 55.015625 0 L 75.871094 0 L 75.871094 -41.023438 C 75.871094 -50.902344 80.675781 -55.976562 88.496094 -55.976562 C 96.316406 -55.976562 100.707031 -50.902344 100.707031 -41.023438 L 100.707031 0 Z M 121.558594 0 "/></g></g></g><g fill="#2a383b" fill-opacity="1"><g transform="translate(436.562603, 313.982516)"><g><path d="M 86.574219 -36.632812 L 86.574219 -36.90625 C 86.574219 -61.464844 70.246094 -74.910156 53.097656 -74.910156 C 42.257812 -74.910156 35.261719 -69.835938 30.183594 -62.976562 L 30.183594 -73.539062 L 9.328125 -73.539062 L 9.328125 21.953125 L 30.183594 21.953125 L 30.183594 -9.605469 C 35.125 -3.703125 41.984375 1.371094 53.097656 1.371094 C 70.519531 1.371094 86.574219 -12.074219 86.574219 -36.632812 Z M 65.71875 -36.632812 C 65.71875 -24.285156 57.488281 -16.328125 47.746094 -16.328125 C 38.003906 -16.328125 29.910156 -24.421875 29.910156 -36.632812 L 29.910156 -36.90625 C 29.910156 -49.117188 38.003906 -57.210938 47.746094 -57.210938 C 57.488281 -57.210938 65.71875 -49.117188 65.71875 -36.90625 Z M 65.71875 -36.632812 "/></g></g></g><g fill="#2a383b" fill-opacity="1"><g transform="translate(519.83792, 313.982516)"><g><path d="M 85.339844 -36.632812 L 85.339844 -36.90625 C 85.339844 -58.035156 68.464844 -74.910156 45.6875 -74.910156 C 22.773438 -74.910156 5.761719 -57.761719 5.761719 -36.632812 L 5.761719 -36.359375 C 5.761719 -15.230469 22.636719 1.644531 45.414062 1.644531 C 68.324219 1.644531 85.339844 -15.503906 85.339844 -36.632812 Z M 64.757812 -36.359375 C 64.757812 -25.519531 57.625 -16.328125 45.6875 -16.328125 C 34.164062 -16.328125 26.34375 -25.792969 26.34375 -36.632812 L 26.34375 -36.90625 C 26.34375 -47.746094 33.476562 -56.9375 45.414062 -56.9375 C 56.9375 -56.9375 64.757812 -47.472656 64.757812 -36.632812 Z M 64.757812 -36.359375 "/></g></g></g><g fill="#2a383b" fill-opacity="1"><g transform="translate(601.604115, 313.982516)"><g><path d="M 53.644531 -53.097656 L 53.644531 -74.910156 C 41.296875 -75.460938 34.4375 -68.875 30.183594 -58.722656 L 30.183594 -73.539062 L 9.328125 -73.539062 L 9.328125 0 L 30.183594 0 L 30.183594 -27.164062 C 30.183594 -44.726562 38.691406 -53.097656 52.546875 -53.097656 Z M 53.644531 -53.097656 "/></g></g></g><g fill="#2a383b" fill-opacity="1"><g transform="translate(649.620829, 313.982516)"><g><path d="M 50.628906 -3.019531 L 50.628906 -19.757812 C 47.609375 -18.109375 44.179688 -17.148438 40.335938 -17.148438 C 35.671875 -17.148438 33.613281 -19.484375 33.613281 -24.285156 L 33.613281 -55.703125 L 50.902344 -55.703125 L 50.902344 -73.539062 L 33.613281 -73.539062 L 33.613281 -92.335938 L 12.757812 -92.335938 L 12.757812 -73.539062 L 3.980469 -73.539062 L 3.980469 -55.703125 L 12.757812 -55.703125 L 12.757812 -20.855469 C 12.757812 -3.839844 21.402344 1.234375 34.164062 1.234375 C 41.160156 1.234375 46.238281 -0.410156 50.628906 -3.019531 Z M 50.628906 -3.019531 "/></g></g></g></svg>