<svg xmlns="http://www.w3.org/2000/svg" xmlns:xlink="http://www.w3.org/1999/xlink" width="940" zoomAndPan="magnify" viewBox="0 0 705 591.000005" height="788" preserveAspectRatio="xMidYMid meet" version="1.0"><defs><g><g id="id1"/><g id="id2"/></g><clipPath id="id3"><path d="M 0.59375 0 L 704.402344 0 L 704.402344 590 L 0.59375 590 Z M 0.59375 0 " clip-rule="nonzero"/></clipPath><clipPath id="id4"><path d="M 454.136719 189.613281 L 540.992188 189.613281 L 540.992188 236.035156 L 454.136719 236.035156 Z M 454.136719 189.613281 " clip-rule="nonzero"/></clipPath><clipPath id="id5"><path d="M 437.960938 204.546875 L 455.183594 204.546875 L 455.183594 221.765625 L 437.960938 221.765625 Z M 437.960938 204.546875 " clip-rule="nonzero"/></clipPath></defs><g clip-path="url(#id3)"><path fill="rgb(100%, 100%, 100%)" d="M 0.59375 0 L 704.40625 0 L 704.40625 597.488281 L 0.59375 597.488281 Z M 0.59375 0 " fill-opacity="1" fill-rule="nonzero"/><path fill="rgb(14.509583%, 23.139954%, 27.059937%)" d="M 0.59375 0 L 704.40625 0 L 704.40625 590 L 0.59375 590 Z M 0.59375 0 " fill-opacity="1" fill-rule="nonzero"/><path fill="rgb(100%, 100%, 100%)" d="M 0.59375 0 L 704.40625 0 L 704.40625 590 L 0.59375 590 Z M 0.59375 0 " fill-opacity="1" fill-rule="nonzero"/><path fill="rgb(14.509583%, 23.139954%, 27.059937%)" d="M 0.59375 0 L 704.40625 0 L 704.40625 590 L 0.59375 590 Z M 0.59375 0 " fill-opacity="1" fill-rule="nonzero"/></g><g fill="rgb(97.648621%, 99.609375%, 99.21875%)" fill-opacity="1"><g transform="translate(81.642282, 320.146017)"><g><path d="M 79.609375 -69.21875 C 79.609375 -59.800781 73.375 -52.507812 60.90625 -47.34375 C 75.125 -23.8125 84.3125 -9.96875 88.46875 -5.8125 C 89.84375 -4.425781 91.359375 -3.429688 93.015625 -2.828125 C 94.679688 -2.234375 97.5 -1.613281 101.46875 -0.96875 L 101.46875 0 L 95.796875 0.28125 C 94.597656 0.375 91.921875 0.507812 87.765625 0.6875 C 82.410156 0.875 79.503906 0.96875 79.046875 0.96875 C 74.617188 0.96875 71.4375 0.140625 69.5 -1.515625 C 67.65625 -2.898438 65.070312 -6.316406 61.75 -11.765625 L 46.515625 -37.375 C 44.847656 -39.863281 43.644531 -41.453125 42.90625 -42.140625 C 42.175781 -42.835938 41.253906 -43.1875 40.140625 -43.1875 L 38.203125 -43.1875 C 37.003906 -43.09375 36.082031 -43.046875 35.4375 -43.046875 L 34.890625 -43.046875 L 34.890625 -19.796875 C 34.890625 -12.503906 35.164062 -7.75 35.71875 -5.53125 C 36.082031 -4.15625 36.703125 -3.210938 37.578125 -2.703125 C 38.460938 -2.191406 40.242188 -1.84375 42.921875 -1.65625 L 49 -1.109375 L 49 0 L 3.46875 0 L 3.46875 -1.109375 L 8.171875 -1.65625 C 10.660156 -1.9375 12.316406 -2.328125 13.140625 -2.828125 C 13.972656 -3.335938 14.578125 -4.285156 14.953125 -5.671875 C 15.597656 -8.160156 15.921875 -12.867188 15.921875 -19.796875 L 15.921875 -72.6875 C 15.921875 -79.789062 15.550781 -84.679688 14.8125 -87.359375 C 14.53125 -88.648438 13.90625 -89.546875 12.9375 -90.046875 C 11.96875 -90.554688 10.191406 -91 7.609375 -91.375 L 3.46875 -91.921875 L 3.46875 -93.03125 C 11.769531 -92.75 22.332031 -92.609375 35.15625 -92.609375 C 51.3125 -92.609375 62.804688 -90.441406 69.640625 -86.109375 C 76.285156 -81.679688 79.609375 -76.050781 79.609375 -69.21875 Z M 60.5 -68.25 C 60.5 -74.988281 58.351562 -80.382812 54.0625 -84.4375 C 49.769531 -88.5 43.515625 -90.578125 35.296875 -90.671875 C 35.023438 -87.253906 34.890625 -82.085938 34.890625 -75.171875 L 34.890625 -44.859375 C 42.085938 -44.671875 48.175781 -46.609375 53.15625 -50.671875 C 58.050781 -54.734375 60.5 -60.59375 60.5 -68.25 Z M 60.5 -68.25 "/></g></g></g><g fill="rgb(97.648621%, 99.609375%, 99.21875%)" fill-opacity="1"><g transform="translate(171.485254, 320.146017)"><g><path d="M 35.296875 -65.203125 C 42.585938 -65.203125 48.585938 -63.265625 53.296875 -59.390625 C 57.910156 -55.328125 60.21875 -50.664062 60.21875 -45.40625 C 60.21875 -43.832031 60.035156 -42.539062 59.671875 -41.53125 L 19.375 -41.671875 C 19.289062 -41.023438 19.25 -39.546875 19.25 -37.234375 C 19.25 -28.472656 21.253906 -21.738281 25.265625 -17.03125 C 29.273438 -12.320312 34.648438 -9.96875 41.390625 -9.96875 C 49.054688 -9.96875 55.472656 -12.738281 60.640625 -18.28125 L 61.1875 -17.859375 C 58.601562 -11.671875 54.84375 -6.800781 49.90625 -3.25 C 44.96875 0.300781 39.453125 2.078125 33.359375 2.078125 C 24.410156 2.078125 17.210938 -1.054688 11.765625 -7.328125 C 6.316406 -13.609375 3.59375 -21.132812 3.59375 -29.90625 C 3.59375 -39.78125 6.59375 -48.128906 12.59375 -54.953125 C 18.59375 -61.785156 26.160156 -65.203125 35.296875 -65.203125 Z M 26.171875 -59.109375 C 22.660156 -55.609375 20.488281 -50.441406 19.65625 -43.609375 L 27.265625 -43.75 C 37.972656 -44.019531 43.925781 -44.476562 45.125 -45.125 C 45.40625 -49.738281 44.578125 -53.847656 42.640625 -57.453125 C 40.609375 -61.046875 37.882812 -62.84375 34.46875 -62.84375 C 31.601562 -62.84375 28.835938 -61.597656 26.171875 -59.109375 Z M 26.171875 -59.109375 "/></g></g></g><g fill="rgb(97.648621%, 99.609375%, 99.21875%)" fill-opacity="1"><g transform="translate(230.180662, 320.146017)"><g><path d="M 84.859375 -65.203125 C 88.367188 -65.203125 91.320312 -64.003906 93.71875 -61.609375 C 96.300781 -59.023438 97.59375 -54.457031 97.59375 -47.90625 L 97.59375 -4.4375 C 97.59375 -3.320312 97.800781 -2.578125 98.21875 -2.203125 C 98.632812 -1.835938 99.71875 -1.566406 101.46875 -1.390625 L 103.546875 -1.109375 L 103.546875 0 L 75.71875 0 L 75.71875 -1.109375 L 77.9375 -1.390625 C 79.414062 -1.566406 80.363281 -1.835938 80.78125 -2.203125 C 81.195312 -2.578125 81.40625 -3.320312 81.40625 -4.4375 L 81.40625 -39.046875 C 81.40625 -46.421875 80.523438 -50.988281 78.765625 -52.75 C 77.203125 -54.3125 74.988281 -55.09375 72.125 -55.09375 C 69.445312 -55.09375 65.941406 -53.894531 61.609375 -51.5 C 61.703125 -50.664062 61.75 -48.539062 61.75 -45.125 L 61.75 -4.4375 C 61.75 -3.320312 61.929688 -2.578125 62.296875 -2.203125 C 62.660156 -1.835938 63.628906 -1.566406 65.203125 -1.390625 L 67.28125 -1.109375 L 67.28125 0 L 39.875 0 L 39.875 -1.109375 L 41.953125 -1.390625 C 43.515625 -1.566406 44.476562 -1.835938 44.84375 -2.203125 C 45.21875 -2.578125 45.40625 -3.320312 45.40625 -4.4375 L 45.40625 -39.046875 C 45.40625 -42.273438 45.378906 -44.414062 45.328125 -45.46875 C 45.285156 -46.53125 45.078125 -47.726562 44.703125 -49.0625 C 44.335938 -50.40625 43.742188 -51.632812 42.921875 -52.75 C 41.347656 -54.3125 39.128906 -55.09375 36.265625 -55.09375 C 33.316406 -55.09375 29.859375 -53.988281 25.890625 -51.78125 L 25.890625 -4.4375 C 25.890625 -3.320312 26.070312 -2.578125 26.4375 -2.203125 C 26.8125 -1.835938 27.78125 -1.566406 29.34375 -1.390625 L 31.421875 -1.109375 L 31.421875 0 L 3.59375 0 L 3.59375 -1.109375 L 5.671875 -1.390625 C 7.429688 -1.566406 8.515625 -1.835938 8.921875 -2.203125 C 9.335938 -2.578125 9.546875 -3.320312 9.546875 -4.4375 L 9.546875 -48.3125 C 9.546875 -50.53125 9.039062 -52.238281 8.03125 -53.4375 L 3.734375 -57.734375 L 3.734375 -58.140625 L 26.296875 -66.3125 L 26.71875 -65.890625 C 26.351562 -62.847656 26.171875 -60.5 26.171875 -58.84375 L 26.03125 -53.984375 L 26.578125 -53.71875 C 34.972656 -61.375 42.40625 -65.203125 48.875 -65.203125 C 52.46875 -65.203125 55.460938 -64.003906 57.859375 -61.609375 C 59.804688 -59.671875 61.007812 -56.765625 61.46875 -52.890625 C 70.144531 -61.097656 77.941406 -65.203125 84.859375 -65.203125 Z M 84.859375 -65.203125 "/></g></g></g><g fill="rgb(97.648621%, 99.609375%, 99.21875%)" fill-opacity="1"><g transform="translate(331.652068, 320.146017)"><g><path d="M 69.765625 -33.78125 C 69.765625 -24.09375 66.535156 -15.738281 60.078125 -8.71875 C 53.523438 -1.613281 45.453125 1.9375 35.859375 1.9375 C 31.890625 1.9375 28.335938 1.472656 25.203125 0.546875 L 25.203125 26.578125 C 25.203125 27.679688 25.40625 28.414062 25.8125 28.78125 C 26.226562 29.15625 27.316406 29.4375 29.078125 29.625 L 33.359375 29.90625 L 33.359375 31.015625 L 2.90625 31.015625 L 2.90625 29.90625 L 5.125 29.625 C 6.78125 29.4375 7.816406 29.15625 8.234375 28.78125 C 8.648438 28.414062 8.859375 27.679688 8.859375 26.578125 L 8.859375 -48.3125 C 8.859375 -50.625 8.351562 -52.378906 7.34375 -53.578125 L 3.1875 -57.859375 L 3.1875 -58.28125 L 25.75 -66.3125 L 26.171875 -65.890625 C 25.796875 -63.773438 25.609375 -61.5625 25.609375 -59.25 L 25.328125 -56.890625 L 25.890625 -56.625 C 32.160156 -62.34375 38.4375 -65.203125 44.71875 -65.203125 C 51.820312 -65.203125 57.820312 -62.34375 62.71875 -56.625 C 67.414062 -50.8125 69.765625 -43.195312 69.765625 -33.78125 Z M 52.609375 -30.046875 C 52.609375 -38.441406 50.757812 -45.035156 47.0625 -49.828125 C 43.375 -54.628906 38.992188 -57.03125 33.921875 -57.03125 C 31.054688 -57.03125 28.148438 -56.25 25.203125 -54.6875 L 24.921875 -19.375 C 24.828125 -6.820312 28.796875 -0.546875 36.828125 -0.546875 C 40.972656 -0.546875 44.664062 -3.269531 47.90625 -8.71875 C 51.039062 -14.070312 52.609375 -21.179688 52.609375 -30.046875 Z M 52.609375 -30.046875 "/></g></g></g><g fill="rgb(97.648621%, 99.609375%, 99.21875%)" fill-opacity="1"><g transform="translate(400.453139, 320.146017)"><g><path d="M 36.96875 -65.203125 C 46.65625 -65.203125 54.40625 -61.925781 60.21875 -55.375 C 65.9375 -48.632812 68.796875 -40.882812 68.796875 -32.125 C 68.796875 -21.96875 65.476562 -13.566406 58.84375 -6.921875 C 52.75 -0.828125 44.898438 2.21875 35.296875 2.21875 C 25.609375 2.21875 17.953125 -1.101562 12.328125 -7.75 C 6.503906 -14.394531 3.59375 -22.148438 3.59375 -31.015625 C 3.59375 -41.066406 6.914062 -49.414062 13.5625 -56.0625 C 19.65625 -62.15625 27.457031 -65.203125 36.96875 -65.203125 Z M 36.828125 -0.28125 C 41.441406 -0.28125 45.085938 -3 47.765625 -8.4375 C 50.253906 -13.332031 51.5 -20.71875 51.5 -30.59375 C 51.5 -38.988281 50.019531 -46.507812 47.0625 -53.15625 C 44.207031 -59.613281 40.332031 -62.84375 35.4375 -62.84375 C 30.820312 -62.84375 27.222656 -60.078125 24.640625 -54.546875 C 22.148438 -49.742188 20.90625 -42.359375 20.90625 -32.390625 C 20.90625 -26.953125 21.523438 -21.832031 22.765625 -17.03125 C 24.015625 -12.226562 25.863281 -8.234375 28.3125 -5.046875 C 30.757812 -1.867188 33.597656 -0.28125 36.828125 -0.28125 Z M 36.828125 -0.28125 "/></g></g></g><g fill="rgb(97.648621%, 99.609375%, 99.21875%)" fill-opacity="1"><g transform="translate(468.285185, 320.146017)"><g><path d="M 43.1875 -65.765625 C 45.59375 -65.765625 47.441406 -65.046875 48.734375 -63.609375 C 50.023438 -62.179688 50.671875 -60.3125 50.671875 -58 C 50.671875 -53.664062 48.914062 -50.019531 45.40625 -47.0625 C 39.6875 -50.207031 35.535156 -51.78125 32.953125 -51.78125 C 30.546875 -51.78125 28.191406 -50.253906 25.890625 -47.203125 L 25.890625 -4.4375 C 25.890625 -3.320312 26.097656 -2.578125 26.515625 -2.203125 C 26.929688 -1.835938 28.015625 -1.566406 29.765625 -1.390625 L 34.1875 -1.109375 L 34.1875 0 L 3.59375 0 L 3.59375 -1.109375 L 5.671875 -1.390625 C 7.429688 -1.566406 8.515625 -1.835938 8.921875 -2.203125 C 9.335938 -2.578125 9.546875 -3.320312 9.546875 -4.4375 L 9.546875 -48.3125 C 9.546875 -50.71875 9.039062 -52.425781 8.03125 -53.4375 L 3.734375 -57.734375 L 3.734375 -58.140625 L 26.296875 -66.3125 L 26.71875 -65.890625 L 26.171875 -58.96875 L 25.609375 -50.109375 L 26.296875 -49.84375 C 31.285156 -60.457031 36.914062 -65.765625 43.1875 -65.765625 Z M 43.1875 -65.765625 "/></g></g></g><g fill="rgb(97.648621%, 99.609375%, 99.21875%)" fill-opacity="1"><g transform="translate(514.106242, 320.146017)"><g><path d="M 27.6875 2.078125 C 21.78125 2.078125 17.347656 0.597656 14.390625 -2.359375 C 11.253906 -5.492188 9.6875 -10.109375 9.6875 -16.203125 L 9.6875 -54.40625 L 2.484375 -54.40625 L 2.484375 -56.765625 C 10.984375 -63.679688 18.921875 -71.015625 26.296875 -78.765625 L 27 -78.359375 L 26.171875 -62.984375 L 47.765625 -62.984375 L 46.09375 -54.125 L 25.890625 -54.40625 L 25.890625 -20.21875 C 25.890625 -16.0625 26.859375 -13.015625 28.796875 -11.078125 C 30.640625 -9.234375 33.59375 -8.3125 37.65625 -8.3125 C 41.53125 -8.3125 45.269531 -9.554688 48.875 -12.046875 L 49.28125 -11.625 C 44.113281 -2.488281 36.914062 2.078125 27.6875 2.078125 Z M 27.6875 2.078125 "/></g></g></g><g clip-path="url(#id4)"><path fill="rgb(97.648621%, 99.609375%, 99.21875%)" d="M 540.984375 189.644531 L 454.128906 189.644531 L 474.105469 212.824219 L 454.128906 236.007812 L 540.984375 236.007812 Z M 540.984375 189.644531 " fill-opacity="1" fill-rule="nonzero"/></g><g clip-path="url(#id5)"><path fill="rgb(97.648621%, 99.609375%, 99.21875%)" d="M 455.183594 213.15625 C 455.183594 213.722656 455.128906 214.28125 455.019531 214.835938 C 454.90625 215.390625 454.746094 215.929688 454.527344 216.449219 C 454.3125 216.972656 454.046875 217.46875 453.734375 217.941406 C 453.417969 218.410156 453.0625 218.84375 452.660156 219.246094 C 452.261719 219.644531 451.828125 220 451.355469 220.316406 C 450.886719 220.628906 450.390625 220.894531 449.867188 221.109375 C 449.347656 221.328125 448.808594 221.492188 448.253906 221.601562 C 447.699219 221.710938 447.136719 221.765625 446.574219 221.765625 C 446.007812 221.765625 445.449219 221.710938 444.894531 221.601562 C 444.339844 221.492188 443.800781 221.328125 443.277344 221.109375 C 442.753906 220.894531 442.257812 220.628906 441.789062 220.316406 C 441.320312 220 440.882812 219.644531 440.484375 219.246094 C 440.085938 218.84375 439.726562 218.410156 439.414062 217.941406 C 439.101562 217.46875 438.835938 216.972656 438.617188 216.449219 C 438.402344 215.929688 438.238281 215.390625 438.128906 214.835938 C 438.019531 214.28125 437.960938 213.722656 437.960938 213.15625 C 437.960938 212.589844 438.019531 212.03125 438.128906 211.476562 C 438.238281 210.921875 438.402344 210.382812 438.617188 209.859375 C 438.835938 209.339844 439.101562 208.84375 439.414062 208.371094 C 439.726562 207.902344 440.085938 207.46875 440.484375 207.066406 C 440.882812 206.667969 441.320312 206.3125 441.789062 205.996094 C 442.257812 205.683594 442.753906 205.417969 443.277344 205.199219 C 443.800781 204.984375 444.339844 204.820312 444.894531 204.710938 C 445.449219 204.601562 446.007812 204.546875 446.574219 204.546875 C 447.136719 204.546875 447.699219 204.601562 448.253906 204.710938 C 448.808594 204.820312 449.347656 204.984375 449.867188 205.199219 C 450.390625 205.417969 450.886719 205.683594 451.355469 205.996094 C 451.828125 206.3125 452.261719 206.667969 452.660156 207.066406 C 453.0625 207.46875 453.417969 207.902344 453.734375 208.371094 C 454.046875 208.84375 454.3125 209.339844 454.527344 209.859375 C 454.746094 210.382812 454.90625 210.921875 455.019531 211.476562 C 455.128906 212.03125 455.183594 212.589844 455.183594 213.15625 Z M 455.183594 213.15625 " fill-opacity="1" fill-rule="nonzero"/></g><g fill="rgb(97.648621%, 99.609375%, 99.21875%)" fill-opacity="1"><g transform="translate(384.633504, 354.790495)"><g><path d="M 4.734375 -0.46875 L 5.8125 -0.171875 L 5.8125 0 L -0.90625 0 L -0.90625 -0.171875 L -0.109375 -0.40625 C 0.671875 -0.644531 1.238281 -0.957031 1.59375 -1.34375 C 1.894531 -1.6875 2.285156 -2.476562 2.765625 -3.71875 L 7.5 -16 C 7.269531 -16.46875 7.132812 -16.757812 7.09375 -16.875 L 7.125 -16.953125 C 7.59375 -17.148438 8.15625 -17.476562 8.8125 -17.9375 C 9.4375 -18.363281 9.90625 -18.75 10.21875 -19.09375 L 10.328125 -19.0625 L 15.671875 -2.765625 C 15.992188 -1.773438 16.285156 -1.15625 16.546875 -0.90625 C 16.796875 -0.632812 17.242188 -0.453125 17.890625 -0.359375 L 18.796875 -0.21875 L 18.796875 0 L 9.859375 0 L 9.859375 -0.21875 L 10.84375 -0.328125 C 11.738281 -0.453125 12.1875 -0.734375 12.1875 -1.171875 C 12.1875 -1.410156 12.125 -1.722656 12 -2.109375 L 10.46875 -6.9375 L 4.9375 -6.9375 L 4.546875 -5.8125 C 3.765625 -3.613281 3.375 -2.171875 3.375 -1.484375 C 3.375 -1.242188 3.46875 -1.050781 3.65625 -0.90625 C 3.84375 -0.757812 4.203125 -0.613281 4.734375 -0.46875 Z M 10.265625 -7.53125 L 8.484375 -13.234375 C 8.046875 -14.566406 7.8125 -15.269531 7.78125 -15.34375 L 5.125 -7.53125 Z M 10.265625 -7.53125 "/></g></g></g><g fill="rgb(97.648621%, 99.609375%, 99.21875%)" fill-opacity="1"><g transform="translate(402.626953, 354.790495)"><g/></g></g><g fill="rgb(97.648621%, 99.609375%, 99.21875%)" fill-opacity="1"><g transform="translate(406.35163, 354.790495)"><g><path d="M 15.125 -3.921875 L 15.125 -9.171875 L 6.90625 -9.171875 L 6.90625 -3.921875 C 6.90625 -2.492188 6.957031 -1.5625 7.0625 -1.125 C 7.132812 -0.851562 7.253906 -0.660156 7.421875 -0.546875 C 7.585938 -0.441406 7.90625 -0.367188 8.375 -0.328125 L 9.421875 -0.21875 L 9.421875 0 L 0.6875 0 L 0.6875 -0.21875 L 1.609375 -0.328125 C 2.109375 -0.378906 2.4375 -0.457031 2.59375 -0.5625 C 2.757812 -0.664062 2.878906 -0.851562 2.953125 -1.125 C 3.085938 -1.613281 3.15625 -2.546875 3.15625 -3.921875 L 3.15625 -14.375 C 3.15625 -15.75 3.085938 -16.679688 2.953125 -17.171875 C 2.878906 -17.441406 2.757812 -17.628906 2.59375 -17.734375 C 2.4375 -17.835938 2.109375 -17.914062 1.609375 -17.96875 L 0.6875 -18.078125 L 0.6875 -18.296875 L 9.421875 -18.296875 L 9.421875 -18.078125 L 8.375 -17.96875 C 7.90625 -17.925781 7.585938 -17.847656 7.421875 -17.734375 C 7.253906 -17.628906 7.132812 -17.441406 7.0625 -17.171875 C 6.957031 -16.734375 6.90625 -15.800781 6.90625 -14.375 L 6.90625 -9.78125 L 15.125 -9.78125 L 15.125 -14.375 C 15.125 -15.800781 15.066406 -16.734375 14.953125 -17.171875 C 14.878906 -17.441406 14.757812 -17.628906 14.59375 -17.734375 C 14.4375 -17.847656 14.117188 -17.925781 13.640625 -17.96875 L 12.59375 -18.078125 L 12.59375 -18.296875 L 21.34375 -18.296875 L 21.34375 -18.078125 L 20.40625 -17.96875 C 19.914062 -17.914062 19.585938 -17.835938 19.421875 -17.734375 C 19.253906 -17.628906 19.132812 -17.441406 19.0625 -17.171875 C 18.9375 -16.679688 18.875 -15.75 18.875 -14.375 L 18.875 -3.921875 C 18.875 -2.546875 18.9375 -1.613281 19.0625 -1.125 C 19.132812 -0.851562 19.253906 -0.664062 19.421875 -0.5625 C 19.585938 -0.457031 19.914062 -0.378906 20.40625 -0.328125 L 21.34375 -0.21875 L 21.34375 0 L 12.59375 0 L 12.59375 -0.21875 L 13.640625 -0.328125 C 14.117188 -0.367188 14.4375 -0.441406 14.59375 -0.546875 C 14.757812 -0.660156 14.878906 -0.851562 14.953125 -1.125 C 15.066406 -1.5625 15.125 -2.492188 15.125 -3.921875 Z M 15.125 -3.921875 "/></g></g></g><g fill="rgb(97.648621%, 99.609375%, 99.21875%)" fill-opacity="1"><g transform="translate(428.371016, 354.790495)"><g><path d="M 6.984375 -12.90625 C 8.429688 -12.90625 9.617188 -12.519531 10.546875 -11.75 C 11.460938 -10.945312 11.921875 -10.023438 11.921875 -8.984375 C 11.921875 -8.671875 11.882812 -8.414062 11.8125 -8.21875 L 3.828125 -8.25 C 3.816406 -8.113281 3.8125 -7.820312 3.8125 -7.375 C 3.8125 -5.632812 4.207031 -4.296875 5 -3.359375 C 5.789062 -2.429688 6.851562 -1.96875 8.1875 -1.96875 C 9.707031 -1.96875 10.976562 -2.515625 12 -3.609375 L 12.109375 -3.53125 C 11.597656 -2.3125 10.851562 -1.347656 9.875 -0.640625 C 8.894531 0.0546875 7.800781 0.40625 6.59375 0.40625 C 4.820312 0.40625 3.398438 -0.210938 2.328125 -1.453125 C 1.253906 -2.691406 0.71875 -4.179688 0.71875 -5.921875 C 0.71875 -7.867188 1.304688 -9.519531 2.484375 -10.875 C 3.671875 -12.226562 5.171875 -12.90625 6.984375 -12.90625 Z M 5.171875 -11.703125 C 4.484375 -11.003906 4.054688 -9.976562 3.890625 -8.625 L 5.390625 -8.65625 C 7.515625 -8.707031 8.691406 -8.796875 8.921875 -8.921875 C 8.984375 -9.835938 8.820312 -10.648438 8.4375 -11.359375 C 8.03125 -12.078125 7.488281 -12.4375 6.8125 -12.4375 C 6.25 -12.4375 5.703125 -12.191406 5.171875 -11.703125 Z M 5.171875 -11.703125 "/></g></g></g><g fill="rgb(97.648621%, 99.609375%, 99.21875%)" fill-opacity="1"><g transform="translate(440.887012, 354.790495)"><g><path d="M 4.90625 -11.171875 C 4.375 -11.171875 3.90625 -11.050781 3.5 -10.8125 L 4.15625 -8.875 C 4.082031 -8.757812 3.785156 -8.601562 3.265625 -8.40625 C 2.734375 -8.226562 2.285156 -8.140625 1.921875 -8.140625 C 1.296875 -8.140625 0.984375 -8.382812 0.984375 -8.875 C 0.984375 -9.1875 1.300781 -9.660156 1.9375 -10.296875 C 2.601562 -10.953125 3.4375 -11.570312 4.4375 -12.15625 C 5.382812 -12.726562 6.234375 -13.015625 6.984375 -13.015625 C 8.078125 -13.015625 8.890625 -12.757812 9.421875 -12.25 C 9.984375 -11.675781 10.265625 -10.660156 10.265625 -9.203125 L 10.265625 -2.90625 C 10.265625 -2.25 10.40625 -1.78125 10.6875 -1.5 C 10.90625 -1.28125 11.1875 -1.171875 11.53125 -1.171875 C 11.800781 -1.171875 12.09375 -1.28125 12.40625 -1.5 L 12.515625 -1.390625 C 12.222656 -0.941406 11.800781 -0.53125 11.25 -0.15625 C 10.707031 0.207031 10.15625 0.390625 9.59375 0.390625 C 8.988281 0.390625 8.46875 0.222656 8.03125 -0.109375 C 7.59375 -0.441406 7.304688 -0.90625 7.171875 -1.5 L 7.09375 -1.53125 L 6.625 -1.125 C 5.988281 -0.59375 5.453125 -0.222656 5.015625 -0.015625 C 4.585938 0.179688 4.09375 0.28125 3.53125 0.28125 C 2.78125 0.28125 2.160156 0.0195312 1.671875 -0.5 C 1.179688 -1.019531 0.9375 -1.640625 0.9375 -2.359375 C 0.9375 -2.960938 1.132812 -3.460938 1.53125 -3.859375 C 2.019531 -4.335938 3.21875 -4.921875 5.125 -5.609375 L 7.125 -6.328125 L 7.125 -8.59375 C 7.125 -9.550781 6.945312 -10.21875 6.59375 -10.59375 C 6.25 -10.976562 5.6875 -11.171875 4.90625 -11.171875 Z M 7.125 -1.8125 L 7.125 -6 C 5.863281 -5.488281 5.050781 -5.066406 4.6875 -4.734375 C 4.332031 -4.367188 4.15625 -3.914062 4.15625 -3.375 C 4.15625 -2.789062 4.316406 -2.316406 4.640625 -1.953125 C 4.960938 -1.597656 5.367188 -1.421875 5.859375 -1.421875 C 6.273438 -1.421875 6.695312 -1.550781 7.125 -1.8125 Z M 7.125 -1.8125 "/></g></g></g><g fill="rgb(97.648621%, 99.609375%, 99.21875%)" fill-opacity="1"><g transform="translate(453.129134, 354.790495)"><g><path d="M 5.125 -17.5625 L 5.125 -0.875 C 5.125 -0.65625 5.164062 -0.507812 5.25 -0.4375 C 5.332031 -0.363281 5.535156 -0.3125 5.859375 -0.28125 L 6.296875 -0.21875 L 6.296875 0 L 0.71875 0 L 0.71875 -0.21875 L 1.125 -0.28125 C 1.46875 -0.3125 1.679688 -0.363281 1.765625 -0.4375 C 1.847656 -0.507812 1.890625 -0.65625 1.890625 -0.875 L 1.890625 -15.796875 C 1.890625 -16.273438 1.789062 -16.613281 1.59375 -16.8125 L 0.734375 -17.6875 L 0.734375 -17.78125 L 5.125 -19.34375 L 5.203125 -19.25 C 5.148438 -18.726562 5.125 -18.164062 5.125 -17.5625 Z M 5.125 -17.5625 "/></g></g></g><g fill="rgb(97.648621%, 99.609375%, 99.21875%)" fill-opacity="1"><g transform="translate(459.948573, 354.790495)"><g><path d="M 5.484375 0.40625 C 4.304688 0.40625 3.425781 0.113281 2.84375 -0.46875 C 2.226562 -1.082031 1.921875 -1.992188 1.921875 -3.203125 L 1.921875 -10.765625 L 0.5 -10.765625 L 0.5 -11.234375 C 2.175781 -12.597656 3.742188 -14.046875 5.203125 -15.578125 L 5.34375 -15.5 L 5.171875 -12.46875 L 9.453125 -12.46875 L 9.125 -10.703125 L 5.125 -10.765625 L 5.125 -4 C 5.125 -3.175781 5.316406 -2.570312 5.703125 -2.1875 C 6.066406 -1.820312 6.648438 -1.640625 7.453125 -1.640625 C 8.210938 -1.640625 8.953125 -1.890625 9.671875 -2.390625 L 9.75 -2.296875 C 8.726562 -0.492188 7.304688 0.40625 5.484375 0.40625 Z M 5.484375 0.40625 "/></g></g></g><g fill="rgb(97.648621%, 99.609375%, 99.21875%)" fill-opacity="1"><g transform="translate(469.479348, 354.790495)"><g><path d="M 9.71875 -12.90625 C 10.507812 -12.90625 11.140625 -12.664062 11.609375 -12.1875 C 11.941406 -11.863281 12.164062 -11.515625 12.28125 -11.140625 C 12.40625 -10.765625 12.46875 -10.210938 12.46875 -9.484375 L 12.46875 -0.796875 C 12.46875 -0.484375 12.664062 -0.316406 13.0625 -0.296875 L 13.640625 -0.21875 L 13.640625 0 L 8.109375 0 L 8.109375 -0.21875 L 8.6875 -0.296875 C 9.050781 -0.316406 9.234375 -0.484375 9.234375 -0.796875 L 9.234375 -7.71875 C 9.234375 -9.144531 9.054688 -10.03125 8.703125 -10.375 C 8.359375 -10.726562 7.847656 -10.90625 7.171875 -10.90625 C 6.585938 -10.90625 5.90625 -10.6875 5.125 -10.25 L 5.125 -0.796875 C 5.125 -0.484375 5.296875 -0.316406 5.640625 -0.296875 L 6.21875 -0.21875 L 6.21875 0 L 0.71875 0 L 0.71875 -0.21875 L 1.28125 -0.296875 C 1.6875 -0.316406 1.890625 -0.492188 1.890625 -0.828125 L 1.890625 -15.796875 C 1.890625 -16.273438 1.789062 -16.613281 1.59375 -16.8125 L 0.734375 -17.6875 L 0.734375 -17.78125 L 5.125 -19.34375 L 5.203125 -19.25 C 5.148438 -18.726562 5.125 -18.164062 5.125 -17.5625 L 5.125 -10.625 L 5.234375 -10.578125 C 6.953125 -12.128906 8.445312 -12.90625 9.71875 -12.90625 Z M 9.71875 -12.90625 "/></g></g></g><g fill="rgb(97.648621%, 99.609375%, 99.21875%)" fill-opacity="1"><g transform="translate(483.611194, 354.790495)"><g/></g></g><g fill="rgb(97.648621%, 99.609375%, 99.21875%)" fill-opacity="1"><g transform="translate(487.335871, 354.790495)"><g><path d="M 12.328125 -17.78125 C 12.453125 -17.132812 12.578125 -15.609375 12.703125 -13.203125 L 12.46875 -13.140625 C 11.726562 -15.078125 11.015625 -16.40625 10.328125 -17.125 C 9.628906 -17.8125 8.863281 -18.15625 8.03125 -18.15625 C 7.207031 -18.15625 6.539062 -17.910156 6.03125 -17.421875 C 5.53125 -16.941406 5.28125 -16.328125 5.28125 -15.578125 C 5.28125 -14.835938 5.535156 -14.132812 6.046875 -13.46875 C 6.554688 -12.8125 7.476562 -11.972656 8.8125 -10.953125 C 10.363281 -9.753906 11.488281 -8.707031 12.1875 -7.8125 C 12.84375 -6.925781 13.171875 -5.894531 13.171875 -4.71875 C 13.171875 -3.238281 12.613281 -2.03125 11.5 -1.09375 C 10.382812 -0.144531 8.863281 0.328125 6.9375 0.328125 C 5.34375 0.328125 3.613281 -0.0625 1.75 -0.84375 C 1.476562 -2.394531 1.316406 -4.125 1.265625 -6.03125 L 1.484375 -6.109375 C 2.390625 -3.828125 3.21875 -2.265625 3.96875 -1.421875 C 4.738281 -0.566406 5.671875 -0.140625 6.765625 -0.140625 C 7.691406 -0.140625 8.445312 -0.425781 9.03125 -1 C 9.625 -1.570312 9.921875 -2.328125 9.921875 -3.265625 C 9.921875 -4.066406 9.632812 -4.804688 9.0625 -5.484375 C 8.425781 -6.222656 7.394531 -7.171875 5.96875 -8.328125 C 5.0625 -9.035156 4.378906 -9.609375 3.921875 -10.046875 C 3.484375 -10.429688 3.0625 -11 2.65625 -11.75 C 2.25 -12.445312 2.046875 -13.207031 2.046875 -14.03125 C 2.046875 -15.28125 2.585938 -16.363281 3.671875 -17.28125 C 4.734375 -18.175781 6.210938 -18.625 8.109375 -18.625 C 9.765625 -18.625 11.171875 -18.34375 12.328125 -17.78125 Z M 12.328125 -17.78125 "/></g></g></g><g fill="rgb(97.648621%, 99.609375%, 99.21875%)" fill-opacity="1"><g transform="translate(501.960684, 354.790495)"><g><path d="M 7.3125 -12.90625 C 9.226562 -12.90625 10.765625 -12.253906 11.921875 -10.953125 C 13.046875 -9.617188 13.609375 -8.085938 13.609375 -6.359375 C 13.609375 -4.347656 12.953125 -2.6875 11.640625 -1.375 C 10.429688 -0.164062 8.878906 0.4375 6.984375 0.4375 C 5.066406 0.4375 3.550781 -0.21875 2.4375 -1.53125 C 1.289062 -2.84375 0.71875 -4.378906 0.71875 -6.140625 C 0.71875 -8.128906 1.375 -9.78125 2.6875 -11.09375 C 3.882812 -12.300781 5.425781 -12.90625 7.3125 -12.90625 Z M 7.28125 -0.0625 C 8.195312 -0.0625 8.921875 -0.597656 9.453125 -1.671875 C 9.941406 -2.640625 10.1875 -4.097656 10.1875 -6.046875 C 10.1875 -7.710938 9.894531 -9.203125 9.3125 -10.515625 C 8.75 -11.796875 7.984375 -12.4375 7.015625 -12.4375 C 6.097656 -12.4375 5.382812 -11.890625 4.875 -10.796875 C 4.382812 -9.847656 4.140625 -8.382812 4.140625 -6.40625 C 4.140625 -5.332031 4.257812 -4.316406 4.5 -3.359375 C 4.75 -2.410156 5.113281 -1.625 5.59375 -1 C 6.082031 -0.375 6.644531 -0.0625 7.28125 -0.0625 Z M 7.28125 -0.0625 "/></g></g></g><g fill="rgb(97.648621%, 99.609375%, 99.21875%)" fill-opacity="1"><g transform="translate(516.284237, 354.790495)"><g><path d="M 5.125 -17.5625 L 5.125 -0.875 C 5.125 -0.65625 5.164062 -0.507812 5.25 -0.4375 C 5.332031 -0.363281 5.535156 -0.3125 5.859375 -0.28125 L 6.296875 -0.21875 L 6.296875 0 L 0.71875 0 L 0.71875 -0.21875 L 1.125 -0.28125 C 1.46875 -0.3125 1.679688 -0.363281 1.765625 -0.4375 C 1.847656 -0.507812 1.890625 -0.65625 1.890625 -0.875 L 1.890625 -15.796875 C 1.890625 -16.273438 1.789062 -16.613281 1.59375 -16.8125 L 0.734375 -17.6875 L 0.734375 -17.78125 L 5.125 -19.34375 L 5.203125 -19.25 C 5.148438 -18.726562 5.125 -18.164062 5.125 -17.5625 Z M 5.125 -17.5625 "/></g></g></g><g fill="rgb(97.648621%, 99.609375%, 99.21875%)" fill-opacity="1"><g transform="translate(523.103676, 354.790495)"><g><path d="M 4.375 0.390625 C 3.613281 0.390625 2.992188 0.148438 2.515625 -0.328125 C 2.191406 -0.660156 1.96875 -1.007812 1.84375 -1.375 C 1.726562 -1.738281 1.671875 -2.296875 1.671875 -3.046875 L 1.671875 -10.8125 C 1.671875 -11.195312 1.644531 -11.441406 1.59375 -11.546875 C 1.550781 -11.660156 1.429688 -11.765625 1.234375 -11.859375 L 0.21875 -12.21875 L 0.21875 -12.375 L 4.90625 -12.8125 L 4.984375 -12.734375 C 4.929688 -12.023438 4.90625 -11.238281 4.90625 -10.375 L 4.90625 -4.765625 C 4.90625 -3.335938 5.078125 -2.453125 5.421875 -2.109375 C 5.753906 -1.773438 6.257812 -1.609375 6.9375 -1.609375 C 7.550781 -1.609375 8.234375 -1.835938 8.984375 -2.296875 L 8.984375 -10.8125 C 8.984375 -11.21875 8.957031 -11.472656 8.90625 -11.578125 C 8.863281 -11.691406 8.742188 -11.785156 8.546875 -11.859375 L 7.53125 -12.25 L 7.53125 -12.375 L 12.21875 -12.8125 L 12.296875 -12.734375 C 12.242188 -12.023438 12.21875 -11.234375 12.21875 -10.359375 L 12.21875 -1.53125 C 12.21875 -1.207031 12.257812 -0.992188 12.34375 -0.890625 C 12.4375 -0.785156 12.660156 -0.742188 13.015625 -0.765625 L 13.671875 -0.796875 L 13.703125 -0.578125 L 8.90625 0.4375 L 8.8125 0.359375 C 8.851562 0.140625 8.890625 -0.179688 8.921875 -0.609375 L 8.953125 -1.828125 L 8.84375 -1.890625 C 7.125 -0.367188 5.632812 0.390625 4.375 0.390625 Z M 4.375 0.390625 "/></g></g></g><g fill="rgb(97.648621%, 99.609375%, 99.21875%)" fill-opacity="1"><g transform="translate(537.208137, 354.790495)"><g><path d="M 5.484375 0.40625 C 4.304688 0.40625 3.425781 0.113281 2.84375 -0.46875 C 2.226562 -1.082031 1.921875 -1.992188 1.921875 -3.203125 L 1.921875 -10.765625 L 0.5 -10.765625 L 0.5 -11.234375 C 2.175781 -12.597656 3.742188 -14.046875 5.203125 -15.578125 L 5.34375 -15.5 L 5.171875 -12.46875 L 9.453125 -12.46875 L 9.125 -10.703125 L 5.125 -10.765625 L 5.125 -4 C 5.125 -3.175781 5.316406 -2.570312 5.703125 -2.1875 C 6.066406 -1.820312 6.648438 -1.640625 7.453125 -1.640625 C 8.210938 -1.640625 8.953125 -1.890625 9.671875 -2.390625 L 9.75 -2.296875 C 8.726562 -0.492188 7.304688 0.40625 5.484375 0.40625 Z M 5.484375 0.40625 "/></g></g></g><g fill="rgb(97.648621%, 99.609375%, 99.21875%)" fill-opacity="1"><g transform="translate(546.738912, 354.790495)"><g><path d="M 2.21875 -15.640625 C 1.851562 -16.003906 1.671875 -16.425781 1.671875 -16.90625 C 1.671875 -17.394531 1.867188 -17.835938 2.265625 -18.234375 C 2.671875 -18.640625 3.15625 -18.832031 3.71875 -18.8125 C 4.21875 -18.8125 4.644531 -18.628906 5 -18.265625 C 5.351562 -17.898438 5.53125 -17.472656 5.53125 -16.984375 C 5.53125 -16.453125 5.34375 -16.007812 4.96875 -15.65625 C 4.59375 -15.300781 4.125 -15.125 3.5625 -15.125 C 3.007812 -15.125 2.5625 -15.296875 2.21875 -15.640625 Z M 5.125 -11.3125 L 5.125 -0.875 C 5.125 -0.65625 5.164062 -0.507812 5.25 -0.4375 C 5.332031 -0.363281 5.535156 -0.3125 5.859375 -0.28125 L 6.296875 -0.21875 L 6.296875 0 L 0.71875 0 L 0.71875 -0.21875 L 1.125 -0.28125 C 1.46875 -0.3125 1.679688 -0.363281 1.765625 -0.4375 C 1.847656 -0.507812 1.890625 -0.65625 1.890625 -0.875 L 1.890625 -9.5625 C 1.890625 -10.019531 1.789062 -10.363281 1.59375 -10.59375 L 0.734375 -11.453125 L 0.734375 -11.5 L 5.125 -13.09375 L 5.203125 -13.015625 C 5.148438 -12.484375 5.125 -11.914062 5.125 -11.3125 Z M 5.125 -11.3125 "/></g></g></g><g fill="rgb(97.648621%, 99.609375%, 99.21875%)" fill-opacity="1"><g transform="translate(553.530966, 354.790495)"><g><path d="M 7.3125 -12.90625 C 9.226562 -12.90625 10.765625 -12.253906 11.921875 -10.953125 C 13.046875 -9.617188 13.609375 -8.085938 13.609375 -6.359375 C 13.609375 -4.347656 12.953125 -2.6875 11.640625 -1.375 C 10.429688 -0.164062 8.878906 0.4375 6.984375 0.4375 C 5.066406 0.4375 3.550781 -0.21875 2.4375 -1.53125 C 1.289062 -2.84375 0.71875 -4.378906 0.71875 -6.140625 C 0.71875 -8.128906 1.375 -9.78125 2.6875 -11.09375 C 3.882812 -12.300781 5.425781 -12.90625 7.3125 -12.90625 Z M 7.28125 -0.0625 C 8.195312 -0.0625 8.921875 -0.597656 9.453125 -1.671875 C 9.941406 -2.640625 10.1875 -4.097656 10.1875 -6.046875 C 10.1875 -7.710938 9.894531 -9.203125 9.3125 -10.515625 C 8.75 -11.796875 7.984375 -12.4375 7.015625 -12.4375 C 6.097656 -12.4375 5.382812 -11.890625 4.875 -10.796875 C 4.382812 -9.847656 4.140625 -8.382812 4.140625 -6.40625 C 4.140625 -5.332031 4.257812 -4.316406 4.5 -3.359375 C 4.75 -2.410156 5.113281 -1.625 5.59375 -1 C 6.082031 -0.375 6.644531 -0.0625 7.28125 -0.0625 Z M 7.28125 -0.0625 "/></g></g></g><g fill="rgb(97.648621%, 99.609375%, 99.21875%)" fill-opacity="1"><g transform="translate(567.854519, 354.790495)"><g><path d="M 9.71875 -12.90625 C 10.507812 -12.90625 11.140625 -12.664062 11.609375 -12.1875 C 11.941406 -11.863281 12.164062 -11.515625 12.28125 -11.140625 C 12.40625 -10.765625 12.46875 -10.210938 12.46875 -9.484375 L 12.46875 -0.875 C 12.46875 -0.65625 12.503906 -0.507812 12.578125 -0.4375 C 12.660156 -0.363281 12.867188 -0.3125 13.203125 -0.28125 L 13.640625 -0.21875 L 13.640625 0 L 8.109375 0 L 8.109375 -0.21875 L 8.546875 -0.28125 C 8.835938 -0.3125 9.023438 -0.363281 9.109375 -0.4375 C 9.191406 -0.507812 9.234375 -0.65625 9.234375 -0.875 L 9.234375 -7.71875 C 9.234375 -9.144531 9.054688 -10.03125 8.703125 -10.375 C 8.359375 -10.726562 7.847656 -10.90625 7.171875 -10.90625 C 6.585938 -10.90625 5.90625 -10.6875 5.125 -10.25 L 5.125 -0.875 C 5.125 -0.65625 5.160156 -0.507812 5.234375 -0.4375 C 5.304688 -0.363281 5.5 -0.3125 5.8125 -0.28125 L 6.21875 -0.21875 L 6.21875 0 L 0.71875 0 L 0.71875 -0.21875 L 1.125 -0.28125 C 1.46875 -0.3125 1.679688 -0.363281 1.765625 -0.4375 C 1.847656 -0.507812 1.890625 -0.65625 1.890625 -0.875 L 1.890625 -9.5625 C 1.890625 -10 1.789062 -10.335938 1.59375 -10.578125 L 0.734375 -11.421875 L 0.734375 -11.5 L 5.203125 -13.125 L 5.28125 -13.03125 C 5.207031 -12.4375 5.171875 -11.972656 5.171875 -11.640625 L 5.15625 -10.6875 L 5.265625 -10.625 C 6.972656 -12.144531 8.457031 -12.90625 9.71875 -12.90625 Z M 9.71875 -12.90625 "/></g></g></g></svg>