<svg xmlns="http://www.w3.org/2000/svg" xmlns:xlink="http://www.w3.org/1999/xlink" width="940" zoomAndPan="magnify" viewBox="0 0 705 591.000005" height="788" preserveAspectRatio="xMidYMid meet" version="1.0"><defs><g/><clipPath id="id1"><path d="M 460 293 L 572 293 L 572 401 L 460 401 Z M 460 293 " clip-rule="nonzero"/></clipPath><clipPath id="id2"><path d="M 422.621094 343.335938 L 516.859375 249.097656 L 623.804688 356.042969 L 529.566406 450.28125 Z M 422.621094 343.335938 " clip-rule="nonzero"/></clipPath><clipPath id="id3"><path d="M 422.621094 343.335938 L 516.859375 249.097656 L 623.804688 356.042969 L 529.566406 450.28125 Z M 422.621094 343.335938 " clip-rule="nonzero"/></clipPath><clipPath id="id4"><path d="M 501 369 L 532 369 L 532 401 L 501 401 Z M 501 369 " clip-rule="nonzero"/></clipPath><clipPath id="id5"><path d="M 422.621094 343.335938 L 516.859375 249.097656 L 623.804688 356.042969 L 529.566406 450.28125 Z M 422.621094 343.335938 " clip-rule="nonzero"/></clipPath><clipPath id="id6"><path d="M 422.621094 343.335938 L 516.859375 249.097656 L 623.804688 356.042969 L 529.566406 450.28125 Z M 422.621094 343.335938 " clip-rule="nonzero"/></clipPath><clipPath id="id7"><path d="M 502 293 L 532 293 L 532 325 L 502 325 Z M 502 293 " clip-rule="nonzero"/></clipPath><clipPath id="id8"><path d="M 422.621094 343.335938 L 516.859375 249.097656 L 623.804688 356.042969 L 529.566406 450.28125 Z M 422.621094 343.335938 " clip-rule="nonzero"/></clipPath><clipPath id="id9"><path d="M 422.621094 343.335938 L 516.859375 249.097656 L 623.804688 356.042969 L 529.566406 450.28125 Z M 422.621094 343.335938 " clip-rule="nonzero"/></clipPath><clipPath id="id10"><path d="M 538 332 L 572 332 L 572 363 L 538 363 Z M 538 332 " clip-rule="nonzero"/></clipPath><clipPath id="id11"><path d="M 422.621094 343.335938 L 516.859375 249.097656 L 623.804688 356.042969 L 529.566406 450.28125 Z M 422.621094 343.335938 " clip-rule="nonzero"/></clipPath><clipPath id="id12"><path d="M 422.621094 343.335938 L 516.859375 249.097656 L 623.804688 356.042969 L 529.566406 450.28125 Z M 422.621094 343.335938 " clip-rule="nonzero"/></clipPath><clipPath id="id13"><path d="M 460 332 L 494 332 L 494 362 L 460 362 Z M 460 332 " clip-rule="nonzero"/></clipPath><clipPath id="id14"><path d="M 422.621094 343.335938 L 516.859375 249.097656 L 623.804688 356.042969 L 529.566406 450.28125 Z M 422.621094 343.335938 " clip-rule="nonzero"/></clipPath><clipPath id="id15"><path d="M 422.621094 343.335938 L 516.859375 249.097656 L 623.804688 356.042969 L 529.566406 450.28125 Z M 422.621094 343.335938 " clip-rule="nonzero"/></clipPath></defs><g fill="rgb(97.24884%, 74.119568%, 28.62854%)" fill-opacity="1"><g transform="translate(-5.11925, 397.240649)"><g><path d="M 71.5 -90.15625 L 71.5 -100.65625 C 66.582031 -100.78125 61.890625 -100.160156 57.421875 -98.796875 C 52.953125 -97.441406 48.835938 -95.4375 45.078125 -92.78125 C 41.328125 -90.125 37.957031 -86.914062 34.96875 -83.15625 C 31.988281 -79.40625 29.53125 -75.328125 27.59375 -70.921875 L 27.59375 -99.09375 L 18.078125 -99.09375 L 18.078125 0 L 27.59375 0 L 27.59375 -40.609375 C 27.59375 -48.640625 28.757812 -55.734375 31.09375 -61.890625 C 33.425781 -68.046875 36.566406 -73.226562 40.515625 -77.4375 C 44.460938 -81.644531 49.023438 -84.816406 54.203125 -86.953125 C 59.390625 -89.085938 64.832031 -90.15625 70.53125 -90.15625 Z M 71.5 -90.15625 "/></g></g></g><g fill="rgb(97.24884%, 74.119568%, 28.62854%)" fill-opacity="1"><g transform="translate(61.137005, 397.240649)"><g><path d="M 21.375 -45.65625 L 103.5625 -45.65625 C 103.695312 -46.4375 103.765625 -47.019531 103.765625 -47.40625 C 103.765625 -47.925781 103.765625 -48.507812 103.765625 -49.15625 L 103.765625 -49.546875 C 103.765625 -56.929688 102.691406 -63.765625 100.546875 -70.046875 C 98.410156 -76.328125 95.367188 -81.800781 91.421875 -86.46875 C 87.472656 -91.132812 82.710938 -94.796875 77.140625 -97.453125 C 71.566406 -100.109375 65.285156 -101.4375 58.296875 -101.4375 C 51.554688 -101.4375 45.335938 -100.070312 39.640625 -97.34375 C 33.941406 -94.625 28.984375 -90.929688 24.765625 -86.265625 C 20.554688 -81.609375 17.253906 -76.140625 14.859375 -69.859375 C 12.460938 -63.578125 11.265625 -56.875 11.265625 -49.75 L 11.265625 -49.359375 C 11.265625 -41.585938 12.5625 -34.523438 15.15625 -28.171875 C 17.75 -21.828125 21.28125 -16.382812 25.75 -11.84375 C 30.21875 -7.3125 35.394531 -3.816406 41.28125 -1.359375 C 47.175781 1.097656 53.363281 2.328125 59.84375 2.328125 C 69.300781 2.328125 77.234375 0.582031 83.640625 -2.90625 C 90.054688 -6.40625 95.789062 -10.878906 100.84375 -16.328125 L 94.234375 -22.15625 C 90.097656 -17.75 85.335938 -14.054688 79.953125 -11.078125 C 74.578125 -8.097656 68.003906 -6.609375 60.234375 -6.609375 C 55.316406 -6.609375 50.625 -7.484375 46.15625 -9.234375 C 41.6875 -10.984375 37.703125 -13.539062 34.203125 -16.90625 C 30.703125 -20.269531 27.785156 -24.347656 25.453125 -29.140625 C 23.117188 -33.941406 21.757812 -39.445312 21.375 -45.65625 Z M 21.375 -54.21875 C 21.757812 -59.65625 22.988281 -64.738281 25.0625 -69.46875 C 27.132812 -74.195312 29.757812 -78.273438 32.9375 -81.703125 C 36.113281 -85.140625 39.835938 -87.828125 44.109375 -89.765625 C 48.378906 -91.710938 52.976562 -92.6875 57.90625 -92.6875 C 63.601562 -92.6875 68.585938 -91.617188 72.859375 -89.484375 C 77.140625 -87.347656 80.738281 -84.5 83.65625 -80.9375 C 86.570312 -77.375 88.835938 -73.289062 90.453125 -68.6875 C 92.066406 -64.09375 93.070312 -59.269531 93.46875 -54.21875 Z M 21.375 -54.21875 "/></g></g></g><g fill="rgb(97.24884%, 74.119568%, 28.62854%)" fill-opacity="1"><g transform="translate(163.144915, 397.240649)"><g><path d="M 167.890625 0 L 167.890625 -60.046875 C 167.890625 -66.265625 167.015625 -71.929688 165.265625 -77.046875 C 163.515625 -82.160156 160.988281 -86.5 157.6875 -90.0625 C 154.382812 -93.625 150.367188 -96.410156 145.640625 -98.421875 C 140.910156 -100.429688 135.628906 -101.4375 129.796875 -101.4375 C 125.140625 -101.4375 120.960938 -100.851562 117.265625 -99.6875 C 113.578125 -98.519531 110.273438 -96.929688 107.359375 -94.921875 C 104.441406 -92.910156 101.878906 -90.609375 99.671875 -88.015625 C 97.472656 -85.429688 95.597656 -82.78125 94.046875 -80.0625 C 92.617188 -82.90625 90.898438 -85.625 88.890625 -88.21875 C 86.890625 -90.8125 84.523438 -93.078125 81.796875 -95.015625 C 79.078125 -96.960938 75.9375 -98.519531 72.375 -99.6875 C 68.8125 -100.851562 64.894531 -101.4375 60.625 -101.4375 C 56.21875 -101.4375 52.296875 -100.882812 48.859375 -99.78125 C 45.429688 -98.675781 42.421875 -97.1875 39.828125 -95.3125 C 37.242188 -93.4375 34.945312 -91.296875 32.9375 -88.890625 C 30.925781 -86.492188 29.144531 -84.003906 27.59375 -81.421875 L 27.59375 -99.09375 L 18.078125 -99.09375 L 18.078125 0 L 27.59375 0 L 27.59375 -57.125 C 27.59375 -62.175781 28.398438 -66.835938 30.015625 -71.109375 C 31.640625 -75.390625 33.875 -79.148438 36.71875 -82.390625 C 39.570312 -85.628906 42.941406 -88.15625 46.828125 -89.96875 C 50.710938 -91.78125 54.859375 -92.6875 59.265625 -92.6875 C 68.203125 -92.6875 75.257812 -89.738281 80.4375 -83.84375 C 85.625 -77.945312 88.21875 -69.816406 88.21875 -59.453125 L 88.21875 0 L 97.734375 0 L 97.734375 -57.703125 C 97.734375 -63.273438 98.578125 -68.226562 100.265625 -72.5625 C 101.953125 -76.90625 104.21875 -80.566406 107.0625 -83.546875 C 109.914062 -86.535156 113.253906 -88.804688 117.078125 -90.359375 C 120.898438 -91.910156 124.882812 -92.6875 129.03125 -92.6875 C 138.21875 -92.6875 145.398438 -89.738281 150.578125 -83.84375 C 155.765625 -77.945312 158.359375 -69.625 158.359375 -58.875 L 158.359375 0 Z M 167.890625 0 "/></g></g></g><g fill="rgb(97.24884%, 74.119568%, 28.62854%)" fill-opacity="1"><g transform="translate(336.461855, 397.240649)"><g><path d="M 116.59375 -49.546875 L 116.59375 -49.9375 C 116.59375 -57.96875 115.195312 -65.1875 112.40625 -71.59375 C 109.625 -78.007812 105.960938 -83.421875 101.421875 -87.828125 C 96.890625 -92.234375 91.742188 -95.601562 85.984375 -97.9375 C 80.222656 -100.269531 74.359375 -101.4375 68.390625 -101.4375 C 63.472656 -101.4375 58.972656 -100.753906 54.890625 -99.390625 C 50.804688 -98.023438 47.113281 -96.242188 43.8125 -94.046875 C 40.507812 -91.847656 37.5 -89.257812 34.78125 -86.28125 C 32.0625 -83.300781 29.664062 -80.191406 27.59375 -76.953125 L 27.59375 -99.09375 L 18.078125 -99.09375 L 18.078125 31.09375 L 27.59375 31.09375 L 27.59375 -21.375 C 29.664062 -18.257812 32.03125 -15.273438 34.6875 -12.421875 C 37.34375 -9.578125 40.320312 -7.050781 43.625 -4.84375 C 46.925781 -2.644531 50.648438 -0.898438 54.796875 0.390625 C 58.941406 1.679688 63.472656 2.328125 68.390625 2.328125 C 74.359375 2.328125 80.222656 1.128906 85.984375 -1.265625 C 91.742188 -3.660156 96.890625 -7.09375 101.421875 -11.5625 C 105.960938 -16.03125 109.625 -21.46875 112.40625 -27.875 C 115.195312 -34.289062 116.59375 -41.515625 116.59375 -49.546875 Z M 106.28125 -49.15625 C 106.28125 -42.550781 105.273438 -36.625 103.265625 -31.375 C 101.265625 -26.132812 98.515625 -21.695312 95.015625 -18.0625 C 91.515625 -14.4375 87.398438 -11.648438 82.671875 -9.703125 C 77.953125 -7.765625 72.867188 -6.796875 67.421875 -6.796875 C 62.242188 -6.796875 57.222656 -7.832031 52.359375 -9.90625 C 47.503906 -11.976562 43.195312 -14.859375 39.4375 -18.546875 C 35.6875 -22.242188 32.675781 -26.710938 30.40625 -31.953125 C 28.144531 -37.203125 27.015625 -43.003906 27.015625 -49.359375 L 27.015625 -49.75 C 27.015625 -56.09375 28.144531 -61.851562 30.40625 -67.03125 C 32.675781 -72.21875 35.6875 -76.6875 39.4375 -80.4375 C 43.195312 -84.195312 47.503906 -87.113281 52.359375 -89.1875 C 57.222656 -91.257812 62.242188 -92.296875 67.421875 -92.296875 C 72.609375 -92.296875 77.566406 -91.289062 82.296875 -89.28125 C 87.023438 -87.28125 91.171875 -84.429688 94.734375 -80.734375 C 98.296875 -77.046875 101.109375 -72.546875 103.171875 -67.234375 C 105.242188 -61.921875 106.28125 -56.023438 106.28125 -49.546875 Z M 106.28125 -49.15625 "/></g></g></g><g fill="rgb(97.24884%, 74.119568%, 28.62854%)" fill-opacity="1"><g transform="translate(453.236745, 397.240649)"><g><path d="M 113.09375 -49.546875 L 113.09375 -49.9375 C 113.09375 -56.9375 111.828125 -63.539062 109.296875 -69.75 C 106.773438 -75.96875 103.242188 -81.410156 98.703125 -86.078125 C 94.171875 -90.742188 88.828125 -94.46875 82.671875 -97.25 C 76.523438 -100.039062 69.757812 -101.4375 62.375 -101.4375 C 54.988281 -101.4375 48.1875 -100.039062 41.96875 -97.25 C 35.75 -94.46875 30.335938 -90.679688 25.734375 -85.890625 C 21.140625 -81.097656 17.578125 -75.59375 15.046875 -69.375 C 12.523438 -63.15625 11.265625 -56.546875 11.265625 -49.546875 L 11.265625 -49.15625 C 11.265625 -42.164062 12.523438 -35.5625 15.046875 -29.34375 C 17.578125 -23.125 21.109375 -17.679688 25.640625 -13.015625 C 30.179688 -8.359375 35.523438 -4.632812 41.671875 -1.84375 C 47.828125 0.9375 54.597656 2.328125 61.984375 2.328125 C 69.367188 2.328125 76.171875 0.9375 82.390625 -1.84375 C 88.609375 -4.632812 94.015625 -8.425781 98.609375 -13.21875 C 103.210938 -18.007812 106.773438 -23.515625 109.296875 -29.734375 C 111.828125 -35.953125 113.09375 -42.554688 113.09375 -49.546875 Z M 102.796875 -49.15625 C 102.796875 -43.332031 101.789062 -37.828125 99.78125 -32.640625 C 97.769531 -27.460938 94.984375 -22.960938 91.421875 -19.140625 C 87.859375 -15.316406 83.582031 -12.269531 78.59375 -10 C 73.613281 -7.738281 68.207031 -6.609375 62.375 -6.609375 C 56.675781 -6.609375 51.332031 -7.707031 46.34375 -9.90625 C 41.351562 -12.113281 37.007812 -15.160156 33.3125 -19.046875 C 29.625 -22.929688 26.742188 -27.492188 24.671875 -32.734375 C 22.597656 -37.984375 21.5625 -43.585938 21.5625 -49.546875 L 21.5625 -49.9375 C 21.5625 -55.769531 22.566406 -61.273438 24.578125 -66.453125 C 26.585938 -71.640625 29.375 -76.140625 32.9375 -79.953125 C 36.5 -83.773438 40.769531 -86.820312 45.75 -89.09375 C 50.738281 -91.363281 56.148438 -92.5 61.984375 -92.5 C 67.679688 -92.5 73.023438 -91.394531 78.015625 -89.1875 C 83.003906 -86.988281 87.34375 -83.945312 91.03125 -80.0625 C 94.726562 -76.175781 97.613281 -71.609375 99.6875 -66.359375 C 101.757812 -61.109375 102.796875 -55.503906 102.796875 -49.546875 Z M 102.796875 -49.15625 "/></g></g></g><g fill="rgb(97.24884%, 74.119568%, 28.62854%)" fill-opacity="1"><g transform="translate(566.125583, 397.240649)"><g><path d="M 71.5 -90.15625 L 71.5 -100.65625 C 66.582031 -100.78125 61.890625 -100.160156 57.421875 -98.796875 C 52.953125 -97.441406 48.835938 -95.4375 45.078125 -92.78125 C 41.328125 -90.125 37.957031 -86.914062 34.96875 -83.15625 C 31.988281 -79.40625 29.53125 -75.328125 27.59375 -70.921875 L 27.59375 -99.09375 L 18.078125 -99.09375 L 18.078125 0 L 27.59375 0 L 27.59375 -40.609375 C 27.59375 -48.640625 28.757812 -55.734375 31.09375 -61.890625 C 33.425781 -68.046875 36.566406 -73.226562 40.515625 -77.4375 C 44.460938 -81.644531 49.023438 -84.816406 54.203125 -86.953125 C 59.390625 -89.085938 64.832031 -90.15625 70.53125 -90.15625 Z M 71.5 -90.15625 "/></g></g></g><g fill="rgb(97.24884%, 74.119568%, 28.62854%)" fill-opacity="1"><g transform="translate(632.381829, 397.240649)"><g><path d="M 67.234375 -1.75 L 67.234375 -10.6875 C 64.378906 -9.394531 61.847656 -8.488281 59.640625 -7.96875 C 57.441406 -7.445312 55.113281 -7.1875 52.65625 -7.1875 C 46.832031 -7.1875 42.070312 -8.609375 38.375 -11.453125 C 34.6875 -14.304688 32.84375 -19.296875 32.84375 -26.421875 L 32.84375 -90.359375 L 67.625 -90.359375 L 67.625 -99.09375 L 32.84375 -99.09375 L 32.84375 -130.765625 L 23.3125 -130.765625 L 23.3125 -99.09375 L 8.9375 -99.09375 L 8.9375 -90.359375 L 23.3125 -90.359375 L 23.3125 -25.453125 C 23.3125 -20.785156 24.023438 -16.734375 25.453125 -13.296875 C 26.878906 -9.867188 28.851562 -7.019531 31.375 -4.75 C 33.90625 -2.488281 36.851562 -0.84375 40.21875 0.1875 C 43.59375 1.226562 47.222656 1.75 51.109375 1.75 C 54.210938 1.75 57.023438 1.457031 59.546875 0.875 C 62.078125 0.289062 64.640625 -0.582031 67.234375 -1.75 Z M 67.234375 -1.75 "/></g></g></g><g clip-path="url(#id1)"><g clip-path="url(#id2)"><g clip-path="url(#id3)"><path fill="rgb(90.19928%, 83.139038%, 70.199585%)" d="M 570.820312 333.402344 C 570.820312 333.402344 563.972656 296.230469 515.402344 293.960938 C 515.402344 293.960938 472.648438 293.324219 462.511719 333.199219 C 452.371094 373.078125 484.246094 400.066406 515.503906 400.125 C 515.503906 400.125 579.609375 400.222656 570.820312 333.402344 Z M 515.816406 373.300781 C 500.351562 373.273438 484.585938 359.921875 489.601562 340.195312 C 494.617188 320.46875 515.765625 320.785156 515.765625 320.785156 C 539.792969 321.90625 543.179688 340.296875 543.179688 340.296875 C 547.527344 373.351562 515.816406 373.300781 515.816406 373.300781 Z M 515.816406 373.300781 " fill-opacity="1" fill-rule="nonzero"/></g></g></g><g clip-path="url(#id4)"><g clip-path="url(#id5)"><g clip-path="url(#id6)"><path fill="rgb(97.24884%, 74.119568%, 28.62854%)" d="M 530.820312 397.925781 C 531.011719 390.609375 531.175781 380.390625 531.292969 369.097656 C 523.863281 373.3125 515.8125 373.300781 515.8125 373.300781 C 510.835938 373.292969 505.828125 371.898438 501.488281 369.359375 C 501.449219 381.042969 501.527344 391.476562 501.804688 398.390625 C 506.292969 399.519531 510.90625 400.113281 515.503906 400.125 C 515.503906 400.125 522.128906 400.128906 530.820312 397.925781 Z M 530.820312 397.925781 " fill-opacity="1" fill-rule="nonzero"/></g></g></g><g clip-path="url(#id7)"><g clip-path="url(#id8)"><g clip-path="url(#id9)"><path fill="rgb(97.24884%, 74.119568%, 28.62854%)" d="M 502.601562 295.566406 C 502.476562 300.992188 502.242188 311.632812 502.019531 324.269531 C 508.867188 320.683594 515.765625 320.785156 515.765625 320.785156 C 522.460938 321.097656 527.554688 322.75 531.417969 324.976562 C 531.347656 313.246094 531.175781 302.898438 530.863281 296.097656 C 526.246094 294.984375 521.117188 294.226562 515.402344 293.960938 C 515.402344 293.960938 510.007812 293.882812 502.601562 295.566406 Z M 502.601562 295.566406 " fill-opacity="1" fill-rule="nonzero"/></g></g></g><g clip-path="url(#id10)"><g clip-path="url(#id11)"><g clip-path="url(#id12)"><path fill="rgb(97.24884%, 74.119568%, 28.62854%)" d="M 543.179688 340.296875 C 544.53125 350.566406 542.398438 357.640625 538.820312 362.515625 C 551.640625 362.589844 562.910156 362.519531 569.609375 362.179688 C 571.691406 354.324219 572.328125 344.847656 570.820312 333.402344 C 570.820312 333.402344 570.820312 333.394531 570.816406 333.382812 C 563.828125 333.140625 552.578125 332.90625 539.796875 332.730469 C 542.53125 336.78125 543.179688 340.296875 543.179688 340.296875 Z M 543.179688 340.296875 " fill-opacity="1" fill-rule="nonzero"/></g></g></g><g clip-path="url(#id13)"><g clip-path="url(#id14)"><g clip-path="url(#id15)"><path fill="rgb(97.24884%, 74.119568%, 28.62854%)" d="M 493.191406 361.851562 C 489.191406 356.242188 487.40625 348.832031 489.601562 340.195312 C 490.371094 337.167969 491.519531 334.617188 492.914062 332.460938 C 480.070312 332.507812 468.980469 332.6875 462.550781 333.054688 C 462.539062 333.101562 462.523438 333.152344 462.511719 333.199219 C 459.90625 343.441406 460.078125 352.828125 462.292969 361.132812 C 466.46875 361.242188 478.464844 361.554688 493.191406 361.851562 Z M 493.191406 361.851562 " fill-opacity="1" fill-rule="nonzero"/></g></g></g></svg>