<svg xmlns="http://www.w3.org/2000/svg" xmlns:xlink="http://www.w3.org/1999/xlink" width="940" zoomAndPan="magnify" viewBox="0 0 705 591.000005" height="788" preserveAspectRatio="xMidYMid meet" version="1.0"><defs><g/><clipPath id="id1"><path d="M 215.347656 59 L 445 59 L 445 288.859375 L 215.347656 288.859375 Z M 215.347656 59 " clip-rule="nonzero"/></clipPath></defs><g clip-path="url(#id1)"><path fill="rgb(100%, 74.119568%, 34.899902%)" d="M 330.117188 128.542969 C 305.082031 128.363281 284.46875 148.535156 284.277344 173.390625 C 284.074219 198.890625 304.160156 219.480469 329.410156 219.648438 C 354.613281 219.804688 375.167969 199.707031 375.371094 174.679688 C 375.585938 149.238281 355.464844 128.722656 330.117188 128.542969 Z M 215.554688 174.070312 C 215.613281 166.789062 216.332031 159.570312 217.753906 152.40625 C 218.246094 149.945312 219.621094 148.558594 221.949219 148.066406 C 228.144531 146.777344 234.144531 147.792969 239.847656 150.253906 C 245.613281 152.753906 251.480469 154.390625 257.808594 154.09375 C 262.085938 153.902344 266.246094 153.148438 270.179688 151.34375 C 271.496094 150.746094 272.394531 149.898438 273.027344 148.523438 C 279.578125 134.222656 290.015625 123.785156 304.328125 117.269531 C 305.820312 116.585938 306.625 115.535156 307.195312 114.148438 C 310.617188 105.765625 310.832031 97.277344 307.792969 88.789062 C 306.214844 84.355469 304.148438 80.085938 303.5625 75.351562 C 303.191406 72.351562 303.070312 69.347656 303.753906 66.359375 C 304.316406 63.945312 305.667969 62.523438 308.226562 62.007812 C 322.371094 59.152344 336.5 59.125 350.644531 61.816406 C 354.566406 62.558594 356.050781 64.460938 356.3125 68.75 C 356.695312 74.835938 355.390625 80.589844 352.894531 86.101562 C 349.222656 94.207031 348.972656 102.515625 351.21875 111.015625 C 352.078125 114.292969 353.71875 116.550781 357.054688 118.140625 C 370.539062 124.574219 380.332031 134.808594 386.5625 148.390625 C 387.277344 149.933594 388.28125 150.863281 389.777344 151.464844 C 398.730469 155.0625 407.722656 155.15625 416.628906 151.464844 C 422.273438 149.132812 427.941406 147.300781 434.132812 147.554688 C 435.53125 147.613281 436.917969 147.746094 438.234375 148.199219 C 440.183594 148.878906 441.425781 150.101562 441.871094 152.289062 C 444.785156 166.648438 444.808594 181.007812 442 195.378906 C 441.332031 198.84375 439.40625 200.28125 435.378906 200.566406 C 429.304688 200.996094 423.527344 199.765625 418.027344 197.253906 C 409.921875 193.546875 401.625 193.238281 393.101562 195.414062 C 389.644531 196.296875 387.3125 198.03125 385.652344 201.523438 C 379.351562 214.78125 369.261719 224.441406 355.941406 230.625 C 354.015625 231.519531 352.808594 232.703125 352.117188 234.617188 C 348.910156 243.488281 348.816406 252.347656 352.511719 261.074219 C 354.949219 266.851562 356.683594 272.695312 356.324219 279.046875 C 356.0625 284.054688 354.566406 285.667969 349.652344 286.554688 C 336.332031 288.96875 323.039062 288.910156 309.730469 286.492188 C 305.128906 285.667969 303.597656 283.972656 303.324219 279.226562 C 302.976562 273.066406 304.433594 267.292969 306.910156 261.683594 C 310.605469 253.328125 310.761719 244.78125 308.023438 236.097656 C 307.171875 233.398438 305.738281 231.554688 303.011719 230.265625 C 289.417969 223.832031 279.496094 213.644531 273.195312 200.003906 C 272.332031 198.152344 271.101562 197.039062 269.285156 196.382812 C 260.496094 193.175781 251.699219 193.058594 243.042969 196.691406 C 237.265625 199.109375 231.445312 200.914062 225.09375 200.613281 C 219.953125 200.375 218.304688 199.011719 217.382812 193.90625 C 216.1875 187.355469 215.519531 180.742188 215.554688 174.070312 " fill-opacity="1" fill-rule="nonzero"/></g><path fill="rgb(100%, 74.119568%, 34.899902%)" d="M 298.996094 106.460938 C 299.101562 108.636719 297.75 109.738281 296.019531 110.667969 C 285.84375 116.144531 277.414062 123.628906 270.828125 133.132812 C 269.175781 135.527344 267.730469 138.058594 266.285156 140.59375 C 265.113281 142.640625 263.59375 143.488281 261.167969 143.035156 C 249.84375 140.882812 238.414062 139.53125 226.886719 139.171875 C 223.207031 139.050781 221.554688 136.507812 222.957031 133.015625 C 235.53125 101.582031 257.519531 79.558594 289.023438 67.101562 C 292.179688 65.859375 294.714844 67.183594 294.871094 70.355469 C 295.480469 82.25 296.628906 94.074219 298.933594 105.765625 C 298.984375 105.996094 298.972656 106.234375 298.996094 106.460938 " fill-opacity="1" fill-rule="nonzero"/><path fill="rgb(100%, 74.119568%, 34.899902%)" d="M 298.972656 241.707031 C 298.363281 245.472656 297.691406 249.335938 297.105469 253.195312 C 295.957031 260.871094 295.207031 268.597656 295.0625 276.34375 C 294.988281 280.515625 292.277344 282.320312 288.269531 280.695312 C 257.4375 268.082031 235.761719 246.394531 223.171875 215.523438 C 221.484375 211.386719 223.949219 208.839844 227.605469 208.78125 C 238.90625 208.601562 250.09375 207.128906 261.203125 205.027344 C 263.617188 204.570312 265.160156 205.410156 266.285156 207.5 C 273.289062 220.472656 283.226562 230.539062 296.246094 237.5 C 297.90625 238.371094 299.140625 239.542969 298.972656 241.707031 " fill-opacity="1" fill-rule="nonzero"/><path fill="rgb(100%, 74.119568%, 34.899902%)" d="M 360.710938 106.519531 C 361.320312 102.730469 361.992188 98.867188 362.578125 95.007812 C 363.773438 87.175781 364.335938 79.296875 364.753906 71.394531 C 364.980469 67.148438 367.277344 65.714844 371.269531 67.328125 C 402.320312 79.917969 424.078125 101.785156 436.621094 132.835938 C 438.101562 136.519531 436.535156 139.039062 432.734375 139.171875 C 421.199219 139.554688 409.78125 140.882812 398.445312 143.046875 C 396.125 143.488281 394.558594 142.6875 393.496094 140.703125 C 386.476562 127.527344 376.375 117.425781 363.199219 110.394531 C 361.667969 109.582031 360.675781 108.433594 360.710938 106.519531 " fill-opacity="1" fill-rule="nonzero"/><path fill="rgb(100%, 74.119568%, 34.899902%)" d="M 360.722656 242.054688 C 360.605469 239.636719 361.96875 238.550781 363.6875 237.617188 C 374.808594 231.640625 383.75 223.292969 390.542969 212.664062 C 391.617188 210.992188 392.585938 209.246094 393.53125 207.488281 C 394.59375 205.550781 396.199219 204.773438 398.324219 205.191406 C 409.792969 207.488281 421.390625 208.613281 433.058594 209.199219 C 436.574219 209.378906 437.949219 211.875 436.5625 215.390625 C 426.78125 240.082031 410.472656 259.222656 387.71875 272.886719 C 382.386719 276.09375 376.792969 278.746094 370.996094 280.996094 C 367.289062 282.417969 364.957031 280.980469 364.765625 277.011719 C 364.191406 265.582031 363.089844 254.210938 360.832031 242.972656 C 360.746094 242.589844 360.746094 242.210938 360.722656 242.054688 " fill-opacity="1" fill-rule="nonzero"/><g fill="rgb(100%, 74.119568%, 34.899902%)" fill-opacity="1"><g transform="translate(-4.777808, 416.353958)"><g><path d="M 67.03125 -84.515625 L 67.03125 -94.34375 C 62.414062 -94.46875 58.007812 -93.890625 53.8125 -92.609375 C 49.625 -91.335938 45.769531 -89.457031 42.25 -86.96875 C 38.726562 -84.476562 35.570312 -81.472656 32.78125 -77.953125 C 29.988281 -74.429688 27.679688 -70.609375 25.859375 -66.484375 L 25.859375 -92.890625 L 16.9375 -92.890625 L 16.9375 0 L 25.859375 0 L 25.859375 -38.0625 C 25.859375 -45.59375 26.953125 -52.238281 29.140625 -58 C 31.328125 -63.769531 34.269531 -68.628906 37.96875 -72.578125 C 41.675781 -76.523438 45.957031 -79.5 50.8125 -81.5 C 55.675781 -83.507812 60.773438 -84.515625 66.109375 -84.515625 Z M 67.03125 -84.515625 "/></g></g></g><g fill="rgb(100%, 74.119568%, 34.899902%)" fill-opacity="1"><g transform="translate(57.331176, 416.353958)"><g><path d="M 20.03125 -42.796875 L 97.078125 -42.796875 C 97.203125 -43.523438 97.265625 -44.070312 97.265625 -44.4375 C 97.265625 -44.925781 97.265625 -45.472656 97.265625 -46.078125 L 97.265625 -46.453125 C 97.265625 -53.367188 96.257812 -59.769531 94.25 -65.65625 C 92.25 -71.550781 89.394531 -76.679688 85.6875 -81.046875 C 81.988281 -85.421875 77.53125 -88.851562 72.3125 -91.34375 C 67.09375 -93.832031 61.203125 -95.078125 54.640625 -95.078125 C 48.328125 -95.078125 42.5 -93.800781 37.15625 -91.25 C 31.8125 -88.695312 27.164062 -85.234375 23.21875 -80.859375 C 19.269531 -76.492188 16.171875 -71.363281 13.921875 -65.46875 C 11.679688 -59.582031 10.5625 -53.300781 10.5625 -46.625 L 10.5625 -46.265625 C 10.5625 -38.972656 11.773438 -32.351562 14.203125 -26.40625 C 16.628906 -20.457031 19.9375 -15.359375 24.125 -11.109375 C 28.320312 -6.859375 33.179688 -3.578125 38.703125 -1.265625 C 44.234375 1.035156 50.03125 2.1875 56.09375 2.1875 C 64.957031 2.1875 72.394531 0.546875 78.40625 -2.734375 C 84.414062 -6.015625 89.789062 -10.203125 94.53125 -15.296875 L 88.34375 -20.765625 C 84.457031 -16.640625 79.992188 -13.175781 74.953125 -10.375 C 69.910156 -7.582031 63.75 -6.1875 56.46875 -6.1875 C 51.851562 -6.1875 47.445312 -7.003906 43.25 -8.640625 C 39.0625 -10.285156 35.328125 -12.6875 32.046875 -15.84375 C 28.773438 -19 26.046875 -22.820312 23.859375 -27.3125 C 21.671875 -31.8125 20.394531 -36.972656 20.03125 -42.796875 Z M 20.03125 -50.8125 C 20.394531 -55.914062 21.546875 -60.679688 23.484375 -65.109375 C 25.429688 -69.546875 27.890625 -73.375 30.859375 -76.59375 C 33.835938 -79.8125 37.332031 -82.328125 41.34375 -84.140625 C 45.351562 -85.960938 49.664062 -86.875 54.28125 -86.875 C 59.625 -86.875 64.296875 -85.875 68.296875 -83.875 C 72.304688 -81.875 75.675781 -79.203125 78.40625 -75.859375 C 81.144531 -72.523438 83.269531 -68.703125 84.78125 -64.390625 C 86.300781 -60.078125 87.242188 -55.550781 87.609375 -50.8125 Z M 20.03125 -50.8125 "/></g></g></g><g fill="rgb(100%, 74.119568%, 34.899902%)" fill-opacity="1"><g transform="translate(152.95368, 416.353958)"><g><path d="M 157.375 0 L 157.375 -56.28125 C 157.375 -62.113281 156.550781 -67.425781 154.90625 -72.21875 C 153.269531 -77.007812 150.898438 -81.078125 147.796875 -84.421875 C 144.703125 -87.765625 140.9375 -90.375 136.5 -92.25 C 132.070312 -94.132812 127.128906 -95.078125 121.671875 -95.078125 C 117.296875 -95.078125 113.378906 -94.53125 109.921875 -93.4375 C 106.460938 -92.34375 103.363281 -90.851562 100.625 -88.96875 C 97.894531 -87.09375 95.5 -84.9375 93.4375 -82.5 C 91.375 -80.070312 89.613281 -77.585938 88.15625 -75.046875 C 86.820312 -77.710938 85.210938 -80.257812 83.328125 -82.6875 C 81.441406 -85.113281 79.222656 -87.238281 76.671875 -89.0625 C 74.128906 -90.882812 71.1875 -92.34375 67.84375 -93.4375 C 64.507812 -94.53125 60.835938 -95.078125 56.828125 -95.078125 C 52.703125 -95.078125 49.03125 -94.5625 45.8125 -93.53125 C 42.59375 -92.5 39.769531 -91.101562 37.34375 -89.34375 C 34.914062 -87.582031 32.757812 -85.578125 30.875 -83.328125 C 28.988281 -81.078125 27.316406 -78.738281 25.859375 -76.3125 L 25.859375 -92.890625 L 16.9375 -92.890625 L 16.9375 0 L 25.859375 0 L 25.859375 -53.546875 C 25.859375 -58.285156 26.617188 -62.65625 28.140625 -66.65625 C 29.660156 -70.664062 31.753906 -74.1875 34.421875 -77.21875 C 37.097656 -80.257812 40.253906 -82.628906 43.890625 -84.328125 C 47.535156 -86.023438 51.421875 -86.875 55.546875 -86.875 C 63.929688 -86.875 70.550781 -84.113281 75.40625 -78.59375 C 80.257812 -73.070312 82.6875 -65.453125 82.6875 -55.734375 L 82.6875 0 L 91.609375 0 L 91.609375 -54.09375 C 91.609375 -59.3125 92.398438 -63.953125 93.984375 -68.015625 C 95.566406 -72.085938 97.691406 -75.519531 100.359375 -78.3125 C 103.023438 -81.113281 106.148438 -83.238281 109.734375 -84.6875 C 113.316406 -86.144531 117.050781 -86.875 120.9375 -86.875 C 129.5625 -86.875 136.300781 -84.113281 141.15625 -78.59375 C 146.007812 -73.070312 148.4375 -65.269531 148.4375 -55.1875 L 148.4375 0 Z M 157.375 0 "/></g></g></g><g fill="rgb(100%, 74.119568%, 34.899902%)" fill-opacity="1"><g transform="translate(315.421089, 416.353958)"><g><path d="M 109.28125 -46.453125 L 109.28125 -46.8125 C 109.28125 -54.34375 107.972656 -61.113281 105.359375 -67.125 C 102.753906 -73.132812 99.328125 -78.203125 95.078125 -82.328125 C 90.828125 -86.453125 86 -89.609375 80.59375 -91.796875 C 75.1875 -93.984375 69.691406 -95.078125 64.109375 -95.078125 C 59.492188 -95.078125 55.273438 -94.4375 51.453125 -93.15625 C 47.628906 -91.882812 44.164062 -90.21875 41.0625 -88.15625 C 37.96875 -86.09375 35.144531 -83.664062 32.59375 -80.875 C 30.050781 -78.082031 27.804688 -75.164062 25.859375 -72.125 L 25.859375 -92.890625 L 16.9375 -92.890625 L 16.9375 29.140625 L 25.859375 29.140625 L 25.859375 -20.03125 C 27.804688 -17.125 30.023438 -14.332031 32.515625 -11.65625 C 35.003906 -8.988281 37.796875 -6.617188 40.890625 -4.546875 C 43.984375 -2.484375 47.472656 -0.847656 51.359375 0.359375 C 55.242188 1.578125 59.492188 2.1875 64.109375 2.1875 C 69.691406 2.1875 75.1875 1.066406 80.59375 -1.171875 C 86 -3.421875 90.828125 -6.640625 95.078125 -10.828125 C 99.328125 -15.023438 102.753906 -20.128906 105.359375 -26.140625 C 107.972656 -32.148438 109.28125 -38.921875 109.28125 -46.453125 Z M 99.625 -46.078125 C 99.625 -39.890625 98.679688 -34.332031 96.796875 -29.40625 C 94.921875 -24.488281 92.34375 -20.332031 89.0625 -16.9375 C 85.789062 -13.539062 81.9375 -10.929688 77.5 -9.109375 C 73.070312 -7.285156 68.304688 -6.375 63.203125 -6.375 C 58.347656 -6.375 53.640625 -7.34375 49.078125 -9.28125 C 44.523438 -11.226562 40.488281 -13.929688 36.96875 -17.390625 C 33.445312 -20.847656 30.625 -25.035156 28.5 -29.953125 C 26.375 -34.878906 25.3125 -40.316406 25.3125 -46.265625 L 25.3125 -46.625 C 25.3125 -52.570312 26.375 -57.972656 28.5 -62.828125 C 30.625 -67.691406 33.445312 -71.882812 36.96875 -75.40625 C 40.488281 -78.925781 44.523438 -81.65625 49.078125 -83.59375 C 53.640625 -85.539062 58.347656 -86.515625 63.203125 -86.515625 C 68.054688 -86.515625 72.695312 -85.570312 77.125 -83.6875 C 81.5625 -81.8125 85.445312 -79.140625 88.78125 -75.671875 C 92.125 -72.210938 94.765625 -67.992188 96.703125 -63.015625 C 98.648438 -58.035156 99.625 -52.515625 99.625 -46.453125 Z M 99.625 -46.078125 "/></g></g></g><g fill="rgb(100%, 74.119568%, 34.899902%)" fill-opacity="1"><g transform="translate(424.886121, 416.353958)"><g><path d="M 106 -46.453125 L 106 -46.8125 C 106 -53.363281 104.816406 -59.550781 102.453125 -65.375 C 100.085938 -71.207031 96.78125 -76.3125 92.53125 -80.6875 C 88.28125 -85.0625 83.269531 -88.550781 77.5 -91.15625 C 71.726562 -93.769531 65.382812 -95.078125 58.46875 -95.078125 C 51.539062 -95.078125 45.160156 -93.769531 39.328125 -91.15625 C 33.503906 -88.550781 28.4375 -85 24.125 -80.5 C 19.820312 -76.007812 16.484375 -70.847656 14.109375 -65.015625 C 11.742188 -59.191406 10.5625 -53.003906 10.5625 -46.453125 L 10.5625 -46.078125 C 10.5625 -39.523438 11.742188 -33.332031 14.109375 -27.5 C 16.484375 -21.675781 19.796875 -16.578125 24.046875 -12.203125 C 28.296875 -7.828125 33.300781 -4.332031 39.0625 -1.71875 C 44.832031 0.882812 51.179688 2.1875 58.109375 2.1875 C 65.023438 2.1875 71.394531 0.882812 77.21875 -1.71875 C 83.050781 -4.332031 88.125 -7.882812 92.4375 -12.375 C 96.75 -16.875 100.085938 -22.035156 102.453125 -27.859375 C 104.816406 -33.691406 106 -39.890625 106 -46.453125 Z M 96.359375 -46.078125 C 96.359375 -40.617188 95.414062 -35.457031 93.53125 -30.59375 C 91.644531 -25.738281 89.03125 -21.519531 85.6875 -17.9375 C 82.351562 -14.351562 78.347656 -11.5 73.671875 -9.375 C 68.992188 -7.25 63.925781 -6.1875 58.46875 -6.1875 C 53.125 -6.1875 48.113281 -7.21875 43.4375 -9.28125 C 38.757812 -11.351562 34.691406 -14.207031 31.234375 -17.84375 C 27.773438 -21.488281 25.070312 -25.769531 23.125 -30.6875 C 21.1875 -35.601562 20.21875 -40.859375 20.21875 -46.453125 L 20.21875 -46.8125 C 20.21875 -52.269531 21.15625 -57.425781 23.03125 -62.28125 C 24.914062 -67.144531 27.523438 -71.367188 30.859375 -74.953125 C 34.203125 -78.535156 38.210938 -81.390625 42.890625 -83.515625 C 47.566406 -85.640625 52.640625 -86.703125 58.109375 -86.703125 C 63.441406 -86.703125 68.445312 -85.664062 73.125 -83.59375 C 77.800781 -81.53125 81.867188 -78.675781 85.328125 -75.03125 C 88.796875 -71.394531 91.5 -67.117188 93.4375 -62.203125 C 95.382812 -57.285156 96.359375 -52.035156 96.359375 -46.453125 Z M 96.359375 -46.078125 "/></g></g></g><g fill="rgb(100%, 74.119568%, 34.899902%)" fill-opacity="1"><g transform="translate(530.708388, 416.353958)"><g><path d="M 67.03125 -84.515625 L 67.03125 -94.34375 C 62.414062 -94.46875 58.007812 -93.890625 53.8125 -92.609375 C 49.625 -91.335938 45.769531 -89.457031 42.25 -86.96875 C 38.726562 -84.476562 35.570312 -81.472656 32.78125 -77.953125 C 29.988281 -74.429688 27.679688 -70.609375 25.859375 -66.484375 L 25.859375 -92.890625 L 16.9375 -92.890625 L 16.9375 0 L 25.859375 0 L 25.859375 -38.0625 C 25.859375 -45.59375 26.953125 -52.238281 29.140625 -58 C 31.328125 -63.769531 34.269531 -68.628906 37.96875 -72.578125 C 41.675781 -76.523438 45.957031 -79.5 50.8125 -81.5 C 55.675781 -83.507812 60.773438 -84.515625 66.109375 -84.515625 Z M 67.03125 -84.515625 "/></g></g></g><g fill="rgb(100%, 74.119568%, 34.899902%)" fill-opacity="1"><g transform="translate(592.817388, 416.353958)"><g><path d="M 63.015625 -1.640625 L 63.015625 -10.015625 C 60.347656 -8.804688 57.984375 -7.957031 55.921875 -7.46875 C 53.859375 -6.976562 51.671875 -6.734375 49.359375 -6.734375 C 43.890625 -6.734375 39.425781 -8.066406 35.96875 -10.734375 C 32.507812 -13.410156 30.78125 -18.085938 30.78125 -24.765625 L 30.78125 -84.703125 L 63.390625 -84.703125 L 63.390625 -92.890625 L 30.78125 -92.890625 L 30.78125 -122.578125 L 21.859375 -122.578125 L 21.859375 -92.890625 L 8.375 -92.890625 L 8.375 -84.703125 L 21.859375 -84.703125 L 21.859375 -23.859375 C 21.859375 -19.484375 22.523438 -15.6875 23.859375 -12.46875 C 25.191406 -9.257812 27.039062 -6.59375 29.40625 -4.46875 C 31.78125 -2.34375 34.546875 -0.796875 37.703125 0.171875 C 40.859375 1.148438 44.257812 1.640625 47.90625 1.640625 C 50.820312 1.640625 53.460938 1.363281 55.828125 0.8125 C 58.191406 0.269531 60.585938 -0.546875 63.015625 -1.640625 Z M 63.015625 -1.640625 "/></g></g></g><g fill="rgb(97.24884%, 74.119568%, 28.62854%)" fill-opacity="1"><g transform="translate(677.80913, 304.54187)"><g><path d="M 5.640625 0 L 3.3125 0 L 3.3125 -9.078125 L 0.3125 -9.078125 L 0.3125 -11.03125 L 8.640625 -11.03125 L 8.640625 -9.078125 L 5.640625 -9.078125 Z M 5.640625 0 "/></g></g></g><g fill="rgb(97.24884%, 74.119568%, 28.62854%)" fill-opacity="1"><g transform="translate(686.750673, 304.54187)"><g><path d="M 6.0625 0 L 3.40625 -8.65625 L 3.328125 -8.65625 C 3.429688 -6.894531 3.484375 -5.71875 3.484375 -5.125 L 3.484375 0 L 1.390625 0 L 1.390625 -11.03125 L 4.578125 -11.03125 L 7.1875 -2.59375 L 7.234375 -2.59375 L 10 -11.03125 L 13.1875 -11.03125 L 13.1875 0 L 11 0 L 11 -5.21875 C 11 -5.46875 11.003906 -5.753906 11.015625 -6.078125 C 11.023438 -6.398438 11.054688 -7.253906 11.109375 -8.640625 L 11.046875 -8.640625 L 8.203125 0 Z M 6.0625 0 "/></g></g></g></svg>