<svg xmlns="http://www.w3.org/2000/svg" xmlns:xlink="http://www.w3.org/1999/xlink" width="940" zoomAndPan="magnify" viewBox="0 0 705 591.000005" height="788" preserveAspectRatio="xMidYMid meet" version="1.0"><defs><g><g id="id1"/><g id="id2"/></g><clipPath id="id3"><path d="M 478.367188 178.757812 L 589.929688 178.757812 L 589.929688 238.65625 L 478.367188 238.65625 Z M 478.367188 178.757812 " clip-rule="nonzero"/></clipPath><clipPath id="id4"><path d="M 457.746094 197.917969 L 479.460938 197.917969 L 479.460938 219.628906 L 457.746094 219.628906 Z M 457.746094 197.917969 " clip-rule="nonzero"/></clipPath></defs><g fill="rgb(14.509583%, 23.139954%, 27.059937%)" fill-opacity="1"><g transform="translate(0.595436, 346.229294)"><g><path d="M 102.125 -88.8125 C 102.125 -76.726562 94.128906 -67.375 78.140625 -60.75 C 96.378906 -30.550781 108.164062 -12.785156 113.5 -7.453125 C 115.269531 -5.679688 117.21875 -4.410156 119.34375 -3.640625 C 121.476562 -2.867188 125.09375 -2.070312 130.1875 -1.25 L 130.1875 0 L 122.90625 0.359375 C 121.363281 0.472656 117.929688 0.648438 112.609375 0.890625 C 105.734375 1.128906 102.003906 1.25 101.421875 1.25 C 95.734375 1.25 91.644531 0.179688 89.15625 -1.953125 C 86.789062 -3.734375 83.476562 -8.113281 79.21875 -15.09375 L 59.671875 -47.953125 C 57.546875 -51.148438 56.007812 -53.191406 55.0625 -54.078125 C 54.113281 -54.972656 52.925781 -55.421875 51.5 -55.421875 L 49.015625 -55.421875 C 47.484375 -55.296875 46.300781 -55.234375 45.46875 -55.234375 L 44.75 -55.234375 L 44.75 -25.390625 C 44.75 -16.035156 45.109375 -9.941406 45.828125 -7.109375 C 46.296875 -5.328125 47.09375 -4.109375 48.21875 -3.453125 C 49.34375 -2.804688 51.625 -2.363281 55.0625 -2.125 L 62.875 -1.421875 L 62.875 0 L 4.4375 0 L 4.4375 -1.421875 L 10.484375 -2.125 C 13.679688 -2.488281 15.8125 -2.992188 16.875 -3.640625 C 17.9375 -4.296875 18.707031 -5.507812 19.1875 -7.28125 C 20.007812 -10.476562 20.421875 -16.515625 20.421875 -25.390625 L 20.421875 -93.25 C 20.421875 -102.363281 19.945312 -108.640625 19 -112.078125 C 18.644531 -113.734375 17.84375 -114.882812 16.59375 -115.53125 C 15.351562 -116.1875 13.078125 -116.75 9.765625 -117.21875 L 4.4375 -117.9375 L 4.4375 -119.359375 C 15.09375 -119.003906 28.648438 -118.828125 45.109375 -118.828125 C 65.828125 -118.828125 80.570312 -116.039062 89.34375 -110.46875 C 97.863281 -104.789062 102.125 -97.570312 102.125 -88.8125 Z M 77.609375 -87.5625 C 77.609375 -96.207031 74.851562 -103.132812 69.34375 -108.34375 C 63.84375 -113.550781 55.828125 -116.210938 45.296875 -116.328125 C 44.929688 -111.953125 44.75 -105.320312 44.75 -96.4375 L 44.75 -57.546875 C 53.988281 -57.304688 61.804688 -59.789062 68.203125 -65 C 74.472656 -70.207031 77.609375 -77.726562 77.609375 -87.5625 Z M 77.609375 -87.5625 "/></g></g></g><g fill="rgb(14.509583%, 23.139954%, 27.059937%)" fill-opacity="1"><g transform="translate(115.862175, 346.229294)"><g><path d="M 45.296875 -83.65625 C 54.648438 -83.65625 62.34375 -81.164062 68.375 -76.1875 C 74.300781 -70.976562 77.265625 -65 77.265625 -58.25 C 77.265625 -56.238281 77.023438 -54.582031 76.546875 -53.28125 L 24.859375 -53.453125 C 24.742188 -52.628906 24.6875 -50.738281 24.6875 -47.78125 C 24.6875 -36.53125 27.257812 -27.882812 32.40625 -21.84375 C 37.5625 -15.800781 44.460938 -12.78125 53.109375 -12.78125 C 62.929688 -12.78125 71.160156 -16.332031 77.796875 -23.4375 L 78.5 -22.90625 C 75.1875 -14.976562 70.363281 -8.734375 64.03125 -4.171875 C 57.695312 0.390625 50.617188 2.671875 42.796875 2.671875 C 31.316406 2.671875 22.082031 -1.351562 15.09375 -9.40625 C 8.113281 -17.457031 4.625 -27.109375 4.625 -38.359375 C 4.625 -51.035156 8.46875 -61.753906 16.15625 -70.515625 C 23.851562 -79.273438 33.566406 -83.65625 45.296875 -83.65625 Z M 33.5625 -75.84375 C 29.0625 -71.34375 26.28125 -64.710938 25.21875 -55.953125 L 34.984375 -56.125 C 48.722656 -56.476562 56.363281 -57.070312 57.90625 -57.90625 C 58.257812 -63.820312 57.191406 -69.085938 54.703125 -73.703125 C 52.097656 -78.328125 48.601562 -80.640625 44.21875 -80.640625 C 40.550781 -80.640625 37 -79.039062 33.5625 -75.84375 Z M 33.5625 -75.84375 "/></g></g></g><g fill="rgb(14.509583%, 23.139954%, 27.059937%)" fill-opacity="1"><g transform="translate(191.167211, 346.229294)"><g><path d="M 108.875 -83.65625 C 113.375 -83.65625 117.160156 -82.113281 120.234375 -79.03125 C 123.554688 -75.71875 125.21875 -69.859375 125.21875 -61.453125 L 125.21875 -5.6875 C 125.21875 -4.257812 125.484375 -3.304688 126.015625 -2.828125 C 126.546875 -2.359375 127.9375 -2.007812 130.1875 -1.78125 L 132.859375 -1.421875 L 132.859375 0 L 97.15625 0 L 97.15625 -1.421875 L 100 -1.78125 C 101.882812 -2.007812 103.09375 -2.359375 103.625 -2.828125 C 104.164062 -3.304688 104.4375 -4.257812 104.4375 -5.6875 L 104.4375 -50.078125 C 104.4375 -59.554688 103.3125 -65.421875 101.0625 -67.671875 C 99.050781 -69.679688 96.207031 -70.6875 92.53125 -70.6875 C 89.101562 -70.6875 84.601562 -69.148438 79.03125 -66.078125 C 79.15625 -65.003906 79.21875 -62.28125 79.21875 -57.90625 L 79.21875 -5.6875 C 79.21875 -4.257812 79.453125 -3.304688 79.921875 -2.828125 C 80.398438 -2.359375 81.644531 -2.007812 83.65625 -1.78125 L 86.3125 -1.421875 L 86.3125 0 L 51.15625 0 L 51.15625 -1.421875 L 53.8125 -1.78125 C 55.820312 -2.007812 57.0625 -2.359375 57.53125 -2.828125 C 58.007812 -3.304688 58.25 -4.257812 58.25 -5.6875 L 58.25 -50.078125 C 58.25 -54.222656 58.21875 -56.976562 58.15625 -58.34375 C 58.101562 -59.707031 57.835938 -61.242188 57.359375 -62.953125 C 56.890625 -64.671875 56.125 -66.242188 55.0625 -67.671875 C 53.050781 -69.679688 50.207031 -70.6875 46.53125 -70.6875 C 42.738281 -70.6875 38.300781 -69.265625 33.21875 -66.421875 L 33.21875 -5.6875 C 33.21875 -4.257812 33.453125 -3.304688 33.921875 -2.828125 C 34.398438 -2.359375 35.644531 -2.007812 37.65625 -1.78125 L 40.3125 -1.421875 L 40.3125 0 L 4.625 0 L 4.625 -1.421875 L 7.28125 -1.78125 C 9.53125 -2.007812 10.921875 -2.359375 11.453125 -2.828125 C 11.984375 -3.304688 12.25 -4.257812 12.25 -5.6875 L 12.25 -61.984375 C 12.25 -64.828125 11.597656 -67.019531 10.296875 -68.5625 L 4.796875 -74.0625 L 4.796875 -74.59375 L 33.75 -85.078125 L 34.28125 -84.546875 C 33.800781 -80.640625 33.5625 -77.617188 33.5625 -75.484375 L 33.390625 -69.265625 L 34.09375 -68.90625 C 44.875 -78.738281 54.410156 -83.65625 62.703125 -83.65625 C 67.316406 -83.65625 71.160156 -82.113281 74.234375 -79.03125 C 76.722656 -76.550781 78.265625 -72.820312 78.859375 -67.84375 C 89.984375 -78.382812 99.988281 -83.65625 108.875 -83.65625 Z M 108.875 -83.65625 "/></g></g></g><g fill="rgb(14.509583%, 23.139954%, 27.059937%)" fill-opacity="1"><g transform="translate(321.352999, 346.229294)"><g><path d="M 89.515625 -43.34375 C 89.515625 -30.90625 85.367188 -20.1875 77.078125 -11.1875 C 68.671875 -2.070312 58.3125 2.484375 46 2.484375 C 40.90625 2.484375 36.347656 1.890625 32.328125 0.703125 L 32.328125 34.09375 C 32.328125 35.519531 32.59375 36.46875 33.125 36.9375 C 33.65625 37.414062 35.046875 37.773438 37.296875 38.015625 L 42.796875 38.359375 L 42.796875 39.78125 L 3.734375 39.78125 L 3.734375 38.359375 L 6.578125 38.015625 C 8.703125 37.773438 10.03125 37.414062 10.5625 36.9375 C 11.09375 36.46875 11.359375 35.519531 11.359375 34.09375 L 11.359375 -61.984375 C 11.359375 -64.941406 10.707031 -67.191406 9.40625 -68.734375 L 4.078125 -74.234375 L 4.078125 -74.78125 L 33.03125 -85.078125 L 33.5625 -84.546875 C 33.09375 -81.816406 32.859375 -78.972656 32.859375 -76.015625 L 32.5 -73 L 33.21875 -72.640625 C 41.269531 -79.984375 49.320312 -83.65625 57.375 -83.65625 C 66.488281 -83.65625 74.179688 -79.984375 80.453125 -72.640625 C 86.492188 -65.179688 89.515625 -55.414062 89.515625 -43.34375 Z M 67.484375 -38.546875 C 67.484375 -49.316406 65.113281 -57.78125 60.375 -63.9375 C 55.644531 -70.09375 50.023438 -73.171875 43.515625 -73.171875 C 39.847656 -73.171875 36.117188 -72.164062 32.328125 -70.15625 L 31.96875 -24.859375 C 31.851562 -8.753906 36.945312 -0.703125 47.25 -0.703125 C 52.570312 -0.703125 57.304688 -4.195312 61.453125 -11.1875 C 65.472656 -18.050781 67.484375 -27.171875 67.484375 -38.546875 Z M 67.484375 -38.546875 "/></g></g></g><g fill="rgb(14.509583%, 23.139954%, 27.059937%)" fill-opacity="1"><g transform="translate(409.623399, 346.229294)"><g><path d="M 47.421875 -83.65625 C 59.859375 -83.65625 69.804688 -79.453125 77.265625 -71.046875 C 84.597656 -62.398438 88.265625 -52.453125 88.265625 -41.203125 C 88.265625 -28.179688 84.003906 -17.40625 75.484375 -8.875 C 67.671875 -1.0625 57.609375 2.84375 45.296875 2.84375 C 32.859375 2.84375 23.03125 -1.421875 15.8125 -9.953125 C 8.351562 -18.472656 4.625 -28.414062 4.625 -39.78125 C 4.625 -52.6875 8.882812 -63.40625 17.40625 -71.9375 C 25.21875 -79.75 35.222656 -83.65625 47.421875 -83.65625 Z M 47.25 -0.359375 C 53.164062 -0.359375 57.84375 -3.847656 61.28125 -10.828125 C 64.476562 -17.109375 66.078125 -26.582031 66.078125 -39.25 C 66.078125 -50.03125 64.179688 -59.679688 60.390625 -68.203125 C 56.710938 -76.492188 51.738281 -80.640625 45.46875 -80.640625 C 39.550781 -80.640625 34.929688 -77.085938 31.609375 -69.984375 C 28.410156 -63.828125 26.8125 -54.351562 26.8125 -41.5625 C 26.8125 -34.570312 27.609375 -28 29.203125 -21.84375 C 30.804688 -15.6875 33.175781 -10.566406 36.3125 -6.484375 C 39.457031 -2.398438 43.101562 -0.359375 47.25 -0.359375 Z M 47.25 -0.359375 "/></g></g></g><g fill="rgb(14.509583%, 23.139954%, 27.059937%)" fill-opacity="1"><g transform="translate(496.65056, 346.229294)"><g><path d="M 55.421875 -84.359375 C 58.492188 -84.359375 60.859375 -83.441406 62.515625 -81.609375 C 64.171875 -79.773438 65 -77.378906 65 -74.421875 C 65 -68.859375 62.75 -64.179688 58.25 -60.390625 C 50.914062 -64.410156 45.585938 -66.421875 42.265625 -66.421875 C 39.191406 -66.421875 36.175781 -64.46875 33.21875 -60.5625 L 33.21875 -5.6875 C 33.21875 -4.257812 33.484375 -3.304688 34.015625 -2.828125 C 34.546875 -2.359375 35.9375 -2.007812 38.1875 -1.78125 L 43.875 -1.421875 L 43.875 0 L 4.625 0 L 4.625 -1.421875 L 7.28125 -1.78125 C 9.53125 -2.007812 10.921875 -2.359375 11.453125 -2.828125 C 11.984375 -3.304688 12.25 -4.257812 12.25 -5.6875 L 12.25 -61.984375 C 12.25 -65.066406 11.597656 -67.257812 10.296875 -68.5625 L 4.796875 -74.0625 L 4.796875 -74.59375 L 33.75 -85.078125 L 34.28125 -84.546875 L 33.5625 -75.65625 L 32.859375 -64.296875 L 33.75 -63.9375 C 40.144531 -77.550781 47.367188 -84.359375 55.421875 -84.359375 Z M 55.421875 -84.359375 "/></g></g></g><g fill="rgb(14.509583%, 23.139954%, 27.059937%)" fill-opacity="1"><g transform="translate(555.438061, 346.229294)"><g><path d="M 35.515625 2.671875 C 27.941406 2.671875 22.257812 0.773438 18.46875 -3.015625 C 14.445312 -7.046875 12.4375 -12.96875 12.4375 -20.78125 L 12.4375 -69.796875 L 3.203125 -69.796875 L 3.203125 -72.8125 C 14.085938 -81.695312 24.269531 -91.113281 33.75 -101.0625 L 34.640625 -100.53125 L 33.5625 -80.8125 L 61.28125 -80.8125 L 59.140625 -69.4375 L 33.21875 -69.796875 L 33.21875 -25.9375 C 33.21875 -20.601562 34.457031 -16.691406 36.9375 -14.203125 C 39.3125 -11.835938 43.101562 -10.65625 48.3125 -10.65625 C 53.28125 -10.65625 58.078125 -12.253906 62.703125 -15.453125 L 63.234375 -14.921875 C 56.597656 -3.191406 47.359375 2.671875 35.515625 2.671875 Z M 35.515625 2.671875 "/></g></g></g><g clip-path="url(#id3)"><path fill="rgb(14.509583%, 23.139954%, 27.059937%)" d="M 589.921875 178.796875 L 478.351562 178.796875 L 504.015625 208.703125 L 478.351562 238.613281 L 589.921875 238.613281 Z M 589.921875 178.796875 " fill-opacity="1" fill-rule="nonzero"/></g><g clip-path="url(#id4)"><path fill="rgb(14.509583%, 23.139954%, 27.059937%)" d="M 479.460938 208.773438 C 479.460938 209.484375 479.390625 210.191406 479.253906 210.890625 C 479.113281 211.589844 478.90625 212.269531 478.632812 212.925781 C 478.363281 213.585938 478.027344 214.210938 477.632812 214.804688 C 477.234375 215.398438 476.785156 215.945312 476.28125 216.449219 C 475.777344 216.953125 475.230469 217.402344 474.636719 217.800781 C 474.042969 218.195312 473.417969 218.53125 472.757812 218.804688 C 472.101562 219.074219 471.421875 219.28125 470.722656 219.421875 C 470.023438 219.558594 469.316406 219.628906 468.605469 219.628906 C 467.890625 219.628906 467.183594 219.558594 466.484375 219.421875 C 465.785156 219.28125 465.109375 219.074219 464.449219 218.804688 C 463.789062 218.53125 463.164062 218.195312 462.574219 217.800781 C 461.980469 217.402344 461.429688 216.953125 460.925781 216.449219 C 460.421875 215.945312 459.972656 215.398438 459.578125 214.804688 C 459.179688 214.210938 458.847656 213.585938 458.574219 212.925781 C 458.300781 212.269531 458.09375 211.589844 457.957031 210.890625 C 457.816406 210.191406 457.746094 209.484375 457.746094 208.773438 C 457.746094 208.058594 457.816406 207.355469 457.957031 206.65625 C 458.09375 205.957031 458.300781 205.277344 458.574219 204.617188 C 458.847656 203.960938 459.179688 203.332031 459.578125 202.742188 C 459.972656 202.148438 460.421875 201.601562 460.925781 201.097656 C 461.429688 200.589844 461.980469 200.140625 462.574219 199.746094 C 463.164062 199.351562 463.789062 199.015625 464.449219 198.742188 C 465.109375 198.46875 465.785156 198.265625 466.484375 198.125 C 467.183594 197.984375 467.890625 197.917969 468.605469 197.917969 C 469.316406 197.917969 470.023438 197.984375 470.722656 198.125 C 471.421875 198.265625 472.101562 198.46875 472.757812 198.742188 C 473.417969 199.015625 474.042969 199.351562 474.636719 199.746094 C 475.230469 200.140625 475.777344 200.589844 476.28125 201.097656 C 476.785156 201.601562 477.234375 202.148438 477.632812 202.742188 C 478.027344 203.332031 478.363281 203.960938 478.632812 204.617188 C 478.90625 205.277344 479.113281 205.957031 479.253906 206.65625 C 479.390625 207.355469 479.460938 208.058594 479.460938 208.773438 Z M 479.460938 208.773438 " fill-opacity="1" fill-rule="nonzero"/></g><g fill="rgb(14.509583%, 23.139954%, 27.059937%)" fill-opacity="1"><g transform="translate(389.337463, 397.839914)"><g><path d="M 7.484375 -0.734375 L 9.171875 -0.265625 L 9.171875 0 L -1.421875 0 L -1.421875 -0.265625 L -0.171875 -0.65625 C 1.066406 -1.03125 1.960938 -1.519531 2.515625 -2.125 C 3.003906 -2.664062 3.625 -3.914062 4.375 -5.875 L 11.84375 -25.265625 C 11.46875 -26.003906 11.253906 -26.460938 11.203125 -26.640625 L 11.25 -26.765625 C 12 -27.085938 12.890625 -27.609375 13.921875 -28.328125 C 14.898438 -28.992188 15.632812 -29.597656 16.125 -30.140625 L 16.3125 -30.109375 L 24.734375 -4.375 C 25.253906 -2.8125 25.71875 -1.828125 26.125 -1.421875 C 26.53125 -0.992188 27.238281 -0.707031 28.25 -0.5625 L 29.671875 -0.34375 L 29.671875 0 L 15.5625 0 L 15.5625 -0.34375 L 17.125 -0.515625 C 18.539062 -0.722656 19.25 -1.171875 19.25 -1.859375 C 19.25 -2.234375 19.144531 -2.722656 18.9375 -3.328125 L 16.515625 -10.9375 L 7.78125 -10.9375 L 7.171875 -9.171875 C 5.929688 -5.710938 5.3125 -3.429688 5.3125 -2.328125 C 5.3125 -1.953125 5.460938 -1.648438 5.765625 -1.421875 C 6.078125 -1.191406 6.648438 -0.960938 7.484375 -0.734375 Z M 16.21875 -11.890625 L 13.40625 -20.890625 C 12.71875 -22.992188 12.34375 -24.101562 12.28125 -24.21875 L 8.09375 -11.890625 Z M 16.21875 -11.890625 "/></g></g></g><g fill="rgb(14.509583%, 23.139954%, 27.059937%)" fill-opacity="1"><g transform="translate(417.74504, 397.839914)"><g/></g></g><g fill="rgb(14.509583%, 23.139954%, 27.059937%)" fill-opacity="1"><g transform="translate(423.625461, 397.839914)"><g><path d="M 23.875 -6.1875 L 23.875 -14.484375 L 10.90625 -14.484375 L 10.90625 -6.1875 C 10.90625 -3.9375 10.988281 -2.460938 11.15625 -1.765625 C 11.269531 -1.335938 11.457031 -1.035156 11.71875 -0.859375 C 11.976562 -0.691406 12.484375 -0.578125 13.234375 -0.515625 L 14.875 -0.34375 L 14.875 0 L 1.078125 0 L 1.078125 -0.34375 L 2.546875 -0.515625 C 3.328125 -0.609375 3.847656 -0.734375 4.109375 -0.890625 C 4.367188 -1.046875 4.554688 -1.335938 4.671875 -1.765625 C 4.867188 -2.546875 4.96875 -4.019531 4.96875 -6.1875 L 4.96875 -22.703125 C 4.96875 -24.867188 4.867188 -26.34375 4.671875 -27.125 C 4.554688 -27.550781 4.367188 -27.84375 4.109375 -28 C 3.847656 -28.164062 3.328125 -28.289062 2.546875 -28.375 L 1.078125 -28.546875 L 1.078125 -28.890625 L 14.875 -28.890625 L 14.875 -28.546875 L 13.234375 -28.375 C 12.484375 -28.3125 11.976562 -28.191406 11.71875 -28.015625 C 11.457031 -27.847656 11.269531 -27.550781 11.15625 -27.125 C 10.988281 -26.425781 10.90625 -24.953125 10.90625 -22.703125 L 10.90625 -15.4375 L 23.875 -15.4375 L 23.875 -22.703125 C 23.875 -24.953125 23.785156 -26.425781 23.609375 -27.125 C 23.492188 -27.550781 23.304688 -27.847656 23.046875 -28.015625 C 22.785156 -28.191406 22.28125 -28.3125 21.53125 -28.375 L 19.890625 -28.546875 L 19.890625 -28.890625 L 33.6875 -28.890625 L 33.6875 -28.546875 L 32.21875 -28.375 C 31.4375 -28.289062 30.914062 -28.164062 30.65625 -28 C 30.40625 -27.84375 30.222656 -27.550781 30.109375 -27.125 C 29.898438 -26.34375 29.796875 -24.867188 29.796875 -22.703125 L 29.796875 -6.1875 C 29.796875 -4.019531 29.898438 -2.546875 30.109375 -1.765625 C 30.222656 -1.335938 30.40625 -1.046875 30.65625 -0.890625 C 30.914062 -0.734375 31.4375 -0.609375 32.21875 -0.515625 L 33.6875 -0.34375 L 33.6875 0 L 19.890625 0 L 19.890625 -0.34375 L 21.53125 -0.515625 C 22.28125 -0.578125 22.785156 -0.691406 23.046875 -0.859375 C 23.304688 -1.035156 23.492188 -1.335938 23.609375 -1.765625 C 23.785156 -2.460938 23.875 -3.9375 23.875 -6.1875 Z M 23.875 -6.1875 "/></g></g></g><g fill="rgb(14.509583%, 23.139954%, 27.059937%)" fill-opacity="1"><g transform="translate(458.38908, 397.839914)"><g><path d="M 11.03125 -20.375 C 13.3125 -20.375 15.1875 -19.765625 16.65625 -18.546875 C 18.09375 -17.285156 18.8125 -15.832031 18.8125 -14.1875 C 18.8125 -13.695312 18.753906 -13.289062 18.640625 -12.96875 L 6.0625 -13.015625 C 6.03125 -12.816406 6.015625 -12.359375 6.015625 -11.640625 C 6.015625 -8.898438 6.640625 -6.789062 7.890625 -5.3125 C 9.148438 -3.84375 10.832031 -3.109375 12.9375 -3.109375 C 15.320312 -3.109375 17.320312 -3.972656 18.9375 -5.703125 L 19.109375 -5.578125 C 18.304688 -3.648438 17.132812 -2.128906 15.59375 -1.015625 C 14.050781 0.0976562 12.328125 0.65625 10.421875 0.65625 C 7.628906 0.65625 5.378906 -0.320312 3.671875 -2.28125 C 1.972656 -4.25 1.125 -6.601562 1.125 -9.34375 C 1.125 -12.425781 2.0625 -15.035156 3.9375 -17.171875 C 5.8125 -19.304688 8.175781 -20.375 11.03125 -20.375 Z M 8.171875 -18.46875 C 7.078125 -17.375 6.398438 -15.757812 6.140625 -13.625 L 8.515625 -13.671875 C 11.859375 -13.753906 13.71875 -13.894531 14.09375 -14.09375 C 14.1875 -15.539062 13.929688 -16.828125 13.328125 -17.953125 C 12.691406 -19.078125 11.835938 -19.640625 10.765625 -19.640625 C 9.867188 -19.640625 9.003906 -19.25 8.171875 -18.46875 Z M 8.171875 -18.46875 "/></g></g></g><g fill="rgb(14.509583%, 23.139954%, 27.059937%)" fill-opacity="1"><g transform="translate(478.149002, 397.839914)"><g><path d="M 7.734375 -17.640625 C 6.898438 -17.640625 6.164062 -17.453125 5.53125 -17.078125 L 6.578125 -14.015625 C 6.460938 -13.835938 5.984375 -13.59375 5.140625 -13.28125 C 4.304688 -12.988281 3.601562 -12.84375 3.03125 -12.84375 C 2.050781 -12.84375 1.5625 -13.234375 1.5625 -14.015625 C 1.5625 -14.503906 2.066406 -15.253906 3.078125 -16.265625 C 4.109375 -17.296875 5.414062 -18.273438 7 -19.203125 C 8.5 -20.097656 9.84375 -20.546875 11.03125 -20.546875 C 12.757812 -20.546875 14.039062 -20.140625 14.875 -19.328125 C 15.769531 -18.429688 16.21875 -16.832031 16.21875 -14.53125 L 16.21875 -4.578125 C 16.21875 -3.546875 16.4375 -2.8125 16.875 -2.375 C 17.21875 -2.03125 17.660156 -1.859375 18.203125 -1.859375 C 18.640625 -1.859375 19.101562 -2.03125 19.59375 -2.375 L 19.765625 -2.203125 C 19.304688 -1.484375 18.644531 -0.832031 17.78125 -0.25 C 16.914062 0.320312 16.035156 0.609375 15.140625 0.609375 C 14.179688 0.609375 13.359375 0.347656 12.671875 -0.171875 C 11.984375 -0.691406 11.535156 -1.425781 11.328125 -2.375 L 11.203125 -2.421875 L 10.46875 -1.765625 C 9.457031 -0.929688 8.613281 -0.351562 7.9375 -0.03125 C 7.257812 0.28125 6.472656 0.4375 5.578125 0.4375 C 4.398438 0.4375 3.421875 0.0234375 2.640625 -0.796875 C 1.859375 -1.617188 1.46875 -2.59375 1.46875 -3.71875 C 1.46875 -4.664062 1.785156 -5.457031 2.421875 -6.09375 C 3.203125 -6.84375 5.09375 -7.765625 8.09375 -8.859375 L 11.25 -9.984375 L 11.25 -13.578125 C 11.25 -15.078125 10.972656 -16.128906 10.421875 -16.734375 C 9.867188 -17.335938 8.972656 -17.640625 7.734375 -17.640625 Z M 11.25 -2.859375 L 11.25 -9.46875 C 9.257812 -8.664062 7.972656 -8.003906 7.390625 -7.484375 C 6.847656 -6.910156 6.578125 -6.1875 6.578125 -5.3125 C 6.578125 -4.394531 6.828125 -3.65625 7.328125 -3.09375 C 7.835938 -2.53125 8.476562 -2.25 9.25 -2.25 C 9.914062 -2.25 10.582031 -2.453125 11.25 -2.859375 Z M 11.25 -2.859375 "/></g></g></g><g fill="rgb(14.509583%, 23.139954%, 27.059937%)" fill-opacity="1"><g transform="translate(497.476537, 397.839914)"><g><path d="M 8.09375 -27.71875 L 8.09375 -1.390625 C 8.09375 -1.035156 8.15625 -0.800781 8.28125 -0.6875 C 8.414062 -0.570312 8.738281 -0.488281 9.25 -0.4375 L 9.953125 -0.34375 L 9.953125 0 L 1.125 0 L 1.125 -0.34375 L 1.765625 -0.4375 C 2.316406 -0.488281 2.65625 -0.570312 2.78125 -0.6875 C 2.914062 -0.800781 2.984375 -1.035156 2.984375 -1.390625 L 2.984375 -24.953125 C 2.984375 -25.703125 2.828125 -26.238281 2.515625 -26.5625 L 1.171875 -27.9375 L 1.171875 -28.0625 L 8.09375 -30.53125 L 8.21875 -30.40625 C 8.132812 -29.570312 8.09375 -28.675781 8.09375 -27.71875 Z M 8.09375 -27.71875 "/></g></g></g><g fill="rgb(14.509583%, 23.139954%, 27.059937%)" fill-opacity="1"><g transform="translate(508.242886, 397.839914)"><g><path d="M 8.65625 0.65625 C 6.800781 0.65625 5.414062 0.191406 4.5 -0.734375 C 3.519531 -1.710938 3.03125 -3.15625 3.03125 -5.0625 L 3.03125 -17 L 0.78125 -17 L 0.78125 -17.734375 C 3.425781 -19.890625 5.90625 -22.179688 8.21875 -24.609375 L 8.4375 -24.484375 L 8.171875 -19.671875 L 14.921875 -19.671875 L 14.40625 -16.90625 L 8.09375 -17 L 8.09375 -6.3125 C 8.09375 -5.019531 8.394531 -4.066406 9 -3.453125 C 9.570312 -2.878906 10.492188 -2.59375 11.765625 -2.59375 C 12.972656 -2.59375 14.140625 -2.984375 15.265625 -3.765625 L 15.390625 -3.640625 C 13.773438 -0.773438 11.53125 0.65625 8.65625 0.65625 Z M 8.65625 0.65625 "/></g></g></g><g fill="rgb(14.509583%, 23.139954%, 27.059937%)" fill-opacity="1"><g transform="translate(523.28982, 397.839914)"><g><path d="M 15.359375 -20.375 C 16.597656 -20.375 17.59375 -20 18.34375 -19.25 C 18.851562 -18.726562 19.203125 -18.171875 19.390625 -17.578125 C 19.578125 -16.984375 19.671875 -16.113281 19.671875 -14.96875 L 19.671875 -1.25 C 19.671875 -0.757812 19.988281 -0.5 20.625 -0.46875 L 21.53125 -0.34375 L 21.53125 0 L 12.796875 0 L 12.796875 -0.34375 L 13.703125 -0.46875 C 14.285156 -0.5 14.578125 -0.757812 14.578125 -1.25 L 14.578125 -12.203125 C 14.578125 -14.441406 14.300781 -15.835938 13.75 -16.390625 C 13.207031 -16.941406 12.398438 -17.21875 11.328125 -17.21875 C 10.410156 -17.21875 9.332031 -16.867188 8.09375 -16.171875 L 8.09375 -1.25 C 8.09375 -0.757812 8.363281 -0.5 8.90625 -0.46875 L 9.8125 -0.34375 L 9.8125 0 L 1.125 0 L 1.125 -0.34375 L 2.03125 -0.46875 C 2.664062 -0.5 2.984375 -0.773438 2.984375 -1.296875 L 2.984375 -24.953125 C 2.984375 -25.703125 2.828125 -26.238281 2.515625 -26.5625 L 1.171875 -27.9375 L 1.171875 -28.0625 L 8.09375 -30.53125 L 8.21875 -30.40625 C 8.132812 -29.570312 8.09375 -28.675781 8.09375 -27.71875 L 8.09375 -16.78125 L 8.265625 -16.6875 C 10.972656 -19.144531 13.335938 -20.375 15.359375 -20.375 Z M 15.359375 -20.375 "/></g></g></g><g fill="rgb(14.509583%, 23.139954%, 27.059937%)" fill-opacity="1"><g transform="translate(545.600801, 397.839914)"><g/></g></g><g fill="rgb(14.509583%, 23.139954%, 27.059937%)" fill-opacity="1"><g transform="translate(551.481222, 397.839914)"><g><path d="M 19.46875 -28.0625 C 19.664062 -27.0625 19.863281 -24.65625 20.0625 -20.84375 L 19.671875 -20.765625 C 18.523438 -23.816406 17.40625 -25.90625 16.3125 -27.03125 C 15.207031 -28.125 13.992188 -28.671875 12.671875 -28.671875 C 11.367188 -28.671875 10.320312 -28.285156 9.53125 -27.515625 C 8.738281 -26.753906 8.34375 -25.785156 8.34375 -24.609375 C 8.34375 -23.429688 8.742188 -22.320312 9.546875 -21.28125 C 10.359375 -20.238281 11.816406 -18.910156 13.921875 -17.296875 C 16.378906 -15.398438 18.15625 -13.742188 19.25 -12.328125 C 20.28125 -10.941406 20.796875 -9.3125 20.796875 -7.4375 C 20.796875 -5.101562 19.921875 -3.203125 18.171875 -1.734375 C 16.410156 -0.234375 14 0.515625 10.9375 0.515625 C 8.425781 0.515625 5.703125 -0.101562 2.765625 -1.34375 C 2.335938 -3.789062 2.078125 -6.515625 1.984375 -9.515625 L 2.328125 -9.640625 C 3.773438 -6.035156 5.085938 -3.570312 6.265625 -2.25 C 7.484375 -0.894531 8.957031 -0.21875 10.6875 -0.21875 C 12.15625 -0.21875 13.347656 -0.671875 14.265625 -1.578125 C 15.191406 -2.484375 15.65625 -3.671875 15.65625 -5.140625 C 15.65625 -6.410156 15.207031 -7.582031 14.3125 -8.65625 C 13.300781 -9.832031 11.671875 -11.328125 9.421875 -13.140625 C 7.984375 -14.265625 6.90625 -15.175781 6.1875 -15.875 C 5.488281 -16.476562 4.820312 -17.367188 4.1875 -18.546875 C 3.5625 -19.648438 3.25 -20.847656 3.25 -22.140625 C 3.25 -24.128906 4.097656 -25.847656 5.796875 -27.296875 C 7.460938 -28.703125 9.796875 -29.40625 12.796875 -29.40625 C 15.421875 -29.40625 17.644531 -28.957031 19.46875 -28.0625 Z M 19.46875 -28.0625 "/></g></g></g><g fill="rgb(14.509583%, 23.139954%, 27.059937%)" fill-opacity="1"><g transform="translate(574.570486, 397.839914)"><g><path d="M 11.546875 -20.375 C 14.578125 -20.375 17 -19.347656 18.8125 -17.296875 C 20.601562 -15.191406 21.5 -12.769531 21.5 -10.03125 C 21.5 -6.863281 20.457031 -4.238281 18.375 -2.15625 C 16.476562 -0.257812 14.03125 0.6875 11.03125 0.6875 C 8 0.6875 5.601562 -0.347656 3.84375 -2.421875 C 2.03125 -4.492188 1.125 -6.914062 1.125 -9.6875 C 1.125 -12.832031 2.160156 -15.441406 4.234375 -17.515625 C 6.140625 -19.421875 8.578125 -20.375 11.546875 -20.375 Z M 11.5 -0.09375 C 12.945312 -0.09375 14.085938 -0.941406 14.921875 -2.640625 C 15.703125 -4.171875 16.09375 -6.476562 16.09375 -9.5625 C 16.09375 -12.1875 15.628906 -14.535156 14.703125 -16.609375 C 13.804688 -18.628906 12.597656 -19.640625 11.078125 -19.640625 C 9.628906 -19.640625 8.503906 -18.773438 7.703125 -17.046875 C 6.921875 -15.546875 6.53125 -13.238281 6.53125 -10.125 C 6.53125 -8.414062 6.722656 -6.8125 7.109375 -5.3125 C 7.503906 -3.820312 8.082031 -2.578125 8.84375 -1.578125 C 9.601562 -0.585938 10.488281 -0.09375 11.5 -0.09375 Z M 11.5 -0.09375 "/></g></g></g><g fill="rgb(14.509583%, 23.139954%, 27.059937%)" fill-opacity="1"><g transform="translate(597.18413, 397.839914)"><g><path d="M 8.09375 -27.71875 L 8.09375 -1.390625 C 8.09375 -1.035156 8.15625 -0.800781 8.28125 -0.6875 C 8.414062 -0.570312 8.738281 -0.488281 9.25 -0.4375 L 9.953125 -0.34375 L 9.953125 0 L 1.125 0 L 1.125 -0.34375 L 1.765625 -0.4375 C 2.316406 -0.488281 2.65625 -0.570312 2.78125 -0.6875 C 2.914062 -0.800781 2.984375 -1.035156 2.984375 -1.390625 L 2.984375 -24.953125 C 2.984375 -25.703125 2.828125 -26.238281 2.515625 -26.5625 L 1.171875 -27.9375 L 1.171875 -28.0625 L 8.09375 -30.53125 L 8.21875 -30.40625 C 8.132812 -29.570312 8.09375 -28.675781 8.09375 -27.71875 Z M 8.09375 -27.71875 "/></g></g></g><g fill="rgb(14.509583%, 23.139954%, 27.059937%)" fill-opacity="1"><g transform="translate(607.950479, 397.839914)"><g><path d="M 6.921875 0.609375 C 5.710938 0.609375 4.734375 0.234375 3.984375 -0.515625 C 3.460938 -1.035156 3.109375 -1.582031 2.921875 -2.15625 C 2.734375 -2.738281 2.640625 -3.617188 2.640625 -4.796875 L 2.640625 -17.078125 C 2.640625 -17.679688 2.601562 -18.070312 2.53125 -18.25 C 2.457031 -18.425781 2.265625 -18.585938 1.953125 -18.734375 L 0.34375 -19.296875 L 0.34375 -19.546875 L 7.734375 -20.234375 L 7.875 -20.109375 C 7.78125 -18.984375 7.734375 -17.742188 7.734375 -16.390625 L 7.734375 -7.53125 C 7.734375 -5.28125 8.007812 -3.878906 8.5625 -3.328125 C 9.082031 -2.804688 9.875 -2.546875 10.9375 -2.546875 C 11.914062 -2.546875 13 -2.910156 14.1875 -3.640625 L 14.1875 -17.078125 C 14.1875 -17.710938 14.148438 -18.113281 14.078125 -18.28125 C 14.003906 -18.457031 13.8125 -18.609375 13.5 -18.734375 L 11.890625 -19.328125 L 11.890625 -19.546875 L 19.296875 -20.234375 L 19.421875 -20.109375 C 19.335938 -18.984375 19.296875 -17.726562 19.296875 -16.34375 L 19.296875 -2.421875 C 19.296875 -1.898438 19.363281 -1.5625 19.5 -1.40625 C 19.644531 -1.25 19.992188 -1.1875 20.546875 -1.21875 L 21.578125 -1.25 L 21.625 -0.90625 L 14.0625 0.6875 L 13.921875 0.5625 C 13.984375 0.21875 14.039062 -0.285156 14.09375 -0.953125 L 14.140625 -2.890625 L 13.96875 -2.984375 C 11.257812 -0.585938 8.910156 0.609375 6.921875 0.609375 Z M 6.921875 0.609375 "/></g></g></g><g fill="rgb(14.509583%, 23.139954%, 27.059937%)" fill-opacity="1"><g transform="translate(630.218226, 397.839914)"><g><path d="M 8.65625 0.65625 C 6.800781 0.65625 5.414062 0.191406 4.5 -0.734375 C 3.519531 -1.710938 3.03125 -3.15625 3.03125 -5.0625 L 3.03125 -17 L 0.78125 -17 L 0.78125 -17.734375 C 3.425781 -19.890625 5.90625 -22.179688 8.21875 -24.609375 L 8.4375 -24.484375 L 8.171875 -19.671875 L 14.921875 -19.671875 L 14.40625 -16.90625 L 8.09375 -17 L 8.09375 -6.3125 C 8.09375 -5.019531 8.394531 -4.066406 9 -3.453125 C 9.570312 -2.878906 10.492188 -2.59375 11.765625 -2.59375 C 12.972656 -2.59375 14.140625 -2.984375 15.265625 -3.765625 L 15.390625 -3.640625 C 13.773438 -0.773438 11.53125 0.65625 8.65625 0.65625 Z M 8.65625 0.65625 "/></g></g></g><g fill="rgb(14.509583%, 23.139954%, 27.059937%)" fill-opacity="1"><g transform="translate(645.265159, 397.839914)"><g><path d="M 3.5 -24.703125 C 2.925781 -25.273438 2.640625 -25.941406 2.640625 -26.703125 C 2.640625 -27.472656 2.957031 -28.171875 3.59375 -28.796875 C 4.226562 -29.429688 4.988281 -29.738281 5.875 -29.71875 C 6.65625 -29.71875 7.328125 -29.425781 7.890625 -28.84375 C 8.453125 -28.269531 8.734375 -27.59375 8.734375 -26.8125 C 8.734375 -25.976562 8.4375 -25.28125 7.84375 -24.71875 C 7.257812 -24.15625 6.519531 -23.875 5.625 -23.875 C 4.757812 -23.875 4.050781 -24.148438 3.5 -24.703125 Z M 8.09375 -17.859375 L 8.09375 -1.390625 C 8.09375 -1.035156 8.15625 -0.800781 8.28125 -0.6875 C 8.414062 -0.570312 8.738281 -0.488281 9.25 -0.4375 L 9.953125 -0.34375 L 9.953125 0 L 1.125 0 L 1.125 -0.34375 L 1.765625 -0.4375 C 2.316406 -0.488281 2.65625 -0.570312 2.78125 -0.6875 C 2.914062 -0.800781 2.984375 -1.035156 2.984375 -1.390625 L 2.984375 -15.09375 C 2.984375 -15.8125 2.828125 -16.359375 2.515625 -16.734375 L 1.171875 -18.078125 L 1.171875 -18.171875 L 8.09375 -20.671875 L 8.21875 -20.546875 C 8.132812 -19.710938 8.09375 -18.816406 8.09375 -17.859375 Z M 8.09375 -17.859375 "/></g></g></g><g fill="rgb(14.509583%, 23.139954%, 27.059937%)" fill-opacity="1"><g transform="translate(655.988273, 397.839914)"><g><path d="M 11.546875 -20.375 C 14.578125 -20.375 17 -19.347656 18.8125 -17.296875 C 20.601562 -15.191406 21.5 -12.769531 21.5 -10.03125 C 21.5 -6.863281 20.457031 -4.238281 18.375 -2.15625 C 16.476562 -0.257812 14.03125 0.6875 11.03125 0.6875 C 8 0.6875 5.601562 -0.347656 3.84375 -2.421875 C 2.03125 -4.492188 1.125 -6.914062 1.125 -9.6875 C 1.125 -12.832031 2.160156 -15.441406 4.234375 -17.515625 C 6.140625 -19.421875 8.578125 -20.375 11.546875 -20.375 Z M 11.5 -0.09375 C 12.945312 -0.09375 14.085938 -0.941406 14.921875 -2.640625 C 15.703125 -4.171875 16.09375 -6.476562 16.09375 -9.5625 C 16.09375 -12.1875 15.628906 -14.535156 14.703125 -16.609375 C 13.804688 -18.628906 12.597656 -19.640625 11.078125 -19.640625 C 9.628906 -19.640625 8.503906 -18.773438 7.703125 -17.046875 C 6.921875 -15.546875 6.53125 -13.238281 6.53125 -10.125 C 6.53125 -8.414062 6.722656 -6.8125 7.109375 -5.3125 C 7.503906 -3.820312 8.082031 -2.578125 8.84375 -1.578125 C 9.601562 -0.585938 10.488281 -0.09375 11.5 -0.09375 Z M 11.5 -0.09375 "/></g></g></g><g fill="rgb(14.509583%, 23.139954%, 27.059937%)" fill-opacity="1"><g transform="translate(678.601917, 397.839914)"><g><path d="M 15.359375 -20.375 C 16.597656 -20.375 17.59375 -20 18.34375 -19.25 C 18.851562 -18.726562 19.203125 -18.171875 19.390625 -17.578125 C 19.578125 -16.984375 19.671875 -16.113281 19.671875 -14.96875 L 19.671875 -1.390625 C 19.671875 -1.035156 19.734375 -0.800781 19.859375 -0.6875 C 19.992188 -0.570312 20.320312 -0.488281 20.84375 -0.4375 L 21.53125 -0.34375 L 21.53125 0 L 12.796875 0 L 12.796875 -0.34375 L 13.5 -0.4375 C 13.957031 -0.488281 14.25 -0.570312 14.375 -0.6875 C 14.507812 -0.800781 14.578125 -1.035156 14.578125 -1.390625 L 14.578125 -12.203125 C 14.578125 -14.441406 14.300781 -15.835938 13.75 -16.390625 C 13.207031 -16.941406 12.398438 -17.21875 11.328125 -17.21875 C 10.410156 -17.21875 9.332031 -16.867188 8.09375 -16.171875 L 8.09375 -1.390625 C 8.09375 -1.035156 8.148438 -0.800781 8.265625 -0.6875 C 8.378906 -0.570312 8.679688 -0.488281 9.171875 -0.4375 L 9.8125 -0.34375 L 9.8125 0 L 1.125 0 L 1.125 -0.34375 L 1.765625 -0.4375 C 2.316406 -0.488281 2.65625 -0.570312 2.78125 -0.6875 C 2.914062 -0.800781 2.984375 -1.035156 2.984375 -1.390625 L 2.984375 -15.09375 C 2.984375 -15.78125 2.828125 -16.3125 2.515625 -16.6875 L 1.171875 -18.03125 L 1.171875 -18.171875 L 8.21875 -20.71875 L 8.34375 -20.59375 C 8.226562 -19.632812 8.171875 -18.894531 8.171875 -18.375 L 8.125 -16.875 L 8.296875 -16.78125 C 11.015625 -19.175781 13.367188 -20.375 15.359375 -20.375 Z M 15.359375 -20.375 "/></g></g></g></svg>