<svg xmlns="http://www.w3.org/2000/svg" xmlns:xlink="http://www.w3.org/1999/xlink" width="940" zoomAndPan="magnify" viewBox="0 0 705 591.000005" height="788" preserveAspectRatio="xMidYMid meet" version="1.0"><defs><g/><clipPath id="id1"><path d="M 427 291 L 530 291 L 530 391 L 427 391 Z M 427 291 " clip-rule="nonzero"/></clipPath><clipPath id="id2"><path d="M 391.941406 337.460938 L 479.296875 250.105469 L 578.300781 349.109375 L 490.945312 436.46875 Z M 391.941406 337.460938 " clip-rule="nonzero"/></clipPath><clipPath id="id3"><path d="M 391.941406 337.460938 L 479.296875 250.105469 L 578.300781 349.109375 L 490.945312 436.46875 Z M 391.941406 337.460938 " clip-rule="nonzero"/></clipPath><clipPath id="id4"><path d="M 464 361 L 493 361 L 493 391 L 464 391 Z M 464 361 " clip-rule="nonzero"/></clipPath><clipPath id="id5"><path d="M 391.941406 337.460938 L 479.296875 250.105469 L 578.300781 349.109375 L 490.945312 436.46875 Z M 391.941406 337.460938 " clip-rule="nonzero"/></clipPath><clipPath id="id6"><path d="M 391.941406 337.460938 L 479.296875 250.105469 L 578.300781 349.109375 L 490.945312 436.46875 Z M 391.941406 337.460938 " clip-rule="nonzero"/></clipPath><clipPath id="id7"><path d="M 465 291 L 493 291 L 493 321 L 465 321 Z M 465 291 " clip-rule="nonzero"/></clipPath><clipPath id="id8"><path d="M 391.941406 337.460938 L 479.296875 250.105469 L 578.300781 349.109375 L 490.945312 436.46875 Z M 391.941406 337.460938 " clip-rule="nonzero"/></clipPath><clipPath id="id9"><path d="M 391.941406 337.460938 L 479.296875 250.105469 L 578.300781 349.109375 L 490.945312 436.46875 Z M 391.941406 337.460938 " clip-rule="nonzero"/></clipPath><clipPath id="id10"><path d="M 499 327 L 530 327 L 530 356 L 499 356 Z M 499 327 " clip-rule="nonzero"/></clipPath><clipPath id="id11"><path d="M 391.941406 337.460938 L 479.296875 250.105469 L 578.300781 349.109375 L 490.945312 436.46875 Z M 391.941406 337.460938 " clip-rule="nonzero"/></clipPath><clipPath id="id12"><path d="M 391.941406 337.460938 L 479.296875 250.105469 L 578.300781 349.109375 L 490.945312 436.46875 Z M 391.941406 337.460938 " clip-rule="nonzero"/></clipPath><clipPath id="id13"><path d="M 427 327 L 458 327 L 458 355 L 427 355 Z M 427 327 " clip-rule="nonzero"/></clipPath><clipPath id="id14"><path d="M 391.941406 337.460938 L 479.296875 250.105469 L 578.300781 349.109375 L 490.945312 436.46875 Z M 391.941406 337.460938 " clip-rule="nonzero"/></clipPath><clipPath id="id15"><path d="M 391.941406 337.460938 L 479.296875 250.105469 L 578.300781 349.109375 L 490.945312 436.46875 Z M 391.941406 337.460938 " clip-rule="nonzero"/></clipPath></defs><g fill="rgb(97.24884%, 74.119568%, 28.62854%)" fill-opacity="1"><g transform="translate(-4.703836, 387.45013)"><g><path d="M 66.3125 -83.609375 L 66.3125 -93.34375 C 61.75 -93.457031 57.394531 -92.882812 53.25 -91.625 C 49.101562 -90.363281 45.285156 -88.5 41.796875 -86.03125 C 38.316406 -83.570312 35.195312 -80.597656 32.4375 -77.109375 C 29.675781 -73.628906 27.394531 -69.847656 25.59375 -65.765625 L 25.59375 -91.890625 L 16.75 -91.890625 L 16.75 0 L 25.59375 0 L 25.59375 -37.65625 C 25.59375 -45.101562 26.671875 -51.679688 28.828125 -57.390625 C 30.992188 -63.097656 33.90625 -67.898438 37.5625 -71.796875 C 41.226562 -75.703125 45.460938 -78.644531 50.265625 -80.625 C 55.078125 -82.613281 60.125 -83.609375 65.40625 -83.609375 Z M 66.3125 -83.609375 "/></g></g></g><g fill="rgb(97.24884%, 74.119568%, 28.62854%)" fill-opacity="1"><g transform="translate(56.736093, 387.45013)"><g><path d="M 19.828125 -42.34375 L 96.046875 -42.34375 C 96.160156 -43.0625 96.21875 -43.601562 96.21875 -43.96875 C 96.21875 -44.445312 96.21875 -44.988281 96.21875 -45.59375 L 96.21875 -45.953125 C 96.21875 -52.796875 95.226562 -59.128906 93.25 -64.953125 C 91.269531 -70.785156 88.445312 -75.863281 84.78125 -80.1875 C 81.113281 -84.507812 76.695312 -87.898438 71.53125 -90.359375 C 66.363281 -92.828125 60.539062 -94.0625 54.0625 -94.0625 C 47.8125 -94.0625 42.039062 -92.796875 36.75 -90.265625 C 31.46875 -87.742188 26.875 -84.320312 22.96875 -80 C 19.070312 -75.675781 16.007812 -70.597656 13.78125 -64.765625 C 11.5625 -58.941406 10.453125 -52.726562 10.453125 -46.125 L 10.453125 -45.765625 C 10.453125 -38.554688 11.648438 -32.007812 14.046875 -26.125 C 16.453125 -20.238281 19.726562 -15.191406 23.875 -10.984375 C 28.019531 -6.785156 32.820312 -3.546875 38.28125 -1.265625 C 43.75 1.015625 49.488281 2.15625 55.5 2.15625 C 64.269531 2.15625 71.625 0.535156 77.5625 -2.703125 C 83.507812 -5.941406 88.828125 -10.085938 93.515625 -15.140625 L 87.390625 -20.546875 C 83.546875 -16.460938 79.128906 -13.035156 74.140625 -10.265625 C 69.160156 -7.503906 63.066406 -6.125 55.859375 -6.125 C 51.296875 -6.125 46.941406 -6.929688 42.796875 -8.546875 C 38.648438 -10.171875 34.953125 -12.546875 31.703125 -15.671875 C 28.460938 -18.796875 25.757812 -22.578125 23.59375 -27.015625 C 21.4375 -31.460938 20.179688 -36.570312 19.828125 -42.34375 Z M 19.828125 -50.265625 C 20.179688 -55.316406 21.316406 -60.035156 23.234375 -64.421875 C 25.160156 -68.804688 27.59375 -72.585938 30.53125 -75.765625 C 33.476562 -78.953125 36.929688 -81.445312 40.890625 -83.25 C 44.859375 -85.050781 49.128906 -85.953125 53.703125 -85.953125 C 58.984375 -85.953125 63.601562 -84.957031 67.5625 -82.96875 C 71.53125 -80.988281 74.863281 -78.347656 77.5625 -75.046875 C 80.269531 -71.742188 82.375 -67.957031 83.875 -63.6875 C 85.375 -59.425781 86.304688 -54.953125 86.671875 -50.265625 Z M 19.828125 -50.265625 "/></g></g></g><g fill="rgb(97.24884%, 74.119568%, 28.62854%)" fill-opacity="1"><g transform="translate(151.328806, 387.45013)"><g><path d="M 155.6875 0 L 155.6875 -55.671875 C 155.6875 -61.441406 154.875 -66.695312 153.25 -71.4375 C 151.625 -76.1875 149.28125 -80.210938 146.21875 -83.515625 C 143.15625 -86.816406 139.429688 -89.398438 135.046875 -91.265625 C 130.660156 -93.128906 125.765625 -94.0625 120.359375 -94.0625 C 116.035156 -94.0625 112.160156 -93.519531 108.734375 -92.4375 C 105.316406 -91.351562 102.253906 -89.878906 99.546875 -88.015625 C 96.847656 -86.160156 94.476562 -84.03125 92.4375 -81.625 C 90.394531 -79.21875 88.648438 -76.753906 87.203125 -74.234375 C 85.890625 -76.878906 84.300781 -79.398438 82.4375 -81.796875 C 80.570312 -84.203125 78.378906 -86.304688 75.859375 -88.109375 C 73.335938 -89.910156 70.425781 -91.351562 67.125 -92.4375 C 63.820312 -93.519531 60.1875 -94.0625 56.21875 -94.0625 C 52.132812 -94.0625 48.5 -93.550781 45.3125 -92.53125 C 42.132812 -91.507812 39.34375 -90.125 36.9375 -88.375 C 34.53125 -86.632812 32.394531 -84.65625 30.53125 -82.4375 C 28.675781 -80.21875 27.03125 -77.90625 25.59375 -75.5 L 25.59375 -91.890625 L 16.75 -91.890625 L 16.75 0 L 25.59375 0 L 25.59375 -52.96875 C 25.59375 -57.65625 26.34375 -61.976562 27.84375 -65.9375 C 29.34375 -69.90625 31.410156 -73.390625 34.046875 -76.390625 C 36.691406 -79.398438 39.816406 -81.742188 43.421875 -83.421875 C 47.023438 -85.109375 50.867188 -85.953125 54.953125 -85.953125 C 63.242188 -85.953125 69.789062 -83.21875 74.59375 -77.75 C 79.40625 -72.28125 81.8125 -64.742188 81.8125 -55.140625 L 81.8125 0 L 90.640625 0 L 90.640625 -53.515625 C 90.640625 -58.679688 91.414062 -63.273438 92.96875 -67.296875 C 94.53125 -71.328125 96.632812 -74.722656 99.28125 -77.484375 C 101.925781 -80.242188 105.019531 -82.34375 108.5625 -83.78125 C 112.101562 -85.226562 115.796875 -85.953125 119.640625 -85.953125 C 128.171875 -85.953125 134.835938 -83.21875 139.640625 -77.75 C 144.453125 -72.28125 146.859375 -64.5625 146.859375 -54.59375 L 146.859375 0 Z M 155.6875 0 "/></g></g></g><g fill="rgb(97.24884%, 74.119568%, 28.62854%)" fill-opacity="1"><g transform="translate(312.046923, 387.45013)"><g><path d="M 108.109375 -45.953125 L 108.109375 -46.3125 C 108.109375 -53.757812 106.816406 -60.453125 104.234375 -66.390625 C 101.648438 -72.335938 98.253906 -77.351562 94.046875 -81.4375 C 89.847656 -85.53125 85.078125 -88.65625 79.734375 -90.8125 C 74.390625 -92.976562 68.953125 -94.0625 63.421875 -94.0625 C 58.859375 -94.0625 54.6875 -93.429688 50.90625 -92.171875 C 47.125 -90.910156 43.695312 -89.253906 40.625 -87.203125 C 37.5625 -85.160156 34.769531 -82.757812 32.25 -80 C 29.726562 -77.238281 27.507812 -74.359375 25.59375 -71.359375 L 25.59375 -91.890625 L 16.75 -91.890625 L 16.75 28.828125 L 25.59375 28.828125 L 25.59375 -19.828125 C 27.507812 -16.941406 29.695312 -14.175781 32.15625 -11.53125 C 34.625 -8.882812 37.390625 -6.539062 40.453125 -4.5 C 43.515625 -2.457031 46.96875 -0.835938 50.8125 0.359375 C 54.65625 1.554688 58.859375 2.15625 63.421875 2.15625 C 68.953125 2.15625 74.390625 1.046875 79.734375 -1.171875 C 85.078125 -3.390625 89.847656 -6.570312 94.046875 -10.71875 C 98.253906 -14.863281 101.648438 -19.910156 104.234375 -25.859375 C 106.816406 -31.804688 108.109375 -38.503906 108.109375 -45.953125 Z M 98.5625 -45.59375 C 98.5625 -39.457031 97.628906 -33.957031 95.765625 -29.09375 C 93.910156 -24.226562 91.359375 -20.113281 88.109375 -16.75 C 84.867188 -13.394531 81.054688 -10.816406 76.671875 -9.015625 C 72.285156 -7.210938 67.570312 -6.3125 62.53125 -6.3125 C 57.71875 -6.3125 53.054688 -7.269531 48.546875 -9.1875 C 44.046875 -11.113281 40.054688 -13.785156 36.578125 -17.203125 C 33.097656 -20.628906 30.304688 -24.773438 28.203125 -29.640625 C 26.097656 -34.503906 25.046875 -39.878906 25.046875 -45.765625 L 25.046875 -46.125 C 25.046875 -52.007812 26.097656 -57.351562 28.203125 -62.15625 C 30.304688 -66.96875 33.097656 -71.113281 36.578125 -74.59375 C 40.054688 -78.082031 44.046875 -80.785156 48.546875 -82.703125 C 53.054688 -84.628906 57.71875 -85.59375 62.53125 -85.59375 C 67.332031 -85.59375 71.925781 -84.660156 76.3125 -82.796875 C 80.695312 -80.929688 84.539062 -78.285156 87.84375 -74.859375 C 91.144531 -71.441406 93.753906 -67.269531 95.671875 -62.34375 C 97.597656 -57.414062 98.5625 -51.953125 98.5625 -45.953125 Z M 98.5625 -45.59375 "/></g></g></g><g fill="rgb(97.24884%, 74.119568%, 28.62854%)" fill-opacity="1"><g transform="translate(420.333168, 387.45013)"><g><path d="M 104.875 -45.953125 L 104.875 -46.3125 C 104.875 -52.789062 103.703125 -58.914062 101.359375 -64.6875 C 99.015625 -70.457031 95.738281 -75.503906 91.53125 -79.828125 C 87.332031 -84.148438 82.378906 -87.601562 76.671875 -90.1875 C 70.960938 -92.769531 64.6875 -94.0625 57.84375 -94.0625 C 50.988281 -94.0625 44.675781 -92.769531 38.90625 -90.1875 C 33.144531 -87.601562 28.132812 -84.085938 23.875 -79.640625 C 19.613281 -75.191406 16.3125 -70.082031 13.96875 -64.3125 C 11.625 -58.550781 10.453125 -52.429688 10.453125 -45.953125 L 10.453125 -45.59375 C 10.453125 -39.101562 11.625 -32.972656 13.96875 -27.203125 C 16.3125 -21.441406 19.582031 -16.394531 23.78125 -12.0625 C 27.988281 -7.738281 32.941406 -4.285156 38.640625 -1.703125 C 44.347656 0.867188 50.628906 2.15625 57.484375 2.15625 C 64.328125 2.15625 70.628906 0.867188 76.390625 -1.703125 C 82.160156 -4.285156 87.175781 -7.800781 91.4375 -12.25 C 95.707031 -16.695312 99.015625 -21.800781 101.359375 -27.5625 C 103.703125 -33.332031 104.875 -39.460938 104.875 -45.953125 Z M 95.3125 -45.59375 C 95.3125 -40.1875 94.378906 -35.078125 92.515625 -30.265625 C 90.660156 -25.460938 88.082031 -21.289062 84.78125 -17.75 C 81.476562 -14.207031 77.515625 -11.382812 72.890625 -9.28125 C 68.265625 -7.175781 63.25 -6.125 57.84375 -6.125 C 52.550781 -6.125 47.59375 -7.144531 42.96875 -9.1875 C 38.34375 -11.226562 34.316406 -14.050781 30.890625 -17.65625 C 27.472656 -21.257812 24.800781 -25.492188 22.875 -30.359375 C 20.957031 -35.222656 20 -40.421875 20 -45.953125 L 20 -46.3125 C 20 -51.71875 20.929688 -56.820312 22.796875 -61.625 C 24.660156 -66.425781 27.242188 -70.597656 30.546875 -74.140625 C 33.847656 -77.691406 37.8125 -80.515625 42.4375 -82.609375 C 47.0625 -84.710938 52.078125 -85.765625 57.484375 -85.765625 C 62.765625 -85.765625 67.71875 -84.742188 72.34375 -82.703125 C 76.96875 -80.660156 80.988281 -77.835938 84.40625 -74.234375 C 87.832031 -70.628906 90.503906 -66.394531 92.421875 -61.53125 C 94.347656 -56.664062 95.3125 -51.472656 95.3125 -45.953125 Z M 95.3125 -45.59375 "/></g></g></g><g fill="rgb(97.24884%, 74.119568%, 28.62854%)" fill-opacity="1"><g transform="translate(525.015846, 387.45013)"><g><path d="M 66.3125 -83.609375 L 66.3125 -93.34375 C 61.75 -93.457031 57.394531 -92.882812 53.25 -91.625 C 49.101562 -90.363281 45.285156 -88.5 41.796875 -86.03125 C 38.316406 -83.570312 35.195312 -80.597656 32.4375 -77.109375 C 29.675781 -73.628906 27.394531 -69.847656 25.59375 -65.765625 L 25.59375 -91.890625 L 16.75 -91.890625 L 16.75 0 L 25.59375 0 L 25.59375 -37.65625 C 25.59375 -45.101562 26.671875 -51.679688 28.828125 -57.390625 C 30.992188 -63.097656 33.90625 -67.898438 37.5625 -71.796875 C 41.226562 -75.703125 45.460938 -78.644531 50.265625 -80.625 C 55.078125 -82.613281 60.125 -83.609375 65.40625 -83.609375 Z M 66.3125 -83.609375 "/></g></g></g><g fill="rgb(97.24884%, 74.119568%, 28.62854%)" fill-opacity="1"><g transform="translate(586.455768, 387.45013)"><g><path d="M 62.34375 -1.625 L 62.34375 -9.90625 C 59.695312 -8.707031 57.351562 -7.867188 55.3125 -7.390625 C 53.269531 -6.910156 51.109375 -6.671875 48.828125 -6.671875 C 43.421875 -6.671875 39.003906 -7.988281 35.578125 -10.625 C 32.160156 -13.269531 30.453125 -17.894531 30.453125 -24.5 L 30.453125 -83.78125 L 62.703125 -83.78125 L 62.703125 -91.890625 L 30.453125 -91.890625 L 30.453125 -121.265625 L 21.625 -121.265625 L 21.625 -91.890625 L 8.28125 -91.890625 L 8.28125 -83.78125 L 21.625 -83.78125 L 21.625 -23.609375 C 21.625 -19.285156 22.285156 -15.53125 23.609375 -12.34375 C 24.929688 -9.15625 26.757812 -6.507812 29.09375 -4.40625 C 31.4375 -2.3125 34.171875 -0.785156 37.296875 0.171875 C 40.421875 1.140625 43.785156 1.625 47.390625 1.625 C 50.273438 1.625 52.882812 1.351562 55.21875 0.8125 C 57.5625 0.269531 59.9375 -0.539062 62.34375 -1.625 Z M 62.34375 -1.625 "/></g></g></g><g clip-path="url(#id1)"><g clip-path="url(#id2)"><g clip-path="url(#id3)"><path fill="rgb(90.19928%, 83.139038%, 70.199585%)" d="M 529.234375 328.171875 C 529.234375 328.171875 522.914062 293.742188 477.921875 291.667969 C 477.921875 291.667969 438.316406 291.105469 428.898438 328.050781 C 419.484375 364.996094 448.992188 389.976562 477.949219 390.011719 C 477.949219 390.011719 537.332031 390.066406 529.234375 328.171875 Z M 478.253906 365.164062 C 463.929688 365.148438 449.332031 352.789062 453.992188 334.511719 C 458.648438 316.238281 478.242188 316.515625 478.242188 316.515625 C 500.5 317.539062 503.625 334.574219 503.625 334.574219 C 507.632812 365.191406 478.253906 365.164062 478.253906 365.164062 Z M 478.253906 365.164062 " fill-opacity="1" fill-rule="nonzero"/></g></g></g><g clip-path="url(#id4)"><g clip-path="url(#id5)"><g clip-path="url(#id6)"><path fill="rgb(97.24884%, 74.119568%, 28.62854%)" d="M 492.140625 387.96875 C 492.320312 381.1875 492.480469 371.722656 492.597656 361.261719 C 485.710938 365.167969 478.253906 365.164062 478.253906 365.164062 C 473.640625 365.160156 469.003906 363.871094 464.988281 361.523438 C 464.941406 372.347656 465.007812 382.011719 465.261719 388.414062 C 469.417969 389.457031 473.691406 390.007812 477.949219 390.011719 C 477.949219 390.011719 484.085938 390.015625 492.140625 387.96875 Z M 492.140625 387.96875 " fill-opacity="1" fill-rule="nonzero"/></g></g></g><g clip-path="url(#id7)"><g clip-path="url(#id8)"><g clip-path="url(#id9)"><path fill="rgb(97.24884%, 74.119568%, 28.62854%)" d="M 466.0625 293.160156 C 465.941406 298.1875 465.71875 308.042969 465.503906 319.75 C 471.851562 316.425781 478.242188 316.515625 478.242188 316.515625 C 484.445312 316.800781 489.160156 318.332031 492.738281 320.386719 C 492.683594 309.523438 492.527344 299.9375 492.242188 293.636719 C 487.96875 292.609375 483.214844 291.910156 477.921875 291.667969 C 477.921875 291.667969 472.925781 291.597656 466.0625 293.160156 Z M 466.0625 293.160156 " fill-opacity="1" fill-rule="nonzero"/></g></g></g><g clip-path="url(#id10)"><g clip-path="url(#id11)"><g clip-path="url(#id12)"><path fill="rgb(97.24884%, 74.119568%, 28.62854%)" d="M 503.625 334.574219 C 504.871094 344.085938 502.890625 350.640625 499.574219 355.15625 C 511.449219 355.222656 521.886719 355.148438 528.09375 354.828125 C 530.03125 347.550781 530.625 338.769531 529.234375 328.171875 C 529.234375 328.171875 529.234375 328.160156 529.230469 328.152344 C 522.757812 327.929688 512.335938 327.71875 500.496094 327.566406 C 503.027344 331.316406 503.625 334.574219 503.625 334.574219 Z M 503.625 334.574219 " fill-opacity="1" fill-rule="nonzero"/></g></g></g><g clip-path="url(#id13)"><g clip-path="url(#id14)"><g clip-path="url(#id15)"><path fill="rgb(97.24884%, 74.119568%, 28.62854%)" d="M 457.304688 354.574219 C 453.601562 349.378906 451.953125 342.515625 453.992188 334.511719 C 454.707031 331.710938 455.773438 329.34375 457.066406 327.347656 C 445.167969 327.398438 434.894531 327.570312 428.9375 327.914062 C 428.925781 327.960938 428.910156 328.003906 428.898438 328.050781 C 426.480469 337.539062 426.636719 346.234375 428.683594 353.925781 C 432.550781 354.023438 443.664062 354.304688 457.304688 354.574219 Z M 457.304688 354.574219 " fill-opacity="1" fill-rule="nonzero"/></g></g></g><g fill="rgb(97.24884%, 74.119568%, 28.62854%)" fill-opacity="1"><g transform="translate(661.757704, 276.909163)"><g><path d="M 3.34375 0 L 2.75 0 L 2.75 -7.765625 L 0.0625 -7.765625 L 0.0625 -8.3125 L 6.046875 -8.3125 L 6.046875 -7.765625 L 3.34375 -7.765625 Z M 3.34375 0 "/></g></g><g transform="translate(667.854408, 276.909163)"><g><path d="M 4.828125 0 L 1.734375 -7.671875 L 1.6875 -7.671875 C 1.71875 -7.203125 1.734375 -6.722656 1.734375 -6.234375 L 1.734375 0 L 1.171875 0 L 1.171875 -8.3125 L 2.078125 -8.3125 L 5.015625 -1 L 5.046875 -1 L 8 -8.3125 L 8.875 -8.3125 L 8.875 0 L 8.28125 0 L 8.28125 -6.296875 C 8.28125 -6.734375 8.304688 -7.1875 8.359375 -7.65625 L 8.3125 -7.65625 L 5.203125 0 Z M 4.828125 0 "/></g></g></g></svg>