<svg xmlns="http://www.w3.org/2000/svg" xmlns:xlink="http://www.w3.org/1999/xlink" width="940" zoomAndPan="magnify" viewBox="0 -70 705 591.000005" height="788" preserveAspectRatio="xMidYMid meet" version="1.0"><defs><g/><clipPath id="id1"><path d="M 48.832031 226.734375 L 93.757812 226.734375 L 93.757812 316.582031 L 48.832031 316.582031 Z M 48.832031 226.734375 " clip-rule="nonzero"/></clipPath><clipPath id="id2"><path d="M 4.789062 200.085938 L 49.714844 200.085938 L 49.714844 289.933594 L 4.789062 289.933594 Z M 4.789062 200.085938 " clip-rule="nonzero"/></clipPath><clipPath id="id3"><path d="M 39.84375 249.3125 L 59.3125 249.3125 L 59.3125 268.78125 L 39.84375 268.78125 Z M 39.84375 249.3125 " clip-rule="nonzero"/></clipPath></defs><g clip-path="url(#id1)"><path fill="rgb(27.839661%, 33.729553%, 54.899597%)" d="M 48.832031 226.773438 C 73.648438 226.773438 93.757812 246.882812 93.757812 271.699219 C 93.757812 296.511719 73.648438 316.546875 48.832031 316.546875 Z M 48.832031 226.773438 " fill-opacity="1" fill-rule="nonzero"/></g><g clip-path="url(#id2)"><path fill="rgb(60.389709%, 76.469421%, 95.689392%)" d="M 49.714844 289.894531 C 24.898438 289.894531 4.789062 269.785156 4.789062 244.96875 C 4.789062 220.15625 24.898438 200.121094 49.714844 200.121094 Z M 49.714844 289.894531 " fill-opacity="1" fill-rule="nonzero"/></g><g clip-path="url(#id3)"><path fill="rgb(97.648621%, 99.609375%, 99.21875%)" d="M 59.3125 259.046875 C 59.3125 259.6875 59.25 260.320312 59.125 260.945312 C 59 261.574219 58.8125 262.183594 58.570312 262.773438 C 58.324219 263.363281 58.023438 263.925781 57.671875 264.457031 C 57.316406 264.988281 56.910156 265.476562 56.460938 265.929688 C 56.007812 266.382812 55.515625 266.785156 54.984375 267.140625 C 54.453125 267.496094 53.890625 267.796875 53.300781 268.039062 C 52.710938 268.285156 52.101562 268.46875 51.476562 268.59375 C 50.847656 268.71875 50.214844 268.78125 49.578125 268.78125 C 48.9375 268.78125 48.304688 268.71875 47.679688 268.59375 C 47.050781 268.46875 46.441406 268.285156 45.851562 268.039062 C 45.261719 267.796875 44.699219 267.496094 44.167969 267.140625 C 43.636719 266.785156 43.144531 266.382812 42.695312 265.929688 C 42.242188 265.476562 41.839844 264.988281 41.484375 264.457031 C 41.128906 263.925781 40.828125 263.363281 40.585938 262.773438 C 40.339844 262.183594 40.15625 261.574219 40.03125 260.945312 C 39.90625 260.320312 39.84375 259.6875 39.84375 259.046875 C 39.84375 258.410156 39.90625 257.777344 40.03125 257.148438 C 40.15625 256.523438 40.339844 255.914062 40.585938 255.324219 C 40.828125 254.730469 41.128906 254.171875 41.484375 253.640625 C 41.839844 253.109375 42.242188 252.617188 42.695312 252.164062 C 43.144531 251.714844 43.636719 251.308594 44.167969 250.953125 C 44.699219 250.597656 45.261719 250.300781 45.851562 250.054688 C 46.441406 249.808594 47.050781 249.625 47.679688 249.5 C 48.304688 249.375 48.9375 249.3125 49.578125 249.3125 C 50.214844 249.3125 50.847656 249.375 51.476562 249.5 C 52.101562 249.625 52.710938 249.808594 53.300781 250.054688 C 53.890625 250.300781 54.453125 250.597656 54.984375 250.953125 C 55.515625 251.308594 56.007812 251.714844 56.460938 252.164062 C 56.910156 252.617188 57.316406 253.109375 57.671875 253.640625 C 58.023438 254.171875 58.324219 254.730469 58.570312 255.324219 C 58.8125 255.914062 59 256.523438 59.125 257.148438 C 59.25 257.777344 59.3125 258.410156 59.3125 259.046875 Z M 59.3125 259.046875 " fill-opacity="1" fill-rule="nonzero"/></g><g fill="rgb(23.139954%, 34.899902%, 59.609985%)" fill-opacity="1"><g transform="translate(108.529537, 305.005972)"><g><path d="M 7.953125 0 L 37.582031 0 L 37.582031 -26.199219 C 37.582031 -45.691406 46.3125 -54.578125 61.75 -54.578125 L 64.246094 -54.578125 L 64.246094 -85.765625 C 50.210938 -86.390625 42.414062 -78.902344 37.582031 -67.363281 L 37.582031 -84.363281 L 7.953125 -84.363281 Z M 7.953125 0 "/></g></g></g><g fill="rgb(23.139954%, 34.899902%, 59.609985%)" fill-opacity="1"><g transform="translate(166.06912, 305.005972)"><g><path d="M 49.742188 2.027344 C 66.585938 2.027344 78.28125 -4.835938 86.390625 -15.125 L 70.015625 -28.691406 C 63.933594 -22.765625 58.320312 -20.117188 51.304688 -20.117188 C 42.101562 -20.117188 35.398438 -24.792969 33.058594 -33.996094 L 89.507812 -33.996094 C 89.664062 -36.023438 89.664062 -38.203125 89.664062 -40.074219 C 89.664062 -64.871094 76.253906 -86.234375 47.09375 -86.234375 C 22.144531 -86.234375 4.523438 -66.742188 4.523438 -42.101562 L 4.523438 -41.792969 C 4.523438 -15.59375 23.234375 2.027344 49.742188 2.027344 Z M 32.589844 -49.121094 C 34.148438 -58.320312 39.453125 -64.402344 47.25 -64.402344 C 55.359375 -64.402344 60.816406 -58.476562 61.90625 -49.121094 Z M 32.589844 -49.121094 "/></g></g></g><g fill="rgb(23.139954%, 34.899902%, 59.609985%)" fill-opacity="1"><g transform="translate(251.209619, 305.005972)"><g><path d="M 7.953125 0 L 37.582031 0 L 37.582031 -45.84375 C 37.582031 -55.046875 42.570312 -59.878906 49.589844 -59.878906 C 56.605469 -59.878906 61.128906 -55.046875 61.128906 -45.84375 L 61.128906 0 L 90.753906 0 L 90.753906 -45.84375 C 90.753906 -55.046875 95.902344 -59.878906 102.917969 -59.878906 C 109.9375 -59.878906 114.457031 -55.046875 114.457031 -45.84375 L 114.457031 0 L 144.085938 0 L 144.085938 -55.359375 C 144.085938 -75.003906 133.171875 -86.234375 115.238281 -86.234375 C 102.917969 -86.234375 94.34375 -80.929688 87.011719 -72.511719 C 82.492188 -81.242188 73.914062 -86.234375 62.6875 -86.234375 C 50.835938 -86.234375 43.039062 -79.839844 37.582031 -72.824219 L 37.582031 -84.363281 L 7.953125 -84.363281 Z M 7.953125 0 "/></g></g></g><g fill="rgb(23.139954%, 34.899902%, 59.609985%)" fill-opacity="1"><g transform="translate(393.423251, 305.005972)"><g><path d="M 7.953125 24.949219 L 37.582031 24.949219 L 37.582031 -10.292969 C 43.039062 -3.898438 50.523438 1.871094 63.308594 1.871094 C 83.269531 1.871094 100.578125 -14.8125 100.578125 -42.257812 L 100.578125 -42.570312 C 100.578125 -69.546875 83.269531 -86.234375 63.15625 -86.234375 C 50.523438 -86.234375 43.351562 -80.152344 37.582031 -73.132812 L 37.582031 -84.363281 L 7.953125 -84.363281 Z M 54.109375 -22.921875 C 44.597656 -22.921875 36.957031 -30.875 36.957031 -42.101562 L 36.957031 -42.414062 C 36.957031 -53.488281 44.597656 -61.4375 54.109375 -61.4375 C 63.777344 -61.4375 71.417969 -53.488281 71.417969 -42.414062 L 71.417969 -42.101562 C 71.417969 -30.71875 63.777344 -22.921875 54.109375 -22.921875 Z M 54.109375 -22.921875 "/></g></g></g><g fill="rgb(23.139954%, 34.899902%, 59.609985%)" fill-opacity="1"><g transform="translate(489.635361, 305.005972)"><g><path d="M 50.992188 2.027344 C 78.125 2.027344 97.773438 -18.089844 97.773438 -42.101562 L 97.773438 -42.414062 C 97.773438 -66.429688 78.28125 -86.234375 51.304688 -86.234375 C 24.171875 -86.234375 4.523438 -66.117188 4.523438 -42.101562 L 4.523438 -41.792969 C 4.523438 -17.777344 24.015625 2.027344 50.992188 2.027344 Z M 51.304688 -23.078125 C 40.855469 -23.078125 33.371094 -31.8125 33.371094 -42.101562 L 33.371094 -42.414062 C 33.371094 -52.550781 40.230469 -61.128906 50.992188 -61.128906 C 61.4375 -61.128906 68.925781 -52.394531 68.925781 -42.101562 L 68.925781 -41.792969 C 68.925781 -31.65625 62.0625 -23.078125 51.304688 -23.078125 Z M 51.304688 -23.078125 "/></g></g></g><g fill="rgb(23.139954%, 34.899902%, 59.609985%)" fill-opacity="1"><g transform="translate(582.728656, 305.005972)"><g><path d="M 7.953125 0 L 37.582031 0 L 37.582031 -26.199219 C 37.582031 -45.691406 46.3125 -54.578125 61.75 -54.578125 L 64.246094 -54.578125 L 64.246094 -85.765625 C 50.210938 -86.390625 42.414062 -78.902344 37.582031 -67.363281 L 37.582031 -84.363281 L 7.953125 -84.363281 Z M 7.953125 0 "/></g></g></g><g fill="rgb(23.139954%, 34.899902%, 59.609985%)" fill-opacity="1"><g transform="translate(640.268223, 305.005972)"><g><path d="M 41.480469 1.714844 C 49.742188 1.714844 56.761719 -0.15625 62.0625 -3.117188 L 62.0625 -26.351562 C 58.476562 -24.636719 54.734375 -23.546875 50.835938 -23.546875 C 45.378906 -23.546875 42.726562 -26.042969 42.726562 -31.96875 L 42.726562 -60.503906 L 62.375 -60.503906 L 62.375 -84.363281 L 42.726562 -84.363281 L 42.726562 -105.726562 L 13.097656 -105.726562 L 13.097656 -84.363281 L 3.117188 -84.363281 L 3.117188 -60.503906 L 13.097656 -60.503906 L 13.097656 -26.199219 C 13.097656 -6.082031 23.703125 1.714844 41.480469 1.714844 Z M 41.480469 1.714844 "/></g></g></g></svg>